<svg width="82" height="82" viewBox="0 0 82 82" fill="none" xmlns="http://www.w3.org/2000/svg">
<g filter="url(#filter0_d_22_10060)">
<path d="M17.3794 54.7103C12.2094 62.3103 9.97938 68.1903 12.0294 70.2403C14.0794 72.2903 19.9694 70.0603 27.5594 64.8903C33.5694 60.8103 40.6494 54.8803 47.7494 47.7803C54.8494 40.6803 60.7794 33.6003 64.8594 27.5903C70.0294 19.9903 72.2494 14.1003 70.2094 12.0603C68.1694 10.0203 62.2694 12.2403 54.6794 17.4103" stroke="#00FFFF" stroke-width="2" stroke-miterlimit="10"/>
<path d="M41.1198 68.51C26.0398 68.51 13.7598 56.24 13.7598 41.15C13.7598 26.06 26.0298 13.79 41.1198 13.79C56.2098 13.79 68.4698 26.06 68.4698 41.15C68.4698 56.24 56.1998 68.51 41.1198 68.51Z" stroke="#00FFFF" stroke-width="2" stroke-miterlimit="10"/>
</g>
<defs>
<filter id="filter0_d_22_10060" x="0.273438" y="0.308594" width="81.6875" height="81.6875" filterUnits="userSpaceOnUse" color-interpolation-filters="sRGB">
<feFlood flood-opacity="0" result="BackgroundImageFix"/>
<feColorMatrix in="SourceAlpha" type="matrix" values="0 0 0 0 0 0 0 0 0 0 0 0 0 0 0 0 0 0 127 0" result="hardAlpha"/>
<feOffset/>
<feGaussianBlur stdDeviation="5"/>
<feColorMatrix type="matrix" values="0 0 0 0 0 0 0 0 0 0.8 0 0 0 0 1 0 0 0 0.75 0"/>
<feBlend mode="normal" in2="BackgroundImageFix" result="effect1_dropShadow_22_10060"/>
<feBlend mode="normal" in="SourceGraphic" in2="effect1_dropShadow_22_10060" result="shape"/>
</filter>
</defs>
</svg>
