<svg width="63" height="63" viewBox="0 0 63 63" fill="none" xmlns="http://www.w3.org/2000/svg">
<g opacity="1">
<path d="M32.32 46.3597C40.781 46.3597 47.64 39.5007 47.64 31.0397C47.64 22.5787 40.781 15.7197 32.32 15.7197C23.859 15.7197 17 22.5787 17 31.0397C17 39.5007 23.859 46.3597 32.32 46.3597Z" stroke="#00FFFF" stroke-width="2" stroke-miterlimit="10"/>
<path d="M39.3913 44.64C33.3713 47.78 25.9613 47.99 19.5113 44.57C3.29127 35.96 1.57127 10.74 24.1613 1" stroke="#00FFFF" stroke-width="2" stroke-miterlimit="10"/>
<path d="M47.4405 28.5195C48.5605 35.2195 46.4805 42.3295 41.2305 47.4095C28.0305 60.1695 3.52047 54.0195 1.23047 29.5195" stroke="#00FFFF" stroke-width="2" stroke-miterlimit="10"/>
<path d="M34.5998 15.8896C41.3098 16.8896 47.4398 21.0696 50.6398 27.6396C58.6998 44.1396 45.2698 65.5496 21.2598 60.1596" stroke="#00FFFF" stroke-width="2" stroke-miterlimit="10"/>
<path d="M18.6113 24.1996C21.6413 18.1196 27.5113 13.5896 34.7413 12.5696C52.9213 9.99964 69.1413 29.3896 56.5913 50.5596" stroke="#00FFFF" stroke-width="2" stroke-miterlimit="10"/>
<path d="M21.5697 41.97C16.7297 37.21 14.2297 30.23 15.4897 23.04C18.6697 4.95999 42.1197 -4.48001 58.3697 14" stroke="#00FFFF" stroke-width="2" stroke-miterlimit="10"/>
</g>
</svg>
