<svg width="410" height="180" viewBox="0 0 410 180" fill="none" xmlns="http://www.w3.org/2000/svg">
<g filter="url(#filter0_b_330_2)">
<path d="M38.2843 147.5H371.716C374.67 147.5 377.596 148.082 380.326 149.213C383.056 150.344 385.536 152.001 387.626 154.09L396.464 162.929C396.933 163.398 397.569 163.661 398.232 163.661C398.895 163.661 399.531 163.398 400 162.929L400.607 162.322C402 160.93 403.104 159.276 403.858 157.456C404.612 155.636 405 153.686 405 151.716V28.2843C405 24.3061 403.42 20.4907 400.607 17.6777L400 17.0711C399.531 16.6023 398.895 16.3389 398.232 16.3389C397.569 16.3389 396.933 16.6023 396.464 17.0711L377.626 35.91C373.406 40.1296 367.683 42.5 361.716 42.5H48.2842C42.3169 42.5 36.5939 40.1295 32.3743 35.91L13.5355 17.0711C13.3034 16.839 13.0278 16.6548 12.7245 16.5292C12.4211 16.4036 12.0961 16.3389 11.7678 16.3389C11.4395 16.3389 11.1144 16.4036 10.8111 16.5292C10.5077 16.6548 10.2321 16.839 9.99999 17.0711L9.39338 17.6778C6.58036 20.4908 5.00003 24.3061 5 28.2843V151.716C5 153.686 5.38796 155.636 6.14179 157.456C6.89561 159.276 8.0005 160.93 9.39338 162.322L9.99999 162.929C10.2321 163.161 10.5077 163.345 10.8111 163.471C11.1144 163.596 11.4395 163.661 11.7678 163.661C12.0961 163.661 12.4211 163.596 12.7245 163.471C13.0278 163.345 13.3034 163.161 13.5355 162.929L22.3743 154.09C24.4637 152.001 26.944 150.344 29.6739 149.213C32.4037 148.082 35.3295 147.5 38.2843 147.5Z" fill="#D9D9D9" fill-opacity="0.01"/>
<path d="M13.182 17.4247L13.5227 17.0839L13.182 17.4247L32.0208 36.2635C36.3341 40.5769 42.1843 43 48.2842 43H361.716C367.816 43 373.666 40.5769 377.979 36.2635L396.818 17.4247L396.464 17.0711L396.818 17.4247C397.193 17.0496 397.702 16.8389 398.232 16.8389C398.763 16.8389 399.271 17.0496 399.646 17.4247L400.253 18.0312C402.972 20.7505 404.5 24.4387 404.5 28.2843V151.716C404.5 153.62 404.125 155.505 403.396 157.265C402.668 159.024 401.6 160.622 400.253 161.969L399.646 162.575C399.271 162.95 398.763 163.161 398.232 163.161C397.702 163.161 397.193 162.95 396.818 162.575L387.979 153.737C385.843 151.601 383.308 149.907 380.517 148.751C377.727 147.595 374.736 147 371.716 147H38.2843C35.2638 147 32.273 147.595 29.4825 148.751C26.692 149.907 24.1565 151.601 22.0208 153.737L13.182 162.575L13.5355 162.929L13.182 162.575C12.9963 162.761 12.7758 162.908 12.5331 163.009C12.2904 163.109 12.0304 163.161 11.7678 163.161C11.5051 163.161 11.2451 163.109 11.0024 163.009C10.7597 162.908 10.5392 162.761 10.3535 162.575L9.99999 162.929L10.3535 162.575L9.74694 161.969C8.40049 160.622 7.33242 159.024 6.60373 157.265C5.87503 155.505 5.5 153.62 5.5 151.716V28.2843C5.50003 24.4387 7.02769 20.7506 9.74694 18.0314L9.74696 18.0313L10.3535 17.4247C10.3536 17.4247 10.3536 17.4246 10.3536 17.4246C10.5393 17.239 10.7597 17.0917 11.0024 16.9911L10.8133 16.5346L11.0024 16.9911C11.2451 16.8906 11.5052 16.8389 11.7678 16.8389C12.0304 16.8389 12.2904 16.8906 12.5331 16.9911C12.7758 17.0917 12.9963 17.239 13.182 17.4247Z" stroke="url(#paint0_linear_330_2)" stroke-opacity="0.5" stroke-linecap="round" stroke-linejoin="round"/>
</g>
<path fill-rule="evenodd" clip-rule="evenodd" d="M381.716 0.000122071C387.021 9.84722e-05 392.108 2.10723 395.858 5.85793L404.143 14.1422C406 15.9993 407.473 18.2042 408.478 20.6307C409.483 23.0572 410.001 25.6579 410.001 28.2843V151.716C410.001 154.342 409.483 156.943 408.478 159.37C407.473 161.796 406 164.001 404.143 165.858L395.858 174.142C394.001 175.999 391.796 177.473 389.37 178.478C386.943 179.483 384.343 180 381.716 180H28.2848C25.6583 180 23.0576 179.483 20.6311 178.478C18.2046 177.473 15.9998 175.999 14.1426 174.142L5.85835 165.858C4.00118 164.001 2.52799 161.796 1.5229 159.369C0.517805 156.943 0.000488281 154.342 0.000488281 151.716V28.2843C0.000524093 22.98 2.10766 17.893 5.85835 14.1423L14.1426 5.85793C17.8934 2.10723 22.9805 9.3306e-05 28.2848 0.000122071H381.716ZM371.716 150H38.2846C32.9803 150 27.8932 152.107 24.1425 155.858L15.3037 164.697C14.8394 165.161 14.2882 165.529 13.6816 165.781C13.0749 166.032 12.4248 166.161 11.7682 166.161C11.1116 166.161 10.4614 166.032 9.85472 165.781C9.24809 165.529 8.6969 165.161 8.2326 164.697L7.62599 164.09C4.34411 160.808 2.50037 156.357 2.50037 151.716V28.2842C2.50036 25.986 2.95301 23.7105 3.83246 21.5873C4.71192 19.4641 6.00096 17.5348 7.62599 15.9098L8.2326 15.3032C8.69689 14.8389 9.24809 14.4707 9.85472 14.2194C10.4614 13.9682 11.1115 13.8389 11.7681 13.8389C12.4247 13.8389 13.0749 13.9682 13.6816 14.2194C14.2882 14.4707 14.8394 14.839 15.3037 15.3033L34.1425 34.1421C37.8932 37.8928 42.9803 39.9999 48.2846 39.9999H361.716C364.342 39.9999 366.943 39.4825 369.37 38.4774C371.796 37.4723 374.001 35.9992 375.858 34.142L394.697 15.3032C395.161 14.8389 395.713 14.4707 396.319 14.2194C396.926 13.9682 397.576 13.8389 398.233 13.8389C398.889 13.8389 399.539 13.9682 400.146 14.2194C400.753 14.4707 401.304 14.839 401.768 15.3033L402.375 15.9098C404 17.5348 405.289 19.4641 406.168 21.5873C407.048 23.7105 407.5 25.986 407.5 28.2842V151.716C407.5 156.357 405.657 160.808 402.375 164.09L401.768 164.697C401.304 165.161 400.753 165.529 400.146 165.781C399.539 166.032 398.889 166.161 398.233 166.161C397.576 166.161 396.926 166.032 396.319 165.781C395.713 165.529 395.161 165.161 394.697 164.697L385.858 155.858C382.107 152.107 377.02 150 371.716 150Z" fill="url(#paint1_linear_330_2)"/>
<defs>
<filter id="filter0_b_330_2" x="-25" y="-13.6611" width="460" height="207.322" filterUnits="userSpaceOnUse" color-interpolation-filters="sRGB">
<feFlood flood-opacity="0" result="BackgroundImageFix"/>
<feGaussianBlur in="BackgroundImageFix" stdDeviation="15"/>
<feComposite in2="SourceAlpha" operator="in" result="effect1_backgroundBlur_330_2"/>
<feBlend mode="normal" in="SourceGraphic" in2="effect1_backgroundBlur_330_2" result="shape"/>
</filter>
<linearGradient id="paint0_linear_330_2" x1="205" y1="16.3389" x2="205" y2="163.661" gradientUnits="userSpaceOnUse">
<stop stop-color="#22E1FF"/>
<stop offset="0.48" stop-color="#1D8FE1"/>
<stop offset="1" stop-color="#625EB1"/>
</linearGradient>
<linearGradient id="paint1_linear_330_2" x1="205.001" y1="0.00012207" x2="205.001" y2="180" gradientUnits="userSpaceOnUse">
<stop stop-color="#22E1FF"/>
<stop offset="0.48" stop-color="#1D8FE1"/>
<stop offset="1" stop-color="#625EB1"/>
</linearGradient>
</defs>
</svg>
    