<svg width="12" height="12" viewBox="0 0 12 12" fill="none" xmlns="http://www.w3.org/2000/svg">
<path d="M7.29901 1.49996C7.16736 1.27192 6.97801 1.08258 6.74998 0.950923C6.52195 0.819268 6.26328 0.75 5.99997 0.75C5.73666 0.75 5.47798 0.819268 5.24995 0.950923C5.02192 1.08258 4.83257 1.27192 4.70092 1.49996L0.370845 8.99998C0.239206 9.22801 0.169918 9.48664 0.169922 9.74994C0.169926 10.0132 0.239199 10.2719 0.370845 10.4999C0.502491 10.7279 0.69186 10.9173 0.919877 11.0489C1.14789 11.1806 1.40654 11.25 1.66983 11.25H10.3301C10.5934 11.25 10.852 11.1807 11.0801 11.049C11.3081 10.9174 11.4974 10.728 11.6291 10.5C11.7607 10.272 11.8301 10.0132 11.8301 9.74994C11.8301 9.48664 11.7608 9.22801 11.6292 8.99998L7.29901 1.49996Z" fill="white"/>
</svg>

    
