<svg width="64" height="64" viewBox="0 0 64 64" fill="none" xmlns="http://www.w3.org/2000/svg">
<g opacity="1">
<path d="M31.9395 62.2998C48.508 62.2998 61.9395 48.8683 61.9395 32.2998C61.9395 15.7313 48.508 2.2998 31.9395 2.2998C15.3709 2.2998 1.93945 15.7313 1.93945 32.2998C1.93945 48.8683 15.3709 62.2998 31.9395 62.2998Z" stroke="#00FFFF" stroke-width="3" stroke-miterlimit="10"/>
<path d="M39.75 61.2601L60.9 40.1201" stroke="#00FFFF" stroke-miterlimit="10"/>
<path d="M23.0801 60.9595L60.6001 23.4395" stroke="#00FFFF" stroke-miterlimit="10"/>
<path d="M27.6992 61.9996L61.6392 28.0596" stroke="#00FFFF" stroke-miterlimit="10"/>
<path d="M33.0801 62.2702L61.9101 33.4502" stroke="#00FFFF" stroke-miterlimit="10"/>
<path d="M12.1895 54.8798L54.5195 12.5498" stroke="#00FFFF" stroke-miterlimit="10"/>
<path d="M15.3887 57.3398L56.9687 15.7598" stroke="#00FFFF" stroke-miterlimit="10"/>
<path d="M19.0098 59.3699L59.0098 19.3799" stroke="#00FFFF" stroke-miterlimit="10"/>
<path d="M4.86914 45.2302L44.8691 5.24023" stroke="#00FFFF" stroke-miterlimit="10"/>
<path d="M6.91016 48.8495L48.4902 7.26953" stroke="#00FFFF" stroke-miterlimit="10"/>
<path d="M9.35938 52.0495L51.6894 9.72949" stroke="#00FFFF" stroke-miterlimit="10"/>
<path d="M1.96875 31.1598L30.7887 2.33984" stroke="#00FFFF" stroke-miterlimit="10"/>
<path d="M2.24023 36.5494L36.1802 2.60938" stroke="#00FFFF" stroke-miterlimit="10"/>
<path d="M3.2793 41.1596L40.7993 3.63965" stroke="#00FFFF" stroke-miterlimit="10"/>
<path d="M2.97852 24.4896L24.1285 3.34961" stroke="#00FFFF" stroke-miterlimit="10"/>
</g>
</svg>
