<svg width="410" height="35" viewBox="0 0 410 35" fill="none" xmlns="http://www.w3.org/2000/svg">
<path d="M23.2843 6.10352e-05C20.6578 6.2076e-05 18.0571 0.51739 15.6306 1.52249C13.2041 2.52758 10.9993 4.00075 9.14214 5.85793L1.46447 13.5356C1.00018 13.9999 0.631877 14.551 0.380603 15.1577C0.129329 15.7643 -2.41529e-07 16.4145 0 17.0711L3.29233e-06 17.929C-3.46625e-06 18.5856 0.129323 19.2358 0.380596 19.8424C0.631869 20.449 1.00017 21.0003 1.46447 21.4646L9.14214 29.1422C10.9993 30.9994 13.2041 32.4725 15.6306 33.4776C18.0571 34.4827 20.6578 35.0001 23.2843 35.0001H386.716C389.342 35.0001 391.943 34.4827 394.369 33.4776C396.796 32.4725 399.001 30.9994 400.858 29.1422L408.536 21.4646C409 21.0003 409.368 20.4491 409.619 19.8425C409.871 19.2358 410 18.5856 410 17.929V17.0712C410 16.4145 409.871 15.7644 409.619 15.1577C409.368 14.5511 409 13.9999 408.536 13.5356L400.858 5.85793C399.001 4.00075 396.796 2.52758 394.369 1.52249C391.943 0.51739 389.342 5.89591e-05 386.716 6.10352e-05H23.2843Z" fill="#5063C0" fill-opacity="0.3"/>
</svg>
    