<svg width="12" height="11" viewBox="0 0 12 11" fill="none" xmlns="http://www.w3.org/2000/svg">
<path d="M4.70103 10.0001C4.83269 10.2281 5.02206 10.4174 5.25009 10.5491C5.47811 10.6807 5.73678 10.7501 6.00008 10.7501C6.26338 10.7501 6.52204 10.6807 6.75007 10.5491C6.9781 10.4174 7.16745 10.2281 7.2991 10.0001L11.6292 2.50012C11.7609 2.27209 11.8302 2.01341 11.8302 1.7501C11.8302 1.48679 11.7609 1.22811 11.6293 1.00008C11.4976 0.772043 11.3083 0.582681 11.0802 0.451025C10.8522 0.319368 10.5935 0.250059 10.3302 0.250061H1.66993C1.40662 0.250056 1.14797 0.319373 0.91994 0.451025C0.691907 0.582676 0.502541 0.771996 0.370885 1.00003C0.23923 1.22806 0.169922 1.48674 0.169922 1.75004C0.169922 2.01335 0.23923 2.27203 0.370885 2.50006L4.70103 10.0001Z" fill="white"/>
</svg>
    