<svg width="384" height="314" viewBox="0 0 384 314" fill="none" xmlns="http://www.w3.org/2000/svg">
<g filter="url(#filter0_b_159_2470)">
<path d="M384 8.44341C384 7.6535 383.792 6.87749 383.397 6.19341C383.002 5.50932 382.434 4.94125 381.75 4.5463L374.92 0.602921C374.236 0.207965 373.46 4.01798e-05 372.67 4.36869e-05L11.3301 3.05176e-05C10.5402 3.01148e-05 9.76422 0.207964 9.08013 0.602921L2.25 4.5463C1.56591 4.94126 0.997841 5.50932 0.602884 6.19341C0.207927 6.87749 6.85014e-07 7.6535 0 8.44341V305.557C3.01609e-06 306.347 0.207933 307.123 0.602891 307.807C0.997848 308.491 1.56592 309.059 2.25 309.454L9.08012 313.397C9.76421 313.792 10.5402 314 11.3301 314H372.67C373.46 314 374.236 313.792 374.92 313.397L381.75 309.454C382.434 309.059 383.002 308.491 383.397 307.807C383.792 307.123 384 306.347 384 305.557V8.44341Z" fill="#112A5E" fill-opacity="0.9"/>
<path d="M382.531 6.69341C382.838 7.22549 383 7.82905 383 8.44341V305.557C383 306.171 382.838 306.775 382.531 307.307C382.224 307.839 381.782 308.281 381.25 308.588L374.42 312.531C373.888 312.838 373.284 313 372.67 313H11.3301C10.7157 313 10.1122 312.838 9.58013 312.531L2.75 308.588C2.21795 308.281 1.77611 307.839 1.46892 307.307C1.16173 306.775 1 306.171 1 305.557V8.44341C1 7.82903 1.16172 7.22547 1.46891 6.69341C1.7761 6.16134 2.21793 5.71951 2.74999 5.41232L9.58013 1.46895C10.1122 1.16176 10.7158 1.00003 11.3301 1.00003L372.67 1.00004C373.284 1.00004 373.888 1.16176 374.42 1.46895L381.25 5.41232C381.782 5.71951 382.224 6.16133 382.531 6.69341Z" stroke="url(#paint0_linear_159_2470)" stroke-width="2" stroke-linecap="round" stroke-linejoin="round"/>
</g>
<defs>
<filter id="filter0_b_159_2470" x="-10" y="-9.99997" width="404" height="334" filterUnits="userSpaceOnUse" color-interpolation-filters="sRGB">
<feFlood flood-opacity="0" result="BackgroundImageFix"/>
<feGaussianBlur in="BackgroundImageFix" stdDeviation="5"/>
<feComposite in2="SourceAlpha" operator="in" result="effect1_backgroundBlur_159_2470"/>
<feBlend mode="normal" in="SourceGraphic" in2="effect1_backgroundBlur_159_2470" result="shape"/>
</filter>
<linearGradient id="paint0_linear_159_2470" x1="192" y1="314" x2="192" y2="3.05176e-05" gradientUnits="userSpaceOnUse">
<stop stop-color="#0250C5"/>
<stop offset="1" stop-color="#D43F8D"/>
</linearGradient>
</defs>
</svg>
    