<svg width="9" height="9" viewBox="0 0 9 9" fill="none" xmlns="http://www.w3.org/2000/svg">
<path opacity="0.3" d="M4.21875 8.7002C6.42789 8.7002 8.21875 6.90933 8.21875 4.7002C8.21875 2.49106 6.42789 0.700195 4.21875 0.700195C2.00961 0.700195 0.21875 2.49106 0.21875 4.7002C0.21875 6.90933 2.00961 8.7002 4.21875 8.7002Z" fill="white"/>
<path opacity="0.53" d="M4.21875 7.7002C5.8756 7.7002 7.21875 6.35705 7.21875 4.7002C7.21875 3.04334 5.8756 1.7002 4.21875 1.7002C2.5619 1.7002 1.21875 3.04334 1.21875 4.7002C1.21875 6.35705 2.5619 7.7002 4.21875 7.7002Z" fill="white"/>
<path opacity="0.77" d="M4.21875 6.7002C5.32332 6.7002 6.21875 5.80476 6.21875 4.7002C6.21875 3.59563 5.32332 2.7002 4.21875 2.7002C3.11418 2.7002 2.21875 3.59563 2.21875 4.7002C2.21875 5.80476 3.11418 6.7002 4.21875 6.7002Z" fill="white"/>
<path d="M4.21875 5.7002C4.77103 5.7002 5.21875 5.25248 5.21875 4.7002C5.21875 4.14791 4.77103 3.7002 4.21875 3.7002C3.66647 3.7002 3.21875 4.14791 3.21875 4.7002C3.21875 5.25248 3.66647 5.7002 4.21875 5.7002Z" fill="white"/>
</svg>
