<svg width="200" height="100" viewBox="0 0 200 100" fill="none" xmlns="http://www.w3.org/2000/svg">
<g filter="url(#filter0_b_371_3)">
<path d="M38.2843 32.1612C35.3295 32.1612 32.4037 31.5792 29.6739 30.4485C26.9441 29.3177 24.4637 27.6604 22.3744 25.5711L13.5355 16.7322C13.0667 16.2634 12.4308 16 11.7678 16C11.1047 16 10.4688 16.2634 10 16.7322L9.39341 17.3388C8.00053 18.7317 6.89563 20.3853 6.14181 22.2052C5.38799 24.0251 5 25.9756 5.00001 27.9454L5 71.3769C5 73.3467 5.38798 75.2973 6.14181 77.1172C6.89563 78.937 8.00052 80.5906 9.3934 81.9835L11.0954 83.6855C11.5631 84.1532 12.1971 84.4165 12.8585 84.4177C13.52 84.419 14.1549 84.158 14.6244 83.6921C18.839 79.5087 24.5365 77.1612 30.4749 77.1612H169.525C175.463 77.1612 181.161 79.5087 185.376 83.6921C185.845 84.158 186.48 84.419 187.141 84.4177C187.803 84.4165 188.437 84.1532 188.905 83.6855L190.607 81.9835C191.999 80.5906 193.104 78.937 193.858 77.1172C194.612 75.2973 195 73.3467 195 71.3769V27.9454C195 23.9672 193.42 20.1519 190.607 17.3388L190 16.7322C189.768 16.5001 189.492 16.3159 189.189 16.1903C188.886 16.0647 188.561 16 188.232 16C187.904 16 187.579 16.0647 187.276 16.1903C186.972 16.3159 186.697 16.5001 186.464 16.7322L177.626 25.5711C173.406 29.7906 167.683 32.1612 161.716 32.1612H38.2843Z" fill="black" fill-opacity="0.65"/>
<path d="M38.2843 32.1612C35.3295 32.1612 32.4037 31.5792 29.6739 30.4485C26.9441 29.3177 24.4637 27.6604 22.3744 25.5711L13.5355 16.7322C13.0667 16.2634 12.4308 16 11.7678 16C11.1047 16 10.4688 16.2634 10 16.7322L9.39341 17.3388C8.00053 18.7317 6.89563 20.3853 6.14181 22.2052C5.38799 24.0251 5 25.9756 5.00001 27.9454L5 71.3769C5 73.3467 5.38798 75.2973 6.14181 77.1172C6.89563 78.937 8.00052 80.5906 9.3934 81.9835L11.0954 83.6855C11.5631 84.1532 12.1971 84.4165 12.8585 84.4177C13.52 84.419 14.1549 84.158 14.6244 83.6921C18.839 79.5087 24.5365 77.1612 30.4749 77.1612H169.525C175.463 77.1612 181.161 79.5087 185.376 83.6921C185.845 84.158 186.48 84.419 187.141 84.4177C187.803 84.4165 188.437 84.1532 188.905 83.6855L190.607 81.9835C191.999 80.5906 193.104 78.937 193.858 77.1172C194.612 75.2973 195 73.3467 195 71.3769V27.9454C195 23.9672 193.42 20.1519 190.607 17.3388L190 16.7322C189.768 16.5001 189.492 16.3159 189.189 16.1903C188.886 16.0647 188.561 16 188.232 16C187.904 16 187.579 16.0647 187.276 16.1903C186.972 16.3159 186.697 16.5001 186.464 16.7322L177.626 25.5711C173.406 29.7906 167.683 32.1612 161.716 32.1612H38.2843Z" stroke="url(#paint0_linear_371_3)" stroke-opacity="0.5" stroke-linecap="round" stroke-linejoin="round"/>
</g>
<path fill-rule="evenodd" clip-rule="evenodd" d="M20.6306 1.5224C23.0571 0.517303 25.6578 0 28.2843 0H100H171.716C174.342 0 176.943 0.517303 179.369 1.5224C181.796 2.52749 184.001 4.00069 185.858 5.85786L194.142 14.1421C197.893 17.8929 200 22.9799 200 28.2843V71.7157C200 74.3422 199.483 76.9429 198.478 79.3694C197.472 81.7959 195.999 84.0007 194.142 85.8579L185.858 94.1421C184.001 95.9993 181.796 97.4725 179.369 98.4776C176.943 99.4827 174.342 100 171.716 100H100L28.2843 100C25.6578 100 23.0571 99.4827 20.6306 98.4776C18.2041 97.4725 15.9993 95.9993 14.1421 94.1421L5.85786 85.8579C4.00069 84.0007 2.5275 81.7959 1.5224 79.3694C0.51731 76.9429 0 74.3422 0 71.7157V28.2843C0 25.6578 0.517316 23.0571 1.52241 20.6306C2.52751 18.2041 4.0007 15.9993 5.85787 14.1421L14.1421 5.85786C15.9993 4.00069 18.2041 2.52749 20.6306 1.5224ZM30.6306 28.4776C33.0571 29.4827 35.6578 30 38.2843 30H100H161.716C164.342 30 166.943 29.4827 169.369 28.4776C171.796 27.4725 174.001 25.9993 175.858 24.1422L184.697 15.3033C185.634 14.3656 186.906 13.8389 188.232 13.8389C189.558 13.8389 190.83 14.3656 191.768 15.3033L192.374 15.9099C195.656 19.1918 197.5 23.643 197.5 28.2843V71.7158C197.5 76.357 195.656 80.8082 192.374 84.0901L190.672 85.7921C189.737 86.7275 188.469 87.2541 187.146 87.2566C185.823 87.2591 184.553 86.7372 183.615 85.8053C179.868 82.0868 174.804 80 169.525 80H100H30.4749C25.1963 80 20.1319 82.0868 16.3855 85.8053C15.4466 86.7372 14.1767 87.2591 12.8539 87.2566C11.531 87.2541 10.263 86.7275 9.32765 85.7921L7.62563 84.0901C4.34374 80.8082 2.5 76.357 2.5 71.7158V28.2843C2.50001 23.643 4.34376 19.1918 7.62564 15.9099L8.23223 15.3033C8.69652 14.839 9.24772 14.4707 9.85435 14.2195C10.461 13.9682 11.1112 13.8389 11.7678 13.8389C12.4244 13.8389 13.0746 13.9682 13.6812 14.2195C14.2878 14.4707 14.839 14.839 15.3033 15.3033L24.1421 24.1422C25.9993 25.9993 28.2041 27.4725 30.6306 28.4776Z" fill="url(#paint1_linear_371_3)"/>
<defs>
<filter id="filter0_b_371_3" x="-45.5" y="-34.5" width="291" height="169.418" filterUnits="userSpaceOnUse" color-interpolation-filters="sRGB">
<feFlood flood-opacity="0" result="BackgroundImageFix"/>
<feGaussianBlur in="BackgroundImageFix" stdDeviation="25"/>
<feComposite in2="SourceAlpha" operator="in" result="effect1_backgroundBlur_371_3"/>
<feBlend mode="normal" in="SourceGraphic" in2="effect1_backgroundBlur_371_3" result="shape"/>
</filter>
<linearGradient id="paint0_linear_371_3" x1="100" y1="16" x2="100" y2="84.4178" gradientUnits="userSpaceOnUse">
<stop stop-color="#22E1FF"/>
<stop offset="0.48" stop-color="#1D8FE1"/>
<stop offset="1" stop-color="#625EB1"/>
</linearGradient>
<linearGradient id="paint1_linear_371_3" x1="100" y1="0" x2="100" y2="100" gradientUnits="userSpaceOnUse">
<stop stop-color="#22E1FF"/>
<stop offset="0.48" stop-color="#1D8FE1"/>
<stop offset="1" stop-color="#625EB1"/>
</linearGradient>
</defs>
</svg>
    