<svg width="410" height="640" viewBox="0 0 410 640" fill="none" xmlns="http://www.w3.org/2000/svg">
    <path fill-rule="evenodd" clip-rule="evenodd"
        d="M60.6306 638.478C58.2041 637.473 55.9993 635.999 54.1421 634.142L5.85787 585.858C2.10716 582.107 2.02727e-05 577.02 3.29233e-06 571.716L0 68.2843C0 65.6578 0.517316 63.0571 1.52241 60.6306C2.52751 58.2041 4.0007 55.9993 5.85787 54.1421L54.1421 5.85787C55.9993 4.0007 58.2041 2.52751 60.6306 1.52241C63.0571 0.517316 65.6579 0 68.2843 0L341.716 6.58465e-06C344.342 6.49205e-06 346.943 0.517323 349.369 1.52242C351.796 2.52751 354.001 4.0007 355.858 5.85787L404.142 54.1421C405.999 55.9993 407.473 58.2041 408.478 60.6306C409.483 63.0571 410 65.6578 410 68.2843V571.716C410 574.342 409.483 576.943 408.478 579.369C407.473 581.796 405.999 584.001 404.142 585.858L355.858 634.142C354.001 635.999 351.796 637.473 349.369 638.478C346.943 639.483 344.342 640 341.716 640H68.2843C65.6578 640 63.0571 639.483 60.6306 638.478ZM374.551 35.9872C373.944 36.2385 373.393 36.6068 372.929 37.0711L355.858 54.1422C354.001 55.9993 351.796 57.4725 349.369 58.4776C346.943 59.4827 344.342 60 341.716 60H68.2843C62.9799 60 57.8929 57.8929 54.1421 54.1422L37.0711 37.0711C36.6068 36.6068 36.0556 36.2385 35.449 35.9872C34.8423 35.7359 34.1921 35.6066 33.5355 35.6066C32.8789 35.6066 32.2287 35.7359 31.6221 35.9872C31.0155 36.2385 30.4643 36.6068 30 37.0711L9.3934 57.6777C6.58036 60.4907 5.00001 64.306 5.00001 68.2843L5 571.716C5 573.686 5.38798 575.636 6.14181 577.456C6.89563 579.276 8.00052 580.93 9.3934 582.322L57.6777 630.607C60.4907 633.42 64.306 635 68.2843 635H341.716C345.694 635 349.509 633.42 352.322 630.607L400.607 582.322C403.42 579.509 405 575.694 405 571.716V68.2843C405 64.306 403.42 60.4907 400.607 57.6777L380 37.0711C379.536 36.6068 378.985 36.2385 378.378 35.9872C377.771 35.7359 377.121 35.6066 376.465 35.6066C375.808 35.6066 375.158 35.7359 374.551 35.9872Z"
        fill="url(#paint0_linear_152_1767)" />
    <defs>
        <linearGradient id="paint0_linear_152_1767" x1="205" y1="640" x2="205" y2="0"
            gradientUnits="userSpaceOnUse">
            <stop stop-color="#FF9900" />
            <stop offset="1" stop-color="#FEE140" />
        </linearGradient>
    </defs>
</svg>
    