<svg width="105" height="115" viewBox="0 0 105 115" fill="none" xmlns="http://www.w3.org/2000/svg">
    <path fill-rule="evenodd" clip-rule="evenodd"
        d="M0.380593 111.913C0.129317 111.307 0 110.657 0 110V4.99999C0 4.34338 0.129317 3.6932 0.380593 3.08657C0.631869 2.47994 1.00018 1.92874 1.46448 1.46445C1.92877 1.00016 2.47996 0.631864 3.0866 0.380593C3.69323 0.129322 4.34341 -3.76845e-06 5.00002 0H100C100.657 -3.76845e-06 101.307 0.129322 101.913 0.380593C102.52 0.631864 103.071 1.00016 103.536 1.46445C104 1.92874 104.368 2.47994 104.619 3.08657C104.871 3.6932 105 4.34338 105 4.99999V110C105 110.657 104.871 111.307 104.619 111.913C104.368 112.52 104 113.071 103.536 113.536C103.071 114 102.52 114.368 101.913 114.619C101.307 114.871 100.657 115 100 115H5.00002C4.34341 115 3.69323 114.871 3.0866 114.619C2.47996 114.368 1.92877 114 1.46448 113.536C1.00018 113.071 0.631869 112.52 0.380593 111.913ZM3.23224 3.23221C3.70108 2.76338 4.33697 2.5 5.00001 2.5H6.73951C7.14654 2.5 7.54742 2.59938 7.90732 2.78951C8.26721 2.97965 8.57524 3.25477 8.80465 3.591L19.2556 18.909C19.485 19.2452 19.7931 19.5203 20.153 19.7105C20.5128 19.9006 20.9137 20 21.3208 20H83.6793C84.0863 20 84.4872 19.9006 84.8471 19.7105C85.2069 19.5203 85.515 19.2452 85.7444 18.909L96.1954 3.59102C96.4248 3.25479 96.7328 2.97965 97.0927 2.78951C97.4526 2.59938 97.8535 2.5 98.2605 2.5H100C100.663 2.5 101.299 2.76338 101.768 3.23221C102.237 3.70105 102.5 4.33694 102.5 4.99998V80C102.5 80.663 102.237 81.2989 101.768 81.7678C101.299 82.2366 100.663 82.5 100 82.5H5.00001C4.6717 82.5 4.34663 82.4353 4.04331 82.3097C3.73999 82.1841 3.46439 81.9999 3.23224 81.7678C3.00009 81.5356 2.81593 81.26 2.6903 80.9567C2.56466 80.6534 2.5 80.3283 2.5 80V4.99998C2.50001 4.33694 2.7634 3.70105 3.23224 3.23221Z"
        fill="url(#paint0_linear_6_1592)" />
    <defs>
        <linearGradient id="paint0_linear_6_1592" x1="52.5" y1="115" x2="52.5" y2="0"
            gradientUnits="userSpaceOnUse">
            <stop stop-color="#667EEA" />
            <stop offset="1" stop-color="#764BA2" />
        </linearGradient>
    </defs>
</svg>
    