<svg width="272" height="72" viewBox="0 0 272 72" fill="none" xmlns="http://www.w3.org/2000/svg">
<path d="M15.1421 65.1422C18.8929 68.8929 23.98 71.0001 29.2843 71.0001L242.716 71.0001C245.342 71.0001 247.943 70.4828 250.369 69.4777C252.796 68.4726 255.001 66.9994 256.858 65.1422L265.142 56.858C266.999 55.0008 268.473 52.796 269.478 50.3695C270.483 47.943 271 45.3423 271 42.7158V29.2844C271 26.6579 270.483 24.0572 269.478 21.6307C268.473 19.2042 266.999 16.9994 265.142 15.1422L256.858 6.85798C255.001 5.00079 252.796 3.52759 250.369 2.52249C247.943 1.51738 245.342 1.00006 242.716 1.00006H29.2843C23.98 1.00006 18.8929 3.1072 15.1421 6.85793L6.85786 15.1422C5.00069 16.9994 3.5275 19.2042 2.52241 21.6307C1.51732 24.0572 1.00001 26.6579 1.00001 29.2844L1 42.7158C0.999999 45.3423 1.51731 47.943 2.52241 50.3695C3.52751 52.796 5.0007 55.0008 6.85788 56.858L15.1421 65.1422Z" fill="url(#paint0_linear_6_2403)" stroke="url(#paint1_linear_6_2403)" stroke-linecap="round" stroke-linejoin="round"/>
<defs>
<linearGradient id="paint0_linear_6_2403" x1="136" y1="1.00006" x2="136" y2="71.0001" gradientUnits="userSpaceOnUse">
<stop stop-color="#FF9900"/>
<stop offset="1" stop-color="#FEE140"/>
</linearGradient>
<linearGradient id="paint1_linear_6_2403" x1="136" y1="71.0001" x2="136" y2="1.00006" gradientUnits="userSpaceOnUse">
<stop stop-color="#FF9900"/>
<stop offset="1" stop-color="#FEE140"/>
</linearGradient>
</defs>
</svg>
    
    