<svg width="105" height="115" viewBox="0 0 105 115" fill="none" xmlns="http://www.w3.org/2000/svg">
    <path fill-rule="evenodd" clip-rule="evenodd"
        d="M1.46445 113.536C0.526774 112.598 0 111.326 0 110V5C0 3.67392 0.526774 2.40215 1.46445 1.46447C2.40213 0.526784 3.67391 3.83405e-06 4.99999 0H100C100.657 0 101.307 0.129333 101.913 0.380606C102.52 0.631879 103.071 1.00017 103.536 1.46447C104 1.92876 104.368 2.47995 104.619 3.08658C104.871 3.69321 105 4.34339 105 5V110C105 110.657 104.871 111.307 104.619 111.913C104.368 112.52 104 113.071 103.536 113.536C103.071 114 102.52 114.368 101.913 114.619C101.307 114.871 100.657 115 100 115H4.99999C3.67391 115 2.40213 114.473 1.46445 113.536ZM100.957 2.6903C100.653 2.56466 100.328 2.5 100 2.5H98.2605C97.8535 2.5 97.4526 2.59939 97.0927 2.78953C96.7328 2.97966 96.4248 3.25479 96.1954 3.59102L85.7444 18.909C85.515 19.2452 85.2069 19.5204 84.847 19.7105C84.4872 19.9006 84.0863 20 83.6792 20H21.3208C20.9137 20 20.5129 19.9006 20.153 19.7105C19.7931 19.5203 19.485 19.2452 19.2556 18.909L8.80465 3.59102C8.57525 3.2548 8.26723 2.97966 7.90734 2.78953C7.54745 2.59939 7.14657 2.50001 6.73954 2.5H5.00001C4.6717 2.5 4.3466 2.56467 4.04328 2.69031C3.73997 2.81595 3.46439 3.00009 3.23224 3.23224C3.00009 3.46439 2.81593 3.73998 2.6903 4.0433C2.56466 4.34661 2.5 4.6717 2.5 5.00001L2.50003 80C2.50003 80.663 2.76343 81.2989 3.23227 81.7678C3.7011 82.2366 4.33697 82.5 5.00001 82.5H100C100.328 82.5 100.653 82.4353 100.957 82.3097C101.26 82.1841 101.536 81.9999 101.768 81.7678C102 81.5356 102.184 81.26 102.31 80.9567C102.435 80.6534 102.5 80.3283 102.5 80V5.00001C102.5 4.6717 102.435 4.34661 102.31 4.0433C102.184 3.73998 102 3.46437 101.768 3.23223C101.536 3.00008 101.26 2.81593 100.957 2.6903Z"
        fill="url(#paint0_linear_6_1596)" />
    <defs>
        <linearGradient id="paint0_linear_6_1596" x1="52.5" y1="115" x2="52.5" y2="0"
            gradientUnits="userSpaceOnUse">
            <stop stop-color="#16D9E3" />
            <stop offset="0.47" stop-color="#30C7EC" />
            <stop offset="1" stop-color="#46AEF7" />
        </linearGradient>
    </defs>
</svg>
    