<svg width="76" height="77" viewBox="0 0 76 77" fill="none" xmlns="http://www.w3.org/2000/svg">
<path d="M38 8.21997C32.0666 8.21997 26.2665 9.97944 21.333 13.2759C16.3995 16.5723 12.5543 21.2577 10.2837 26.7395C8.01307 32.2213 7.41887 38.2533 8.57643 44.0728C9.73399 49.8922 12.5913 55.2375 16.7869 59.4331C20.9825 63.6287 26.3278 66.486 32.1472 67.6436C37.9667 68.8011 43.9987 68.2069 49.4805 65.9363C54.9623 63.6656 59.6477 59.8207 62.9441 54.8872C66.2405 49.9537 68 44.1534 68 38.22C68 30.2635 64.8392 22.6329 59.2131 17.0068C53.5871 11.3807 45.9565 8.21997 38 8.21997ZM38 60.22C33.6488 60.22 29.3952 58.9298 25.7774 56.5125C22.1595 54.0951 19.3397 50.6589 17.6746 46.6389C16.0094 42.6189 15.5737 38.1956 16.4226 33.928C17.2715 29.6604 19.3669 25.7403 22.4436 22.6636C25.5204 19.5868 29.4404 17.4917 33.708 16.6428C37.9756 15.7939 42.399 16.2294 46.419 17.8945C50.4389 19.5597 53.8749 22.3797 56.2922 25.9976C58.7096 29.6154 60 33.8688 60 38.22C59.9931 44.0526 57.6731 49.6445 53.5488 53.7688C49.4245 57.8931 43.8327 60.2131 38 60.22Z" fill="url(#paint0_linear_511_17)"/>
<path d="M38.0003 63.442C51.93 63.442 63.2223 52.1498 63.2223 38.22C63.2223 24.2903 51.93 12.998 38.0003 12.998C24.0706 12.998 12.7783 24.2903 12.7783 38.22C12.7783 52.1498 24.0706 63.442 38.0003 63.442Z" fill="url(#paint1_radial_511_17)"/>
<path d="M49.6875 37.354L32.3135 27.324C32.1615 27.2362 31.989 27.1899 31.8135 27.1899C31.6379 27.1899 31.4655 27.2362 31.3135 27.324C31.1615 27.4117 31.0353 27.5379 30.9475 27.6899C30.8597 27.842 30.8135 28.0144 30.8135 28.1899V48.25C30.8135 48.4255 30.8597 48.598 30.9475 48.75C31.0353 48.902 31.1615 49.0282 31.3135 49.116C31.4655 49.2037 31.6379 49.25 31.8135 49.25C31.989 49.25 32.1615 49.2037 32.3135 49.116L49.6875 39.0859C49.8395 38.9982 49.9657 38.872 50.0535 38.72C50.1412 38.568 50.1875 38.3955 50.1875 38.22C50.1875 38.0444 50.1412 37.872 50.0535 37.72C49.9657 37.568 49.8395 37.4418 49.6875 37.354Z" fill="#0A0B1B"/>
<path d="M38 0.219971C30.4843 0.219971 23.1375 2.44877 16.8884 6.62427C10.6393 10.7998 5.76868 16.7344 2.89255 23.678C0.0164165 30.6216 -0.736045 38.2623 0.730193 45.6335C2.19643 53.0048 5.81546 59.7757 11.1299 65.0901C16.4442 70.4045 23.2154 74.0235 30.5866 75.4897C37.9579 76.956 45.5984 76.2035 52.542 73.3274C59.4856 70.4513 65.4204 65.5809 69.5959 59.3318C73.7714 53.0827 76 45.7357 76 38.22C75.9875 28.1456 71.9799 18.4875 64.8562 11.3638C57.7325 4.24008 48.0744 0.232408 38 0.219971ZM38 68.22C32.0665 68.22 26.2665 66.4605 21.333 63.1641C16.3995 59.8676 12.5543 55.1822 10.2837 49.7004C8.01303 44.2187 7.41883 38.1866 8.57638 32.3672C9.73394 26.5478 12.5913 21.2024 16.7868 17.0068C20.9824 12.8113 26.3278 9.95394 32.1472 8.79639C37.9666 7.63883 43.9987 8.23303 49.4804 10.5037C54.9622 12.7743 59.6476 16.6195 62.9441 21.553C66.2405 26.4865 68 32.2865 68 38.22C68 42.1596 67.2239 46.0607 65.7163 49.7004C64.2086 53.3402 61.9989 56.6473 59.2131 59.4331C56.4273 62.2189 53.1202 64.4286 49.4804 65.9363C45.8407 67.4439 41.9396 68.22 38 68.22Z" fill="url(#paint2_linear_511_17)"/>
<defs>
<linearGradient id="paint0_linear_511_17" x1="38" y1="68.22" x2="38" y2="8.21997" gradientUnits="userSpaceOnUse">
<stop stop-color="#00BDFF"/>
<stop offset="1" stop-color="#003DD2"/>
</linearGradient>
<radialGradient id="paint1_radial_511_17" cx="0" cy="0" r="1" gradientUnits="userSpaceOnUse" gradientTransform="translate(38.0003 38.22) scale(25.222)">
<stop offset="0.229" stop-color="#FFF883"/>
<stop offset="0.314" stop-color="#FBF781"/>
<stop offset="0.382" stop-color="#F1F77E"/>
<stop offset="0.445" stop-color="#E0F778"/>
<stop offset="0.505" stop-color="#C8F76F"/>
<stop offset="0.562" stop-color="#AAF665"/>
<stop offset="0.617" stop-color="#84F557"/>
<stop offset="0.671" stop-color="#57F547"/>
<stop offset="0.722" stop-color="#24F435"/>
<stop offset="0.738" stop-color="#14F430"/>
</radialGradient>
<linearGradient id="paint2_linear_511_17" x1="38" y1="0.219971" x2="38" y2="76.2199" gradientUnits="userSpaceOnUse">
<stop stop-color="#00BDFF"/>
<stop offset="1" stop-color="#003DD2"/>
</linearGradient>
</defs>
</svg>
