<svg width="412" height="102" viewBox="0 0 412 102" fill="none" xmlns="http://www.w3.org/2000/svg">
<path d="M396.858 6.85786C393.107 3.10715 388.02 1 382.716 1H29.2843C23.9799 0.999996 18.8929 3.10714 15.1421 6.85786L6.85787 15.1421C5.0007 16.9993 3.52751 19.2041 2.52241 21.6306C1.51732 24.0571 1 26.6578 1 29.2843L1 72.7157C1 75.3422 1.51731 77.9429 2.52241 80.3694C3.5275 82.7959 5.00069 85.0007 6.85787 86.8579L15.1421 95.1421C16.9993 96.9993 19.2041 98.4725 21.6306 99.4776C24.0571 100.483 26.6578 101 29.2843 101H382.716C388.02 101 393.107 98.8929 396.858 95.1421L405.142 86.8579C406.999 85.0007 408.473 82.7959 409.478 80.3694C410.483 77.9429 411 75.3422 411 72.7157V29.2843C411 26.6578 410.483 24.0571 409.478 21.6306C408.473 19.2041 406.999 16.9993 405.142 15.1421L396.858 6.85786Z" fill="url(#paint0_linear_636_10)" stroke="url(#paint1_linear_636_10)" stroke-linecap="round" stroke-linejoin="round"/>
<path d="M395.444 8.27207C392.068 4.89642 387.49 3 382.716 3H29.2843C24.5104 3 19.932 4.89642 16.5563 8.27207L8.27208 16.5563C4.89643 19.932 3 24.5104 3 29.2843L3 72.7157C3 75.0795 3.46558 77.4202 4.37017 79.604C5.27475 81.7879 6.60062 83.7722 8.27208 85.4437L16.5564 93.7279C18.2278 95.3994 20.2121 96.7252 22.396 97.6298C24.5798 98.5344 26.9205 99 29.2843 99H382.716C387.49 99 392.068 97.1036 395.444 93.7279L403.728 85.4436C407.104 82.068 409 77.4896 409 72.7157V29.2843C409 26.9205 408.534 24.5798 407.63 22.396C406.725 20.2121 405.399 18.2278 403.728 16.5563L395.444 8.27207Z" stroke="#112A5E" stroke-opacity="0.2" stroke-linecap="round" stroke-linejoin="round"/>
<path d="M19.1421 19.1422C22.8929 22.8929 27.9799 25 33.2843 25H378.716C384.02 25 389.107 22.8929 392.858 19.1422L393.222 18.7782C393.686 18.3139 394.237 17.9456 394.844 17.6943C395.451 17.4431 396.101 17.3137 396.757 17.3137C397.414 17.3137 398.064 17.4431 398.671 17.6943C399.277 17.9456 399.829 18.3139 400.293 18.7782L400.899 19.3848C402.199 20.6848 403.231 22.2282 403.934 23.9267C404.638 25.6253 405 27.4458 405 29.2843V72.7157C405 76.4288 403.525 79.9897 400.9 82.6152L392.615 90.8995C391.315 92.1995 389.772 93.2308 388.073 93.9343C386.375 94.6379 384.554 95 382.716 95H29.2843C25.5712 95 22.0103 93.525 19.3848 90.8995L11.1005 82.6153C9.80048 81.3152 8.76924 79.7719 8.06568 78.0733C7.36211 76.3748 7 74.5543 7 72.7158V29.2843C7 25.5713 8.47499 22.0103 11.1005 19.3848L11.7071 18.7782C12.6448 17.8405 13.9166 17.3137 15.2426 17.3137C16.5687 17.3137 17.8405 17.8405 18.7782 18.7782L19.1421 19.1422Z" stroke="#112A5E" stroke-opacity="0.4" stroke-linecap="round" stroke-linejoin="round"/>
<path d="M17.7279 20.5564C19.7708 22.5993 22.1961 24.2198 24.8652 25.3254C27.5344 26.431 30.3952 27 33.2843 27H378.716C381.605 27 384.466 26.431 387.135 25.3254C389.804 24.2198 392.229 22.5993 394.272 20.5564L394.636 20.1924C395.199 19.6298 395.962 19.3137 396.757 19.3137C397.553 19.3138 398.316 19.6298 398.879 20.1924L399.485 20.799C401.736 23.0495 403 26.1017 403 29.2843V72.7157C403 74.2916 402.69 75.8521 402.087 77.308C401.484 78.7639 400.6 80.0867 399.485 81.201L391.201 89.4853C388.951 91.7357 385.898 93 382.716 93H29.2843C26.1017 93 23.0494 91.7358 20.799 89.4853L12.5147 81.201C10.2643 78.9506 9 75.8984 9 72.7158V29.2843C9 26.1017 10.2643 23.0495 12.5147 20.799L13.1213 20.1924C13.3999 19.9138 13.7306 19.6928 14.0946 19.5421C14.4586 19.3913 14.8487 19.3137 15.2426 19.3137C15.6366 19.3137 16.0267 19.3913 16.3907 19.5421C16.7547 19.6929 17.0854 19.9139 17.364 20.1924L17.7279 20.5564Z" stroke="#112A5E" stroke-opacity="0.5" stroke-linecap="round" stroke-linejoin="round"/>
<path d="M394.029 9.6863C392.544 8.20056 390.78 7.022 388.839 6.21792C386.897 5.41385 384.817 5 382.716 5H29.2843C25.0408 5 20.9711 6.68572 17.9706 9.6863L9.68629 17.9706C6.68571 20.9711 5 25.0408 5 29.2843V72.7157C5 74.8169 5.41385 76.8974 6.21792 78.8387C7.022 80.7799 8.20055 82.5437 9.68629 84.0294L17.9706 92.3137C20.9712 95.3143 25.0408 97 29.2843 97H382.716C384.817 97 386.897 96.5861 388.839 95.7821C390.78 94.978 392.544 93.7995 394.029 92.3137L402.314 84.0294C405.314 81.0289 407 76.9592 407 72.7157V29.2843C407 27.1831 406.586 25.1025 405.782 23.1613C404.978 21.2201 403.799 19.4563 402.314 17.9706L394.029 9.6863Z" stroke="#112A5E" stroke-opacity="0.3" stroke-linecap="round" stroke-linejoin="round"/>
<defs>
<linearGradient id="paint0_linear_636_10" x1="206" y1="101" x2="206" y2="1" gradientUnits="userSpaceOnUse">
<stop stop-color="#00C6FB"/>
<stop offset="1" stop-color="#005BEA"/>
</linearGradient>
<linearGradient id="paint1_linear_636_10" x1="206" y1="1" x2="206" y2="101" gradientUnits="userSpaceOnUse">
<stop stop-color="#00C6FB"/>
<stop offset="1" stop-color="#005BEA"/>
</linearGradient>
</defs> 
</svg>
    