<svg width="404" height="94" viewBox="0 0 404 94" fill="none" xmlns="http://www.w3.org/2000/svg">
<path d="M15.1421 15.1422C18.8929 18.8929 23.9799 21 29.2843 21H374.716C380.02 21 385.107 18.8929 388.858 15.1422L389.222 14.7782C389.686 14.3139 390.237 13.9456 390.844 13.6943C391.451 13.4431 392.101 13.3137 392.757 13.3137C393.414 13.3137 394.064 13.4431 394.671 13.6943C395.277 13.9456 395.829 14.3139 396.293 14.7782L396.899 15.3848C398.199 16.6848 399.231 18.2282 399.934 19.9267C400.638 21.6253 401 23.4458 401 25.2843V68.7157C401 72.4288 399.525 75.9897 396.9 78.6152L388.615 86.8995C387.315 88.1995 385.772 89.2308 384.073 89.9343C382.375 90.6379 380.554 91 378.716 91H25.2843C21.5712 91 18.0103 89.525 15.3848 86.8995L7.1005 78.6153C5.80048 77.3152 4.76924 75.7719 4.06568 74.0733C3.36211 72.3748 3 70.5543 3 68.7158V25.2843C3 21.5713 4.47499 18.0103 7.1005 15.3848L7.7071 14.7782C8.64479 13.8405 9.91655 13.3137 11.2426 13.3137C12.5687 13.3137 13.8405 13.8405 14.7782 14.7782L15.1421 15.1422Z" stroke="#0169EC" stroke-opacity="0.4" stroke-linecap="round" stroke-linejoin="round"/>
<path d="M13.7279 16.5564C15.7708 18.5993 18.1961 20.2198 20.8652 21.3254C23.5344 22.431 26.3952 23 29.2843 23H374.716C377.605 23 380.466 22.431 383.135 21.3254C385.804 20.2198 388.229 18.5993 390.272 16.5564L390.636 16.1924C391.199 15.6298 391.962 15.3137 392.757 15.3137C393.553 15.3138 394.316 15.6298 394.879 16.1924L395.485 16.799C397.736 19.0495 399 22.1017 399 25.2843V68.7157C399 70.2916 398.69 71.8521 398.087 73.308C397.484 74.7639 396.6 76.0867 395.485 77.201L387.201 85.4853C384.951 87.7357 381.898 89 378.716 89H25.2843C22.1017 89 19.0494 87.7358 16.799 85.4853L8.51472 77.201C6.26429 74.9506 5 71.8984 5 68.7158V25.2843C5 22.1017 6.26429 19.0495 8.51472 16.799L9.12132 16.1924C9.3999 15.9138 9.73061 15.6928 10.0946 15.5421C10.4586 15.3913 10.8487 15.3137 11.2426 15.3137C11.6366 15.3137 12.0267 15.3913 12.3907 15.5421C12.7547 15.6929 13.0854 15.9139 13.364 16.1924L13.7279 16.5564Z" stroke="#0169EC" stroke-opacity="0.5" stroke-linecap="round" stroke-linejoin="round"/>
<path d="M390.029 5.68633C388.544 4.20059 386.78 3.02203 384.839 2.21795C382.897 1.41388 380.817 1.00003 378.716 1.00003H25.2843C21.0408 1.00003 16.9711 2.68575 13.9706 5.68633L5.68629 13.9706C2.68571 16.9712 1 21.0408 1 25.2843V68.7157C0.999998 70.8169 1.41385 72.8975 2.21792 74.8387C3.022 76.7799 4.20055 78.5437 5.68629 80.0295L13.9706 88.3138C16.9712 91.3143 21.0408 93 25.2843 93H378.716C380.817 93 382.897 92.5862 384.839 91.7821C386.78 90.978 388.544 89.7995 390.029 88.3138L398.314 80.0295C401.314 77.0289 403 72.9592 403 68.7158V25.2843C403 23.1832 402.586 21.1026 401.782 19.1614C400.978 17.2202 399.799 15.4563 398.314 13.9706L390.029 5.68633Z" stroke="#0169EC" stroke-opacity="0.3" stroke-linecap="round" stroke-linejoin="round"/>
</svg> 
    