<svg width="52" height="61" viewBox="0 0 52 61" fill="none" xmlns="http://www.w3.org/2000/svg">
<path d="M27.2483 1.17477C26.8683 0.955342 26.4372 0.839844 25.9983 0.839844C25.5595 0.839844 25.1284 0.955342 24.7483 1.17477L1.26756 14.7314C0.887513 14.9508 0.571916 15.2664 0.3525 15.6465C0.133084 16.0265 0.0175763 16.4576 0.0175781 16.8964V44.0097C0.0175763 44.4486 0.133084 44.8797 0.3525 45.2597C0.571916 45.6397 0.887513 45.9554 1.26756 46.1748L24.7483 59.7314C25.1284 59.9508 25.5595 60.0663 25.9983 60.0663C26.4372 60.0663 26.8683 59.9508 27.2483 59.7314L50.7291 46.1748C51.1091 45.9554 51.4247 45.6397 51.6441 45.2597C51.8636 44.8796 51.9791 44.4485 51.9791 44.0097V16.8964C51.9791 16.4576 51.8636 16.0265 51.6441 15.6464C51.4247 15.2664 51.1091 14.9508 50.7291 14.7314L27.2483 1.17477Z" fill="url(#paint0_linear_742_5)"/>
<path fill-rule="evenodd" clip-rule="evenodd" d="M36.6066 21.9678L34.4853 19.8465L26 28.3318L17.5147 19.8465L15.3934 21.9678L23.8787 30.4531L15.3934 38.9384L17.5147 41.0597L26 32.5744L34.4853 41.0597L36.6066 38.9384L28.1213 30.4531L36.6066 21.9678Z" fill="white"/>
<defs>
<linearGradient id="paint0_linear_742_5" x1="25.9983" y1="60.0663" x2="25.9983" y2="0.839844" gradientUnits="userSpaceOnUse">
<stop stop-color="#0250C5"/>
<stop offset="1" stop-color="#D43F8D"/>
</linearGradient>
</defs>
</svg>
    