<svg width="52" height="61" viewBox="0 0 52 61" fill="none" xmlns="http://www.w3.org/2000/svg">
<path d="M27.2503 1.17477C26.8702 0.955342 26.4391 0.839844 26.0003 0.839844C25.5614 0.839844 25.1303 0.955342 24.7503 1.17477L1.26951 14.7314C0.889466 14.9508 0.573869 15.2664 0.354453 15.6465C0.135037 16.0265 0.0195294 16.4576 0.0195313 16.8964V44.0097C0.0195294 44.4486 0.135037 44.8797 0.354453 45.2597C0.573869 45.6397 0.889466 45.9554 1.26951 46.1748L24.7503 59.7314C25.1303 59.9508 25.5614 60.0663 26.0003 60.0663C26.4391 60.0663 26.8702 59.9508 27.2503 59.7314L50.731 46.1748C51.1111 45.9554 51.4267 45.6397 51.6461 45.2597C51.8655 44.8796 51.981 44.4485 51.981 44.0097V16.8964C51.981 16.4576 51.8655 16.0265 51.6461 15.6464C51.4267 15.2664 51.1111 14.9508 50.731 14.7314L27.2503 1.17477Z" fill="url(#paint0_linear_742_2)"/>
<path fill-rule="evenodd" clip-rule="evenodd" d="M26 21.9531C28.2091 21.9531 30 20.1622 30 17.9531C30 15.7439 28.2091 13.9531 26 13.9531C23.7909 13.9531 22 15.7439 22 17.9531C22 20.1622 23.7909 21.9531 26 21.9531ZM19 23.9531H22H29C29.5523 23.9531 30 24.4008 30 24.9531V30.9531V45.9531C30 46.5053 29.5523 46.9531 29 46.9531H23C22.4477 46.9531 22 46.5053 22 45.9531V29.7338C22 29.275 21.6877 28.875 21.2425 28.7637L18.7575 28.1424C18.3123 28.0311 18 27.6312 18 27.1723V24.9531C18 24.4008 18.4477 23.9531 19 23.9531Z" fill="white"/>
<defs>
<linearGradient id="paint0_linear_742_2" x1="26.0003" y1="60.0663" x2="26.0003" y2="0.839844" gradientUnits="userSpaceOnUse">
<stop stop-color="#0250C5"/>
<stop offset="1" stop-color="#D43F8D"/>
</linearGradient>
</defs>
</svg>
    