<svg width="412" height="52" viewBox="0 0 412 52" fill="none" xmlns="http://www.w3.org/2000/svg">
<path d="M22.8301 45.3301C23.5902 45.769 24.4524 46 25.3301 46H386.67C387.548 46 388.41 45.769 389.17 45.3301L403.5 37.0566C404.26 36.6178 404.891 35.9866 405.33 35.2265C405.769 34.4664 406 33.6042 406 32.7265V19.2735C406 18.3958 405.769 17.5336 405.33 16.7735C404.891 16.0134 404.26 15.3822 403.5 14.9434L389.17 6.66984C388.41 6.23101 387.548 5.99999 386.67 6H25.3301C24.4524 6.00001 23.5902 6.23104 22.8301 6.6699L8.5 14.9434C7.73991 15.3822 7.10872 16.0134 6.66988 16.7735C6.23103 17.5336 6 18.3958 6 19.2735L6.00001 32.7265C6.00001 33.6042 6.23104 34.4664 6.66988 35.2265C7.10872 35.9866 7.73991 36.6178 8.5 37.0566L22.8301 45.3301Z" fill="#0250C5"/>
<path d="M20.3301 49.6603C21.8503 50.538 23.5748 51 25.3301 51.0001H386.67C388.425 51 390.15 50.538 391.67 49.6603L406 41.3868C407.52 40.5091 408.783 39.2467 409.66 37.7266C410.538 36.2064 411 34.4819 411 32.7265V19.2735C411 17.5181 410.538 15.7937 409.66 14.2735C408.783 12.7533 407.52 11.491 406 10.6133L391.67 2.33974C390.15 1.46208 388.425 1.00002 386.67 1.00005L25.3301 1C23.5748 1.00001 21.8503 1.4621 20.3301 2.33979L6.00001 10.6133C4.47981 11.491 3.21743 12.7533 2.33975 14.2735C1.46206 15.7937 1 17.5181 1 19.2735L1 32.7265C1.00001 34.4819 1.46207 36.2063 2.33975 37.7265C3.21744 39.2467 4.47981 40.5091 6 41.3868L20.3301 49.6603Z" stroke="url(#paint0_linear_757_6)" stroke-width="2" stroke-linecap="round" stroke-linejoin="round"/>
<defs>
<linearGradient id="paint0_linear_757_6" x1="206" y1="51.0001" x2="206" y2="1" gradientUnits="userSpaceOnUse">
<stop stop-color="#0250C5"/>
<stop offset="1" stop-color="#D43F8D"/>
</linearGradient>
</defs>
</svg>
    