<svg width="210" height="238" viewBox="0 0 210 238" fill="none" xmlns="http://www.w3.org/2000/svg">
<path fill-rule="evenodd" clip-rule="evenodd" d="M105.001 9.38684C105.44 9.38684 105.871 9.50234 106.251 9.72176L199.014 63.2784C199.394 63.4978 199.71 63.8134 199.929 64.1935C200.148 64.5735 200.264 65.0046 200.264 65.4435L200.264 172.557C200.264 172.996 200.148 173.427 199.929 173.807C199.71 174.187 199.394 174.502 199.014 174.722L106.251 228.278C105.871 228.498 105.44 228.613 105.001 228.613C104.562 228.613 104.131 228.498 103.751 228.278L10.9883 174.722C10.6082 174.502 10.2927 174.187 10.0732 173.807C9.85381 173.427 9.73829 172.996 9.73828 172.557V65.4435C9.73829 65.0046 9.85381 64.5735 10.0732 64.1935C10.2927 63.8134 10.6082 63.4978 10.9883 63.2784L103.751 9.72176C104.131 9.50234 104.562 9.38684 105.001 9.38684ZM66.5203 194.849C66.0815 194.849 65.6504 194.734 65.2703 194.515L20.9883 168.948C20.6082 168.729 20.2926 168.413 20.0732 168.033C19.8538 167.653 19.7383 167.222 19.7383 166.783V71.217C19.7383 70.7782 19.8538 70.3471 20.0732 69.967C20.2926 69.587 20.6082 69.2713 20.9883 69.0519L103.751 21.2688C104.131 21.0494 104.562 20.9338 105.001 20.9338C105.44 20.9338 105.871 21.0494 106.251 21.2688L189.014 69.0519C189.394 69.2713 189.71 69.587 189.929 69.967C190.148 70.3471 190.264 70.7782 190.264 71.217V166.783C190.264 167.222 190.148 167.653 189.929 168.033C189.71 168.413 189.394 168.729 189.014 168.948L144.732 194.515C144.352 194.734 143.921 194.849 143.482 194.849C143.043 194.849 142.612 194.734 142.232 194.515C141.852 194.295 141.536 193.98 141.317 193.6C141.097 193.219 140.982 192.788 140.982 192.349V168.123C140.982 167.684 140.866 167.253 140.647 166.873C140.427 166.493 140.112 166.177 139.732 165.958L106.251 146.628C105.871 146.408 105.44 146.293 105.001 146.293C104.562 146.293 104.131 146.408 103.751 146.628L70.2703 165.958C69.8903 166.177 69.5747 166.493 69.3553 166.873C69.1358 167.253 69.0203 167.684 69.0203 168.123V192.349C69.0203 192.788 68.9048 193.219 68.6854 193.6C68.466 193.98 68.1504 194.295 67.7703 194.515C67.3903 194.734 66.9592 194.849 66.5203 194.849Z" fill="url(#paint0_linear_203_4)"/>
<path d="M105.038 3.38684C106.505 3.38684 107.905 3.75351 109.238 4.48684L202.038 58.0868C203.305 58.8202 204.338 59.8535 205.138 61.1868C205.872 62.5202 206.238 63.9535 206.238 65.4868V172.587C206.238 174.054 205.872 175.454 205.138 176.787C204.338 178.12 203.305 179.154 202.038 179.887L109.238 233.487C107.905 234.22 106.505 234.587 105.038 234.587C103.505 234.587 102.072 234.22 100.738 233.487L8.03828 179.887C6.70495 179.154 5.63828 178.12 4.83828 176.787C4.10495 175.454 3.73828 174.054 3.73828 172.587V65.4868C3.73828 63.9535 4.10495 62.5202 4.83828 61.1868C5.63828 59.8535 6.70495 58.8202 8.03828 58.0868L100.738 4.48684C102.072 3.75351 103.505 3.38684 105.038 3.38684Z" stroke="#00FFFF" stroke-width="6"/>
<path d="M106.251 9.72176C105.871 9.50234 105.44 9.38684 105.001 9.38684C104.562 9.38684 104.131 9.50234 103.751 9.72176L10.9883 63.2784C10.6082 63.4978 10.2927 63.8134 10.0732 64.1935C9.85381 64.5735 9.73829 65.0046 9.73828 65.4435V172.557C9.73829 172.996 9.85381 173.427 10.0732 173.807C10.2927 174.187 10.6082 174.502 10.9883 174.722L103.751 228.278C104.131 228.498 104.562 228.613 105.001 228.613C105.44 228.613 105.871 228.498 106.251 228.278L199.014 174.722C199.394 174.502 199.71 174.187 199.929 173.807C200.148 173.427 200.264 172.996 200.264 172.557L200.264 65.4435C200.264 65.0046 200.148 64.5735 199.929 64.1935C199.71 63.8134 199.394 63.4978 199.014 63.2784L106.251 9.72176Z" stroke="#00FFFF" stroke-width="3" stroke-linecap="round" stroke-linejoin="round"/>
<defs>
<linearGradient id="paint0_linear_203_4" x1="105.001" y1="228.613" x2="105.001" y2="9.38684" gradientUnits="userSpaceOnUse">
<stop stop-color="#0250C5"/>
<stop offset="1" stop-color="#D43F8D"/>
</linearGradient>
</defs>
</svg>
    