<svg width="227" height="261" viewBox="0 0 227 261" fill="none" xmlns="http://www.w3.org/2000/svg">
<path d="M116.341 13.4904C114.794 12.5972 112.888 12.5972 111.341 13.4904L13.7578 69.8301C12.2108 70.7233 11.2578 72.3739 11.2578 74.1603V186.84C11.2578 188.626 12.2108 190.277 13.7578 191.17L111.341 247.51C112.888 248.403 114.794 248.403 116.341 247.51L213.924 191.17C215.471 190.277 216.424 188.626 216.424 186.84V74.1602C216.424 72.3739 215.471 70.7233 213.924 69.8301L116.341 13.4904Z" stroke="#005BEA" stroke-opacity="0.4" stroke-linecap="round" stroke-linejoin="round"/>
<path d="M116.341 1.94338C114.794 1.05021 112.888 1.05021 111.341 1.94338L3.75781 64.0566C2.21081 64.9498 1.25781 66.6004 1.25781 68.3868V192.613C1.25781 194.4 2.21081 196.05 3.75781 196.943L111.341 259.057C112.888 259.95 114.794 259.95 116.341 259.057L223.924 196.943C225.471 196.05 226.424 194.4 226.424 192.613V68.3867C226.424 66.6004 225.471 64.9498 223.924 64.0566L116.341 1.94338Z" stroke="#005BEA" stroke-opacity="0.2" stroke-linecap="round" stroke-linejoin="round"/>
<path d="M116.341 25.0374C114.794 24.1442 112.888 24.1442 111.341 25.0374L23.7578 75.6036C22.2108 76.4968 21.2578 78.1474 21.2578 79.9338V181.066C21.2578 182.853 22.2108 184.503 23.7578 185.396L111.341 235.963C112.888 236.856 114.794 236.856 116.341 235.963L203.924 185.396C205.471 184.503 206.424 182.853 206.424 181.066V79.9337C206.424 78.1474 205.471 76.4968 203.924 75.6036L116.341 25.0374Z" fill="url(#paint0_linear_591_2)"/>
<defs>
<linearGradient id="paint0_linear_591_2" x1="113.841" y1="237.406" x2="113.841" y2="23.594" gradientUnits="userSpaceOnUse">
<stop stop-color="#00C6FB"/>
<stop offset="1" stop-color="#005BEA"/>
</linearGradient>
</defs>
</svg>
    