<svg width="393" height="443" viewBox="0 0 393 443" fill="none" xmlns="http://www.w3.org/2000/svg">
<path d="M196.5 437.915C192.07 437.915 187.71 436.745 183.89 434.535L18.5399 339.065C10.7599 334.575 5.92993 326.205 5.92993 317.215V126.285C5.92993 117.305 10.7599 108.935 18.5399 104.435L183.89 8.96497C187.72 6.75497 192.08 5.58496 196.5 5.58496C200.92 5.58496 205.28 6.75497 209.11 8.96497L374.46 104.435C382.24 108.925 387.07 117.295 387.07 126.285V317.215C387.07 326.195 382.24 334.565 374.46 339.065L209.11 434.535C205.28 436.745 200.92 437.915 196.5 437.915Z" fill="#0c0222" stroke="#00FFFF" stroke-width="10" stroke-miterlimit="10"/>
<g filter="url(#filter0_i_301_2)">
  <path d="M196.49 427.905C193.82 427.905 191.19 427.195 188.88 425.865L23.5299 330.395C18.8299 327.685 15.9199 322.635 15.9199 317.215V126.285C15.9199 120.865 18.8399 115.815 23.5399 113.105L188.89 17.635C191.2 16.305 193.84 15.595 196.5 15.595C199.16 15.595 201.8 16.305 204.12 17.635L369.47 113.095C374.17 115.805 377.08 120.855 377.08 126.275V317.205C377.08 322.625 374.16 327.675 369.47 330.385L204.12 425.855C201.81 427.185 199.18 427.895 196.51 427.895L196.49 427.905Z" fill="#00FFFF" fill-opacity="0.01"/>
</g>
<defs>
  <filter id="filter0_i_301_2" x="15.9199" y="15.595" width="361.16" height="412.31" filterUnits="userSpaceOnUse" color-interpolation-filters="sRGB">
    <feFlood flood-opacity="0" result="BackgroundImageFix"/>
    <feBlend mode="normal" in="SourceGraphic" in2="BackgroundImageFix" result="shape"/>
    <feColorMatrix in="SourceAlpha" type="matrix" values="0 0 0 0 0 0 0 0 0 0 0 0 0 0 0 0 0 0 127 0" result="hardAlpha"/>
    <feOffset/>
    <feGaussianBlur stdDeviation="50"/>
    <feComposite in2="hardAlpha" operator="arithmetic" k2="-1" k3="1"/>
    <feColorMatrix type="matrix" values="0 0 0 0 0 0 0 0 0 1 0 0 0 0 1 0 0 0 1 0"/>
    <feBlend mode="normal" in2="shape" result="effect1_innerShadow_301_2"/>
  </filter>
</defs>
</svg>
