<svg width="296" height="383" viewBox="0 0 296 383" fill="none" xmlns="http://www.w3.org/2000/svg">
<path d="M177.576 5.38682C177.576 1.53782 173.409 -0.867811 170.076 1.05669L54.9926 67.5001L0 99.25V382.344L177.576 279.82L292.659 213.377C295.992 211.453 295.992 206.641 292.659 204.717L180.076 139.717C178.529 138.824 177.576 137.173 177.576 135.387V5.38682Z" fill="#0263EB" fill-opacity="0.1"/>
<path d="M170.326 1.4897C173.326 -0.242347 177.076 1.92272 177.076 5.38682V135.387C177.076 137.352 178.124 139.167 179.826 140.15L292.409 205.15C295.409 206.882 295.409 211.212 292.409 212.944L177.326 279.387L0.5 381.478V99.5387L55.2426 67.9331L170.326 1.4897Z" stroke="#005BEA" stroke-opacity="0.2" stroke-linecap="round" stroke-linejoin="round"/>
</svg>
    