<svg width="88" height="100" viewBox="0 0 88 100" fill="none" xmlns="http://www.w3.org/2000/svg">
<path fill-rule="evenodd" clip-rule="evenodd" d="M43.0005 0.577389C43.6193 0.220123 44.3817 0.220122 45.0005 0.577388L86.3018 24.4227C86.9206 24.78 87.3018 25.4402 87.3018 26.1547V73.8453C87.3018 74.5599 86.9206 75.2201 86.3018 75.5774L45.0005 99.4227C44.3817 99.78 43.6193 99.78 43.0005 99.4227L1.69922 75.5774C1.08042 75.2201 0.699219 74.5599 0.699219 73.8453V26.1547C0.699219 25.4402 1.08042 24.78 1.69922 24.4227L43.0005 0.577389ZM43.0005 12.1245C43.6193 11.7672 44.3817 11.7672 45.0005 12.1245L76.3017 30.1963C76.9205 30.5535 77.3017 31.2138 77.3017 31.9283V68.072C77.3017 68.7865 76.9205 69.4467 76.3017 69.804L45.0005 87.8758C44.3817 88.2331 43.6193 88.2331 43.0005 87.8758L11.6992 69.804C11.0804 69.4467 10.6992 68.7865 10.6992 68.072V31.9283C10.6992 31.2138 11.0804 30.5535 11.6992 30.1963L43.0005 12.1245Z" fill="#F90E1B"/>
</svg>
  
