<svg width="296" height="383" viewBox="0 0 296 383" fill="none" xmlns="http://www.w3.org/2000/svg">
<path d="M3.33985 169.623C0.0065136 171.547 0.00651073 176.359 3.33984 178.283L115.923 243.283C117.47 244.176 118.423 245.827 118.423 247.613V377.613C118.423 381.462 122.59 383.868 125.923 381.943L241.006 315.5L285.999 289.524L295.999 283.75V0.656006L118.423 103.179L3.33985 169.623Z" fill="#0263EB" fill-opacity="0.1"/>
<path d="M3.58984 177.85C0.589845 176.118 0.589847 171.788 3.58985 170.056L118.673 103.612L295.499 1.52203V283.461L285.749 289.091L240.756 315.067L125.673 381.51C122.673 383.242 118.923 381.077 118.923 377.613V247.613C118.923 245.648 117.875 243.833 116.173 242.85L3.58984 177.85Z" stroke="#005BEA" stroke-opacity="0.2" stroke-linecap="round" stroke-linejoin="round"/>
</svg>
    