<svg id="Capa_1" enable-background="new 0 0 512 512" viewBox="0 0 512 512" xmlns="http://www.w3.org/2000/svg"><g id="Layer_50"><path fill="#00FFFF" d="m249.257 495.283c3.077 1.784 7.074 1.806 10.143-.01l194.831-111.616c3.173-1.832 5.125-5.219 5.12-8.883v-226.586c-.092-3.468-1.809-6.814-4.782-8.668l-194.77-122.588c-3.319-2.05-7.616-2.052-10.947-.02l-194.785 122.608c-2.978 1.853-4.687 5.201-4.787 8.668v226.57c.001 3.67 1.966 7.059 5.151 8.883zm-179.497-328.883 174.346 105.779v196.552l-174.346-99.907zm184.586-128.701 175.35 110.331-175.35 106.394-175.35-106.395zm10.24 431.032v-196.567l174.346-105.764v202.445z"></path></g></svg>