<svg width="33" height="43" viewBox="0 0 33 43" fill="none" xmlns="http://www.w3.org/2000/svg">
<path d="M26.2162 33.0789H28.3215C28.7362 33.0789 29.1468 32.9973 29.53 32.8386C29.9131 32.6799 30.2612 32.4473 30.5545 32.154C30.8477 31.8608 31.0803 31.5127 31.239 31.1295C31.3977 30.7464 31.4794 30.3358 31.4794 29.9211V4.65789C31.4794 4.24319 31.3977 3.83255 31.239 3.44942C31.0803 3.06629 30.8477 2.71816 30.5545 2.42493C30.2612 2.13169 29.9131 1.89908 29.53 1.74038C29.1468 1.58168 28.7362 1.5 28.3215 1.5H13.5847C13.17 1.5 12.7593 1.58168 12.3762 1.74038C11.993 1.89908 11.6449 2.13169 11.3517 2.42493C11.0584 2.71816 10.8258 3.06629 10.6671 3.44942C10.5084 3.83255 10.4268 4.24319 10.4268 4.65789V6.76316" stroke="#00FFFF" stroke-width="3" stroke-linejoin="round"/>
<path d="M2.00586 38.3421C2.00586 38.7568 2.08754 39.1674 2.24624 39.5505C2.40494 39.9337 2.63755 40.2818 2.93079 40.575C3.22402 40.8683 3.57215 41.1009 3.95528 41.2596C4.33841 41.4183 4.74905 41.5 5.16375 41.5H19.9006C20.3153 41.5 20.7259 41.4183 21.1091 41.2596C21.4922 41.1009 21.8403 40.8683 22.1336 40.575C22.4268 40.2818 22.6594 39.9337 22.8181 39.5505C22.9768 39.1674 23.0585 38.7568 23.0585 38.3421V13.0789C23.0585 12.6642 22.9768 12.2536 22.8181 11.8704C22.6594 11.4873 22.4268 11.1392 22.1336 10.8459C21.8403 10.5527 21.4922 10.3201 21.1091 10.1614C20.7259 10.0027 20.3153 9.92102 19.9006 9.92102H5.16375C4.32623 9.92102 3.52301 10.2537 2.93079 10.8459C2.33857 11.4382 2.00586 12.2414 2.00586 13.0789V38.3421Z" stroke="#00FFFF" stroke-width="3" stroke-linejoin="round"/>
</svg>
    