<svg width="12" height="13" viewBox="0 0 12 13" fill="none" xmlns="http://www.w3.org/2000/svg">
<path d="M1.49995 5.20099C1.27192 5.33264 1.08258 5.52199 0.950923 5.75002C0.819268 5.97805 0.75 6.23672 0.75 6.50003C0.75 6.76334 0.819268 7.02202 0.950923 7.25005C1.08258 7.47808 1.27192 7.66743 1.49996 7.79908L8.99998 12.1292C9.22801 12.2608 9.48664 12.3301 9.74994 12.3301C10.0132 12.3301 10.2719 12.2608 10.4999 12.1292C10.7279 11.9975 10.9173 11.8081 11.0489 11.5801C11.1806 11.3521 11.25 11.0935 11.25 10.8302L11.25 2.1699C11.25 1.9066 11.1807 1.64796 11.049 1.41994C10.9174 1.19192 10.728 1.00256 10.5 0.870908C10.272 0.739256 10.0132 0.669932 9.74994 0.669926C9.48664 0.66992 9.22801 0.739208 8.99998 0.870849L1.49995 5.20099Z" fill="#112A5E"/>
</svg>
    