<svg width="30" height="30" viewBox="0 0 30 30" fill="none" xmlns="http://www.w3.org/2000/svg">
	<path fill-rule="evenodd" clip-rule="evenodd" d="M18 12H12V18H18V12ZM10 10V20H20V10H10Z"
		fill="#00F0FF" />
	<path fill-rule="evenodd" clip-rule="evenodd"
		d="M10 10L0 10L1.74846e-07 8L8 8L8 -1.74846e-07L10 0L10 10Z" fill="#00F0FF" />
	<path fill-rule="evenodd" clip-rule="evenodd"
		d="M10 20L0 20L-1.74846e-07 22L8 22L8 30L10 30L10 20Z" fill="#00F0FF" />
	<path fill-rule="evenodd" clip-rule="evenodd"
		d="M20 10L20 0L22 2.38498e-08L22 8L30 8L30 10L20 10Z" fill="#00F0FF" />
	<path fill-rule="evenodd" clip-rule="evenodd" d="M20 20L20 30L22 30L22 22L30 22L30 20L20 20Z"
		fill="#00F0FF" />
</svg>
