<?xml version="1.0" encoding="UTF-8"?>
<!DOCTYPE svg PUBLIC "-//W3C//DTD SVG 1.1//EN" "http://www.w3.org/Graphics/SVG/1.1/DTD/svg11.dtd">
<!-- Creator: CorelDRAW X7 -->
<svg xmlns="http://www.w3.org/2000/svg" xml:space="preserve" width="10mm" height="12.3mm" version="1.1" style="shape-rendering:geometricPrecision; text-rendering:geometricPrecision; image-rendering:optimizeQuality; fill-rule:evenodd; clip-rule:evenodd"
viewBox="0 0 1000 1230"
 xmlns:xlink="http://www.w3.org/1999/xlink">
 <defs>
  <style type="text/css">
   <![CDATA[
    .fil0 {fill:aqua}
   ]]>
  </style>
 </defs>
 <g id="Слой_x0020_1">
  <metadata id="CorelCorpID_0Corel-Layer"/>
  <path class="fil0" d="M10 1086l528 0 0 -181 143 0 1 -145 44 -2c-8,-16 -130,-135 -143,-139 -3,-1 -7,0 -15,4 -54,22 -88,35 -149,34 -50,0 -97,-12 -145,-33 -11,-5 -13,-8 -24,1 -66,58 -126,114 -169,184 -40,66 -78,199 -71,277zm411 -1073c153,0 276,125 276,279 0,155 -123,280 -276,280 -153,0 -277,-125 -277,-280 0,-154 124,-279 277,-279zm327 813l99 0 0 145 144 0 0 101 -144 0 0 146 -99 0 0 -146 -144 0 0 -101 144 0 0 -145z"/>
 </g>
</svg>
