<svg width="42" height="43" viewBox="0 0 42 43" fill="none" xmlns="http://www.w3.org/2000/svg">
    <path
        d="M13.5829 17.1131V6.30908C13.5829 5.7109 13.701 5.1186 13.93 4.56595C14.159 4.01332 14.494 3.51118 14.9171 3.08822C15.3401 2.66525 15.8414 2.32973 16.3946 2.10082C16.9478 1.87191 17.5395 1.75409 18.1373 1.75409H36.0196C36.6174 1.75409 37.2104 1.87191 37.7623 2.10082C38.3155 2.32973 38.8181 2.66525 39.2411 3.08822C39.6641 3.51118 39.9991 4.01332 40.2281 4.56595C40.4571 5.1186 40.5752 5.7109 40.5752 6.30908V37.0271C40.5752 37.6252 40.4571 38.2176 40.2281 38.7703C39.9991 39.3229 39.6641 39.825 39.2411 40.2479C38.8181 40.671 38.3155 41.0065 37.7623 41.2353C37.2104 41.4643 36.6174 41.5821 36.0196 41.5821H18.1373C17.5395 41.5821 16.9478 41.4643 16.3946 41.2353C15.8414 41.0065 15.3401 40.671 14.9171 40.2479C14.494 39.825 14.159 39.3229 13.93 38.7703C13.701 38.2176 13.5829 37.6252 13.5829 37.0271V26.2231"
        stroke="#00FFFF" stroke-width="2.5" stroke-linecap="round" stroke-linejoin="round" />
    <path d="M2.23242 21.6681L26.7568 21.7541" stroke="#00FFFF" stroke-width="2.5"
        stroke-linecap="round" stroke-linejoin="round" />
    <path d="M18.9688 29.0842L28.0787 21.6683L18.9688 14.2523" stroke="#00FFFF" stroke-width="2.5"
        stroke-linecap="round" stroke-linejoin="round" />
</svg>
    
    