<svg width="402" height="62" viewBox="0 0 402 62" fill="none" xmlns="http://www.w3.org/2000/svg">
    <path
        d="M24.2843 1C22.3144 1 20.3639 1.38798 18.544 2.14181C16.7241 2.89563 15.0706 4.00052 13.6777 5.3934L5.3934 13.6777C4.00052 15.0705 2.89563 16.7241 2.14181 18.544C1.38798 20.3639 1 22.3144 1 24.2843L1.00001 37.7157C1.00001 41.694 2.58036 45.5093 5.3934 48.3223L13.6777 56.6066C15.0705 57.9995 16.7241 59.1044 18.544 59.8582C20.3639 60.612 22.3144 61 24.2843 61H377.716C381.694 61 385.509 59.4196 388.322 56.6066L396.607 48.3223C399.42 45.5093 401 41.694 401 37.7157V24.2843C401 20.306 399.42 16.4907 396.607 13.6777L388.322 5.3934C385.509 2.58036 381.694 1.00001 377.716 1H24.2843Z"
        stroke="url(#paint0_linear_64_2089)" stroke-width="2" stroke-linecap="round"
        stroke-linejoin="round" />
    <defs>
        <linearGradient id="paint0_linear_64_2089" x1="201" y1="1" x2="201" y2="61"
            gradientUnits="userSpaceOnUse">
            <stop stop-color="#22E1FF" />
            <stop offset="0.48" stop-color="#1D8FE1" />
            <stop offset="1" stop-color="#625EB1" />
        </linearGradient>
    </defs>
</svg>
    