<svg width="72" height="75" viewBox="0 0 72 75" fill="none" xmlns="http://www.w3.org/2000/svg">
<path d="M44.5901 66.6998C44.7101 67.1098 42.6101 74.5598 42.4801 74.9898H30.0101C29.8801 74.5598 27.7901 67.1098 27.9001 66.6998L15.3501 59.4498C15.0501 59.7598 7.55011 61.6698 7.11011 61.7698L0.870117 50.9698C1.18012 50.6498 6.58012 45.0998 7.00012 44.9998V30.4998C6.59012 30.3898 1.18012 24.8498 0.870117 24.5298L7.11011 13.7298C7.55011 13.8398 15.0501 15.7498 15.3501 16.0498L27.9001 8.79977C27.7801 8.38977 29.8801 0.939766 30.0101 0.509766H42.4801C42.6101 0.939766 44.7001 8.38977 44.5901 8.79977L57.1401 16.0498C57.4401 15.7398 64.9401 13.8298 65.3801 13.7298L71.6201 24.5298C71.3101 24.8498 65.9101 30.3998 65.4901 30.4998V44.9998C65.9001 45.1098 71.3101 50.6498 71.6201 50.9698L65.3801 61.7698C64.9401 61.6598 57.4401 59.7498 57.1401 59.4498L44.5901 66.6998ZM54.8701 37.7498C54.8701 27.4698 46.5301 19.1298 36.2501 19.1298C25.9701 19.1298 17.6301 27.4698 17.6301 37.7498C17.6301 48.0298 25.9701 56.3698 36.2501 56.3698C46.5301 56.3698 54.8701 48.0298 54.8701 37.7498Z" fill="#00FFFF"/>
</svg>
