<svg width="169" height="102" viewBox="0 0 169 102" fill="none" xmlns="http://www.w3.org/2000/svg">
<path d="M74.5 101.34H47.32C43.86 101.34 40.41 100.45 37.32 98.6602L24.18 91.0802L11.04 83.4902C7.94004 81.7102 5.44004 79.1602 3.72004 76.1702C1.99004 73.1802 1.04004 69.7402 1.04004 66.1702V35.8302C1.04004 32.2602 1.99004 28.8202 3.72004 25.8302C5.44004 22.8402 7.94004 20.2902 11.04 18.5102L24.18 10.9202L37.32 3.34016C40.41 1.55016 43.86 0.660156 47.32 0.660156H121.68C125.14 0.660156 128.59 1.55016 131.68 3.34016L144.82 10.9202L157.96 18.5102C161.06 20.2902 163.56 22.8402 165.28 25.8302C167.01 28.8202 167.96 32.2602 167.96 35.8302V51.0002V66.1702C167.96 69.7402 167.01 73.1802 165.28 76.1702C163.56 79.1602 161.06 81.7102 157.96 83.4902L144.82 91.0802L131.68 98.6602C128.59 100.45 125.14 101.34 121.68 101.34H74.5Z" stroke="#00FFFF" stroke-miterlimit="10"/>
<g filter="url(#filter0_i_70_1929)">
<path d="M47.32 96.3404C44.68 96.3404 42.09 95.6504 39.83 94.3304L26.68 86.7504L13.54 79.1604C11.26 77.8504 9.36004 75.9604 8.05004 73.6804C6.73004 71.4004 6.04004 68.8104 6.04004 66.1704V35.8304C6.04004 33.2004 6.73004 30.6004 8.05004 28.3304C9.37004 26.0404 11.26 24.1504 13.53 22.8404L26.68 15.2404L39.82 7.66039C42.09 6.34039 44.69 5.65039 47.32 5.65039H121.68C124.32 5.65039 126.91 6.34039 129.17 7.66039L142.32 15.2404L155.46 22.8304C157.74 24.1404 159.64 26.0304 160.95 28.3104C162.27 30.5904 162.96 33.1804 162.96 35.8204V66.1604C162.96 68.7904 162.27 71.3904 160.95 73.6604C159.63 75.9504 157.74 77.8404 155.47 79.1504L142.32 86.7504L129.18 94.3304C126.91 95.6504 124.31 96.3404 121.68 96.3404H47.32Z" fill="#00FFFF" fill-opacity="0.01"/>
</g>
<defs>
<filter id="filter0_i_70_1929" x="6.04004" y="5.65039" width="156.92" height="90.6899" filterUnits="userSpaceOnUse" color-interpolation-filters="sRGB">
<feFlood flood-opacity="0" result="BackgroundImageFix"/>
<feBlend mode="normal" in="SourceGraphic" in2="BackgroundImageFix" result="shape"/>
<feColorMatrix in="SourceAlpha" type="matrix" values="0 0 0 0 0 0 0 0 0 0 0 0 0 0 0 0 0 0 127 0" result="hardAlpha"/>
<feOffset/>
<feGaussianBlur stdDeviation="10"/>
<feComposite in2="hardAlpha" operator="arithmetic" k2="-1" k3="1"/>
<feColorMatrix type="matrix" values="0 0 0 0 0 0 0 0 0 1 0 0 0 0 1 0 0 0 1 0"/>
<feBlend mode="normal" in2="shape" result="effect1_innerShadow_70_1929"/>
</filter>
</defs>
</svg>
