<svg width="32" height="29" viewBox="0 0 32 29" fill="none" xmlns="http://www.w3.org/2000/svg">
<path d="M3 13.04V10.61C3 9.41996 3.96002 8.45996 5.15002 8.45996H26.84C28.03 8.45996 28.99 9.41996 28.99 10.61V13.04" stroke="#00FFFF" stroke-miterlimit="10"/>
<path d="M3 11.37V6.94004C3 5.75004 3.96002 4.79004 5.15002 4.79004H26.84C28.03 4.79004 28.99 5.75004 28.99 6.94004V11.37" stroke="#00FFFF" stroke-miterlimit="10"/>
<path d="M3 7.70012V3.27012C3 2.08012 3.96002 1.12012 5.15002 1.12012H26.84C28.03 1.12012 28.99 2.08012 28.99 3.27012V7.70012" stroke="#00FFFF" stroke-miterlimit="10"/>
<path d="M19.2202 14.59L18.6803 15.52C17.4903 17.58 14.5102 17.58 13.3202 15.52L12.7803 14.59C12.2303 13.63 11.2102 13.04 10.1002 13.04H2.05029C1.47029 13.04 0.990234 13.51 0.990234 14.1V24.04C0.990234 26.25 2.78023 28.04 4.99023 28.04H26.9902C29.2002 28.04 30.9902 26.25 30.9902 24.04V14.1C30.9902 13.52 30.5203 13.04 29.9303 13.04H21.8802C20.7702 13.04 19.7502 13.63 19.2002 14.59H19.2202Z" stroke="#00FFFF" stroke-miterlimit="10"/>
</svg>
