<svg width="175" height="70" viewBox="0 0 175 70" fill="none" xmlns="http://www.w3.org/2000/svg">
<path d="M14.9434 70C11.0394 70 7.67938 68.624 4.86338 65.872C2.11138 63.056 0.735375 59.696 0.735375 55.792V15.088C0.735375 11.184 2.11138 7.856 4.86338 5.10399C7.67938 2.288 11.0394 0.879997 14.9434 0.879997H55.5514C59.4554 0.879997 62.8154 2.288 65.6314 5.10399C68.4474 7.856 69.8554 11.184 69.8554 15.088V21.616H54.7834V19.024C54.7834 16.912 54.7834 15.856 54.7834 15.856C54.7834 15.856 53.7274 15.856 51.6154 15.856H18.7834C16.6714 15.856 15.6154 15.856 15.6154 15.856C15.6154 15.856 15.6154 16.912 15.6154 19.024V51.856C15.6154 53.968 15.6154 55.024 15.6154 55.024C15.6154 55.024 16.6714 55.024 18.7834 55.024H51.6154C53.7274 55.024 54.7834 55.024 54.7834 55.024C54.7834 55.024 54.7834 53.968 54.7834 51.856V44.656H39.8074V29.68H69.8554V55.792C69.8554 59.696 68.4474 63.056 65.6314 65.872C62.8154 68.624 59.4554 70 55.5514 70H14.9434ZM94.4389 70C90.5349 70 87.1749 68.624 84.3589 65.872C81.6069 63.056 80.2309 59.696 80.2309 55.792V15.088C80.2309 11.184 81.6069 7.856 84.3589 5.10399C87.1749 2.288 90.5349 0.879997 94.4389 0.879997H135.143C138.983 0.879997 142.311 2.288 145.127 5.10399C147.943 7.856 149.351 11.184 149.351 15.088V55.792C149.351 59.696 147.943 63.056 145.127 65.872C142.311 68.624 138.983 70 135.143 70H94.4389ZM98.2789 55.024H131.111C133.223 55.024 134.279 55.024 134.279 55.024C134.279 55.024 134.279 53.968 134.279 51.856V19.024C134.279 16.912 134.279 15.856 134.279 15.856C134.279 15.856 133.223 15.856 131.111 15.856H98.2789C96.1669 15.856 95.1109 15.856 95.1109 15.856C95.1109 15.856 95.1109 16.912 95.1109 19.024V51.856C95.1109 53.968 95.1109 55.024 95.1109 55.024C95.1109 55.024 96.1669 55.024 98.2789 55.024ZM160.115 50.704V0.879997H174.803V50.704H160.115ZM160.115 70V55.312H174.803V70H160.115Z" fill="url(#paint0_linear_139_165)"/>
<defs>
<linearGradient id="paint0_linear_139_165" x1="85.5" y1="93" x2="85.5" y2="-27" gradientUnits="userSpaceOnUse">
<stop stop-color="#0250C5"/>
<stop offset="1" stop-color="#D43F8D"/>
</linearGradient>
</defs>
</svg>
    