<svg width="82" height="95" viewBox="0 0 82 95" fill="none" xmlns="http://www.w3.org/2000/svg">
<path fill-rule="evenodd" clip-rule="evenodd" d="M41 0.701355C41.4388 0.701355 41.8699 0.816853 42.25 1.03628L80.75 23.2643C81.1301 23.4837 81.4456 23.7993 81.6651 24.1793C81.8845 24.5594 82 24.9905 82 25.4293V69.8853C82 70.3241 81.8845 70.7553 81.6651 71.1353C81.4456 71.5154 81.13 71.831 80.75 72.0504L42.25 94.2783C41.87 94.4977 41.4388 94.6132 41 94.6132C40.5612 94.6132 40.1301 94.4977 39.75 94.2783L1.25 72.0504C0.869952 71.831 0.554357 71.5154 0.334935 71.1353C0.115513 70.7553 -2.55014e-06 70.3241 0 69.8853V25.4293C1.01242e-05 24.9905 0.115524 24.5594 0.334948 24.1793C0.554372 23.7993 0.869973 23.4837 1.25002 23.2643L39.75 1.03628C40.13 0.816853 40.5611 0.701355 41 0.701355ZM58.3205 73.0663C58.7593 73.0663 59.1904 72.9508 59.5705 72.7314L70.75 66.2769C71.13 66.0575 71.4457 65.7419 71.6651 65.3618C71.8845 64.9818 72 64.5507 72 64.1118V31.2029C72 30.764 71.8845 30.3329 71.6651 29.9529C71.4457 29.5728 71.13 29.2572 70.75 29.0378L42.25 12.5833C41.8699 12.3639 41.4388 12.2484 41 12.2484C40.5611 12.2484 40.1301 12.3639 39.75 12.5833L11.25 29.0378C10.87 29.2572 10.5544 29.5728 10.3349 29.9529C10.1155 30.3329 10 30.764 10 31.2028V64.1118C10 64.5507 10.1155 64.9818 10.3349 65.3618C10.5544 65.7419 10.87 66.0575 11.25 66.2769L22.4295 72.7314C22.8095 72.9508 23.2406 73.0663 23.6795 73.0663C24.1183 73.0663 24.5494 72.9508 24.9295 72.7314L32.3397 68.4531L39.75 64.1748C40.13 63.9553 40.5611 63.8398 41 63.8398C41.4388 63.8398 41.8699 63.9553 42.25 64.1748L49.6603 68.4531L57.0705 72.7314C57.4506 72.9508 57.8817 73.0663 58.3205 73.0663Z" fill="url(#paint0_linear_139_85)"/>
<defs>
<linearGradient id="paint0_linear_139_85" x1="41" y1="94.6132" x2="41" y2="0.701355" gradientUnits="userSpaceOnUse">
<stop stop-color="#00C6FB"/>
<stop offset="1" stop-color="#005BEA"/>
</linearGradient>
</defs>
</svg>
    
    