<svg width="192" height="220" viewBox="0 0 192 220" fill="none" xmlns="http://www.w3.org/2000/svg">
<path fill-rule="evenodd" clip-rule="evenodd" d="M96.0011 0.38681C96.4399 0.38681 96.871 0.502328 97.2511 0.721752L190.014 54.2784C190.394 54.4978 190.71 54.8134 190.929 55.1934C191.148 55.5735 191.264 56.0046 191.264 56.4434L191.264 163.557C191.264 163.996 191.148 164.427 190.929 164.807C190.71 165.187 190.394 165.502 190.014 165.722L97.2511 219.278C96.871 219.498 96.4399 219.613 96.0011 219.613C95.5622 219.613 95.1311 219.498 94.7511 219.278L1.98829 165.722C1.60824 165.502 1.29264 165.187 1.07322 164.807C0.853794 164.427 0.738281 163.996 0.738281 163.557V56.4434C0.738281 56.0046 0.853794 55.5735 1.07322 55.1934C1.29264 54.8134 1.60823 54.4978 1.98829 54.2784L94.7511 0.721752C95.1311 0.502328 95.5622 0.38681 96.0011 0.38681ZM96.0011 11.9338C96.4399 11.9338 96.871 12.0493 97.2511 12.2688L180.014 60.0519C180.394 60.2713 180.71 60.5869 180.929 60.967C181.148 61.347 181.264 61.7781 181.264 62.217V157.783C181.264 158.222 181.148 158.653 180.929 159.033C180.71 159.413 180.394 159.729 180.014 159.948L97.2511 207.731C96.871 207.951 96.4399 208.066 96.0011 208.066C95.5622 208.066 95.1311 207.951 94.7511 207.731L11.9883 159.948C11.6082 159.729 11.2926 159.413 11.0732 159.033C10.8538 158.653 10.7383 158.222 10.7383 157.783V62.217C10.7383 61.7781 10.8538 61.347 11.0732 60.967C11.2926 60.5869 11.6082 60.2713 11.9883 60.0519L94.7511 12.2688C95.1311 12.0493 95.5622 11.9338 96.0011 11.9338Z" fill="url(#paint0_linear_139_79)"/>
<defs>
<linearGradient id="paint0_linear_139_79" x1="96.0011" y1="219.613" x2="96.0011" y2="0.38681" gradientUnits="userSpaceOnUse">
<stop stop-color="#00C6FB"/>
<stop offset="1" stop-color="#005BEA"/>
</linearGradient>
</defs>
</svg>
    