<svg width="387" height="70" viewBox="0 0 387 70" fill="none" xmlns="http://www.w3.org/2000/svg">
<path d="M54.3525 70L34.2885 46.096H53.7765L69.7125 64.912V70H54.3525ZM0.6885 70V0.975996H55.5045C58.1285 0.975996 60.4965 1.616 62.6085 2.89599C64.7845 4.176 66.5125 5.904 67.7925 8.08C69.1365 10.256 69.8085 12.624 69.8085 15.184V33.04C69.8085 35.6 69.1365 37.968 67.7925 40.144C66.5125 42.32 64.7845 44.048 62.6085 45.328C60.4965 46.608 58.1285 47.248 55.5045 47.248L15.5685 47.344V70H0.6885ZM15.5685 32.272H54.7365V15.856H15.5685V32.272ZM80.0993 70V0.879997H143.939V15.856H95.1713V27.952H134.435V42.928H95.1713V55.024H143.939V70H80.0993ZM153.599 70V15.088C153.599 12.464 154.239 10.096 155.519 7.984C156.799 5.808 158.527 4.08 160.703 2.8C162.879 1.52 165.247 0.879997 167.807 0.879997H208.415C211.039 0.879997 213.407 1.52 215.519 2.8C217.695 4.08 219.423 5.808 220.703 7.984C222.047 10.096 222.719 12.464 222.719 15.088V70H207.647V47.728H168.479V70H153.599ZM168.479 32.752H207.647V15.856H168.479V32.752ZM233.849 70V0.879997H288.665C291.289 0.879997 293.657 1.52 295.769 2.8C297.945 4.08 299.673 5.808 300.953 7.984C302.297 10.096 302.969 12.464 302.969 15.088V55.792C302.969 58.352 302.297 60.72 300.953 62.896C299.673 65.072 297.945 66.8 295.769 68.08C293.657 69.36 291.289 70 288.665 70H233.849ZM248.633 55.024H287.897V15.856H248.633V55.024ZM339.448 70V44.176L307.48 0.879997H325.24L346.936 28.144L368.536 0.879997H386.488L354.424 44.272V70H339.448Z" fill="url(#paint0_linear_139_77)"/>
<defs>
<linearGradient id="paint0_linear_139_77" x1="190.5" y1="93" x2="190.5" y2="-27" gradientUnits="userSpaceOnUse">
<stop stop-color="#0250C5"/>
<stop offset="1" stop-color="#D43F8D"/>
</linearGradient>
</defs>
</svg>
    