<svg width="220" height="70" viewBox="0 0 220 70" fill="none" xmlns="http://www.w3.org/2000/svg">
<path d="M14.4701 70C10.5661 70 7.20613 68.624 4.39013 65.872C1.63813 63.056 0.262125 59.696 0.262125 55.792V49.36H15.1421V51.856C15.1421 53.968 15.1421 55.024 15.1421 55.024C15.1421 55.024 16.1981 55.024 18.3101 55.024H51.1421C53.2541 55.024 54.3101 55.024 54.3101 55.024C54.3101 55.024 54.3101 53.968 54.3101 51.856V46.096C54.3101 43.984 54.3101 42.928 54.3101 42.928C54.3101 42.928 53.2541 42.928 51.1421 42.928H14.4701C10.5661 42.928 7.20613 41.552 4.39013 38.8C1.63813 35.984 0.262125 32.624 0.262125 28.72V15.088C0.262125 11.184 1.63813 7.856 4.39013 5.10399C7.20613 2.288 10.5661 0.879997 14.4701 0.879997H55.1741C59.0141 0.879997 62.3421 2.288 65.1581 5.10399C67.9741 7.856 69.3821 11.184 69.3821 15.088V21.52H54.3101V19.024C54.3101 16.912 54.3101 15.856 54.3101 15.856C54.3101 15.856 53.2541 15.856 51.1421 15.856H18.3101C16.1981 15.856 15.1421 15.856 15.1421 15.856C15.1421 15.856 15.1421 16.912 15.1421 19.024V24.784C15.1421 26.896 15.1421 27.952 15.1421 27.952C15.1421 27.952 16.1981 27.952 18.3101 27.952H55.1741C59.0141 27.952 62.3421 29.36 65.1581 32.176C67.9741 34.928 69.3821 38.256 69.3821 42.16V55.792C69.3821 59.696 67.9741 63.056 65.1581 65.872C62.3421 68.624 59.0141 70 55.1741 70H14.4701ZM80.1461 70V0.879997H143.986V15.856H95.2181V27.952H134.482V42.928H95.2181V55.024H143.986V70H80.1461ZM177.07 70V15.856H149.998V0.879997H219.118V15.856H192.046V70H177.07Z" fill="url(#paint0_linear_139_121)"/>
<defs>
<linearGradient id="paint0_linear_139_121" x1="108" y1="93" x2="108" y2="-27" gradientUnits="userSpaceOnUse">
<stop stop-color="#0250C5"/>
<stop offset="1" stop-color="#D43F8D"/>
</linearGradient>
</defs>
</svg>
    