<svg width="82" height="57" viewBox="0 0 82 57" fill="none" xmlns="http://www.w3.org/2000/svg">
<path d="M42.25 1.03628L80.75 23.2643C81.13 23.4837 81.4456 23.7993 81.6651 24.1793C81.8845 24.5594 82 24.9905 82 25.4294V53.8824C82 54.3212 81.8845 54.7523 81.6651 55.1324C81.4456 55.5124 81.13 55.828 80.75 56.0474C80.3699 56.2668 79.9388 56.3823 79.5 56.3823C79.0611 56.3823 78.6301 56.2668 78.25 56.0474L42.25 35.2628C41.8699 35.0434 41.4388 34.9278 41 34.9278C40.5611 34.9278 40.13 35.0434 39.75 35.2628L3.75 56.0474C3.36995 56.2668 2.93884 56.3823 2.49999 56.3823C2.06115 56.3823 1.63004 56.2668 1.24999 56.0474C0.869942 55.828 0.554341 55.5124 0.334922 55.1324C0.115502 54.7523 -3.03124e-06 54.3212 0 53.8823V25.4293C5.02478e-06 24.9905 0.115527 24.5594 0.334948 24.1793C0.55437 23.7993 0.869959 23.4837 1.25 23.2643L39.75 1.03628C40.1301 0.816865 40.5612 0.701348 41 0.701355C41.4388 0.701348 41.8699 0.816865 42.25 1.03628Z" fill="url(#paint0_linear_139_76)" fill-opacity="0.35"/>
<defs>
<linearGradient id="paint0_linear_139_76" x1="41" y1="56.3823" x2="41" y2="0.701355" gradientUnits="userSpaceOnUse">
<stop stop-color="#0250C5"/>
<stop offset="1" stop-color="#D43F8D"/>
</linearGradient>
</defs>
</svg>
    