<svg width="194" height="56" viewBox="0 0 194 56" fill="none" xmlns="http://www.w3.org/2000/svg">
<path d="M10.3769 50.602C13.0328 53.2578 16.6349 54.7499 20.3908 54.7499L173.609 54.7499C177.365 54.7499 180.967 53.2578 183.623 50.602L188.838 45.3878C191.493 42.7319 192.985 39.1298 192.985 35.3739V20.6259C192.985 16.8699 191.493 13.2678 188.838 10.612L183.623 5.39775C180.967 2.74191 177.365 1.24987 173.609 1.24988H20.3908C18.5311 1.24988 16.6895 1.6162 14.9713 2.3279C13.2532 3.0396 11.692 4.08274 10.3769 5.39778L5.16272 10.612C2.50688 13.2678 1.01484 16.8699 1.01483 20.6259V35.3739C1.01484 39.1298 2.50688 42.7319 5.16272 45.3878L10.3769 50.602Z" stroke="#035FEB" stroke-opacity="0.8" stroke-linecap="round" stroke-linejoin="round"/>
</svg>
