<svg width="64" height="64" viewBox="0 0 64 64" fill="none" xmlns="http://www.w3.org/2000/svg">
<path d="M31.9997 59.7819C47.4339 59.7819 59.9457 47.27 59.9457 31.8359C59.9457 16.4017 47.4339 3.88989 31.9997 3.88989C16.5656 3.88989 4.05371 16.4017 4.05371 31.8359C4.05371 47.27 16.5656 59.7819 31.9997 59.7819Z" fill="black"/>
<path d="M31.94 0C25.6223 0.000988917 19.4467 1.87544 14.1942 5.38599C8.94159 8.89653 4.84795 13.8857 2.43072 19.7227C0.0135021 25.5596 -0.618691 31.9822 0.614073 38.1785C1.84684 44.3747 4.88922 50.0664 9.3565 54.5337C13.8238 59.001 19.5155 62.0434 25.7117 63.2761C31.908 64.5089 38.3306 63.8767 44.1675 61.4595C50.0045 59.0423 54.9937 54.9484 58.5042 49.6958C62.0148 44.4432 63.889 38.2679 63.89 31.9502C63.8812 23.4792 60.5124 15.3576 54.5225 9.36768C48.5326 3.37778 40.411 0.00873585 31.94 0ZM31.94 59.8901C26.413 59.8891 21.0103 58.2492 16.4153 55.1777C11.8204 52.1063 8.23948 47.7412 6.1253 42.6345C4.01113 37.5279 3.45867 31.9091 4.5379 26.4885C5.61714 21.0679 8.27966 16.0889 12.1885 12.1814C16.0974 8.27392 21.0771 5.61343 26.4981 4.53613C31.9191 3.45884 37.5377 4.01315 42.6436 6.12915C47.7495 8.24516 52.1134 11.8277 55.1832 16.4238C58.253 21.0199 59.8909 26.4232 59.89 31.9502C59.8873 39.3613 56.9414 46.4678 51.7 51.7073C46.4587 56.9468 39.3511 59.8901 31.94 59.8901Z" fill="url(#paint0_linear_511_16)"/>
<path d="M31.94 4C26.4135 4.00099 21.0114 5.64065 16.4166 8.71167C11.8218 11.7827 8.24077 16.1473 6.1263 21.2534C4.01183 26.3595 3.45877 31.9779 4.53719 37.3982C5.61561 42.8185 8.27702 47.7974 12.1849 51.7053C16.0928 55.6132 21.0717 58.2746 26.492 59.353C31.9124 60.4314 37.5307 59.8784 42.6368 57.7639C47.7429 55.6494 52.1073 52.0684 55.1783 47.4736C58.2493 42.8789 59.889 37.4768 59.89 31.9502C59.8894 24.5376 56.9445 17.4285 51.703 12.187C46.4614 6.94549 39.3527 4.00053 31.94 4ZM31.94 55.8901C27.2041 55.8891 22.575 54.4837 18.6378 51.8518C14.7006 49.2199 11.6323 45.4795 9.82088 41.1038C8.00946 36.728 7.53613 31.9135 8.46102 27.2688C9.38591 22.6241 11.6675 18.3581 15.0169 15.01C18.3664 11.6619 22.6333 9.38218 27.2784 8.45923C31.9235 7.53628 36.7381 8.01145 41.1131 9.82471C45.4881 11.638 49.227 14.708 51.8573 18.6462C54.4875 22.5845 55.891 27.2143 55.89 31.9502C55.8804 38.2983 53.3538 44.3835 48.8641 48.8713C44.3744 53.3592 38.2881 55.8833 31.94 55.8901Z" fill="url(#paint1_linear_511_16)"/>
<defs>
<linearGradient id="paint0_linear_511_16" x1="31.945" y1="0" x2="31.945" y2="63.8902" gradientUnits="userSpaceOnUse">
<stop stop-color="#00BDFF"/>
<stop offset="1" stop-color="#003DD2"/>
</linearGradient>
<linearGradient id="paint1_linear_511_16" x1="31.945" y1="59.8902" x2="31.945" y2="4" gradientUnits="userSpaceOnUse">
<stop stop-color="#00BDFF"/>
<stop offset="1" stop-color="#003DD2"/>
</linearGradient>
</defs>
</svg>
