<svg width="64" height="65" viewBox="0 0 64 65" fill="none" xmlns="http://www.w3.org/2000/svg">
<path d="M32.0002 60.7819C47.4343 60.7819 59.9462 48.27 59.9462 32.8359C59.9462 17.4017 47.4343 4.88989 32.0002 4.88989C16.566 4.88989 4.0542 17.4017 4.0542 32.8359C4.0542 48.27 16.566 60.7819 32.0002 60.7819Z" fill="black"/>
<path d="M32.0001 0.889893C25.6824 0.890881 19.5068 2.76534 14.2543 6.27588C9.00171 9.78642 4.908 14.7756 2.49078 20.6125C0.0735607 26.4495 -0.558632 32.8721 0.674132 39.0684C1.9069 45.2646 4.94928 50.9563 9.41656 55.4236C13.8839 59.8909 19.5754 62.9333 25.7717 64.166C31.9679 65.3988 38.3906 64.7666 44.2276 62.3494C50.0646 59.9321 55.0537 55.8383 58.5643 50.5857C62.0748 45.3331 63.9491 39.1578 63.9501 32.8401C63.9413 24.3691 60.5724 16.2475 54.5825 10.2576C48.5926 4.26767 40.471 0.898628 32.0001 0.889893ZM32.0001 60.78C26.4731 60.779 21.0704 59.1391 16.4755 56.0676C11.8805 52.9962 8.29954 48.6311 6.18536 43.5244C4.07119 38.4178 3.51879 32.799 4.59802 27.3784C5.67725 21.9578 8.33959 16.9788 12.2485 13.0713C16.1573 9.16381 21.1372 6.50332 26.5582 5.42603C31.9792 4.34873 37.5979 4.90304 42.7038 7.01904C47.8097 9.13505 52.1735 12.7176 55.2433 17.3137C58.3131 21.9098 59.9511 27.3131 59.9501 32.8401C59.9474 40.2512 57.0015 47.3577 51.7601 52.5972C46.5188 57.8366 39.4111 60.78 32.0001 60.78V60.78Z" fill="url(#paint0_linear_501_4)"/>
<path d="M32.0001 4.88989C26.4735 4.89088 21.0713 6.53055 16.4766 9.60156C11.8818 12.6726 8.30074 17.0372 6.18627 22.1433C4.0718 27.2494 3.51886 32.8678 4.59728 38.2881C5.6757 43.7084 8.33705 48.6873 12.2449 52.5952C16.1528 56.5031 21.1317 59.1645 26.5521 60.2429C31.9724 61.3213 37.5908 60.7683 42.6968 58.6538C47.8029 56.5393 52.1674 52.9583 55.2384 48.3635C58.3094 43.7688 59.9491 38.3667 59.9501 32.8401C59.9495 25.4274 57.0046 18.3184 51.7631 13.0769C46.5216 7.83538 39.4127 4.89042 32.0001 4.88989V4.88989ZM32.0001 56.78C27.2642 56.779 22.6349 55.3736 18.6977 52.7417C14.7606 50.1098 11.6923 46.3694 9.88085 41.9937C8.06942 37.6179 7.59622 32.8034 8.52111 28.1587C9.446 23.514 11.7274 19.248 15.0769 15.8999C18.4264 12.5518 22.6934 10.2721 27.3385 9.34912C31.9836 8.42617 36.798 8.90135 41.173 10.7146C45.548 12.5279 49.2871 15.5978 51.9174 19.5361C54.5476 23.4744 55.9511 28.1042 55.9501 32.8401C55.9405 39.1882 53.4138 45.2734 48.9241 49.7612C44.4344 54.2491 38.3481 56.7732 32.0001 56.78V56.78Z" fill="url(#paint1_linear_501_4)"/>
<defs>
<linearGradient id="paint0_linear_501_4" x1="0.0600586" y1="0.889893" x2="63.9503" y2="64.7799" gradientUnits="userSpaceOnUse">
<stop stop-color="#AF15FF"/>
<stop offset="1" stop-color="#4A2899"/>
</linearGradient>
<linearGradient id="paint1_linear_501_4" x1="32.0051" y1="60.7801" x2="32.0051" y2="4.88989" gradientUnits="userSpaceOnUse">
<stop stop-color="#AF15FF"/>
<stop offset="1" stop-color="#4A2899"/>
</linearGradient>
</defs>
</svg>
