<svg width="32" height="32" viewBox="0 0 32 32" fill="none" xmlns="http://www.w3.org/2000/svg">
<path fill-rule="evenodd" clip-rule="evenodd" d="M16.0002 17.4143L30.293 31.7071L31.7072 30.2929L17.4144 16.0001L31.7073 1.70712L30.2931 0.292908L16.0002 14.5859L1.70718 0.292908L0.292969 1.70712L14.5859 16.0001L0.29312 30.2929L1.70733 31.7071L16.0002 17.4143Z" fill="#00F0FF"/>
<path fill-rule="evenodd" clip-rule="evenodd" d="M25.7768 21.5343C27.1539 20.0973 28 18.1475 28 16C28 13.8526 27.1539 11.9028 25.7769 10.4658L24.3623 11.8804C25.3775 12.9551 26 14.4049 26 16C26 17.5952 25.3775 19.0449 24.3622 20.1197L25.7768 21.5343ZM21 19.5859V21.917C21.6204 21.813 22.2085 21.6137 22.7488 21.3347L24.215 22.8009C23.6125 23.175 22.9567 23.4714 22.2615 23.6759L19 20.4143V17.5859L21 19.5859ZM21 16.7575V15.2427L20.2426 16.0001L21 16.7575ZM22.7489 10.6653C22.2086 10.3864 21.6204 10.187 21 10.083V12.4143L19 14.4143V11.5858L22.2617 8.32417C22.9568 8.52867 23.6126 8.82503 24.2151 9.19921L22.7489 10.6653ZM21 6.75741V1L13.1213 8.87874L14.5355 10.293L19 5.82843V8.75741L21 6.75741ZM13.1213 11.7072L11.707 10.293L11 11H9.58566L11.5857 13H11.8284L13.1213 11.7072ZM8.75724 13H3V19H8.75741L6.75741 21H1V11H6.75724L8.75724 13ZM13.1213 23.1213L21 31V25.2428L19 23.2428V26.1716L14.5356 21.7071L13.1213 23.1213ZM13.1213 20.2929L11.7071 21.7071L11 21H9.58584L11.5858 19H11.8284L13.1213 20.2929Z" fill="#00F0FF"/>
</svg>
