<svg width="419" height="117" viewBox="0 0 419 117" fill="none" xmlns="http://www.w3.org/2000/svg">
<path opacity="0.3" d="M10.9004 81.8301C13.1095 81.8301 14.9004 80.0392 14.9004 77.8301C14.9004 75.6209 13.1095 73.8301 10.9004 73.8301C8.69125 73.8301 6.90039 75.6209 6.90039 77.8301C6.90039 80.0392 8.69125 81.8301 10.9004 81.8301Z" fill="#F7931E"/>
<path opacity="0.53" d="M10.9004 80.8301C12.5572 80.8301 13.9004 79.4869 13.9004 77.8301C13.9004 76.1732 12.5572 74.8301 10.9004 74.8301C9.24354 74.8301 7.90039 76.1732 7.90039 77.8301C7.90039 79.4869 9.24354 80.8301 10.9004 80.8301Z" fill="#F7931E"/>
<path opacity="0.77" d="M10.9004 79.8301C12.005 79.8301 12.9004 78.9346 12.9004 77.8301C12.9004 76.7255 12.005 75.8301 10.9004 75.8301C9.79582 75.8301 8.90039 76.7255 8.90039 77.8301C8.90039 78.9346 9.79582 79.8301 10.9004 79.8301Z" fill="#F7931E"/>
<path d="M10.9004 78.8301C11.4527 78.8301 11.9004 78.3824 11.9004 77.8301C11.9004 77.2778 11.4527 76.8301 10.9004 76.8301C10.3481 76.8301 9.90039 77.2778 9.90039 77.8301C9.90039 78.3824 10.3481 78.8301 10.9004 78.8301Z" fill="#F7931E"/>
<path d="M10.9009 85.8506C15.3302 85.8506 18.9209 82.2599 18.9209 77.8305C18.9209 73.4012 15.3302 69.8105 10.9009 69.8105C6.47153 69.8105 2.88086 73.4012 2.88086 77.8305C2.88086 82.2599 6.47153 85.8506 10.9009 85.8506Z" stroke="#FF9933" stroke-miterlimit="10"/>
<path d="M10.9 87.7307C16.3676 87.7307 20.8 83.2983 20.8 77.8307C20.8 72.363 16.3676 67.9307 10.9 67.9307C5.43237 67.9307 1 72.363 1 77.8307C1 83.2983 5.43237 87.7307 10.9 87.7307Z" stroke="#FF9933" stroke-miterlimit="10"/>
<path d="M17.9004 70.8305L26.9904 61.7405C28.8704 59.8605 31.4104 58.8105 34.0604 58.8105H51.5704" stroke="#FF9933" stroke-miterlimit="10"/>
<path d="M109.38 116.62C141.308 116.62 167.19 90.7376 167.19 58.81C167.19 26.8824 141.308 1 109.38 1C77.4527 1 51.5703 26.8824 51.5703 58.81C51.5703 90.7376 77.4527 116.62 109.38 116.62Z" stroke="#FF9933" stroke-width="0.25" stroke-miterlimit="10"/>
<path d="M109.381 114.67C140.232 114.67 165.241 89.6608 165.241 58.8102C165.241 27.9596 140.232 2.9502 109.381 2.9502C78.5309 2.9502 53.5215 27.9596 53.5215 58.8102C53.5215 89.6608 78.5309 114.67 109.381 114.67Z" stroke="#FF9933" stroke-width="0.69" stroke-miterlimit="10"/>
<path d="M109.381 112.72C139.154 112.72 163.291 88.5841 163.291 58.8104C163.291 29.0367 139.154 4.90039 109.381 4.90039C79.607 4.90039 55.4707 29.0367 55.4707 58.8104C55.4707 88.5841 79.607 112.72 109.381 112.72Z" stroke="#FF9933" stroke-width="1.12" stroke-miterlimit="10"/>
<path d="M109.382 110.76C138.073 110.76 161.332 87.5015 161.332 58.8103C161.332 30.1192 138.073 6.86035 109.382 6.86035C80.6904 6.86035 57.4316 30.1192 57.4316 58.8103C57.4316 87.5015 80.6904 110.76 109.382 110.76Z" stroke="#FF9933" stroke-width="1.56" stroke-miterlimit="10"/>
<path d="M109.391 108.811C137.005 108.811 159.391 86.4248 159.391 58.8105C159.391 31.1963 137.005 8.81055 109.391 8.81055C81.7764 8.81055 59.3906 31.1963 59.3906 58.8105C59.3906 86.4248 81.7764 108.811 109.391 108.811Z" fill="black" stroke="#FF9933" stroke-width="2" stroke-miterlimit="10"/>
<path d="M329.861 35.04V82.58C329.861 88.1 325.381 92.58 319.861 92.58H175.221C168.261 92.58 163.491 85.66 165.851 79.11C168.211 72.56 169.381 65.93 169.381 58.81C169.381 51.69 168.131 44.85 165.851 38.51C163.491 31.96 168.261 25.04 175.221 25.04H319.861C325.381 25.04 329.861 29.52 329.861 35.04Z" fill="black"/>
<path d="M403.171 9.05993C395.061 8.67993 388.181 14.3799 386.701 21.9799C386.351 23.7799 384.701 25.0399 382.861 25.0399H346.861C340.261 25.0399 334.861 30.4399 334.861 37.0399V80.5799C334.861 87.1799 340.261 92.5799 346.861 92.5799H390.401C397.001 92.5799 402.401 87.1799 402.401 80.5799V44.5799C402.401 42.7399 403.661 41.0899 405.461 40.7399C413.061 39.2599 418.761 32.3799 418.381 24.2699C418.001 16.1299 411.301 9.43994 403.161 9.04994L403.171 9.05993Z" fill="#F7931E"/>
<path d="M402.4 39.0401C410.132 39.0401 416.4 32.772 416.4 25.0401C416.4 17.3081 410.132 11.04 402.4 11.04C394.668 11.04 388.4 17.3081 388.4 25.0401C388.4 32.772 394.668 39.0401 402.4 39.0401Z" fill="black"/>
<path d="M395.33 32.1107L409.47 17.9707" stroke="#F7931E" stroke-width="2" stroke-miterlimit="10"/>
<path d="M395.33 17.9707L409.47 32.1107" stroke="#F7931E" stroke-width="2" stroke-miterlimit="10"/>
</svg>
