<svg width="308" height="391" viewBox="0 0 308 391" fill="none" xmlns="http://www.w3.org/2000/svg">
<path d="M68.07 0.25C87.54 0.25 106.1 8.67 119 23.34C119.53 23.94 120.33 24.29 121.18 24.29H257.07C261.08 14.63 270.46 8.29 281.07 8.29C281.46 8.29 281.83 8.3 282.21 8.31C295.54 8.93 306.43 19.8 307.05 33.05C307.56 44.02 301.09 54.1 291.08 58.28V373.7C291.08 383.07 283.45 390.7 274.08 390.7H17.25C7.88 390.7 0.25 383.07 0.25 373.7V68.06C0.25 30.67 30.67 0.25 68.07 0.25ZM68.07 0C30.54 0 0 30.53 0 68.06V373.7C0 383.21 7.74 390.95 17.25 390.95H274.08C283.59 390.95 291.33 383.21 291.33 373.7V58.45C301.4 54.16 307.82 43.97 307.3 33.04C306.68 19.66 295.66 8.68 282.22 8.06C281.84 8.05 281.46 8.04 281.07 8.04C270.48 8.04 261.01 14.31 256.9 24.04H121.18C120.4 24.04 119.67 23.72 119.18 23.18C106.23 8.45 87.6 0 68.06 0H68.07Z" fill="#47A8D1"/>
<path d="M17.25 387.7C9.53 387.7 3.25 381.42 3.25 373.7V68.06C3.25 32.32 32.33 3.25 68.07 3.25C86.68 3.25 104.42 11.29 116.75 25.32C117.85 26.57 119.47 27.29 121.19 27.29H259.17C262.18 17.88 271.01 11.29 281.08 11.29C281.44 11.29 281.78 11.3 282.12 11.31C293.9 11.86 303.51 21.47 304.06 33.19C304.55 43.62 297.83 53.07 288.08 56.19V373.7C288.08 381.42 281.8 387.7 274.08 387.7H17.25Z" fill="#47A8D1"/>
<path d="M300.06 33.38C299.61 23.7 291.67 15.76 281.99 15.31C281.69 15.3 281.39 15.29 281.08 15.29C272.01 15.29 264.17 21.75 262.43 30.65C262.37 31.01 261.97 31.29 261.54 31.29H121.19C118.35 31.29 115.62 30.1 113.75 27.96C102.6 15.27 86.25 7.25 68.07 7.25C34.53 7.25 7.25 34.53 7.25 68.06V373.7C7.25 379.22 11.73 383.7 17.25 383.7H274.08C279.6 383.7 284.08 379.22 284.08 373.7V53.83C284.08 53.4 284.36 53.01 284.72 52.94C293.91 51.15 300.5 42.74 300.06 33.38Z" fill="#2D8CB4"/>
<path d="M68.0717 125.9C99.9993 125.9 125.882 100.018 125.882 68.0903C125.882 36.1627 99.9993 10.2803 68.0717 10.2803C36.1441 10.2803 10.2617 36.1627 10.2617 68.0903C10.2617 100.018 36.1441 125.9 68.0717 125.9Z" stroke="#47A8D1" stroke-width="0.25" stroke-miterlimit="10"/>
<path d="M68.0709 123.95C98.9215 123.95 123.931 98.9411 123.931 68.0905C123.931 37.2398 98.9215 12.2305 68.0709 12.2305C37.2203 12.2305 12.2109 37.2398 12.2109 68.0905C12.2109 98.9411 37.2203 123.95 68.0709 123.95Z" stroke="#47A8D1" stroke-width="0.69" stroke-miterlimit="10"/>
<path d="M68.0701 122C97.8438 122 121.98 97.8634 121.98 68.0897C121.98 38.316 97.8438 14.1797 68.0701 14.1797C38.2965 14.1797 14.1602 38.316 14.1602 68.0897C14.1602 97.8634 38.2965 122 68.0701 122Z" stroke="#47A8D1" stroke-width="1.12" stroke-miterlimit="10"/>
<path d="M68.0711 120.04C96.7623 120.04 120.021 96.7808 120.021 68.0897C120.021 39.3985 96.7623 16.1396 68.0711 16.1396C39.3799 16.1396 16.1211 39.3985 16.1211 68.0897C16.1211 96.7808 39.3799 120.04 68.0711 120.04Z" stroke="#47A8D1" stroke-width="1.56" stroke-miterlimit="10"/>
<path d="M68.0703 118.09C95.6845 118.09 118.07 95.7041 118.07 68.0898C118.07 40.4756 95.6845 18.0898 68.0703 18.0898C40.4561 18.0898 18.0703 40.4756 18.0703 68.0898C18.0703 95.7041 40.4561 118.09 68.0703 118.09Z" fill="black" stroke="#47A8D1" stroke-width="2" stroke-miterlimit="10"/>
<path d="M297.07 33.5504C296.69 25.4104 289.99 18.7204 281.85 18.3304C273.74 17.9504 266.86 23.6504 265.38 31.2504C265.03 33.0504 263.38 34.3104 261.54 34.3104H133.9C126.94 34.3104 122.17 41.2304 124.53 47.7804C126.82 54.1204 128.06 60.9604 128.06 68.0804C128.06 75.2004 126.81 82.0404 124.53 88.3804C122.17 94.9304 126.94 101.85 133.9 101.85H269.08C275.68 101.85 281.08 96.4504 281.08 89.8504V53.8504C281.08 52.0104 282.34 50.3604 284.14 50.0104C291.74 48.5304 297.44 41.6504 297.06 33.5404L297.07 33.5504Z" fill="#47A8D1"/>
<path d="M281.092 48.3203C288.824 48.3203 295.092 42.0523 295.092 34.3203C295.092 26.5883 288.824 20.3203 281.092 20.3203C273.36 20.3203 267.092 26.5883 267.092 34.3203C267.092 42.0523 273.36 48.3203 281.092 48.3203Z" fill="black"/>
<path d="M274.012 41.39L288.162 27.25" stroke="#47A8D1" stroke-width="2" stroke-miterlimit="10"/>
<path d="M274.012 27.25L288.162 41.39" stroke="#47A8D1" stroke-width="2" stroke-miterlimit="10"/>
</svg>
