<svg width="426" height="131" viewBox="0 0 426 131" fill="none" xmlns="http://www.w3.org/2000/svg">
<path d="M406.04 49.9498C405.68 50.0198 405.4 50.4098 405.4 50.8398V86.8398C405.4 95.1098 398.68 101.84 390.4 101.84H162.51C159.67 101.84 156.94 103.03 155.07 105.17C143.92 117.86 127.57 125.88 109.39 125.88C75.8503 125.88 48.5703 98.5998 48.5703 65.0698C48.5703 31.5398 75.8503 4.25977 109.39 4.25977C127.57 4.25977 143.91 12.2798 155.07 24.9698C156.95 27.0998 159.67 28.2998 162.51 28.2998H382.86C383.29 28.2998 383.69 28.0198 383.75 27.6598C385.49 18.7598 393.33 12.2998 402.4 12.2998C402.71 12.2998 403.01 12.3098 403.31 12.3198C412.99 12.7698 420.93 20.7098 421.38 30.3898C421.82 39.7498 415.23 48.1598 406.04 49.9498Z" fill="#CCCCCC"/>
<path opacity="0.3" d="M10.9004 88.0996C13.1095 88.0996 14.9004 86.3087 14.9004 84.0996C14.9004 81.8905 13.1095 80.0996 10.9004 80.0996C8.69125 80.0996 6.90039 81.8905 6.90039 84.0996C6.90039 86.3087 8.69125 88.0996 10.9004 88.0996Z" fill="white"/>
<path opacity="0.53" d="M10.9004 87.0996C12.5572 87.0996 13.9004 85.7565 13.9004 84.0996C13.9004 82.4428 12.5572 81.0996 10.9004 81.0996C9.24354 81.0996 7.90039 82.4428 7.90039 84.0996C7.90039 85.7565 9.24354 87.0996 10.9004 87.0996Z" fill="white"/>
<path opacity="0.77" d="M10.9004 86.0996C12.005 86.0996 12.9004 85.2042 12.9004 84.0996C12.9004 82.995 12.005 82.0996 10.9004 82.0996C9.79582 82.0996 8.90039 82.995 8.90039 84.0996C8.90039 85.2042 9.79582 86.0996 10.9004 86.0996Z" fill="white"/>
<path d="M10.9004 85.0996C11.4527 85.0996 11.9004 84.6519 11.9004 84.0996C11.9004 83.5473 11.4527 83.0996 10.9004 83.0996C10.3481 83.0996 9.90039 83.5473 9.90039 84.0996C9.90039 84.6519 10.3481 85.0996 10.9004 85.0996Z" fill="white"/>
<path d="M10.9009 92.1201C15.3302 92.1201 18.9209 88.5294 18.9209 84.1001C18.9209 79.6708 15.3302 76.0801 10.9009 76.0801C6.47153 76.0801 2.88086 79.6708 2.88086 84.1001C2.88086 88.5294 6.47153 92.1201 10.9009 92.1201Z" stroke="white" stroke-miterlimit="10"/>
<path d="M10.9 94.0002C16.3676 94.0002 20.8 89.5678 20.8 84.1002C20.8 78.6326 16.3676 74.2002 10.9 74.2002C5.43237 74.2002 1 78.6326 1 84.1002C1 89.5678 5.43237 94.0002 10.9 94.0002Z" stroke="white" stroke-miterlimit="10"/>
<path d="M17.9004 77.0894L26.9904 67.9994C28.8704 66.1194 31.4104 65.0693 34.0604 65.0693H44.5704" stroke="white" stroke-miterlimit="10"/>
<path d="M109.38 122.88C141.308 122.88 167.19 96.9973 167.19 65.0698C167.19 33.1422 141.308 7.25977 109.38 7.25977C77.4527 7.25977 51.5703 33.1422 51.5703 65.0698C51.5703 96.9973 77.4527 122.88 109.38 122.88Z" stroke="white" stroke-width="0.25" stroke-miterlimit="10"/>
<path d="M109.381 120.93C140.232 120.93 165.241 95.9206 165.241 65.0699C165.241 34.2193 140.232 9.20996 109.381 9.20996C78.5309 9.20996 53.5215 34.2193 53.5215 65.0699C53.5215 95.9206 78.5309 120.93 109.381 120.93Z" stroke="white" stroke-width="0.69" stroke-miterlimit="10"/>
<path d="M109.381 118.98C139.154 118.98 163.291 94.8438 163.291 65.0701C163.291 35.2965 139.154 11.1602 109.381 11.1602C79.607 11.1602 55.4707 35.2965 55.4707 65.0701C55.4707 94.8438 79.607 118.98 109.381 118.98Z" stroke="white" stroke-width="1.12" stroke-miterlimit="10"/>
<path d="M109.382 117.02C138.073 117.02 161.332 93.7613 161.332 65.0701C161.332 36.3789 138.073 13.1201 109.382 13.1201C80.6904 13.1201 57.4316 36.3789 57.4316 65.0701C57.4316 93.7613 80.6904 117.02 109.382 117.02Z" stroke="white" stroke-width="1.56" stroke-miterlimit="10"/>
<path d="M109.391 115.069C137.005 115.069 159.391 92.6836 159.391 65.0693C159.391 37.4551 137.005 15.0693 109.391 15.0693C81.7764 15.0693 59.3906 37.4551 59.3906 65.0693C59.3906 92.6836 81.7764 115.069 109.391 115.069Z" fill="black" stroke="white" stroke-width="2" stroke-miterlimit="10"/>
<path d="M329.861 41.2998V88.8398C329.861 94.3598 325.381 98.8398 319.861 98.8398H175.221C168.261 98.8398 163.491 91.9198 165.851 85.3698C168.211 78.8198 169.381 72.1898 169.381 65.0698C169.381 57.9498 168.131 51.1098 165.851 44.7698C163.491 38.2198 168.261 31.2998 175.221 31.2998H319.861C325.381 31.2998 329.861 35.7798 329.861 41.2998Z" fill="black"/>
<path d="M109.39 0.259949C128 0.259949 145.74 8.29996 158.07 22.33C159.17 23.58 160.79 24.3 162.51 24.3H380.49C383.5 14.89 392.33 8.29999 402.4 8.29999C402.75 8.29999 403.1 8.30995 403.44 8.31995C415.22 8.86995 424.83 18.48 425.38 30.2C425.87 40.63 419.15 50.08 409.4 53.2V86.83C409.4 97.31 400.88 105.83 390.4 105.83H162.51C160.79 105.83 159.17 106.55 158.07 107.8C145.74 121.83 128 129.87 109.39 129.87C73.6503 129.87 44.5703 100.8 44.5703 65.06C44.5703 29.32 73.6503 0.25 109.39 0.25M109.39 0C73.5103 0 44.3203 29.19 44.3203 65.06C44.3203 100.93 73.5103 130.12 109.39 130.12C128.07 130.12 145.88 122.04 158.26 107.96C159.31 106.76 160.86 106.08 162.51 106.08H390.4C401.01 106.08 409.65 97.44 409.65 86.83V53.3799C419.55 50.1099 426.12 40.6 425.63 30.18C425.08 18.33 415.34 8.61 403.46 8.06C403.11 8.05 402.77 8.03998 402.41 8.03998C392.32 8.03998 383.46 14.46 380.32 24.04H162.52C160.87 24.04 159.32 23.35 158.27 22.16C145.89 8.07997 128.08 0 109.4 0H109.39Z" fill="white"/>
<path d="M403.171 15.3197C395.061 14.9397 388.181 20.6397 386.701 28.2397C386.351 30.0397 384.701 31.2997 382.861 31.2997H346.861C340.261 31.2997 334.861 36.6997 334.861 43.2997V86.8397C334.861 93.4397 340.261 98.8397 346.861 98.8397H390.401C397.001 98.8397 402.401 93.4397 402.401 86.8397V50.8397C402.401 48.9997 403.661 47.3498 405.461 46.9998C413.061 45.5198 418.761 38.6397 418.381 30.5297C418.001 22.3897 411.301 15.6998 403.161 15.3098L403.171 15.3197Z" fill="white"/>
<path d="M402.4 45.2998C410.132 45.2998 416.4 39.0318 416.4 31.2998C416.4 23.5678 410.132 17.2998 402.4 17.2998C394.668 17.2998 388.4 23.5678 388.4 31.2998C388.4 39.0318 394.668 45.2998 402.4 45.2998Z" fill="black"/>
<path d="M395.33 38.3695L409.47 24.2295" stroke="white" stroke-width="2" stroke-miterlimit="10"/>
<path d="M395.33 24.2295L409.47 38.3695" stroke="white" stroke-width="2" stroke-miterlimit="10"/>
</svg>
