<?xml version="1.0" encoding="utf-8"?>
<!-- Generator: Adobe Illustrator 23.0.3, SVG Export Plug-In . SVG Version: 6.00 Build 0)  -->
<svg version="1.1" id="Слой_1" xmlns="http://www.w3.org/2000/svg" xmlns:xlink="http://www.w3.org/1999/xlink" x="0px" y="0px"
	 viewBox="0 0 349 137" style="enable-background:new 0 0 349 137;" xml:space="preserve">
<style type="text/css">
	.st0{fill:#47A8D1;}
	.st1{fill:#2D8CB4;}
	.st2{stroke:#47A8D1;stroke-width:2;stroke-miterlimit:10;}
	.st3{fill:none;stroke:#47A8D1;stroke-width:1.56;stroke-miterlimit:10;}
	.st4{fill:none;stroke:#47A8D1;stroke-width:1.12;stroke-miterlimit:10;}
	.st5{fill:none;stroke:#47A8D1;stroke-width:0.69;stroke-miterlimit:10;}
	.st6{fill:none;stroke:#47A8D1;stroke-width:0.25;stroke-miterlimit:10;}
	.st7{fill:none;stroke:#47A8D1;stroke-width:2;stroke-miterlimit:10;}
	.st8{fill:none;stroke:#47A8D1;stroke-miterlimit:10;}
	.st9{opacity:0.3;fill:#47A8D1;enable-background:new    ;}
	.st10{opacity:0.53;fill:#47A8D1;enable-background:new    ;}
	.st11{opacity:0.77;fill:#47A8D1;enable-background:new    ;}
</style>
<g id="shape">
	<path id="bg" class="st0" d="M109.4,132.9c-35.7,0-64.8-29.1-64.8-64.8c0-35.7,29.1-64.8,64.8-64.8c18.6,0,36.4,8,48.7,22.1
		c1.1,1.3,2.7,2,4.4,2h138c3-9.4,11.8-16,21.9-16c0.4,0,0.7,0,1,0c11.8,0.5,21.4,10.2,21.9,21.9c0.5,10.4-6.2,19.9-16,23v33.6
		c0,10.5-8.5,19-19,19H162.5c-1.7,0-3.3,0.7-4.4,2C145.7,124.8,128,132.9,109.4,132.9L109.4,132.9z"/>
	<path id="innerline" class="st1" d="M326,52.9c-0.4,0.1-0.6,0.5-0.6,0.9v36c0,8.3-6.7,15-15,15H162.5c-2.8,0-5.6,1.2-7.4,3.3
		c-11.2,12.7-27.5,20.7-45.7,20.7c-33.5,0-60.8-27.3-60.8-60.8c0-33.5,27.3-60.8,60.8-60.8c18.2,0,34.5,8,45.7,20.7
		c1.9,2.1,4.6,3.3,7.4,3.3h140.3c0.4,0,0.8-0.3,0.9-0.6c1.7-8.9,9.6-15.4,18.6-15.4c0.3,0,0.6,0,0.9,0c9.7,0.4,17.6,8.4,18.1,18.1
		C341.8,42.7,335.2,51.2,326,52.9z"/>
	<path id="content-bg" class="st0" d="M338.4,33.6c-0.4-8.1-7.1-14.8-15.2-15.2c-8.1-0.4-15,5.3-16.5,12.9c-0.4,1.8-2,3.1-3.8,3.1
		H175.2c-7,0-11.7,6.9-9.4,13.5c2.3,6.3,3.5,13.2,3.5,20.3s-1.3,14-3.5,20.3c-2.4,6.5,2.4,13.5,9.4,13.5h135.2c6.6,0,12-5.4,12-12
		v-36c0-1.8,1.3-3.5,3.1-3.8C333.1,48.5,338.8,41.7,338.4,33.6L338.4,33.6z"/>
	<path id="outline" class="st0" d="M109.4,0.3c19.5,0,38,8.4,50.9,23.1c0.5,0.6,1.3,0.9,2.2,0.9h135.9c4-9.7,13.4-16,24-16
		c0.4,0,0.8,0,1.1,0c13.3,0.6,24.2,11.5,24.8,24.7c0.5,11-6,21-16,25.2v31.5c0,12.1-9.9,22-22,22H162.5c-0.9,0-1.6,0.3-2.2,0.9
		c-12.9,14.7-31.5,23.1-50.9,23.1c-37.4,0-67.8-30.4-67.8-67.8S72,0.2,109.4,0.3 M109.4,0C71.9,0,41.3,30.5,41.3,68.1
		s30.5,68.1,68.1,68.1c19.5,0,38.2-8.4,51.1-23.2c0.5-0.6,1.2-0.9,2-0.9h147.9c12.3,0,22.3-10,22.3-22.3V58.4
		c10.1-4.3,16.5-14.5,16-25.4C348,19.7,337,8.7,323.5,8.1c-0.4,0-0.8,0-1.2,0c-10.6,0-20.1,6.3-24.2,16H162.5c-0.8,0-1.5-0.3-2-0.9
		C147.5,8.4,128.9,0,109.4,0L109.4,0z"/>
	<g id="preview">
		<path id="preview-bg" class="st2" d="M109.4,118.1c27.6,0,50-22.4,50-50c0-27.6-22.4-50-50-50c-27.6,0-50,22.4-50,50
			C59.4,95.7,81.8,118.1,109.4,118.1z"/>
		<path id="preview-outline-4" class="st3" d="M109.4,120c28.7,0,52-23.3,52-51.9s-23.3-52-52-52c-28.7,0-52,23.3-52,52
			S80.7,120,109.4,120z"/>
		<path id="preview-outline-3_1_" class="st4" d="M109.4,122c29.8,0,53.9-24.1,53.9-53.9c0-29.8-24.1-53.9-53.9-53.9
			c-29.8,0-53.9,24.1-53.9,53.9C55.5,97.9,79.6,122,109.4,122z"/>
		<path id="preview-outline-2" class="st5" d="M109.4,124c30.8,0,55.9-25,55.9-55.9c0-30.9-25-55.9-55.9-55.9
			c-30.9,0-55.9,25-55.9,55.9C53.5,99,78.5,124,109.4,124z"/>
		<path id="preview-outline-1" class="st6" d="M109.4,125.9c31.9,0,57.8-25.9,57.8-57.8c0-31.9-25.9-57.8-57.8-57.8
			c-31.9,0-57.8,25.9-57.8,57.8C51.6,100,77.5,125.9,109.4,125.9z"/>
	</g>
	<g id="close-button">
		<path id="close-button-bg" d="M322.4,48.3c7.7,0,14-6.3,14-14s-6.3-14-14-14s-14,6.3-14,14S314.7,48.3,322.4,48.3z"/>
		<path id="close-button-line-2" class="st7" d="M315.3,41.4l14.1-14.2"/>
		<path id="close-button-line-1" class="st7" d="M315.3,27.3l14.1,14.2"/>
	</g>
</g>
<path id="connect-line" class="st8" d="M17.9,80.1L27,71c1.9-1.9,4.4-2.9,7.1-2.9h7.5"/>
<g id="dot">
	<path id="dot-shape-4" class="st9" d="M10.9,91.1c2.2,0,4-1.8,4-4c0-2.2-1.8-4-4-4c-2.2,0-4,1.8-4,4C6.9,89.3,8.7,91.1,10.9,91.1z"
		/>
	<path id="dot-shape-3" class="st10" d="M10.9,90.1c1.7,0,3-1.3,3-3c0-1.7-1.3-3-3-3c-1.7,0-3,1.3-3,3C7.9,88.8,9.2,90.1,10.9,90.1z
		"/>
	<path id="dot-shape-2" class="st11" d="M10.9,89.1c1.1,0,2-0.9,2-2s-0.9-2-2-2c-1.1,0-2,0.9-2,2S9.8,89.1,10.9,89.1z"/>
	<path id="dot-shape-1" class="st0" d="M10.9,88.1c0.6,0,1-0.4,1-1s-0.4-1-1-1c-0.6,0-1,0.4-1,1S10.3,88.1,10.9,88.1z"/>
	<path id="dot-outline-2" class="st8" d="M10.9,95.2c4.4,0,8-3.6,8-8c0-4.4-3.6-8-8-8c-4.4,0-8,3.6-8,8C2.9,91.6,6.5,95.2,10.9,95.2
		z"/>
	<path id="dot-outline-1_1_" class="st8" d="M10.9,97c5.5,0,9.9-4.4,9.9-9.9c0-5.5-4.4-9.9-9.9-9.9c-5.5,0-9.9,4.4-9.9,9.9
		C1,92.6,5.4,97,10.9,97z"/>
</g>
</svg>
