<svg width="429" height="137" viewBox="0 0 429 137" fill="none" xmlns="http://www.w3.org/2000/svg">
<path d="M109.39 132.88C73.6503 132.88 44.5703 103.81 44.5703 68.0698C44.5703 32.3298 73.6503 3.25977 109.39 3.25977C128 3.25977 145.74 11.2998 158.07 25.3298C159.17 26.5798 160.79 27.2998 162.51 27.2998H380.49C383.5 17.8898 392.33 11.2998 402.4 11.2998C402.75 11.2998 403.1 11.3098 403.44 11.3198C415.22 11.8698 424.83 21.4798 425.38 33.1998C425.87 43.6298 419.15 53.0798 409.4 56.1998V89.8298C409.4 100.31 400.88 108.83 390.4 108.83H162.51C160.79 108.83 159.17 109.55 158.07 110.8C145.74 124.83 128 132.87 109.39 132.87V132.88Z" fill="#4A30E8"/>
<path d="M406.04 52.9498C405.68 53.0198 405.4 53.4098 405.4 53.8398V89.8398C405.4 98.1098 398.68 104.84 390.4 104.84H162.51C159.67 104.84 156.94 106.03 155.07 108.17C143.92 120.86 127.57 128.88 109.39 128.88C75.8503 128.88 48.5703 101.6 48.5703 68.0698C48.5703 34.5398 75.8503 7.25977 109.39 7.25977C127.57 7.25977 143.91 15.2798 155.07 27.9698C156.95 30.0998 159.67 31.2998 162.51 31.2998H382.86C383.29 31.2998 383.69 31.0198 383.75 30.6598C385.49 21.7598 393.33 15.2998 402.4 15.2998C402.71 15.2998 403.01 15.3098 403.31 15.3198C412.99 15.7698 420.93 23.7098 421.38 33.3898C421.82 42.7498 415.23 51.1598 406.04 52.9498Z" fill="#3527BA"/>
<path opacity="0.3" d="M10.9004 91.1201C13.1095 91.1201 14.9004 89.3293 14.9004 87.1201C14.9004 84.911 13.1095 83.1201 10.9004 83.1201C8.69125 83.1201 6.90039 84.911 6.90039 87.1201C6.90039 89.3293 8.69125 91.1201 10.9004 91.1201Z" fill="#4A30E8"/>
<path opacity="0.53" d="M10.9004 90.1201C12.5572 90.1201 13.9004 88.777 13.9004 87.1201C13.9004 85.4633 12.5572 84.1201 10.9004 84.1201C9.24354 84.1201 7.90039 85.4633 7.90039 87.1201C7.90039 88.777 9.24354 90.1201 10.9004 90.1201Z" fill="#4A30E8"/>
<path opacity="0.77" d="M10.9004 89.1201C12.005 89.1201 12.9004 88.2247 12.9004 87.1201C12.9004 86.0155 12.005 85.1201 10.9004 85.1201C9.79582 85.1201 8.90039 86.0155 8.90039 87.1201C8.90039 88.2247 9.79582 89.1201 10.9004 89.1201Z" fill="#4A30E8"/>
<path d="M10.9004 88.1201C11.4527 88.1201 11.9004 87.6724 11.9004 87.1201C11.9004 86.5678 11.4527 86.1201 10.9004 86.1201C10.3481 86.1201 9.90039 86.5678 9.90039 87.1201C9.90039 87.6724 10.3481 88.1201 10.9004 88.1201Z" fill="#4A30E8"/>
<path d="M10.9009 95.1396C15.3302 95.1396 18.9209 91.5489 18.9209 87.1196C18.9209 82.6902 15.3302 79.0996 10.9009 79.0996C6.47153 79.0996 2.88086 82.6902 2.88086 87.1196C2.88086 91.5489 6.47153 95.1396 10.9009 95.1396Z" stroke="#4A30E8" stroke-miterlimit="10"/>
<path d="M10.9 97.0197C16.3676 97.0197 20.8 92.5873 20.8 87.1197C20.8 81.6521 16.3676 77.2197 10.9 77.2197C5.43237 77.2197 1 81.6521 1 87.1197C1 92.5873 5.43237 97.0197 10.9 97.0197Z" stroke="#4A30E8" stroke-miterlimit="10"/>
<path d="M17.9004 80.1099L26.9904 71.0198C28.8704 69.1398 31.4104 68.0898 34.0604 68.0898H41.5704" stroke="#4A30E8" stroke-miterlimit="10"/>
<path d="M109.38 125.91C141.308 125.91 167.19 100.028 167.19 68.1C167.19 36.1725 141.308 10.29 109.38 10.29C77.4527 10.29 51.5703 36.1725 51.5703 68.1C51.5703 100.028 77.4527 125.91 109.38 125.91Z" stroke="#4A30E8" stroke-width="0.25" stroke-miterlimit="10"/>
<path d="M109.381 123.96C140.232 123.96 165.241 98.9508 165.241 68.1002C165.241 37.2496 140.232 12.2402 109.381 12.2402C78.5309 12.2402 53.5215 37.2496 53.5215 68.1002C53.5215 98.9508 78.5309 123.96 109.381 123.96Z" stroke="#4A30E8" stroke-width="0.69" stroke-miterlimit="10"/>
<path d="M109.381 122.01C139.154 122.01 163.291 97.8741 163.291 68.1005C163.291 38.3268 139.154 14.1904 109.381 14.1904C79.607 14.1904 55.4707 38.3268 55.4707 68.1005C55.4707 97.8741 79.607 122.01 109.381 122.01Z" stroke="#4A30E8" stroke-width="1.12" stroke-miterlimit="10"/>
<path d="M109.382 120.05C138.073 120.05 161.332 96.7916 161.332 68.1004C161.332 39.4092 138.073 16.1504 109.382 16.1504C80.6904 16.1504 57.4316 39.4092 57.4316 68.1004C57.4316 96.7916 80.6904 120.05 109.382 120.05Z" stroke="#4A30E8" stroke-width="1.56" stroke-miterlimit="10"/>
<path d="M109.391 118.1C137.005 118.1 159.391 95.7138 159.391 68.0996C159.391 40.4854 137.005 18.0996 109.391 18.0996C81.7764 18.0996 59.3906 40.4854 59.3906 68.0996C59.3906 95.7138 81.7764 118.1 109.391 118.1Z" fill="black" stroke="#4A30E8" stroke-width="2" stroke-miterlimit="10"/>
<path d="M329.861 44.3301V91.8701C329.861 97.3901 325.381 101.87 319.861 101.87H175.221C168.261 101.87 163.491 94.9501 165.851 88.4001C168.211 81.8501 169.381 75.2201 169.381 68.1001C169.381 60.9801 168.131 54.1401 165.851 47.8001C163.491 41.2501 168.261 34.3301 175.221 34.3301H319.861C325.381 34.3301 329.861 38.8101 329.861 44.3301Z" fill="black"/>
<path d="M403.171 18.35C395.061 17.97 388.181 23.67 386.701 31.27C386.351 33.07 384.701 34.33 382.861 34.33H346.861C340.261 34.33 334.861 39.73 334.861 46.33V89.8699C334.861 96.4699 340.261 101.87 346.861 101.87H390.401C397.001 101.87 402.401 96.4699 402.401 89.8699V53.8699C402.401 52.0299 403.661 50.38 405.461 50.03C413.061 48.55 418.761 41.6699 418.381 33.5599C418.001 25.4199 411.301 18.73 403.161 18.34L403.171 18.35Z" fill="#4A30E8"/>
<path d="M402.4 48.3301C410.132 48.3301 416.4 42.0621 416.4 34.3301C416.4 26.5981 410.132 20.3301 402.4 20.3301C394.668 20.3301 388.4 26.5981 388.4 34.3301C388.4 42.0621 394.668 48.3301 402.4 48.3301Z" fill="black"/>
<path d="M395.33 41.3998L409.47 27.2598" stroke="#4A30E8" stroke-width="2" stroke-miterlimit="10"/>
<path d="M395.33 27.2598L409.47 41.3998" stroke="#4A30E8" stroke-width="2" stroke-miterlimit="10"/>
<path d="M109.391 0.26001C128.861 0.26001 147.431 8.68004 160.321 23.35C160.851 23.95 161.651 24.3 162.501 24.3H378.391C382.401 14.64 391.791 8.30005 402.391 8.30005C402.781 8.30005 403.151 8.31001 403.521 8.32001C416.851 8.94001 427.741 19.81 428.361 33.06C428.871 44.03 422.401 54.11 412.391 58.29V89.83C412.391 101.96 402.521 111.83 390.391 111.83H162.501C161.641 111.83 160.851 112.17 160.321 112.78C147.421 127.46 128.861 135.87 109.381 135.87C71.9806 135.87 41.5605 105.45 41.5605 68.06C41.5605 30.67 71.9806 0.25 109.381 0.25M109.381 0C71.8506 0 41.3105 30.53 41.3105 68.06C41.3105 105.59 71.8506 136.12 109.381 136.12C128.921 136.12 147.561 127.67 160.501 112.94C160.981 112.39 161.711 112.08 162.491 112.08H390.381C402.651 112.08 412.631 102.1 412.631 89.83V58.45C422.701 54.16 429.121 43.97 428.601 33.04C427.981 19.66 416.961 8.68 403.521 8.06C403.141 8.05 402.761 8.04004 402.371 8.04004C391.781 8.04004 382.311 14.31 378.201 24.04H162.481C161.691 24.04 160.971 23.73 160.481 23.18C147.531 8.44999 128.901 0 109.361 0H109.381Z" fill="#4A30E8"/>
</svg>
