<?xml version="1.0" encoding="utf-8"?>
<!-- Generator: Adobe Illustrator 23.0.3, SVG Export Plug-In . SVG Version: 6.00 Build 0)  -->
<svg version="1.1" id="Слой_1" xmlns="http://www.w3.org/2000/svg" xmlns:xlink="http://www.w3.org/1999/xlink" x="0px" y="0px"
	 viewBox="0 0 20.8 21" style="enable-background:new 0 0 20.8 21;" xml:space="preserve">
<style type="text/css">
	.st0{opacity:0.3;fill:#47A8D1;enable-background:new    ;}
	.st1{opacity:0.53;fill:#47A8D1;enable-background:new    ;}
	.st2{opacity:0.77;fill:#47A8D1;enable-background:new    ;}
	.st3{fill:#47A8D1;}
	.st4{fill:none;stroke:#47A8D1;stroke-miterlimit:10;}
</style>
<g id="dot">
	<path id="dot-shape-4" class="st0" d="M10.4,14.5c2.2,0,4-1.8,4-4c0-2.2-1.8-4-4-4c-2.2,0-4,1.8-4,4C6.4,12.7,8.2,14.5,10.4,14.5z"
		/>
	<path id="dot-shape-3" class="st1" d="M10.4,13.5c1.7,0,3-1.3,3-3c0-1.7-1.3-3-3-3c-1.7,0-3,1.3-3,3C7.4,12.2,8.8,13.5,10.4,13.5z"
		/>
	<path id="dot-shape-2" class="st2" d="M10.4,12.5c1.1,0,2-0.9,2-2s-0.9-2-2-2c-1.1,0-2,0.9-2,2S9.3,12.5,10.4,12.5z"/>
	<path id="dot-shape-1" class="st3" d="M10.4,11.5c0.6,0,1-0.4,1-1s-0.4-1-1-1c-0.6,0-1,0.4-1,1S9.9,11.5,10.4,11.5z"/>
	<path id="dot-outline-2" class="st4" d="M10.4,18.5c4.4,0,8-3.6,8-8c0-4.4-3.6-8-8-8c-4.4,0-8,3.6-8,8C2.4,14.9,6,18.5,10.4,18.5z"
		/>
	<path id="dot-outline-1_1_" class="st4" d="M10.4,20.4c5.5,0,9.9-4.4,9.9-9.9c0-5.5-4.4-9.9-9.9-9.9C5,0.6,0.5,5,0.5,10.5
		C0.5,16,5,20.4,10.4,20.4z"/>
</g>
</svg>
