<svg width="200" height="200" viewBox="0 0 200 200" fill="none" xmlns="http://www.w3.org/2000/svg">
<path fill-rule="evenodd" clip-rule="evenodd" d="M190.36 100.18C190.36 149.985 149.985 190.36 100.18 190.36C50.3749 190.36 10 149.985 10 100.18C10 50.3749 50.3749 10 100.18 10C149.985 10 190.36 50.3749 190.36 100.18ZM109.752 100.194C109.752 94.2771 109.578 88.5049 109.259 82.9648L107.083 59.0927C104.27 36.555 100.18 21.5444 100.18 21.5444C100.18 21.5444 90.608 56.7432 90.608 100.194C90.608 143.645 100.18 178.844 100.18 178.844C100.18 178.844 109.752 143.645 109.752 100.194Z" fill="#00FFFF"/>
<path d="M126.499 73.0407C127.859 65.9124 123.183 59.0314 116.054 57.6716C108.926 56.3118 102.045 60.9881 100.685 68.1164C99.3252 75.2448 104.002 82.1258 111.13 83.4856C118.258 84.8454 125.139 80.1691 126.499 73.0407Z" fill="white"/>
</svg>
