<svg width="200" height="200" viewBox="0 0 200 200" fill="none" xmlns="http://www.w3.org/2000/svg">
<rect width="200" height="200" fill="#0A0429"/>
<path fill-rule="evenodd" clip-rule="evenodd" d="M162.36 100.18C162.36 134.521 134.521 162.36 100.18 162.36C65.8389 162.36 38 134.521 38 100.18C38 65.8389 65.8389 38 100.18 38C134.521 38 162.36 65.8389 162.36 100.18ZM106.78 100.19C106.78 96.11 106.66 92.13 106.44 88.31L104.94 71.85C103 56.31 100.18 45.96 100.18 45.96C100.18 45.96 93.58 70.23 93.58 100.19C93.58 130.15 100.18 154.42 100.18 154.42C100.18 154.42 106.78 130.15 106.78 100.19Z" fill="#00FFFF"/>
<path d="M118.327 81.4675C119.265 76.5524 116.041 71.8079 111.125 70.8703C106.21 69.9327 101.466 73.1571 100.528 78.0722C99.5906 82.9872 102.815 87.7318 107.73 88.6694C112.645 89.607 117.39 86.3826 118.327 81.4675Z" fill="white"/>
</svg>
