<svg width="64" height="65" viewBox="0 0 64 65" fill="none" xmlns="http://www.w3.org/2000/svg">
<path d="M31.9997 60.7821C47.4339 60.7821 59.9457 48.2703 59.9457 32.8361C59.9457 17.402 47.4339 4.89014 31.9997 4.89014C16.5656 4.89014 4.05371 17.402 4.05371 32.8361C4.05371 48.2703 16.5656 60.7821 31.9997 60.7821Z" fill="black"/>
<path d="M31.9996 0.890137C25.6819 0.891126 19.5063 2.76534 14.2538 6.27588C9.00122 9.78642 4.90752 14.7753 2.49029 20.6123C0.0730724 26.4493 -0.559121 32.8721 0.673644 39.0684C1.90641 45.2646 4.94879 50.9561 9.41607 55.4233C13.8834 59.8906 19.5749 62.9333 25.7712 64.166C31.9674 65.3988 38.3901 64.7663 44.2271 62.3491C50.0641 59.9319 55.0532 55.8385 58.5638 50.5859C62.0743 45.3334 63.9486 39.1575 63.9496 32.8398C63.9408 24.3689 60.5719 16.2477 54.582 10.2578C48.5921 4.26792 40.4706 0.898873 31.9996 0.890137ZM31.9996 60.7798C26.4726 60.7788 21.07 59.1393 16.475 56.0679C11.88 52.9964 8.29905 48.6311 6.18487 43.5244C4.0707 38.4178 3.5183 32.799 4.59753 27.3784C5.67677 21.9578 8.33911 16.9788 12.248 13.0713C16.1569 9.16381 21.1367 6.50308 26.5577 5.42578C31.9787 4.34849 37.5974 4.90304 42.7033 7.01904C47.8092 9.13505 52.173 12.7179 55.2428 17.314C58.3126 21.91 59.9506 27.3128 59.9496 32.8398C59.9472 40.251 57.0014 47.3581 51.7599 52.5977C46.5185 57.8372 39.4107 60.7801 31.9996 60.7798Z" fill="url(#paint0_linear_512_46)"/>
<path d="M31.9996 4.89014C26.473 4.89113 21.0708 6.53055 16.4761 9.60156C11.8813 12.6726 8.30025 17.037 6.18578 22.1431C4.07131 27.2491 3.51837 32.8678 4.59679 38.2881C5.67522 43.7084 8.33656 48.6873 12.2444 52.5952C16.1523 56.5031 21.1312 59.1643 26.5516 60.2427C31.9719 61.3211 37.5903 60.7683 42.6963 58.6538C47.8024 56.5393 52.1669 52.9585 55.2379 48.3638C58.3089 43.769 59.9486 38.3664 59.9496 32.8398C59.949 25.4272 57.0042 18.3187 51.7626 13.0771C46.5211 7.83562 39.4122 4.89067 31.9996 4.89014ZM31.9996 56.7798C27.2637 56.7788 22.6344 55.3736 18.6973 52.7417C14.7601 50.1098 11.6918 46.3694 9.88036 41.9937C8.06894 37.6179 7.59573 32.8034 8.52062 28.1587C9.44551 23.514 11.7269 19.248 15.0764 15.8999C18.4259 12.5518 22.6929 10.2721 27.338 9.34912C31.9831 8.42617 36.7975 8.90159 41.1725 10.7148C45.5475 12.5281 49.2866 15.5978 51.9169 19.5361C54.5471 23.4744 55.9506 28.104 55.9496 32.8398C55.94 39.1879 53.4134 45.2734 48.9236 49.7612C44.4339 54.2491 38.3477 56.7729 31.9996 56.7798Z" fill="url(#paint1_linear_512_46)"/>
<defs>
<linearGradient id="paint0_linear_512_46" x1="0.0595703" y1="0.890137" x2="63.9495" y2="64.7802" gradientUnits="userSpaceOnUse">
<stop stop-color="#FCEE21"/>
<stop offset="1" stop-color="#39B54A"/>
</linearGradient>
<linearGradient id="paint1_linear_512_46" x1="32.0046" y1="60.7799" x2="32.0046" y2="4.89014" gradientUnits="userSpaceOnUse">
<stop stop-color="#FCEE21"/>
<stop offset="1" stop-color="#39B54A"/>
</linearGradient>
</defs>
</svg>
