<svg width="39" height="38" viewBox="0 0 39 38" fill="none" xmlns="http://www.w3.org/2000/svg">
<path d="M19.3321 0C15.5743 0 11.9007 1.1144 8.7762 3.20215C5.65166 5.2899 3.21646 8.25721 1.7784 11.729C0.34033 15.2008 -0.0360229 19.0209 0.697096 22.7065C1.43022 26.3922 3.23985 29.7779 5.89705 32.4351C8.55424 35.0923 11.9397 36.9016 15.6253 37.6348C19.311 38.3679 23.1313 37.9918 26.6031 36.5537C30.0749 35.1156 33.0422 32.6802 35.13 29.5557C37.2177 26.4311 38.3321 22.7578 38.3321 19C38.326 13.9628 36.3222 9.13365 32.7603 5.57178C29.1985 2.0099 24.3694 0.00608667 19.3321 0ZM19.3321 34C16.3654 34 13.4652 33.1204 10.9985 31.4722C8.53175 29.8239 6.60914 27.4811 5.47383 24.7402C4.33852 21.9993 4.04154 18.9834 4.62031 16.0737C5.19909 13.164 6.62763 10.4913 8.72542 8.39355C10.8232 6.29577 13.496 4.86686 16.4057 4.28809C19.3154 3.70931 22.3314 4.00629 25.0723 5.1416C27.8132 6.27692 30.1559 8.19977 31.8042 10.6665C33.4524 13.1332 34.3321 16.0333 34.3321 19C34.333 20.9701 33.9456 22.9209 33.1921 24.7412C32.4386 26.5615 31.3338 28.2158 29.9407 29.6089C28.5477 31.0019 26.8937 32.1064 25.0734 32.8599C23.2531 33.6134 21.3022 34.0009 19.3321 34Z" fill="url(#paint0_linear_511_26)"/>
<path d="M19.3299 30.7818C25.8369 30.7818 31.1119 25.5068 31.1119 18.9998C31.1119 12.4928 25.8369 7.21777 19.3299 7.21777C12.8228 7.21777 7.54785 12.4928 7.54785 18.9998C7.54785 25.5068 12.8228 30.7818 19.3299 30.7818Z" fill="url(#paint1_radial_511_26)"/>
<path d="M19.3321 4C16.3653 4 13.4652 4.87961 10.9985 6.52783C8.53171 8.17605 6.60911 10.5189 5.47379 13.2598C4.33848 16.0007 4.0415 19.0166 4.62028 21.9263C5.19906 24.836 6.62759 27.5087 8.72538 29.6064C10.8232 31.7042 13.496 33.1331 16.4057 33.7119C19.3154 34.2907 22.3314 33.9937 25.0723 32.8584C27.8132 31.7231 30.1559 29.8002 31.8041 27.3335C33.4523 24.8668 34.3321 21.9667 34.3321 19C34.3321 15.0218 32.7517 11.2066 29.9386 8.39355C27.1256 5.58051 23.3103 4 19.3321 4ZM19.3321 30C17.1565 30 15.0297 29.3547 13.2207 28.146C11.4118 26.9373 10.0019 25.2195 9.16935 23.2095C8.33679 21.1995 8.11894 18.9878 8.54337 16.854C8.96781 14.7202 10.0155 12.7601 11.5539 11.2217C13.0922 9.6833 15.0523 8.63586 17.1861 8.21143C19.3199 7.78699 21.5316 8.00484 23.5415 8.8374C25.5515 9.66997 27.2695 11.0797 28.4782 12.8887C29.6869 14.6976 30.3321 16.8244 30.3321 19C30.3302 21.9168 29.1707 24.7139 27.1082 26.7764C25.0457 28.8389 22.2489 29.9981 19.3321 30Z" fill="url(#paint2_linear_511_26)"/>
<path d="M24.1109 14.2178L14.5479 23.7808" stroke="#1A1A1A" stroke-width="2" stroke-miterlimit="10"/>
<path d="M24.1109 23.7808L14.5479 14.2178" stroke="#1A1A1A" stroke-width="2" stroke-miterlimit="10"/>
<defs>
<linearGradient id="paint0_linear_511_26" x1="19.3321" y1="0" x2="19.3321" y2="37.9999" gradientUnits="userSpaceOnUse">
<stop stop-color="#F0AF29"/>
<stop offset="1" stop-color="#B61B00"/>
</linearGradient>
<radialGradient id="paint1_radial_511_26" cx="0" cy="0" r="1" gradientUnits="userSpaceOnUse" gradientTransform="translate(19.3299 18.9998) scale(11.782)">
<stop offset="0.354" stop-color="#FF7700"/>
<stop offset="0.493" stop-color="#FD7301"/>
<stop offset="0.605" stop-color="#FA6905"/>
<stop offset="0.708" stop-color="#F5580B"/>
<stop offset="0.804" stop-color="#ED4115"/>
<stop offset="0.896" stop-color="#E32221"/>
<stop offset="0.901" stop-color="#E32122"/>
</radialGradient>
<linearGradient id="paint2_linear_511_26" x1="19.3321" y1="34.0002" x2="19.3321" y2="4" gradientUnits="userSpaceOnUse">
<stop stop-color="#F0AF29"/>
<stop offset="1" stop-color="#B61B00"/>
</linearGradient>
</defs>
</svg>
