<svg width="291" height="308" viewBox="0 0 291 308" fill="none" xmlns="http://www.w3.org/2000/svg">
<path d="M252.749 209.523C254.163 200.376 255.218 191.086 255.92 181.75C255.93 181.612 255.912 181.474 255.866 181.344C255.821 181.213 255.749 181.094 255.655 180.992C255.561 180.891 255.448 180.81 255.321 180.755C255.195 180.699 255.058 180.67 254.92 180.67H114.068C113.826 180.67 113.592 180.759 113.41 180.919C113.229 181.08 113.112 181.301 113.082 181.542C111.889 191.112 110.064 200.591 107.618 209.92C107.561 210.135 107.435 210.325 107.259 210.461C107.083 210.597 106.866 210.67 106.644 210.67H76.2201C64.717 247.574 42.2853 280.118 11.8901 304H256.656C256.856 304 257.05 303.941 257.216 303.83C257.382 303.719 257.511 303.561 257.587 303.377C269.816 273.636 278.321 242.498 282.91 210.67H253.732C253.589 210.67 253.447 210.639 253.316 210.58C253.186 210.52 253.07 210.432 252.976 210.323C252.883 210.214 252.814 210.086 252.775 209.948C252.736 209.81 252.727 209.665 252.749 209.523Z" fill="url(#paint0_linear_506_11)"/>
<g opacity="0.6">
<path opacity="0.6" d="M36.5064 292.615C56.643 271.99 72.02 247.207 81.5574 220.006C81.6931 219.616 81.9466 219.278 82.2829 219.039C82.6192 218.799 83.0217 218.67 83.4344 218.67H271.177C271.47 218.67 271.759 218.734 272.024 218.857C272.289 218.981 272.524 219.161 272.712 219.384C272.9 219.608 273.038 219.87 273.114 220.152C273.191 220.434 273.205 220.73 273.155 221.018C268.731 246.218 261.791 270.912 252.441 294.728C252.293 295.103 252.036 295.425 251.702 295.652C251.369 295.878 250.975 296 250.571 296H37.9404C37.5491 295.998 37.1669 295.882 36.8411 295.665C36.5153 295.448 36.2603 295.141 36.1077 294.78C35.955 294.42 35.9114 294.023 35.9823 293.638C36.0532 293.253 36.2354 292.897 36.5064 292.615Z" fill="black"/>
<path opacity="0.6" d="M250.571 296.5H37.9402C37.4495 296.501 36.9695 296.357 36.5602 296.086C36.1509 295.816 35.8305 295.43 35.6392 294.978C35.4479 294.526 35.3942 294.028 35.4847 293.546C35.5752 293.064 35.8061 292.619 36.1482 292.267C56.2588 271.713 71.6006 246.987 81.0852 219.84C81.2565 219.353 81.5743 218.931 81.9948 218.632C82.4154 218.333 82.9182 218.172 83.4342 218.17H271.177C271.543 218.169 271.904 218.248 272.236 218.402C272.568 218.556 272.862 218.781 273.097 219.06C273.332 219.34 273.504 219.668 273.598 220.021C273.693 220.374 273.71 220.744 273.646 221.104C269.213 246.337 262.265 271.062 252.906 294.91C252.72 295.378 252.398 295.779 251.982 296.062C251.566 296.345 251.075 296.498 250.571 296.5ZM36.8642 292.964C36.6595 293.175 36.5215 293.442 36.4676 293.731C36.4136 294.02 36.4461 294.318 36.5609 294.589C36.6758 294.86 36.8679 295.09 37.1132 295.252C37.3586 295.414 37.6462 295.501 37.9402 295.5H250.571C250.873 295.498 251.167 295.406 251.417 295.236C251.666 295.066 251.859 294.825 251.971 294.545C261.305 270.758 268.235 246.098 272.657 220.931C272.694 220.715 272.684 220.493 272.626 220.281C272.569 220.07 272.466 219.873 272.324 219.705C272.183 219.537 272.006 219.403 271.807 219.31C271.608 219.218 271.392 219.17 271.172 219.17H83.4342C83.1254 219.172 82.8247 219.269 82.573 219.448C82.3214 219.626 82.1311 219.879 82.0282 220.17C72.4957 247.454 57.0765 272.306 36.8642 292.964Z" fill="url(#paint1_linear_506_11)"/>
</g>
<path d="M282.91 211.67V213.67C282.91 213.935 282.805 214.19 282.617 214.377C282.43 214.565 282.175 214.67 281.91 214.67H249.06C248.916 214.67 248.773 214.638 248.642 214.578C248.511 214.517 248.394 214.429 248.3 214.319C248.206 214.209 248.138 214.081 248.098 213.942C248.059 213.803 248.05 213.657 248.073 213.514L248.62 210.05C249.865 202.13 250.862 193.989 251.577 185.761C251.589 185.622 251.572 185.483 251.527 185.351C251.482 185.22 251.41 185.099 251.316 184.996C251.222 184.894 251.108 184.812 250.981 184.756C250.854 184.699 250.716 184.67 250.577 184.67H117.577C117.337 184.67 117.106 184.756 116.925 184.914C116.744 185.071 116.627 185.289 116.594 185.526C115.349 194.348 113.58 203.088 111.294 211.7L110.694 213.93C110.637 214.142 110.511 214.33 110.337 214.464C110.162 214.597 109.949 214.67 109.729 214.67H77.229C76.9638 214.67 76.7094 214.565 76.5219 214.377C76.3344 214.19 76.229 213.935 76.229 213.67V211.67C76.229 211.405 76.3344 211.15 76.5219 210.963C76.7094 210.775 76.9638 210.67 77.229 210.67H106.653C106.875 210.67 107.092 210.597 107.268 210.461C107.444 210.325 107.57 210.135 107.627 209.92C110.072 200.591 111.898 191.112 113.091 181.542C113.121 181.301 113.237 181.08 113.419 180.919C113.601 180.759 113.835 180.67 114.077 180.67H254.927C255.065 180.67 255.202 180.699 255.328 180.755C255.454 180.81 255.568 180.891 255.662 180.992C255.756 181.094 255.828 181.213 255.873 181.344C255.919 181.474 255.937 181.612 255.927 181.75C255.227 191.086 254.17 200.375 252.756 209.523C252.734 209.665 252.743 209.81 252.782 209.948C252.821 210.086 252.89 210.214 252.983 210.323C253.076 210.432 253.192 210.52 253.323 210.58C253.453 210.639 253.595 210.67 253.739 210.67H281.917C282.181 210.672 282.434 210.778 282.62 210.965C282.806 211.153 282.91 211.406 282.91 211.67Z" fill="url(#paint2_linear_506_11)"/>
<path d="M282.91 206.67V210.67H253.732C253.588 210.67 253.446 210.639 253.316 210.58C253.185 210.52 253.069 210.432 252.976 210.323C252.882 210.214 252.814 210.086 252.774 209.948C252.735 209.81 252.727 209.665 252.749 209.523C254.163 200.375 255.218 191.086 255.92 181.75C255.93 181.612 255.912 181.474 255.866 181.344C255.82 181.213 255.748 181.094 255.655 180.992C255.561 180.891 255.447 180.81 255.321 180.755C255.194 180.699 255.058 180.67 254.92 180.67H114.068C113.825 180.67 113.591 180.759 113.41 180.919C113.228 181.08 113.111 181.301 113.082 181.542C111.888 191.112 110.063 200.591 107.618 209.92C107.561 210.135 107.435 210.325 107.258 210.461C107.082 210.597 106.866 210.67 106.644 210.67H76.2197V206.67H103.533C103.757 206.67 103.976 206.595 104.153 206.457C104.33 206.319 104.455 206.125 104.51 205.907C106.597 197.438 108.17 188.849 109.22 180.19L109.543 177.549C109.572 177.307 109.689 177.084 109.872 176.922C110.055 176.76 110.291 176.67 110.535 176.67H259.225C259.362 176.67 259.499 176.698 259.625 176.752C259.751 176.807 259.865 176.887 259.959 176.988C260.052 177.088 260.124 177.207 260.17 177.337C260.216 177.467 260.235 177.605 260.225 177.742L259.992 180.96C259.392 189.241 258.515 197.486 257.383 205.537C257.363 205.678 257.373 205.822 257.414 205.958C257.454 206.095 257.523 206.221 257.617 206.329C257.71 206.436 257.826 206.522 257.956 206.581C258.085 206.64 258.226 206.67 258.369 206.67H282.91Z" fill="url(#paint3_linear_506_11)"/>
<path d="M261.03 2.46997L260.257 0.61499C260.181 0.432836 260.053 0.277164 259.889 0.167725C259.724 0.0582855 259.531 -1.64621e-05 259.334 3.48655e-09H0.340088L9.42004 7.13989C31.6713 24.6097 49.6619 46.9075 62.0331 72.3489C74.4044 97.7903 80.8327 125.71 80.8327 154C80.8327 182.29 74.4044 210.21 62.0331 235.651C49.6619 261.093 31.6713 283.39 9.42004 300.86L0.330078 308H259.341C259.539 308 259.732 307.941 259.897 307.831C260.061 307.721 260.189 307.565 260.265 307.382L261.03 305.53C273.513 275.291 282.193 243.618 286.87 211.24C289.602 192.282 290.972 173.153 290.97 154C291.067 102.011 280.892 50.5154 261.03 2.46997ZM282.91 210.67C278.321 242.498 269.816 273.636 257.587 303.377C257.511 303.561 257.382 303.719 257.216 303.83C257.05 303.941 256.855 304 256.656 304H11.8901C34.6036 286.148 52.9662 263.37 65.5928 237.386C78.2194 211.402 84.7802 182.89 84.7802 154C84.7802 125.11 78.2194 96.5982 65.5928 70.614C52.9662 44.6298 34.6036 21.8523 11.8901 4H256.656C256.855 3.99998 257.05 4.05925 257.216 4.17017C257.382 4.28108 257.511 4.43868 257.587 4.62305C284.237 69.822 292.98 140.958 282.91 210.67Z" fill="url(#paint4_linear_506_11)"/>
<path d="M256.656 4H14.736C14.5301 4.00158 14.3297 4.06679 14.1622 4.18652C13.9947 4.30625 13.8682 4.47465 13.8 4.66895C13.7318 4.86324 13.7254 5.07384 13.7814 5.27197C13.8374 5.47011 13.9531 5.64602 14.1129 5.77588C36.1999 23.6524 54.0126 46.239 66.2487 71.8843C78.4848 97.5295 84.835 125.585 84.835 154C84.835 182.415 78.4848 210.47 66.2487 236.116C54.0126 261.761 36.1999 284.348 14.1129 302.224C13.9531 302.354 13.8374 302.53 13.7814 302.728C13.7254 302.926 13.7318 303.137 13.8 303.331C13.8682 303.525 13.9947 303.694 14.1622 303.813C14.3297 303.933 14.5301 303.998 14.736 304H256.656C256.855 304 257.05 303.941 257.216 303.83C257.382 303.719 257.511 303.561 257.587 303.377C269.816 273.636 278.321 242.498 282.91 210.67C292.98 140.958 284.237 69.822 257.587 4.62305C257.511 4.43868 257.382 4.28108 257.216 4.17017C257.05 4.05925 256.855 3.99998 256.656 4ZM278.95 210.1C274.531 240.712 266.455 270.684 254.894 299.371C254.819 299.557 254.69 299.716 254.524 299.828C254.357 299.94 254.161 300 253.961 300H25.5479C25.3473 299.998 25.1521 299.935 24.9876 299.82C24.8231 299.706 24.6969 299.544 24.6254 299.356C24.5539 299.169 24.5404 298.964 24.5867 298.769C24.633 298.574 24.7369 298.397 24.885 298.262C45.0078 280.002 61.088 257.735 72.0922 232.89C83.0964 208.046 88.7811 181.174 88.7811 154.001C88.7811 126.828 83.0964 99.9564 72.0922 75.1118C61.088 50.2672 45.0078 27.9997 24.885 9.73999C24.7361 9.60473 24.6315 9.4278 24.5848 9.23218C24.5382 9.03655 24.5515 8.83121 24.6232 8.64331C24.6949 8.45541 24.8216 8.2935 24.9868 8.17871C25.1519 8.06393 25.3478 8.00172 25.549 8H253.969C254.17 8.00022 254.366 8.06039 254.532 8.17261C254.698 8.28483 254.828 8.44389 254.903 8.62988C273.528 54.8285 283.058 104.189 282.97 154C282.974 172.772 281.63 191.52 278.95 210.1Z" fill="url(#paint5_linear_506_11)"/>
<g opacity="0.6">
<path opacity="0.6" d="M244.082 213.007C245.301 205.807 246.305 198.385 247.077 190.877C247.105 190.598 247.074 190.316 246.986 190.049C246.898 189.783 246.755 189.538 246.567 189.33C246.378 189.122 246.148 188.955 245.892 188.842C245.635 188.728 245.358 188.67 245.077 188.67H121.871C121.396 188.67 120.938 188.84 120.577 189.149C120.216 189.457 119.978 189.884 119.904 190.353C118.72 197.729 117.179 205.036 115.304 212.153C115.226 212.449 115.216 212.758 115.276 213.058C115.336 213.357 115.464 213.639 115.65 213.882C115.836 214.124 116.075 214.321 116.349 214.457C116.623 214.593 116.924 214.664 117.23 214.665H242.1C242.573 214.668 243.032 214.503 243.395 214.199C243.758 213.895 244.001 213.473 244.082 213.007Z" fill="black"/>
<path opacity="0.6" d="M242.1 215.17H117.229C116.847 215.17 116.469 215.082 116.126 214.913C115.783 214.744 115.484 214.498 115.251 214.194C115.018 213.891 114.858 213.538 114.783 213.163C114.709 212.788 114.721 212.4 114.82 212.031C116.686 204.943 118.231 197.623 119.411 190.273C119.503 189.687 119.801 189.153 120.253 188.768C120.704 188.383 121.278 188.172 121.871 188.173H245.081C245.432 188.173 245.778 188.247 246.098 188.389C246.418 188.531 246.705 188.739 246.94 188.999C247.175 189.259 247.353 189.565 247.462 189.898C247.572 190.23 247.61 190.582 247.575 190.931C246.802 198.446 245.792 205.902 244.575 213.094L244.082 213.01L244.575 213.094C244.475 213.677 244.171 214.205 243.718 214.585C243.265 214.966 242.692 215.173 242.1 215.17ZM121.867 189.17C121.511 189.169 121.167 189.297 120.897 189.528C120.627 189.76 120.448 190.08 120.394 190.432C119.209 197.813 117.658 205.166 115.783 212.285C115.723 212.508 115.716 212.742 115.761 212.969C115.806 213.195 115.903 213.408 116.044 213.591C116.183 213.772 116.362 213.918 116.567 214.019C116.772 214.119 116.997 214.171 117.225 214.17H242.1C242.455 214.171 242.799 214.047 243.07 213.819C243.342 213.591 243.524 213.274 243.584 212.924C244.799 205.754 245.805 198.324 246.576 190.824C246.599 190.615 246.576 190.404 246.511 190.205C246.445 190.005 246.338 189.822 246.196 189.667C246.055 189.51 245.882 189.384 245.69 189.298C245.497 189.212 245.288 189.168 245.077 189.167L121.867 189.17Z" fill="url(#paint6_linear_506_11)"/>
</g>
<defs>
<linearGradient id="paint0_linear_506_11" x1="147.4" y1="304" x2="147.4" y2="180.67" gradientUnits="userSpaceOnUse">
<stop stop-color="#7510FF"/>
<stop offset="1" stop-color="#390981"/>
</linearGradient>
<linearGradient id="paint1_linear_506_11" x1="154.563" y1="296.5" x2="154.563" y2="218.17" gradientUnits="userSpaceOnUse">
<stop stop-color="#AF15FF"/>
<stop offset="1" stop-color="#4A2899"/>
</linearGradient>
<linearGradient id="paint2_linear_506_11" x1="179.57" y1="214.67" x2="179.57" y2="180.67" gradientUnits="userSpaceOnUse">
<stop stop-color="#AF15FF"/>
<stop offset="1" stop-color="#4A2899"/>
</linearGradient>
<linearGradient id="paint3_linear_506_11" x1="76.2197" y1="176.67" x2="87.1109" y2="242.878" gradientUnits="userSpaceOnUse">
<stop stop-color="#AF15FF"/>
<stop offset="1" stop-color="#4A2899"/>
</linearGradient>
<linearGradient id="paint4_linear_506_11" x1="0.330078" y1="0" x2="307.813" y2="290.152" gradientUnits="userSpaceOnUse">
<stop stop-color="#AF15FF"/>
<stop offset="1" stop-color="#4A2899"/>
</linearGradient>
<linearGradient id="paint5_linear_506_11" x1="150.357" y1="304" x2="150.357" y2="4" gradientUnits="userSpaceOnUse">
<stop stop-color="#AF15FF"/>
<stop offset="1" stop-color="#4A2899"/>
</linearGradient>
<linearGradient id="paint6_linear_506_11" x1="181.161" y1="215.17" x2="181.161" y2="188.173" gradientUnits="userSpaceOnUse">
<stop stop-color="#AF15FF"/>
<stop offset="1" stop-color="#4A2899"/>
</linearGradient>
</defs>
</svg>
