<svg width="291" height="308" viewBox="0 0 291 308" fill="none" xmlns="http://www.w3.org/2000/svg">
<path d="M252.749 209.523C254.163 200.376 255.218 191.086 255.92 181.75C255.93 181.612 255.912 181.474 255.866 181.344C255.82 181.213 255.748 181.094 255.655 180.992C255.561 180.891 255.447 180.81 255.321 180.755C255.194 180.699 255.058 180.67 254.92 180.67H114.07C113.827 180.67 113.593 180.759 113.412 180.919C113.23 181.08 113.113 181.301 113.084 181.542C111.891 191.112 110.065 200.592 107.62 209.92C107.563 210.135 107.437 210.325 107.26 210.461C107.084 210.597 106.868 210.67 106.646 210.67H76.2197C64.7166 247.574 42.2847 280.118 11.8896 304H256.656C256.855 304 257.05 303.941 257.216 303.83C257.382 303.719 257.511 303.561 257.587 303.377C269.815 273.636 278.321 242.498 282.91 210.67H253.732C253.588 210.67 253.446 210.639 253.316 210.58C253.185 210.52 253.069 210.432 252.976 210.323C252.882 210.214 252.814 210.086 252.774 209.948C252.735 209.81 252.727 209.665 252.749 209.523Z" fill="url(#paint0_linear_511_22)"/>
<g opacity="0.6">
<path opacity="0.6" d="M36.5055 292.615C56.6421 271.99 72.0189 247.207 81.5563 220.006C81.692 219.616 81.9456 219.278 82.2819 219.039C82.6182 218.799 83.0207 218.67 83.4335 218.67H271.176C271.469 218.67 271.758 218.734 272.023 218.857C272.288 218.981 272.523 219.161 272.711 219.384C272.899 219.608 273.037 219.87 273.113 220.152C273.19 220.434 273.204 220.73 273.154 221.018C268.73 246.218 261.79 270.912 252.44 294.728C252.292 295.103 252.035 295.425 251.701 295.652C251.368 295.879 250.974 296 250.57 296H37.9394C37.548 295.998 37.1658 295.882 36.84 295.665C36.5142 295.448 36.2592 295.141 36.1066 294.78C35.9539 294.42 35.9105 294.023 35.9813 293.638C36.0522 293.253 36.2345 292.897 36.5055 292.615Z" fill="black"/>
<path opacity="0.6" d="M250.571 296.5H37.9396C37.4489 296.501 36.969 296.357 36.5597 296.086C36.1504 295.815 35.8299 295.43 35.6386 294.978C35.4473 294.526 35.3937 294.028 35.4843 293.546C35.5748 293.064 35.8055 292.619 36.1476 292.267C56.2584 271.714 71.6001 246.987 81.0846 219.84C81.2559 219.353 81.5737 218.931 81.9943 218.632C82.4148 218.333 82.9177 218.172 83.4337 218.17H271.177C271.542 218.17 271.903 218.25 272.234 218.404C272.566 218.558 272.859 218.782 273.094 219.062C273.33 219.342 273.501 219.669 273.596 220.022C273.691 220.375 273.708 220.744 273.646 221.104C269.213 246.337 262.265 271.062 252.906 294.91C252.719 295.377 252.397 295.779 251.981 296.062C251.565 296.345 251.074 296.498 250.571 296.5ZM36.8637 292.964C36.6589 293.175 36.5209 293.442 36.4669 293.731C36.413 294.02 36.4456 294.318 36.5604 294.589C36.6753 294.86 36.8674 295.09 37.1127 295.252C37.358 295.414 37.6456 295.501 37.9396 295.5H250.571C250.873 295.499 251.169 295.407 251.419 295.237C251.669 295.067 251.863 294.826 251.976 294.545C261.31 270.758 268.239 246.098 272.662 220.931C272.699 220.715 272.688 220.493 272.631 220.281C272.573 220.07 272.47 219.873 272.329 219.705C272.187 219.537 272.011 219.402 271.812 219.31C271.613 219.218 271.396 219.17 271.177 219.17H83.4337C83.1249 219.172 82.824 219.269 82.5724 219.448C82.3208 219.626 82.1307 219.879 82.0277 220.17C72.4952 247.454 57.0759 272.306 36.8637 292.964Z" fill="url(#paint1_linear_511_22)"/>
</g>
<g opacity="0.6">
<path opacity="0.6" d="M244.082 213.007C245.301 205.807 246.305 198.385 247.077 190.877C247.105 190.598 247.074 190.316 246.986 190.049C246.899 189.782 246.756 189.537 246.567 189.329C246.379 189.121 246.149 188.955 245.892 188.842C245.635 188.728 245.358 188.67 245.077 188.67H121.867C121.392 188.67 120.934 188.84 120.573 189.149C120.212 189.457 119.974 189.884 119.9 190.353C118.716 197.729 117.175 205.036 115.3 212.153C115.222 212.449 115.212 212.758 115.272 213.058C115.332 213.357 115.46 213.639 115.646 213.882C115.832 214.124 116.071 214.321 116.345 214.457C116.619 214.593 116.92 214.664 117.226 214.665H242.1C242.573 214.668 243.032 214.503 243.395 214.199C243.758 213.895 244.001 213.473 244.082 213.007Z" fill="black"/>
<path opacity="0.6" d="M242.1 215.17H117.229C116.847 215.17 116.469 215.082 116.126 214.913C115.783 214.744 115.484 214.498 115.251 214.194C115.018 213.891 114.858 213.538 114.783 213.163C114.709 212.788 114.721 212.4 114.82 212.031C116.686 204.943 118.231 197.623 119.411 190.273C119.503 189.687 119.801 189.153 120.253 188.768C120.704 188.383 121.278 188.172 121.871 188.173H245.081C245.432 188.173 245.778 188.247 246.098 188.389C246.418 188.531 246.705 188.739 246.94 188.999C247.175 189.259 247.353 189.565 247.462 189.898C247.571 190.23 247.61 190.582 247.575 190.931C246.802 198.446 245.792 205.902 244.575 213.094L244.082 213.01L244.575 213.094C244.475 213.677 244.171 214.205 243.718 214.585C243.265 214.966 242.692 215.173 242.1 215.17ZM121.867 189.17C121.511 189.169 121.167 189.297 120.897 189.528C120.627 189.76 120.448 190.08 120.394 190.432C119.209 197.813 117.658 205.166 115.783 212.285C115.723 212.508 115.715 212.742 115.761 212.969C115.806 213.195 115.903 213.408 116.044 213.591C116.183 213.772 116.362 213.918 116.567 214.019C116.772 214.119 116.997 214.171 117.225 214.17H242.1C242.455 214.171 242.799 214.047 243.07 213.819C243.342 213.591 243.524 213.274 243.584 212.924C244.799 205.754 245.805 198.324 246.576 190.824C246.599 190.615 246.576 190.404 246.511 190.205C246.445 190.005 246.338 189.822 246.196 189.667C246.055 189.51 245.882 189.384 245.69 189.298C245.497 189.212 245.288 189.167 245.077 189.167L121.867 189.17Z" fill="url(#paint2_linear_511_22)"/>
</g>
<path d="M282.909 210.67V214.67H249.06C248.915 214.67 248.772 214.638 248.641 214.578C248.51 214.517 248.394 214.429 248.3 214.319C248.206 214.209 248.137 214.081 248.098 213.942C248.059 213.803 248.05 213.657 248.073 213.514L248.62 210.05C249.865 202.13 250.861 193.989 251.576 185.761C251.588 185.622 251.571 185.483 251.526 185.351C251.481 185.22 251.41 185.099 251.316 184.996C251.222 184.894 251.107 184.812 250.98 184.756C250.853 184.699 250.715 184.67 250.576 184.67H117.576C117.337 184.67 117.105 184.756 116.925 184.914C116.744 185.071 116.626 185.289 116.594 185.526C115.349 194.348 113.579 203.088 111.293 211.7L110.694 213.93C110.636 214.142 110.511 214.33 110.336 214.464C110.162 214.597 109.948 214.67 109.729 214.67H76.2285V210.67H107.428C109.974 201.1 111.865 191.368 113.091 181.542C113.12 181.301 113.237 181.08 113.418 180.919C113.6 180.759 113.834 180.67 114.076 180.67H254.927C255.065 180.67 255.201 180.699 255.327 180.755C255.454 180.81 255.568 180.891 255.661 180.992C255.755 181.094 255.827 181.213 255.873 181.344C255.918 181.474 255.937 181.612 255.927 181.75C255.227 191.086 254.17 200.375 252.756 209.523C252.733 209.665 252.742 209.81 252.781 209.948C252.82 210.086 252.889 210.214 252.982 210.323C253.076 210.432 253.192 210.52 253.323 210.58C253.453 210.639 253.595 210.67 253.739 210.67H282.909Z" fill="url(#paint3_linear_511_22)"/>
<path d="M282.91 206.67V210.67H253.732C253.588 210.67 253.446 210.639 253.316 210.58C253.185 210.52 253.069 210.432 252.976 210.323C252.882 210.214 252.814 210.086 252.774 209.948C252.735 209.81 252.727 209.665 252.749 209.523C254.163 200.375 255.218 191.086 255.92 181.75C255.93 181.612 255.912 181.474 255.866 181.344C255.82 181.213 255.748 181.094 255.655 180.992C255.561 180.891 255.447 180.81 255.321 180.755C255.194 180.699 255.058 180.67 254.92 180.67H114.07C113.827 180.67 113.593 180.759 113.412 180.919C113.23 181.08 113.113 181.301 113.084 181.542C111.89 191.112 110.065 200.591 107.62 209.92C107.563 210.135 107.437 210.325 107.26 210.461C107.084 210.597 106.868 210.67 106.646 210.67H76.2197V206.67H103.533C103.757 206.67 103.976 206.595 104.153 206.457C104.33 206.319 104.455 206.125 104.51 205.907C106.597 197.438 108.17 188.849 109.22 180.19L109.543 177.549C109.572 177.307 109.69 177.084 109.872 176.922C110.055 176.76 110.291 176.67 110.535 176.67H259.225C259.362 176.67 259.498 176.698 259.625 176.752C259.751 176.807 259.865 176.887 259.958 176.988C260.052 177.088 260.125 177.207 260.17 177.337C260.216 177.467 260.235 177.605 260.225 177.742L259.992 180.96C259.392 189.241 258.515 197.486 257.383 205.537C257.363 205.678 257.373 205.822 257.414 205.958C257.454 206.095 257.523 206.221 257.617 206.329C257.71 206.436 257.826 206.522 257.956 206.581C258.085 206.64 258.226 206.67 258.369 206.67H282.91Z" fill="url(#paint4_linear_511_22)"/>
<path d="M261.03 2.46997L260.257 0.61499C260.181 0.432836 260.053 0.277164 259.889 0.167725C259.724 0.0582855 259.531 -1.64621e-05 259.334 3.48655e-09H0.340088L9.41992 7.13989C31.6711 24.6097 49.6617 46.9075 62.033 72.3489C74.4042 97.7903 80.8328 125.71 80.8328 154C80.8328 182.29 74.4042 210.21 62.033 235.651C49.6617 261.093 31.6711 283.39 9.41992 300.86L0.330078 308H259.341C259.539 308 259.732 307.941 259.897 307.831C260.061 307.721 260.189 307.565 260.265 307.382L261.03 305.53C273.513 275.291 282.193 243.618 286.87 211.24C289.602 192.282 290.972 173.153 290.97 154C291.066 102.011 280.892 50.5154 261.03 2.46997ZM282.91 210.67C278.321 242.498 269.816 273.636 257.587 303.377C257.511 303.561 257.382 303.719 257.216 303.83C257.05 303.941 256.855 304 256.656 304H11.8899C34.6034 286.148 52.9662 263.37 65.5928 237.386C78.2194 211.402 84.78 182.89 84.78 154C84.78 125.11 78.2194 96.5982 65.5928 70.614C52.9662 44.6298 34.6034 21.8523 11.8899 4H256.656C256.855 3.99998 257.05 4.05925 257.216 4.17017C257.382 4.28108 257.511 4.43868 257.587 4.62305C284.237 69.8219 292.98 140.958 282.91 210.67Z" fill="url(#paint5_linear_511_22)"/>
<path d="M256.656 4H14.7365C14.5306 4.00158 14.33 4.06679 14.1625 4.18652C13.995 4.30625 13.8686 4.47465 13.8004 4.66895C13.7323 4.86324 13.7259 5.07384 13.7819 5.27197C13.8379 5.47011 13.9537 5.64602 14.1134 5.77588C36.2004 23.6524 54.0131 46.239 66.2492 71.8843C78.4853 97.5295 84.8354 125.585 84.8354 154C84.8354 182.415 78.4853 210.47 66.2492 236.116C54.0131 261.761 36.2004 284.348 14.1134 302.224C13.9537 302.354 13.8379 302.53 13.7819 302.728C13.7259 302.926 13.7323 303.137 13.8004 303.331C13.8686 303.525 13.995 303.694 14.1625 303.813C14.33 303.933 14.5306 303.998 14.7365 304H256.656C256.856 304 257.051 303.941 257.216 303.83C257.382 303.719 257.511 303.561 257.587 303.377C269.816 273.636 278.322 242.498 282.91 210.67C292.98 140.958 284.238 69.8219 257.587 4.62305C257.511 4.43868 257.382 4.28108 257.216 4.17017C257.051 4.05925 256.856 3.99998 256.656 4ZM278.95 210.1C274.532 240.712 266.455 270.684 254.894 299.371C254.819 299.557 254.69 299.716 254.524 299.828C254.358 299.94 254.162 300 253.961 300H25.5485C25.3479 299.998 25.1525 299.935 24.9879 299.82C24.8234 299.706 24.6974 299.544 24.6259 299.356C24.5544 299.169 24.5408 298.964 24.5871 298.769C24.6334 298.574 24.7374 298.397 24.8854 298.262C45.0083 280.002 61.0885 257.735 72.0927 232.89C83.0969 208.046 88.7817 181.174 88.7817 154.001C88.7817 126.828 83.0969 99.9564 72.0927 75.1118C61.0885 50.2672 45.0083 27.9997 24.8854 9.73999C24.7366 9.60473 24.6321 9.4278 24.5854 9.23218C24.5387 9.03655 24.552 8.83121 24.6237 8.64331C24.6954 8.45541 24.8221 8.2935 24.9872 8.17871C25.1524 8.06393 25.3484 8.00172 25.5495 8H253.969C254.17 8.00022 254.366 8.06039 254.533 8.17261C254.699 8.28483 254.828 8.44389 254.903 8.62988C273.528 54.8285 283.058 104.189 282.97 154C282.974 172.772 281.631 191.52 278.95 210.1Z" fill="url(#paint6_linear_511_22)"/>
<defs>
<linearGradient id="paint0_linear_511_22" x1="147.4" y1="304" x2="147.4" y2="180.67" gradientUnits="userSpaceOnUse">
<stop stop-color="#0088D7"/>
<stop offset="1" stop-color="#003DC2"/>
</linearGradient>
<linearGradient id="paint1_linear_511_22" x1="154.562" y1="296.5" x2="154.562" y2="218.17" gradientUnits="userSpaceOnUse">
<stop stop-color="#00BDFF"/>
<stop offset="1" stop-color="#003DD2"/>
</linearGradient>
<linearGradient id="paint2_linear_511_22" x1="181.161" y1="215.17" x2="181.161" y2="188.173" gradientUnits="userSpaceOnUse">
<stop stop-color="#00BDFF"/>
<stop offset="1" stop-color="#003DD2"/>
</linearGradient>
<linearGradient id="paint3_linear_511_22" x1="179.569" y1="214.67" x2="179.569" y2="180.67" gradientUnits="userSpaceOnUse">
<stop stop-color="#00BDFF"/>
<stop offset="1" stop-color="#003DD2"/>
</linearGradient>
<linearGradient id="paint4_linear_511_22" x1="179.565" y1="176.67" x2="179.565" y2="210.67" gradientUnits="userSpaceOnUse">
<stop stop-color="#00BDFF"/>
<stop offset="1" stop-color="#003DD2"/>
</linearGradient>
<linearGradient id="paint5_linear_511_22" x1="145.65" y1="0" x2="145.65" y2="308" gradientUnits="userSpaceOnUse">
<stop stop-color="#00BDFF"/>
<stop offset="1" stop-color="#003DD2"/>
</linearGradient>
<linearGradient id="paint6_linear_511_22" x1="150.357" y1="304" x2="150.357" y2="4" gradientUnits="userSpaceOnUse">
<stop stop-color="#00BDFF"/>
<stop offset="1" stop-color="#003DD2"/>
</linearGradient>
</defs>
</svg>
