<svg width="76" height="77" viewBox="0 0 76 77" fill="none" xmlns="http://www.w3.org/2000/svg">
<path d="M37.9998 63.444C51.9296 63.444 63.2218 52.1517 63.2218 38.222C63.2218 24.2923 51.9296 13 37.9998 13C24.0701 13 12.7778 24.2923 12.7778 38.222C12.7778 52.1517 24.0701 63.444 37.9998 63.444Z" fill="url(#paint0_radial_501_5)"/>
<path d="M38 0.219971C30.4843 0.219971 23.1374 2.44877 16.8883 6.62427C10.6393 10.7998 5.76872 16.7344 2.89259 23.678C0.0164618 30.6216 -0.736061 38.2623 0.730177 45.6335C2.19642 53.0048 5.81556 59.7757 11.13 65.0901C16.4444 70.4045 23.2153 74.0235 30.5866 75.4897C37.9578 76.956 45.5984 76.2035 52.542 73.3274C59.4856 70.4513 65.4203 65.5809 69.5958 59.3318C73.7713 53.0827 76 45.7357 76 38.22C75.9876 28.1456 71.98 18.4875 64.8563 11.3638C57.7327 4.24008 48.0744 0.232408 38 0.219971ZM38 68.22C32.0666 68.22 26.2664 66.4605 21.3329 63.1641C16.3994 59.8676 12.5543 55.1822 10.2836 49.7004C8.01302 44.2187 7.41887 38.1866 8.57643 32.3672C9.73399 26.5478 12.5912 21.2024 16.7868 17.0068C20.9824 12.8113 26.3279 9.95394 32.1473 8.79639C37.9667 7.63883 43.9988 8.23303 49.4805 10.5037C54.9623 12.7743 59.6477 16.6195 62.9441 21.553C66.2405 26.4865 68 32.2865 68 38.22C68 42.1596 67.224 46.0607 65.7164 49.7004C64.2087 53.3402 61.999 56.6473 59.2132 59.4331C56.4275 62.2189 53.1203 64.4286 49.4805 65.9363C45.8408 67.4439 41.9397 68.22 38 68.22Z" fill="url(#paint1_linear_501_5)"/>
<path d="M38 8.21997C32.0666 8.21997 26.2664 9.97944 21.3329 13.2759C16.3994 16.5723 12.5543 21.2577 10.2837 26.7395C8.01303 32.2213 7.41889 38.2533 8.57644 44.0728C9.734 49.8922 12.5913 55.2375 16.7868 59.4331C20.9824 63.6287 26.3279 66.486 32.1473 67.6436C37.9667 68.8011 43.9988 68.2069 49.4806 65.9363C54.9623 63.6656 59.6477 59.8207 62.9441 54.8872C66.2406 49.9537 68 44.1534 68 38.22C68 30.2635 64.8393 22.6329 59.2132 17.0068C53.5871 11.3807 45.9565 8.21997 38 8.21997ZM38 60.22C33.6488 60.22 29.3954 58.9298 25.7775 56.5125C22.1596 54.0951 19.3398 50.6589 17.6747 46.6389C16.0095 42.6189 15.5739 38.1956 16.4228 33.928C17.2716 29.6604 19.3669 25.7403 22.4437 22.6636C25.5204 19.5868 29.4405 17.4917 33.708 16.6428C37.9756 15.7939 42.3991 16.2294 46.419 17.8945C50.439 19.5597 53.875 22.3797 56.2924 25.9976C58.7098 29.6154 60 33.8688 60 38.22C59.9931 44.0526 57.6731 49.6445 53.5488 53.7688C49.4245 57.8931 43.8327 60.2131 38 60.22Z" fill="url(#paint2_linear_501_5)"/>
<path d="M49.687 37.356L32.313 27.3259C32.161 27.2382 31.9885 27.1921 31.813 27.1921C31.6375 27.1921 31.465 27.2382 31.313 27.3259C31.161 27.4137 31.0347 27.5399 30.947 27.6919C30.8592 27.8439 30.813 28.0164 30.813 28.1919V48.2529C30.813 48.4285 30.8592 48.6009 30.947 48.7529C31.0347 48.9049 31.161 49.0311 31.313 49.1189C31.465 49.2067 31.6375 49.2529 31.813 49.2529C31.9885 49.2529 32.161 49.2067 32.313 49.1189L49.687 39.0879C49.839 39.0001 49.9652 38.8739 50.053 38.7219C50.1407 38.5699 50.187 38.3975 50.187 38.2219C50.187 38.0464 50.1407 37.8739 50.053 37.7219C49.9652 37.5699 49.839 37.4437 49.687 37.356Z" fill="#0A0B1B"/>
<defs>
<radialGradient id="paint0_radial_501_5" cx="0" cy="0" r="1" gradientUnits="userSpaceOnUse" gradientTransform="translate(37.9998 38.222) scale(25.222)">
<stop offset="0.229" stop-color="#FFF883"/>
<stop offset="0.314" stop-color="#FBF781"/>
<stop offset="0.382" stop-color="#F1F77E"/>
<stop offset="0.445" stop-color="#E0F778"/>
<stop offset="0.505" stop-color="#C8F76F"/>
<stop offset="0.562" stop-color="#AAF665"/>
<stop offset="0.617" stop-color="#84F557"/>
<stop offset="0.671" stop-color="#57F547"/>
<stop offset="0.722" stop-color="#24F435"/>
<stop offset="0.738" stop-color="#14F430"/>
</radialGradient>
<linearGradient id="paint1_linear_501_5" x1="0" y1="0.219971" x2="76" y2="76.22" gradientUnits="userSpaceOnUse">
<stop stop-color="#AF15FF"/>
<stop offset="1" stop-color="#4A2899"/>
</linearGradient>
<linearGradient id="paint2_linear_501_5" x1="38" y1="68.22" x2="38" y2="8.21997" gradientUnits="userSpaceOnUse">
<stop stop-color="#AF15FF"/>
<stop offset="1" stop-color="#4A2899"/>
</linearGradient>
</defs>
</svg>
