<svg width="392" height="392" viewBox="0 0 392 392" fill="none" xmlns="http://www.w3.org/2000/svg">
<path d="M316.5 42.68C281.813 15.4145 238.905 0.717162 194.785 0.988555C150.666 1.25995 107.942 16.484 73.5929 44.1741C39.2437 71.8642 15.2992 110.384 5.67053 153.441C-3.9581 196.498 1.29827 241.547 20.581 281.231C39.8637 320.914 72.0331 352.886 111.835 371.925C151.636 390.963 196.717 395.942 239.714 386.049C282.711 376.155 321.082 351.974 348.561 317.455C376.039 282.936 391 240.12 391 196C391.149 166.446 384.509 137.252 371.593 110.67C358.676 84.0873 339.827 60.8265 316.5 42.68ZM313.41 345.39C279.612 371.957 237.804 386.278 194.815 386.013C151.826 385.749 110.197 370.915 76.7281 343.935C43.2592 316.954 19.9282 279.422 10.5462 237.469C1.16422 195.515 6.28575 151.62 25.0742 112.954C43.8627 74.2873 75.2076 43.1342 113.989 24.5838C152.77 6.03335 196.696 1.18187 238.591 10.8216C280.486 20.4613 317.874 44.0223 344.648 77.6565C371.422 111.291 386 153.01 386 196C386.059 224.782 379.551 253.198 366.972 279.085C354.393 304.973 336.074 327.65 313.41 345.39Z" fill="url(#paint0_linear_512_45)"/>
<path d="M313.41 46.61C279.612 20.0432 237.804 5.72223 194.815 5.9865C151.826 6.25078 110.197 21.0848 76.7282 48.0651C43.2592 75.0455 19.9282 112.578 10.5463 154.531C1.16429 196.485 6.28581 240.379 25.0743 279.046C43.8627 317.713 75.2076 348.866 113.989 367.416C152.77 385.967 196.696 390.818 238.591 381.178C280.486 371.539 317.874 347.978 344.648 314.343C371.422 280.709 386 238.99 386 196C386.059 167.218 379.551 138.802 366.972 112.915C354.393 87.0272 336.075 64.3502 313.41 46.61ZM310.32 341.46C277.411 367.328 236.703 381.273 194.844 381.016C152.986 380.759 112.452 366.315 79.8634 340.044C47.2746 313.774 24.5572 277.229 15.4219 236.379C6.28655 195.529 11.2733 152.788 29.5675 115.139C47.8617 77.4892 78.3821 47.1555 116.143 29.0929C153.905 11.0304 196.675 6.30644 237.468 15.6926C278.261 25.0787 314.666 48.0201 340.736 80.7697C366.806 113.519 381 154.141 381 196C381.143 224.039 374.844 251.737 362.59 276.957C350.335 302.177 332.452 324.245 310.32 341.46Z" fill="url(#paint1_linear_512_45)"/>
<defs>
<linearGradient id="paint0_linear_512_45" x1="0.969727" y1="0.984863" x2="391" y2="391.018" gradientUnits="userSpaceOnUse">
<stop stop-color="#FCEE21"/>
<stop offset="1" stop-color="#39B54A"/>
</linearGradient>
<linearGradient id="paint1_linear_512_45" x1="195.983" y1="386.017" x2="195.983" y2="5.98291" gradientUnits="userSpaceOnUse">
<stop stop-color="#FCEE21"/>
<stop offset="1" stop-color="#39B54A"/>
</linearGradient>
</defs>
</svg>
