<svg width="76" height="77" viewBox="0 0 76 77" fill="none" xmlns="http://www.w3.org/2000/svg">
<path d="M38.0003 63.444C51.93 63.444 63.2223 52.1517 63.2223 38.222C63.2223 24.2923 51.93 13 38.0003 13C24.0706 13 12.7783 24.2923 12.7783 38.222C12.7783 52.1517 24.0706 63.444 38.0003 63.444Z" fill="url(#paint0_radial_511_25)"/>
<path d="M38 0.220215C30.4843 0.220215 23.1374 2.44853 16.8883 6.62402C10.6393 10.7995 5.76872 16.7346 2.89259 23.6782C0.0164618 30.6218 -0.736061 38.262 0.730177 45.6333C2.19642 53.0046 5.81556 59.7754 11.13 65.0898C16.4444 70.4042 23.2153 74.0235 30.5866 75.4897C37.9578 76.956 45.5984 76.2038 52.542 73.3276C59.4856 70.4515 65.4203 65.5806 69.5958 59.3315C73.7713 53.0825 76 45.7359 76 38.2202C75.9876 28.1458 71.98 18.4875 64.8563 11.3638C57.7327 4.24008 48.0744 0.232652 38 0.220215ZM38 68.2202C32.0666 68.2202 26.2664 66.4605 21.3329 63.1641C16.3994 59.8676 12.5543 55.1825 10.2836 49.7007C8.01302 44.2189 7.41887 38.1866 8.57643 32.3672C9.73399 26.5478 12.5912 21.2024 16.7868 17.0068C20.9824 12.8113 26.3279 9.95394 32.1473 8.79639C37.9667 7.63883 43.9988 8.23279 49.4805 10.5034C54.9623 12.774 59.6477 16.6193 62.9441 21.5527C66.2405 26.4862 68 32.2868 68 38.2202C68 46.1767 64.8393 53.807 59.2132 59.4331C53.5871 65.0592 45.9565 68.2202 38 68.2202Z" fill="url(#paint1_linear_511_25)"/>
<path d="M38 8.22021C32.0666 8.22021 26.2664 9.97944 21.3329 13.2759C16.3994 16.5723 12.5543 21.2575 10.2837 26.7393C8.01303 32.221 7.41889 38.2533 8.57644 44.0728C9.734 49.8922 12.5913 55.2375 16.7868 59.4331C20.9824 63.6287 26.3279 66.486 32.1473 67.6436C37.9667 68.8011 43.9988 68.2072 49.4806 65.9365C54.9623 63.6659 59.6477 59.8207 62.9441 54.8872C66.2406 49.9537 68 44.1537 68 38.2202C68 30.2637 64.8393 22.6329 59.2132 17.0068C53.5871 11.3807 45.9565 8.22021 38 8.22021ZM38 60.2202C33.6488 60.2202 29.3954 58.9296 25.7775 56.5122C22.1596 54.0948 19.3398 50.6591 17.6747 46.6392C16.0095 42.6192 15.5739 38.1958 16.4228 33.9282C17.2716 29.6606 19.3669 25.7403 22.4437 22.6636C25.5204 19.5868 29.4405 17.4915 33.708 16.6426C37.9756 15.7937 42.3991 16.2294 46.419 17.8945C50.439 19.5597 53.875 22.3797 56.2924 25.9976C58.7098 29.6154 60 33.869 60 38.2202C59.9931 44.0529 57.6731 49.6442 53.5488 53.7686C49.4245 57.8929 43.8327 60.2133 38 60.2202Z" fill="url(#paint2_linear_511_25)"/>
<path d="M49.6865 37.356L32.3125 27.3262C32.1605 27.2384 31.988 27.1919 31.8125 27.1919C31.637 27.1919 31.4645 27.2384 31.3125 27.3262C31.1605 27.4139 31.0342 27.5399 30.9465 27.6919C30.8587 27.8439 30.8125 28.0164 30.8125 28.1919V48.2529C30.8125 48.4285 30.8587 48.6009 30.9465 48.7529C31.0342 48.9049 31.1605 49.0314 31.3125 49.1191C31.4645 49.2069 31.637 49.2529 31.8125 49.2529C31.988 49.2529 32.1605 49.2069 32.3125 49.1191L49.6865 39.0879C49.8385 39.0001 49.9647 38.8742 50.0525 38.7222C50.1403 38.5702 50.1865 38.3977 50.1865 38.2222C50.1865 38.0466 50.1403 37.8742 50.0525 37.7222C49.9647 37.5702 49.8385 37.4437 49.6865 37.356Z" fill="#0A0B1B"/>
<defs>
<radialGradient id="paint0_radial_511_25" cx="0" cy="0" r="1" gradientUnits="userSpaceOnUse" gradientTransform="translate(38.0003 38.222) scale(25.222)">
<stop offset="0.229" stop-color="#FFF883"/>
<stop offset="0.314" stop-color="#FBF781"/>
<stop offset="0.382" stop-color="#F1F77E"/>
<stop offset="0.445" stop-color="#E0F778"/>
<stop offset="0.505" stop-color="#C8F76F"/>
<stop offset="0.562" stop-color="#AAF665"/>
<stop offset="0.617" stop-color="#84F557"/>
<stop offset="0.671" stop-color="#57F547"/>
<stop offset="0.722" stop-color="#24F435"/>
<stop offset="0.738" stop-color="#14F430"/>
</radialGradient>
<linearGradient id="paint1_linear_511_25" x1="38" y1="0.220215" x2="38" y2="76.22" gradientUnits="userSpaceOnUse">
<stop stop-color="#F0AF29"/>
<stop offset="1" stop-color="#B61B00"/>
</linearGradient>
<linearGradient id="paint2_linear_511_25" x1="38" y1="68.22" x2="38" y2="8.22021" gradientUnits="userSpaceOnUse">
<stop stop-color="#F0AF29"/>
<stop offset="1" stop-color="#B61B00"/>
</linearGradient>
</defs>
</svg>
