<svg width="105" height="115" viewBox="0 0 105 115" fill="none" xmlns="http://www.w3.org/2000/svg">
    <path fill-rule="evenodd" clip-rule="evenodd"
        d="M1.46447 113.536C0.526785 112.598 3.83404e-06 111.326 0 110V5.00002C3.83404e-06 3.67394 0.526785 2.40216 1.46447 1.46448C2.40215 0.526805 3.67392 3.05176e-05 5 3.05176e-05H100C101.326 3.05176e-05 102.598 0.526805 103.536 1.46448C104.473 2.40216 105 3.67394 105 5.00002V110C105 111.326 104.473 112.598 103.536 113.536C102.598 114.473 101.326 115 100 115H5C3.67392 115 2.40215 114.473 1.46447 113.536ZM101.768 81.7678C102.237 81.299 102.5 80.6631 102.5 80V22.5C102.5 21.837 102.237 21.2011 101.768 20.7322C101.299 20.2634 100.663 20 100 20H83.6792H21.3208C20.9137 20 20.5128 19.9007 20.153 19.7105C19.7931 19.5204 19.485 19.2452 19.2556 18.909L8.80463 3.59105C8.57523 3.25482 8.2672 2.97968 7.9073 2.78954C7.54741 2.59941 7.14654 2.50003 6.7395 2.50003H4.99999C4.33696 2.50003 3.70108 2.76344 3.23224 3.23227C2.7634 3.7011 2.50001 4.33698 2.5 5.00001V80C2.50001 80.6631 2.7634 81.299 3.23224 81.7678C3.70108 82.2366 4.33696 82.5 4.99999 82.5H100C100.663 82.5 101.299 82.2366 101.768 81.7678Z"
        fill="url(#paint0_linear_6_2312)" />
    <defs>
        <linearGradient id="paint0_linear_6_2312" x1="52.5" y1="115" x2="52.5" y2="3.05176e-05"
            gradientUnits="userSpaceOnUse">
            <stop stop-color="#667EEA" />
            <stop offset="1" stop-color="#764BA2" />
        </linearGradient>
    </defs>
</svg>
    