<svg width="105" height="115" viewBox="0 0 105 115" fill="none" xmlns="http://www.w3.org/2000/svg">
    <path fill-rule="evenodd" clip-rule="evenodd"
        d="M0.380606 111.913C0.129333 111.307 0 110.657 0 110V5C0 4.34339 0.129333 3.69321 0.380606 3.08658C0.631879 2.47995 1.00017 1.92876 1.46447 1.46447C1.92876 1.00017 2.47995 0.63188 3.08658 0.380606C3.69321 0.129332 4.34339 0 5 0H100C101.326 0 102.598 0.526784 103.536 1.46447C104.473 2.40215 105 3.67392 105 5V110C105 110.657 104.871 111.307 104.619 111.913C104.368 112.52 104 113.071 103.536 113.536C103.071 114 102.52 114.368 101.913 114.619C101.307 114.871 100.657 115 100 115H5C4.34339 115 3.69321 114.871 3.08658 114.619C2.47995 114.368 1.92876 114 1.46447 113.536C1.00017 113.071 0.631879 112.52 0.380606 111.913ZM101.768 81.7678C102.237 81.2989 102.5 80.663 102.5 80V22.5C102.5 21.837 102.237 21.2011 101.768 20.7322C101.299 20.2634 100.663 20 100 20H83.6792H21.3208C20.9137 20 20.5128 19.9006 20.153 19.7105C19.7931 19.5204 19.485 19.2452 19.2556 18.909L8.80463 3.59102C8.57523 3.25479 8.26721 2.97966 7.90732 2.78953C7.54742 2.59939 7.14654 2.5 6.7395 2.5H4.99999C4.67169 2.5 4.3466 2.56467 4.04328 2.69031C3.73997 2.81595 3.46437 3.00009 3.23223 3.23224C3.00008 3.46439 2.81593 3.73998 2.6903 4.0433C2.56466 4.34661 2.5 4.6717 2.5 5.00001V80C2.5 80.663 2.76339 81.2989 3.23223 81.7678C3.70107 82.2366 4.33696 82.5 4.99999 82.5H100C100.663 82.5 101.299 82.2366 101.768 81.7678Z"
        fill="url(#paint0_linear_6_2307)" />
    <defs>
        <linearGradient id="paint0_linear_6_2307" x1="52.5" y1="115" x2="52.5" y2="0"
            gradientUnits="userSpaceOnUse">
            <stop stop-color="#16D9E3" />
            <stop offset="0.47" stop-color="#30C7EC" />
            <stop offset="1" stop-color="#46AEF7" />
        </linearGradient>
    </defs>
</svg>
    