<svg width="430" height="932" viewBox="0 0 430 932" fill="none" xmlns="http://www.w3.org/2000/svg">
    <g filter="url(#filter0_dddddd_1_165)">
    <path d="M291.716 546C297.02 546 302.107 543.893 305.858 540.142L324.142 521.858C325.999 520.001 327.473 517.796 328.478 515.369C329.483 512.943 330 510.342 330 507.716V424.284C330 418.98 327.893 413.893 324.142 410.142L305.858 391.858C304.001 390.001 301.796 388.528 299.369 387.522C296.943 386.517 294.342 386 291.716 386L138.284 386C132.98 386 127.893 388.107 124.142 391.858L105.858 410.142C102.107 413.893 100 418.98 100 424.284V507.716C100 510.342 100.517 512.943 101.522 515.369C102.527 517.796 104.001 520.001 105.858 521.858L124.142 540.142C125.999 541.999 128.204 543.473 130.631 544.478C133.057 545.483 135.658 546 138.284 546H291.716Z" fill="url(#paint0_linear_1_165)"/>
    <path d="M291.716 546C297.02 546 302.107 543.893 305.858 540.142L324.142 521.858C325.999 520.001 327.473 517.796 328.478 515.369C329.483 512.943 330 510.342 330 507.716V424.284C330 418.98 327.893 413.893 324.142 410.142L305.858 391.858C304.001 390.001 301.796 388.528 299.369 387.522C296.943 386.517 294.342 386 291.716 386L138.284 386C132.98 386 127.893 388.107 124.142 391.858L105.858 410.142C102.107 413.893 100 418.98 100 424.284V507.716C100 510.342 100.517 512.943 101.522 515.369C102.527 517.796 104.001 520.001 105.858 521.858L124.142 540.142C125.999 541.999 128.204 543.473 130.631 544.478C133.057 545.483 135.658 546 138.284 546H291.716Z" stroke="url(#paint1_linear_1_165)" stroke-linecap="round" stroke-linejoin="round"/>
    </g>
    <defs>
    <filter id="filter0_dddddd_1_165" x="-769.9" y="-483.9" width="1969.8" height="1899.8" filterUnits="userSpaceOnUse" color-interpolation-filters="sRGB">
    <feFlood flood-opacity="0" result="BackgroundImageFix"/>
    <feColorMatrix in="SourceAlpha" type="matrix" values="0 0 0 0 0 0 0 0 0 0 0 0 0 0 0 0 0 0 127 0" result="hardAlpha"/>
    <feOffset/>
    <feGaussianBlur stdDeviation="10.35"/>
    <feColorMatrix type="matrix" values="0 0 0 0 0.00784314 0 0 0 0 0.337255 0 0 0 0 0.772549 0 0 0 1 0"/>
    <feBlend mode="normal" in2="BackgroundImageFix" result="effect1_dropShadow_1_165"/>
    <feColorMatrix in="SourceAlpha" type="matrix" values="0 0 0 0 0 0 0 0 0 0 0 0 0 0 0 0 0 0 127 0" result="hardAlpha"/>
    <feOffset/>
    <feGaussianBlur stdDeviation="20.7"/>
    <feColorMatrix type="matrix" values="0 0 0 0 0.00784314 0 0 0 0 0.337255 0 0 0 0 0.772549 0 0 0 1 0"/>
    <feBlend mode="normal" in2="effect1_dropShadow_1_165" result="effect2_dropShadow_1_165"/>
    <feColorMatrix in="SourceAlpha" type="matrix" values="0 0 0 0 0 0 0 0 0 0 0 0 0 0 0 0 0 0 127 0" result="hardAlpha"/>
    <feOffset/>
    <feGaussianBlur stdDeviation="72.45"/>
    <feColorMatrix type="matrix" values="0 0 0 0 0.00784314 0 0 0 0 0.337255 0 0 0 0 0.772549 0 0 0 1 0"/>
    <feBlend mode="normal" in2="effect2_dropShadow_1_165" result="effect3_dropShadow_1_165"/>
    <feColorMatrix in="SourceAlpha" type="matrix" values="0 0 0 0 0 0 0 0 0 0 0 0 0 0 0 0 0 0 127 0" result="hardAlpha"/>
    <feOffset/>
    <feGaussianBlur stdDeviation="144.9"/>
    <feColorMatrix type="matrix" values="0 0 0 0 0.00784314 0 0 0 0 0.337255 0 0 0 0 0.772549 0 0 0 1 0"/>
    <feBlend mode="normal" in2="effect3_dropShadow_1_165" result="effect4_dropShadow_1_165"/>
    <feColorMatrix in="SourceAlpha" type="matrix" values="0 0 0 0 0 0 0 0 0 0 0 0 0 0 0 0 0 0 127 0" result="hardAlpha"/>
    <feOffset/>
    <feGaussianBlur stdDeviation="248.4"/>
    <feColorMatrix type="matrix" values="0 0 0 0 0.00784314 0 0 0 0 0.337255 0 0 0 0 0.772549 0 0 0 1 0"/>
    <feBlend mode="normal" in2="effect4_dropShadow_1_165" result="effect5_dropShadow_1_165"/>
    <feColorMatrix in="SourceAlpha" type="matrix" values="0 0 0 0 0 0 0 0 0 0 0 0 0 0 0 0 0 0 127 0" result="hardAlpha"/>
    <feOffset/>
    <feGaussianBlur stdDeviation="434.7"/>
    <feColorMatrix type="matrix" values="0 0 0 0 0.00784314 0 0 0 0 0.337255 0 0 0 0 0.772549 0 0 0 1 0"/>
    <feBlend mode="normal" in2="effect5_dropShadow_1_165" result="effect6_dropShadow_1_165"/>
    <feBlend mode="normal" in="SourceGraphic" in2="effect6_dropShadow_1_165" result="shape"/>
    </filter>
    <linearGradient id="paint0_linear_1_165" x1="215" y1="546" x2="215" y2="386" gradientUnits="userSpaceOnUse">
    <stop stop-color="#00C6FB"/>
    <stop offset="1" stop-color="#005BEA"/>
    </linearGradient>
    <linearGradient id="paint1_linear_1_165" x1="215" y1="386" x2="215" y2="546" gradientUnits="userSpaceOnUse">
    <stop stop-color="#00C6FB"/>
    <stop offset="1" stop-color="#005BEA"/>
    </linearGradient>
    </defs>
    </svg>
    