<svg width="203" height="50" viewBox="0 0 203 50" fill="none" xmlns="http://www.w3.org/2000/svg">
    <rect width="3" height="50" fill="url(#paint0_linear_256_2)" />
    <path fill-rule="evenodd" clip-rule="evenodd"
        d="M166.596 23.0371C166.664 23.1049 166.756 23.143 166.852 23.143H189.272C189.368 23.143 189.46 23.1049 189.527 23.0371C189.595 22.9692 189.633 22.8773 189.633 22.7814V18.0804C189.633 17.9845 189.595 17.8926 189.527 17.8247C189.46 17.7569 189.368 17.7188 189.272 17.7188H172.276C172.076 17.7188 171.914 17.5569 171.914 17.3572V0.361612C171.914 0.161901 171.753 2.44106e-06 171.553 1.54445e-10H166.852C166.756 -2.80088e-06 166.664 0.0380943 166.596 0.10591C166.528 0.173726 166.49 0.265705 166.49 0.361612V22.7814C166.49 22.8773 166.528 22.9692 166.596 23.0371ZM131.09 8.1362C131.09 12.6297 127.447 16.2724 122.954 16.2724H109.907C109.707 16.2724 109.545 16.4343 109.545 16.634V22.7814C109.545 22.9811 109.383 23.143 109.184 23.143L104.483 23.143C104.387 23.143 104.295 23.1049 104.227 23.0371C104.159 22.9692 104.121 22.8773 104.121 22.7814V0.361612C104.121 0.161901 104.283 2.44106e-06 104.483 1.54445e-10H109.545H122.954C127.447 1.54445e-10 131.09 3.6427 131.09 8.1362ZM125.666 8.1362C125.666 9.63403 124.451 10.8483 122.954 10.8483H109.907C109.707 10.8483 109.545 10.6864 109.545 10.4867V5.78574C109.545 5.58603 109.707 5.42413 109.907 5.42413H122.954C124.451 5.42413 125.666 6.63836 125.666 8.1362ZM23.4179 23.1647C23.2763 23.1647 23.1477 23.082 23.0889 22.9531L12.8661 0.53337C12.815 0.421434 12.8244 0.291227 12.891 0.187751C12.9575 0.084276 13.0721 0.0217298 13.1951 0.0217308H18.3617C18.5033 0.0217308 18.6319 0.104434 18.6907 0.233315L25.5323 15.2378C25.5911 15.3667 25.7197 15.4494 25.8614 15.4494C26.003 15.4494 26.1316 15.3667 26.1904 15.2378L33.032 0.233315C33.0908 0.104433 33.2194 0.0217305 33.3611 0.0217308H38.5276C38.6506 0.0217298 38.7652 0.0842761 38.8318 0.187751C38.8983 0.291227 38.9077 0.421434 38.8566 0.53337L28.6338 22.9531C28.575 23.082 28.4464 23.1647 28.3048 23.1647H23.4179ZM49.6935 23.1469C46.9256 23.1515 44.2693 22.0565 42.3088 20.1026C40.3483 18.1487 39.2443 15.496 39.2396 12.7281L39.2358 10.4583C39.2311 7.69038 40.3262 5.03401 42.2801 3.07353C44.234 1.11305 46.8867 0.00904903 49.6546 0.00439991H55.8869C58.6548 0.00904923 61.3075 1.11305 63.2614 3.07353C65.2153 5.03401 66.3103 7.69038 66.3057 10.4583L66.3019 12.7281C66.2972 15.496 65.1932 18.1487 63.2327 20.1026C61.2722 22.0565 58.6158 23.1515 55.8479 23.1469H49.6935ZM49.6844 17.7227C48.3551 17.725 47.0794 17.1991 46.1378 16.2607C45.1963 15.3223 44.6661 14.0483 44.6638 12.719L44.66 10.4491C44.6578 9.11983 45.1837 7.84407 46.1221 6.90252C47.0605 5.96098 48.3344 5.43077 49.6637 5.42853H55.8779C57.2072 5.43076 58.4812 5.96098 59.4195 6.90252C60.3579 7.84407 60.8839 9.11983 60.8816 10.4491L60.8778 12.719C60.8756 14.0483 60.3453 15.3223 59.4038 16.2607C58.4622 17.1991 57.1865 17.725 55.8572 17.7227H49.6844ZM150.281 1.54445e-10C150.423 1.54445e-10 150.551 0.0827023 150.61 0.211584L160.833 22.6313C160.884 22.7433 160.874 22.8735 160.808 22.9769C160.741 23.0804 160.627 23.143 160.504 23.143L155.337 23.143C155.196 23.143 155.067 23.0603 155.008 22.9314L152.068 16.484C152.01 16.3551 151.881 16.2724 151.739 16.2724H140.564C140.423 16.2724 140.294 16.3551 140.235 16.484L137.296 22.9314C137.237 23.0603 137.108 23.143 136.967 23.143L131.8 23.143C131.677 23.143 131.562 23.0804 131.496 22.977C131.429 22.8735 131.42 22.7433 131.471 22.6313L141.694 0.211584C141.753 0.0827072 141.881 5.28555e-06 142.023 1.54445e-10H150.281ZM149.241 10.6822C149.307 10.5788 149.317 10.4486 149.266 10.3366L147.122 5.63572C147.063 5.50684 146.935 5.42413 146.793 5.42413H145.511C145.369 5.42413 145.241 5.50683 145.182 5.63572L143.039 10.3366C142.988 10.4486 142.997 10.5788 143.063 10.6822C143.13 10.7857 143.245 10.8483 143.368 10.8483H148.936C149.06 10.8483 149.174 10.7857 149.241 10.6822ZM72.0895 1.54445e-10H90.5607C94.9531 6.4795e-06 98.5525 3.48638 98.6927 7.87656C98.8329 12.2667 95.4632 15.9756 91.0797 16.2558C90.9379 16.2649 90.8146 16.3561 90.7644 16.489C90.7143 16.622 90.7466 16.7719 90.8471 16.8724L96.5003 22.5257C96.6038 22.6291 96.6347 22.7846 96.5787 22.9197C96.5228 23.0549 96.3909 23.143 96.2446 23.143L89.5965 23.143C89.5006 23.143 89.4087 23.1049 89.3408 23.0371L82.6821 16.3783C82.6143 16.3105 82.5762 16.2185 82.5762 16.1226L82.5762 11.2099C82.5762 11.0102 82.7381 10.8483 82.9378 10.8483H90.5607C91.5296 10.8483 92.4249 10.3313 92.9094 9.49223C93.3939 8.65311 93.3939 7.61928 92.9094 6.78016C92.4249 5.94105 91.5296 5.42413 90.5607 5.42413H77.5137C77.3139 5.42414 77.1521 5.58603 77.1521 5.78574V22.7814C77.1521 22.8773 77.114 22.9692 77.0461 23.0371C76.9783 23.1049 76.8864 23.143 76.7904 23.143L72.0895 23.143C71.8898 23.143 71.7279 22.9811 71.7279 22.7814V0.361612C71.7279 0.265706 71.766 0.173728 71.8338 0.105913C71.9016 0.0380972 71.9936 1.54445e-10 72.0895 1.54445e-10ZM41.0527 48.774C41.9376 49.4134 43.1723 49.733 44.7567 49.733H48.7596C50.5942 49.733 51.9563 49.2952 52.8458 48.4196C53.7354 47.544 54.1801 46.1842 54.1801 44.3403C54.1801 42.4871 53.733 41.1158 52.8389 40.2263C51.9447 39.3367 50.585 38.892 48.7596 38.892H45.3127C44.2008 38.892 43.4502 38.6881 43.0611 38.2804C42.6719 37.8727 42.4773 37.1222 42.4773 36.0288C42.4773 34.9447 42.6673 34.2058 43.0472 33.812C43.4271 33.4182 44.173 33.2213 45.2849 33.2213H48.5928C49.4267 33.2213 50.0522 33.3209 50.4691 33.5201C50.8861 33.7193 51.1687 34.0922 51.317 34.6389C51.3726 35.0096 51.493 35.2922 51.6783 35.4868C51.8637 35.6813 52.1416 35.7786 52.5123 35.7786C52.92 35.7786 53.2257 35.6744 53.4296 35.4659C53.6334 35.2574 53.7076 34.954 53.652 34.5555C53.4296 33.3139 52.8991 32.392 52.0606 31.7897C51.222 31.1874 50.0661 30.8863 48.5928 30.8863H45.2849C43.5336 30.8863 42.2387 31.3078 41.4002 32.151C40.5616 32.9942 40.1423 34.2868 40.1423 36.0288C40.1423 37.7801 40.5662 39.0842 41.4141 39.9413C42.2619 40.7984 43.5614 41.227 45.3127 41.227H48.7596C49.9271 41.227 50.7332 41.447 51.178 41.8872C51.6227 42.3273 51.8451 43.145 51.8451 44.3403C51.8451 45.5171 51.6297 46.3209 51.1988 46.7517C50.768 47.1826 49.9549 47.398 48.7596 47.398H44.7567C43.8116 47.398 43.1097 47.2799 42.6511 47.0436C42.1924 46.8073 41.8936 46.3695 41.7546 45.7302C41.6897 45.341 41.567 45.0538 41.3863 44.8685C41.2056 44.6831 40.9207 44.5905 40.5315 44.5905C40.1423 44.5905 39.8458 44.6924 39.642 44.8963C39.4381 45.1001 39.3547 45.4059 39.3918 45.8136C39.6142 47.1479 40.1678 48.1347 41.0527 48.774ZM62.6724 49.4412C62.867 49.6358 63.1589 49.733 63.548 49.733C63.9279 49.733 64.2175 49.6311 64.4167 49.4273C64.6159 49.2234 64.7155 48.9362 64.7155 48.5655V33.2491H70.1083C70.4974 33.2491 70.7893 33.1518 70.9839 32.9572C71.1785 32.7626 71.2758 32.4707 71.2758 32.0816C71.2758 31.6924 71.1785 31.4005 70.9839 31.2059C70.7893 31.0113 70.4974 30.914 70.1083 30.914H56.9878C56.5986 30.914 56.3067 31.0113 56.1122 31.2059C55.9176 31.4005 55.8203 31.6924 55.8203 32.0816C55.8203 32.4707 55.9176 32.7626 56.1122 32.9572C56.3067 33.1518 56.5986 33.2491 56.9878 33.2491H62.3805V48.5655C62.3805 48.9547 62.4778 49.2466 62.6724 49.4412ZM71.1922 48.093C70.8957 48.825 71.1181 49.3346 71.8593 49.6219C72.5728 49.9184 73.0732 49.7053 73.3604 48.9825L74.792 45.341H83.451L84.952 48.9825C85.2393 49.696 85.7489 49.9091 86.4809 49.6219C87.2036 49.3346 87.4167 48.825 87.1202 48.093L80.3932 31.8036C80.1801 31.2198 79.7724 30.9141 79.1701 30.8863H79.1145C78.5215 30.8863 78.086 31.192 77.808 31.8036L71.1922 48.093ZM82.492 43.006H75.7094L79.0312 34.5833L82.492 43.006ZM103.382 49.7887C103.076 49.9832 102.784 50.0435 102.506 49.9693C102.228 49.8952 101.992 49.7053 101.797 49.3995L97.4888 42.2277H93.5971V48.5656C93.5971 49.3439 93.208 49.7331 92.4296 49.7331C91.6513 49.7331 91.2621 49.3439 91.2621 48.5656V32.0538C91.2621 31.2754 91.6513 30.8863 92.4296 30.8863H98.9343C100.63 30.8863 101.929 31.338 102.833 32.2414C103.736 33.1448 104.188 34.4444 104.188 36.14V36.9739C104.188 38.4472 103.845 39.6217 103.16 40.4973C102.474 41.3729 101.482 41.9173 100.185 42.1304L103.827 48.2042C104.179 48.8528 104.031 49.381 103.382 49.7887ZM93.5971 39.8927H98.9342C99.9906 39.8927 100.741 39.6703 101.186 39.2255C101.631 38.7808 101.853 38.0302 101.853 36.9739V36.14C101.853 35.093 101.631 34.3447 101.186 33.8954C100.741 33.446 99.9906 33.2213 98.9342 33.2213H93.5971V39.8927ZM109.803 49.7331C109.025 49.7331 108.636 49.3439 108.636 48.5656V32.0538C108.636 31.2754 109.025 30.8863 109.803 30.8863C110.313 30.8863 110.739 31.1364 111.082 31.6368L117.42 41.1703L123.758 31.6368C124.073 31.1364 124.545 30.8863 125.175 30.8863C125.805 30.8863 126.12 31.2754 126.12 32.0538V48.5656C126.12 49.3439 125.731 49.7331 124.953 49.7331C124.175 49.7331 123.785 49.3439 123.785 48.5656V35.7024L118.671 43.2284C118.328 43.7288 117.855 43.9789 117.253 43.9789C116.836 43.9789 116.456 43.7288 116.113 43.2284L110.971 35.6615V48.5656C110.971 49.3439 110.581 49.7331 109.803 49.7331ZM131.013 49.6219C130.272 49.3346 130.049 48.825 130.346 48.093L136.962 31.8036C137.24 31.192 137.675 30.8863 138.268 30.8863H138.324C138.926 30.9141 139.334 31.2198 139.547 31.8036L146.274 48.093C146.57 48.825 146.357 49.3346 145.635 49.6219C144.903 49.9091 144.393 49.696 144.106 48.9825L142.605 45.341H133.946L132.514 48.9825C132.227 49.7053 131.727 49.9184 131.013 49.6219ZM134.863 43.006H141.645L138.184 34.5833L134.863 43.006ZM150.416 48.5656C150.416 49.3439 150.805 49.7331 151.583 49.7331C152.361 49.7331 152.751 49.3439 152.751 48.5656V42.2277H158.088C159.783 42.2277 161.083 41.776 161.986 40.8726C162.89 39.9691 163.342 38.6696 163.342 36.9739V36.14C163.342 34.4444 162.89 33.1448 161.986 32.2414C161.083 31.338 159.783 30.8863 158.088 30.8863H151.583C150.805 30.8863 150.416 31.2754 150.416 32.0538V48.5656ZM158.088 39.8927H152.75V33.2213H158.088C159.144 33.2213 159.894 33.446 160.339 33.8954C160.784 34.3447 161.006 35.093 161.006 36.14V36.9739C161.006 38.0302 160.784 38.7808 160.339 39.2255C159.894 39.6703 159.144 39.8927 158.088 39.8927Z"
        fill="url(#paint1_linear_256_2)" />
    <rect x="199.466" width="3" height="50" fill="url(#paint2_linear_256_2)" />
    <defs>
        <linearGradient id="paint0_linear_256_2" x1="1.5" y1="0" x2="1.5" y2="50"
            gradientUnits="userSpaceOnUse">
            <stop stop-color="#22E1FF" />
            <stop offset="0.48" stop-color="#1D8FE1" />
            <stop offset="1" stop-color="#625EB1" />
        </linearGradient>
        <linearGradient id="paint1_linear_256_2" x1="101.233" y1="0" x2="101.233" y2="50"
            gradientUnits="userSpaceOnUse">
            <stop stop-color="#22E1FF" />
            <stop offset="0.48" stop-color="#1D8FE1" />
            <stop offset="1" stop-color="#625EB1" />
        </linearGradient>
        <linearGradient id="paint2_linear_256_2" x1="200.966" y1="0" x2="200.966" y2="50"
            gradientUnits="userSpaceOnUse">
            <stop stop-color="#22E1FF" />
            <stop offset="0.48" stop-color="#1D8FE1" />
            <stop offset="1" stop-color="#625EB1" />
        </linearGradient>
    </defs>
</svg>
    