<svg width="196" height="56" viewBox="0 0 196 56" fill="none" xmlns="http://www.w3.org/2000/svg">
    <path fill-rule="evenodd" clip-rule="evenodd"
        d="M170.587 26.2115C170.662 26.2863 170.764 26.3283 170.869 26.3283H195.601C195.707 26.3283 195.808 26.2863 195.883 26.2115C195.958 26.1367 196 26.0352 196 25.9294V20.7438C196 20.638 195.958 20.5365 195.883 20.4617C195.808 20.3869 195.707 20.3449 195.601 20.3449H176.853C176.633 20.3449 176.454 20.1663 176.454 19.946V1.1978C176.454 0.9775 176.275 0.798906 176.055 0.798904H170.869C170.764 0.798901 170.662 0.840926 170.587 0.915735C170.513 0.990544 170.471 1.09201 170.471 1.1978V25.9294C170.471 26.0352 170.513 26.1367 170.587 26.2115ZM131.42 9.77409C131.42 14.731 127.401 18.7493 122.445 18.7493H108.052C107.832 18.7493 107.653 18.9279 107.653 19.1482V25.9294C107.653 26.1497 107.475 26.3283 107.254 26.3283L102.069 26.3283C101.963 26.3283 101.861 26.2863 101.787 26.2115C101.712 26.1367 101.67 26.0352 101.67 25.9294V1.1978C101.67 0.9775 101.848 0.798906 102.069 0.798904H107.653H122.445C127.401 0.798904 131.42 4.81723 131.42 9.77409ZM125.436 9.77409C125.436 11.4264 124.097 12.7658 122.445 12.7658H108.052C107.832 12.7658 107.653 12.5872 107.653 12.3669V7.18126C107.653 6.96095 107.832 6.78237 108.052 6.78236H122.445C124.097 6.78236 125.436 8.12181 125.436 9.77409ZM12.6448 26.3523C12.4886 26.3523 12.3467 26.2611 12.2819 26.1189L1.00489 1.38727C0.948582 1.26379 0.958916 1.12015 1.03232 1.00601C1.10572 0.891862 1.23212 0.822866 1.36783 0.822867H7.06714C7.2234 0.822867 7.36526 0.914098 7.43009 1.05627L14.9773 17.608C15.0421 17.7502 15.1839 17.8414 15.3402 17.8414C15.4964 17.8414 15.6383 17.7502 15.7031 17.608L23.2503 1.05627C23.3151 0.914098 23.457 0.822867 23.6133 0.822867H29.3126C29.4483 0.822866 29.5747 0.891862 29.6481 1.00601C29.7215 1.12015 29.7318 1.26379 29.6755 1.38727L18.3985 26.1189C18.3337 26.2611 18.1918 26.3523 18.0356 26.3523H12.6448ZM41.6299 26.3326C38.5766 26.3378 35.6463 25.1298 33.4837 22.9744C31.321 20.819 30.1032 17.8928 30.098 14.8395L30.0938 12.3356C30.0887 9.28231 31.2967 6.35202 33.4521 4.18937C35.6074 2.02673 38.5336 0.80889 41.587 0.803761H48.462C51.5153 0.80889 54.4415 2.02673 56.5968 4.18938C58.7522 6.35202 59.9602 9.28231 59.9551 12.3356L59.9509 14.8395C59.9457 17.8928 58.7279 20.819 56.5652 22.9744C54.4026 25.1298 51.4723 26.3378 48.419 26.3326H41.6299ZM41.6198 20.3492C40.1534 20.3517 38.7461 19.7715 37.7075 18.7364C36.6688 17.7012 36.084 16.2959 36.0815 14.8295L36.0773 12.3255C36.0748 10.8591 36.655 9.45184 37.6901 8.4132C38.7253 7.37456 40.1306 6.78968 41.597 6.78721H48.4519C49.9183 6.78968 51.3237 7.37456 52.3588 8.4132C53.394 9.45184 53.9741 10.8591 53.9716 12.3255L53.9674 14.8295C53.965 16.2959 53.3801 17.7012 52.3414 18.7364C51.3028 19.7715 49.8955 20.3517 48.4291 20.3492H41.6198ZM152.59 0.798904C152.746 0.798904 152.888 0.890134 152.953 1.03231L164.23 25.7639C164.286 25.8874 164.276 26.031 164.202 26.1452C164.129 26.2593 164.003 26.3283 163.867 26.3283L158.167 26.3283C158.011 26.3283 157.869 26.2371 157.805 26.0949L154.562 18.9827C154.497 18.8405 154.355 18.7493 154.199 18.7493H141.871C141.715 18.7493 141.573 18.8405 141.508 18.9827L138.265 26.0949C138.201 26.2371 138.059 26.3283 137.902 26.3283L132.203 26.3283C132.067 26.3283 131.941 26.2593 131.868 26.1452C131.794 26.0311 131.784 25.8874 131.84 25.7639L143.117 1.03231C143.182 0.890139 143.324 0.798909 143.48 0.798904H152.59ZM151.442 12.5827C151.515 12.4685 151.526 12.3249 151.469 12.2014L149.105 7.01577C149.04 6.8736 148.898 6.78237 148.742 6.78236H147.328C147.172 6.78236 147.03 6.87359 146.965 7.01577L144.6 12.2014C144.544 12.3249 144.554 12.4685 144.628 12.5827C144.701 12.6968 144.828 12.7658 144.963 12.7658H151.107C151.242 12.7658 151.369 12.6968 151.442 12.5827ZM66.3353 0.798904H86.7112C91.5565 0.798911 95.5272 4.64479 95.6818 9.48768C95.8364 14.3306 92.1192 18.4219 87.2837 18.731C87.1273 18.741 86.9913 18.8416 86.936 18.9883C86.8806 19.1349 86.9163 19.3003 87.0271 19.4111L93.2633 25.6474C93.3774 25.7614 93.4116 25.933 93.3498 26.0821C93.2881 26.2312 93.1426 26.3283 92.9813 26.3283L85.6476 26.3283C85.5418 26.3283 85.4404 26.2863 85.3656 26.2115L78.0202 18.8661C77.9454 18.7913 77.9034 18.6899 77.9034 18.5841L77.9034 13.1647C77.9034 12.9444 78.0819 12.7658 78.3023 12.7658H86.7112C87.78 12.7658 88.7677 12.1956 89.3021 11.27C89.8365 10.3443 89.8365 9.20387 89.3021 8.27822C88.7677 7.35258 87.78 6.78236 86.7112 6.78236H72.3188C72.0985 6.78237 71.9199 6.96095 71.9199 7.18126V25.9294C71.9199 26.0352 71.8779 26.1367 71.8031 26.2115C71.7283 26.2863 71.6268 26.3283 71.521 26.3283L66.3353 26.3283C66.115 26.3283 65.9364 26.1497 65.9364 25.9294V1.1978C65.9364 1.09201 65.9785 0.990547 66.0533 0.915738C66.1281 0.840929 66.2295 0.798904 66.3353 0.798904ZM32.0981 54.6024C33.0742 55.3077 34.4362 55.6603 36.184 55.6603H40.5997C42.6235 55.6603 44.126 55.1774 45.1073 54.2114C46.0885 53.2455 46.5792 51.7455 46.5792 49.7115C46.5792 47.6672 46.086 46.1545 45.0996 45.1732C44.1133 44.192 42.6133 43.7013 40.5997 43.7013H36.7973C35.5708 43.7013 34.7428 43.4765 34.3135 43.0267C33.8842 42.577 33.6696 41.7491 33.6696 40.5429C33.6696 39.347 33.8791 38.5319 34.2982 38.0975C34.7173 37.6631 35.5401 37.4459 36.7667 37.4459H40.4157C41.3356 37.4459 42.0256 37.5557 42.4855 37.7755C42.9455 37.9953 43.2572 38.4067 43.4208 39.0097C43.4821 39.4186 43.615 39.7303 43.8194 39.945C44.0238 40.1596 44.3305 40.267 44.7393 40.267C45.1891 40.267 45.5264 40.152 45.7512 39.922C45.9761 39.692 46.0579 39.3573 45.9965 38.9177C45.7512 37.5481 45.1661 36.5311 44.241 35.8667C43.316 35.2023 42.0409 34.8701 40.4157 34.8701H36.7667C34.8348 34.8701 33.4064 35.3352 32.4814 36.2653C31.5563 37.1954 31.0938 38.6213 31.0938 40.5429C31.0938 42.4748 31.5614 43.9134 32.4967 44.8589C33.4319 45.8044 34.8655 46.2771 36.7973 46.2771H40.5997C41.8876 46.2771 42.7768 46.5199 43.2674 47.0054C43.7581 47.4909 44.0034 48.3929 44.0034 49.7115C44.0034 51.0096 43.7657 51.8963 43.2904 52.3716C42.8152 52.8469 41.9182 53.0845 40.5997 53.0845H36.184C35.1415 53.0845 34.3672 52.9542 33.8612 52.6936C33.3553 52.4329 33.0256 51.95 32.8723 51.2447C32.8008 50.8154 32.6653 50.4985 32.466 50.2941C32.2667 50.0897 31.9524 49.9875 31.5231 49.9875C31.0938 49.9875 30.7667 50.0999 30.5419 50.3248C30.317 50.5496 30.225 50.887 30.2659 51.3367C30.5112 52.8086 31.1219 53.8971 32.0981 54.6024ZM55.947 55.3384C56.1617 55.553 56.4837 55.6603 56.913 55.6603C57.332 55.6603 57.6515 55.5479 57.8712 55.323C58.091 55.0982 58.2009 54.7813 58.2009 54.3724V37.4765H64.1497C64.579 37.4765 64.901 37.3692 65.1156 37.1546C65.3303 36.9399 65.4376 36.6179 65.4376 36.1886C65.4376 35.7593 65.3303 35.4374 65.1156 35.2227C64.901 35.0081 64.579 34.9008 64.1497 34.9008H49.6762C49.2469 34.9008 48.925 35.0081 48.7103 35.2227C48.4957 35.4374 48.3884 35.7593 48.3884 36.1886C48.3884 36.6179 48.4957 36.9399 48.7103 37.1546C48.925 37.3692 49.2469 37.4765 49.6762 37.4765H55.6251V54.3724C55.6251 54.8017 55.7324 55.1237 55.947 55.3384ZM65.3456 53.8511C65.0185 54.6586 65.2638 55.2208 66.0815 55.5377C66.8686 55.8648 67.4205 55.6297 67.7374 54.8324L69.3166 50.8154H78.8684L80.5243 54.8324C80.8412 55.6194 81.4033 55.8545 82.2108 55.5377C83.0081 55.2208 83.2432 54.6586 82.9161 53.8511L75.4954 35.882C75.2603 35.2381 74.8106 34.9008 74.1462 34.8701H74.0848C73.4307 34.8701 72.9503 35.2074 72.6436 35.882L65.3456 53.8511ZM77.8105 48.2396H70.3285L73.9929 38.9484L77.8105 48.2396ZM100.855 55.7217C100.517 55.9363 100.195 56.0027 99.8886 55.921C99.582 55.8392 99.3214 55.6297 99.1067 55.2924L94.3538 47.381H90.0608V54.3724C90.0608 55.231 89.6315 55.6603 88.7729 55.6603C87.9143 55.6603 87.485 55.231 87.485 54.3724V36.158C87.485 35.2994 87.9143 34.8701 88.7729 34.8701H95.9483C97.8188 34.8701 99.2524 35.3684 100.249 36.365C101.246 37.3615 101.744 38.7951 101.744 40.6656V41.5855C101.744 43.2107 101.366 44.5063 100.609 45.4722C99.8529 46.4381 98.7592 47.0386 97.3282 47.2737L101.345 53.9738C101.734 54.6893 101.57 55.2719 100.855 55.7217ZM90.0608 44.8052H95.9483C97.1135 44.8052 97.9415 44.5599 98.4321 44.0693C98.9227 43.5787 99.168 42.7508 99.168 41.5855V40.6656C99.168 39.5106 98.9227 38.6852 98.4321 38.1895C97.9415 37.6937 97.1135 37.4459 95.9483 37.4459H90.0608V44.8052ZM107.938 55.6603C107.079 55.6603 106.65 55.231 106.65 54.3724V36.158C106.65 35.2994 107.079 34.8701 107.938 34.8701C108.5 34.8701 108.97 35.1461 109.349 35.698L116.34 46.2146L123.331 35.698C123.679 35.1461 124.2 34.8701 124.895 34.8701C125.59 34.8701 125.938 35.2994 125.938 36.158V54.3724C125.938 55.231 125.508 55.6603 124.65 55.6603C123.791 55.6603 123.362 55.231 123.362 54.3724V40.1829L117.72 48.4849C117.342 49.0369 116.82 49.3129 116.156 49.3129C115.696 49.3129 115.277 49.0369 114.899 48.4849L109.226 40.1377V54.3724C109.226 55.231 108.797 55.6603 107.938 55.6603ZM131.335 55.5377C130.517 55.2208 130.272 54.6586 130.599 53.8511L137.897 35.882C138.203 35.2074 138.684 34.8701 139.338 34.8701H139.399C140.064 34.9008 140.513 35.2381 140.749 35.882L148.169 53.8511C148.496 54.6586 148.261 55.2208 147.464 55.5377C146.656 55.8545 146.094 55.6194 145.777 54.8324L144.122 50.8154H134.57L132.99 54.8324C132.674 55.6297 132.122 55.8648 131.335 55.5377ZM135.582 48.2396H143.064L139.246 38.9484L135.582 48.2396ZM152.738 54.3724C152.738 55.231 153.167 55.6603 154.026 55.6603C154.885 55.6603 155.314 55.231 155.314 54.3724V47.381H161.201C163.072 47.381 164.506 46.8827 165.502 45.8862C166.499 44.8896 166.997 43.456 166.997 41.5855V40.6656C166.997 38.7951 166.499 37.3615 165.502 36.365C164.506 35.3684 163.072 34.8701 161.201 34.8701H154.026C153.167 34.8701 152.738 35.2994 152.738 36.158V54.3724ZM161.201 44.8052H155.314V37.4459H161.201C162.367 37.4459 163.195 37.6937 163.685 38.1895C164.176 38.6852 164.421 39.5106 164.421 40.6656V41.5855C164.421 42.7508 164.176 43.5787 163.685 44.0693C163.195 44.5599 162.367 44.8052 161.201 44.8052Z"
        fill="url(#paint0_linear_1_116)" />
    <defs>
        <linearGradient id="paint0_linear_1_116" x1="98.4845" y1="0.798904" x2="98.4845"
            y2="55.9548" gradientUnits="userSpaceOnUse">
            <stop stop-color="#22E1FF" />
            <stop offset="0.48" stop-color="#1D8FE1" />
            <stop offset="1" stop-color="#625EB1" />
        </linearGradient>
    </defs>
</svg>
    