<svg width="410" height="700" viewBox="0 0 410 700" fill="none" xmlns="http://www.w3.org/2000/svg">
  <path fill-rule="evenodd" clip-rule="evenodd"
    d="M60.6306 698.478C58.2041 697.473 55.9993 695.999 54.1421 694.142L5.85787 645.858C2.10716 642.107 2.02727e-05 637.02 3.29233e-06 631.716L0 68.2843C0 62.9799 2.10714 57.8929 5.85787 54.1421L54.1421 5.85786C55.9993 4.00069 58.2041 2.5275 60.6306 1.52241C63.0571 0.517314 65.6579 0 68.2843 0H341.716C344.342 0 346.943 0.517315 349.369 1.52241C351.796 2.5275 354.001 4.00069 355.858 5.85786L404.142 54.1421C405.999 55.9993 407.473 58.2041 408.478 60.6306C409.483 63.0571 410 65.6578 410 68.2843V631.716C410 634.342 409.483 636.943 408.478 639.369C407.473 641.796 405.999 644.001 404.142 645.858L355.858 694.142C354.001 695.999 351.796 697.473 349.369 698.478C346.943 699.483 344.342 700 341.716 700H68.2843C65.6578 700 63.0571 699.483 60.6306 698.478ZM369.393 659.393L335.858 625.858C332.107 622.107 327.02 620 321.716 620L88.2843 620C85.6578 620 83.0571 620.517 80.6306 621.522C78.2041 622.528 75.9993 624.001 74.1421 625.858L40.6066 659.393C39.6689 660.331 38.3972 660.858 37.0711 660.858C35.745 660.858 34.4732 660.331 33.5355 659.393L12.9289 638.787C11.0536 636.911 10 634.368 10 631.716V507.071C10 505.745 10.5268 504.473 11.4645 503.536L34.1421 480.858C35.9993 479.001 37.4725 476.796 38.4776 474.369C39.4827 471.943 40 469.342 40 466.716V233.284C40 227.98 37.8929 222.893 34.1421 219.142L11.4645 196.464C11.0002 196 10.6319 195.449 10.3806 194.842C10.1293 194.236 10 193.586 10 192.929V68.2843C10 65.6321 11.0536 63.0886 12.9289 61.2132L33.5355 40.6066C33.9998 40.1423 34.551 39.774 35.1576 39.5227C35.7643 39.2715 36.4145 39.1421 37.0711 39.1421C37.7277 39.1421 38.3779 39.2715 38.9845 39.5227C39.5911 39.774 40.1423 40.1423 40.6066 40.6066L74.1421 74.1421C75.9993 75.9993 78.2041 77.4725 80.6306 78.4776C83.0571 79.4827 85.6578 80 88.2843 80L321.716 80C327.02 80 332.107 77.8929 335.858 74.1421L369.393 40.6066C370.331 39.6689 371.603 39.1421 372.929 39.1421C374.255 39.1421 375.527 39.6689 376.465 40.6066L397.071 61.2132C398 62.1418 398.736 63.2442 399.239 64.4574C399.741 65.6707 400 66.9711 400 68.2843V192.929C400 193.586 399.871 194.236 399.619 194.842C399.368 195.449 399 196 398.536 196.464L375.858 219.142C372.107 222.893 370 227.98 370 233.284V466.716C370 469.342 370.517 471.943 371.522 474.369C372.528 476.796 374.001 479.001 375.858 480.858L398.536 503.536C399 504 399.368 504.551 399.619 505.158C399.871 505.764 400 506.414 400 507.071V631.716C400 633.029 399.741 634.329 399.239 635.543C398.736 636.756 398 637.858 397.071 638.787L376.465 659.393C375.527 660.331 374.255 660.858 372.929 660.858C371.603 660.858 370.331 660.331 369.393 659.393Z"
    fill="url(#paint0_linear_1_488)" />
  <path opacity="0.5"
    d="M337.626 624.09L371.161 657.626C371.393 657.858 371.669 658.042 371.972 658.168C372.276 658.293 372.601 658.358 372.929 658.358C373.257 658.358 373.582 658.293 373.886 658.168C374.189 658.042 374.465 657.858 374.697 657.626L395.303 637.019C396 636.323 396.552 635.496 396.929 634.586C397.306 633.676 397.5 632.701 397.5 631.716L397.5 507.071C397.5 506.408 397.237 505.772 396.768 505.303L374.09 482.626C369.871 478.406 367.5 472.683 367.5 466.716V233.284C367.5 230.33 368.082 227.404 369.213 224.674C370.343 221.944 372.001 219.464 374.09 217.374L396.768 194.697C397.237 194.228 397.5 193.592 397.5 192.929L397.5 68.2843C397.5 66.2952 396.71 64.3875 395.303 62.981L374.697 42.3744C374.465 42.1422 374.189 41.9581 373.886 41.8325C373.582 41.7068 373.257 41.6422 372.929 41.6422C372.601 41.6422 372.276 41.7068 371.972 41.8325C371.669 41.9581 371.393 42.1422 371.161 42.3744L337.626 75.9099C335.536 77.9992 333.056 79.6566 330.326 80.7873C327.596 81.918 324.671 82.5 321.716 82.5H88.2843C82.3169 82.5 76.5939 80.1295 72.3744 75.9099L38.8388 42.3744C38.6067 42.1422 38.3311 41.9581 38.0278 41.8325C37.7245 41.7068 37.3994 41.6422 37.0711 41.6422C36.7428 41.6422 36.4177 41.7068 36.1144 41.8325C35.811 41.9581 35.5354 42.1422 35.3033 42.3744L14.6967 62.981C14.0003 63.6774 13.4478 64.5042 13.0709 65.4142C12.694 66.3241 12.5 67.2994 12.5 68.2843V192.929C12.5 193.257 12.5647 193.582 12.6903 193.886C12.8159 194.189 13.0001 194.465 13.2322 194.697L35.9099 217.374C37.9992 219.464 39.6566 221.944 40.7873 224.674C41.918 227.404 42.5 230.33 42.5 233.284L42.5 466.716C42.5 472.683 40.1295 478.406 35.9099 482.626L13.2322 505.303C13.0001 505.535 12.8159 505.811 12.6903 506.114C12.5647 506.418 12.5 506.743 12.5 507.071V631.716C12.5 633.705 13.2902 635.613 14.6967 637.019L35.3033 657.626C35.7721 658.095 36.408 658.358 37.0711 658.358C37.7341 658.358 38.37 658.095 38.8388 657.626L72.3744 624.09C74.4637 622.001 76.9441 620.344 79.6739 619.213C82.4037 618.082 85.3295 617.5 88.2843 617.5H321.716C327.683 617.5 333.406 619.871 337.626 624.09Z"
    stroke="url(#paint1_linear_1_488)" stroke-linecap="round" stroke-linejoin="round" />
  <path fill-rule="evenodd" clip-rule="evenodd"
    d="M277.587 38.2115C277.662 38.2863 277.764 38.3283 277.869 38.3283H302.601C302.707 38.3283 302.808 38.2863 302.883 38.2115C302.958 38.1367 303 38.0352 303 37.9294V32.7438C303 32.638 302.958 32.5365 302.883 32.4617C302.808 32.3869 302.707 32.3449 302.601 32.3449H283.853C283.633 32.3449 283.454 32.1663 283.454 31.946V13.1978C283.454 12.9775 283.275 12.7989 283.055 12.7989H277.869C277.764 12.7989 277.662 12.8409 277.587 12.9157C277.513 12.9905 277.471 13.092 277.471 13.1978V37.9294C277.471 38.0352 277.513 38.1367 277.587 38.2115ZM238.42 21.7741C238.42 26.731 234.401 30.7493 229.445 30.7493H215.052C214.832 30.7493 214.653 30.9279 214.653 31.1482V37.9294C214.653 38.1497 214.475 38.3283 214.254 38.3283L209.069 38.3283C208.963 38.3283 208.861 38.2863 208.787 38.2115C208.712 38.1367 208.67 38.0352 208.67 37.9294V13.1978C208.67 12.9775 208.848 12.7989 209.069 12.7989H214.653H229.445C234.401 12.7989 238.42 16.8172 238.42 21.7741ZM232.436 21.7741C232.436 23.4264 231.097 24.7658 229.445 24.7658H215.052C214.832 24.7658 214.653 24.5872 214.653 24.3669V19.1813C214.653 18.961 214.832 18.7824 215.052 18.7824H229.445C231.097 18.7824 232.436 20.1218 232.436 21.7741ZM119.645 38.3523C119.489 38.3523 119.347 38.2611 119.282 38.1189L108.005 13.3873C107.949 13.2638 107.959 13.1202 108.032 13.006C108.106 12.8919 108.232 12.8229 108.368 12.8229H114.067C114.223 12.8229 114.365 12.9141 114.43 13.0563L121.977 29.608C122.042 29.7502 122.184 29.8414 122.34 29.8414C122.496 29.8414 122.638 29.7502 122.703 29.608L130.25 13.0563C130.315 12.9141 130.457 12.8229 130.613 12.8229H136.313C136.448 12.8229 136.575 12.8919 136.648 13.006C136.721 13.1202 136.732 13.2638 136.676 13.3873L125.399 38.1189C125.334 38.2611 125.192 38.3523 125.036 38.3523H119.645ZM148.63 38.3326C145.577 38.3378 142.646 37.1298 140.484 34.9744C138.321 32.819 137.103 29.8928 137.098 26.8395L137.094 24.3356C137.089 21.2823 138.297 18.352 140.452 16.1894C142.607 14.0267 145.534 12.8089 148.587 12.8038H155.462C158.515 12.8089 161.441 14.0267 163.597 16.1894C165.752 18.352 166.96 21.2823 166.955 24.3356L166.951 26.8395C166.946 29.8928 165.728 32.819 163.565 34.9744C161.403 37.1298 158.472 38.3378 155.419 38.3326H148.63ZM148.62 32.3492C147.153 32.3517 145.746 31.7715 144.707 30.7364C143.669 29.7012 143.084 28.2959 143.081 26.8295L143.077 24.3255C143.075 22.8591 143.655 21.4518 144.69 20.4132C145.725 19.3746 147.131 18.7897 148.597 18.7872H155.452C156.918 18.7897 158.324 19.3746 159.359 20.4132C160.394 21.4518 160.974 22.8591 160.972 24.3255L160.967 26.8295C160.965 28.2959 160.38 29.7012 159.341 30.7364C158.303 31.7715 156.895 32.3517 155.429 32.3492H148.62ZM259.59 12.7989C259.746 12.7989 259.888 12.8901 259.953 13.0323L271.23 37.7639C271.286 37.8874 271.276 38.031 271.202 38.1452C271.129 38.2593 271.003 38.3283 270.867 38.3283L265.167 38.3283C265.011 38.3283 264.869 38.2371 264.805 38.0949L261.562 30.9827C261.497 30.8405 261.355 30.7493 261.199 30.7493H248.871C248.715 30.7493 248.573 30.8405 248.508 30.9827L245.265 38.0949C245.201 38.2371 245.059 38.3283 244.902 38.3283L239.203 38.3283C239.067 38.3283 238.941 38.2593 238.868 38.1452C238.794 38.0311 238.784 37.8874 238.84 37.7639L250.117 13.0323C250.182 12.8901 250.324 12.7989 250.48 12.7989H259.59ZM258.442 24.5827C258.515 24.4685 258.526 24.3249 258.469 24.2014L256.105 19.0158C256.04 18.8736 255.898 18.7824 255.742 18.7824H254.328C254.172 18.7824 254.03 18.8736 253.965 19.0158L251.6 24.2014C251.544 24.3249 251.554 24.4685 251.628 24.5827C251.701 24.6968 251.828 24.7658 251.963 24.7658H258.107C258.242 24.7658 258.369 24.6968 258.442 24.5827ZM173.335 12.7989H193.711C198.557 12.7989 202.527 16.6448 202.682 21.4877C202.836 26.3306 199.119 30.4219 194.284 30.731C194.127 30.741 193.991 30.8416 193.936 30.9883C193.881 31.1349 193.916 31.3003 194.027 31.4111L200.263 37.6474C200.377 37.7614 200.412 37.933 200.35 38.0821C200.288 38.2312 200.143 38.3283 199.981 38.3283L192.648 38.3283C192.542 38.3283 192.44 38.2863 192.366 38.2115L185.02 30.8661C184.945 30.7913 184.903 30.6899 184.903 30.5841L184.903 25.1647C184.903 24.9444 185.082 24.7658 185.302 24.7658H193.711C194.78 24.7658 195.768 24.1956 196.302 23.27C196.837 22.3443 196.837 21.2039 196.302 20.2782C195.768 19.3526 194.78 18.7824 193.711 18.7824H179.319C179.098 18.7824 178.92 18.961 178.92 19.1813V37.9294C178.92 38.0352 178.878 38.1367 178.803 38.2115C178.728 38.2863 178.627 38.3283 178.521 38.3283L173.335 38.3283C173.115 38.3283 172.936 38.1497 172.936 37.9294V13.1978C172.936 13.092 172.978 12.9905 173.053 12.9157C173.128 12.8409 173.23 12.7989 173.335 12.7989ZM139.098 66.6024C140.074 67.3077 141.436 67.6603 143.184 67.6603H147.6C149.624 67.6603 151.126 67.1774 152.107 66.2114C153.089 65.2455 153.579 63.7455 153.579 61.7115C153.579 59.6672 153.086 58.1545 152.1 57.1732C151.113 56.192 149.613 55.7013 147.6 55.7013H143.797C142.571 55.7013 141.743 55.4765 141.314 55.0267C140.884 54.577 140.67 53.7491 140.67 52.5429C140.67 51.347 140.879 50.5319 141.298 50.0975C141.717 49.6631 142.54 49.4459 143.767 49.4459H147.416C148.336 49.4459 149.026 49.5557 149.486 49.7755C149.945 49.9953 150.257 50.4067 150.421 51.0097C150.482 51.4186 150.615 51.7303 150.819 51.945C151.024 52.1596 151.33 52.267 151.739 52.267C152.189 52.267 152.526 52.152 152.751 51.922C152.976 51.692 153.058 51.3573 152.997 50.9177C152.751 49.5481 152.166 48.5311 151.241 47.8667C150.316 47.2023 149.041 46.8701 147.416 46.8701H143.767C141.835 46.8701 140.406 47.3352 139.481 48.2653C138.556 49.1954 138.094 50.6213 138.094 52.5429C138.094 54.4748 138.561 55.9134 139.497 56.8589C140.432 57.8044 141.865 58.2771 143.797 58.2771H147.6C148.888 58.2771 149.777 58.5199 150.267 59.0054C150.758 59.4909 151.003 60.3929 151.003 61.7115C151.003 63.0096 150.766 63.8963 150.29 64.3716C149.815 64.8469 148.918 65.0845 147.6 65.0845H143.184C142.141 65.0845 141.367 64.9542 140.861 64.6936C140.355 64.4329 140.026 63.95 139.872 63.2447C139.801 62.8154 139.665 62.4985 139.466 62.2941C139.267 62.0897 138.952 61.9875 138.523 61.9875C138.094 61.9875 137.767 62.0999 137.542 62.3248C137.317 62.5496 137.225 62.887 137.266 63.3367C137.511 64.8086 138.122 65.8971 139.098 66.6024ZM162.947 67.3384C163.162 67.553 163.484 67.6603 163.913 67.6603C164.332 67.6603 164.651 67.5479 164.871 67.323C165.091 67.0982 165.201 66.7813 165.201 66.3724V49.4765H171.15C171.579 49.4765 171.901 49.3692 172.116 49.1546C172.33 48.9399 172.438 48.6179 172.438 48.1886C172.438 47.7593 172.33 47.4374 172.116 47.2227C171.901 47.0081 171.579 46.9008 171.15 46.9008H156.676C156.247 46.9008 155.925 47.0081 155.71 47.2227C155.496 47.4374 155.388 47.7593 155.388 48.1886C155.388 48.6179 155.496 48.9399 155.71 49.1546C155.925 49.3692 156.247 49.4765 156.676 49.4765H162.625V66.3724C162.625 66.8017 162.732 67.1237 162.947 67.3384ZM172.346 65.8511C172.018 66.6586 172.264 67.2208 173.082 67.5377C173.869 67.8648 174.421 67.6297 174.737 66.8324L176.317 62.8154H185.868L187.524 66.8324C187.841 67.6194 188.403 67.8545 189.211 67.5377C190.008 67.2208 190.243 66.6586 189.916 65.8511L182.495 47.882C182.26 47.2381 181.811 46.9008 181.146 46.8701H181.085C180.431 46.8701 179.95 47.2074 179.644 47.882L172.346 65.8511ZM184.811 60.2396H177.328L180.993 50.9484L184.811 60.2396ZM207.855 67.7217C207.517 67.9363 207.195 68.0027 206.889 67.921C206.582 67.8392 206.321 67.6297 206.107 67.2924L201.354 59.381H197.061V66.3724C197.061 67.231 196.632 67.6603 195.773 67.6603C194.914 67.6603 194.485 67.231 194.485 66.3724V48.158C194.485 47.2994 194.914 46.8701 195.773 46.8701H202.948C204.819 46.8701 206.252 47.3684 207.249 48.365C208.246 49.3615 208.744 50.7951 208.744 52.6656V53.5855C208.744 55.2107 208.366 56.5063 207.609 57.4722C206.853 58.4381 205.759 59.0386 204.328 59.2737L208.345 65.9738C208.734 66.6893 208.57 67.2719 207.855 67.7217ZM197.061 56.8052H202.948C204.114 56.8052 204.941 56.5599 205.432 56.0693C205.923 55.5787 206.168 54.7508 206.168 53.5855V52.6656C206.168 51.5106 205.923 50.6852 205.432 50.1895C204.941 49.6937 204.114 49.4459 202.948 49.4459H197.061V56.8052ZM214.938 67.6603C214.079 67.6603 213.65 67.231 213.65 66.3724V48.158C213.65 47.2994 214.079 46.8701 214.938 46.8701C215.5 46.8701 215.97 47.1461 216.349 47.698L223.34 58.2146L230.331 47.698C230.679 47.1461 231.2 46.8701 231.895 46.8701C232.59 46.8701 232.938 47.2994 232.938 48.158V66.3724C232.938 67.231 232.508 67.6603 231.65 67.6603C230.791 67.6603 230.362 67.231 230.362 66.3724V52.1829L224.72 60.4849C224.342 61.0369 223.82 61.3129 223.156 61.3129C222.696 61.3129 222.277 61.0369 221.899 60.4849L216.226 52.1377V66.3724C216.226 67.231 215.797 67.6603 214.938 67.6603ZM238.335 67.5377C237.517 67.2208 237.272 66.6586 237.599 65.8511L244.897 47.882C245.203 47.2074 245.684 46.8701 246.338 46.8701H246.399C247.064 46.9008 247.513 47.2381 247.749 47.882L255.169 65.8511C255.496 66.6586 255.261 67.2208 254.464 67.5377C253.656 67.8545 253.094 67.6194 252.777 66.8324L251.122 62.8154H241.57L239.99 66.8324C239.674 67.6297 239.122 67.8648 238.335 67.5377ZM242.582 60.2396H250.064L246.246 50.9484L242.582 60.2396ZM259.738 66.3724C259.738 67.231 260.167 67.6603 261.026 67.6603C261.885 67.6603 262.314 67.231 262.314 66.3724V59.381H268.201C270.072 59.381 271.506 58.8827 272.502 57.8862C273.499 56.8896 273.997 55.456 273.997 53.5855V52.6656C273.997 50.7951 273.499 49.3615 272.502 48.365C271.506 47.3684 270.072 46.8701 268.201 46.8701H261.026C260.167 46.8701 259.738 47.2994 259.738 48.158V66.3724ZM268.201 56.8052H262.314V49.4459H268.201C269.367 49.4459 270.195 49.6937 270.685 50.1895C271.176 50.6852 271.421 51.5106 271.421 52.6656V53.5855C271.421 54.7508 271.176 55.5787 270.685 56.0693C270.195 56.5599 269.367 56.8052 268.201 56.8052Z"
    fill="url(#paint2_linear_1_488)" />
  <path
    d="M172.76 656C171.458 656 170.507 655.7 169.907 655.1C169.307 654.5 169.007 653.549 169.007 652.247V648.152C169.007 646.838 169.304 645.884 169.898 645.29C170.498 644.696 171.446 644.399 172.742 644.399H174.92C176.024 644.399 176.846 644.63 177.386 645.092C177.926 645.548 178.223 646.283 178.277 647.297C178.295 647.459 178.262 647.582 178.178 647.666C178.1 647.75 177.983 647.792 177.827 647.792C177.527 647.792 177.362 647.633 177.332 647.315C177.29 646.571 177.086 646.058 176.72 645.776C176.354 645.488 175.754 645.344 174.92 645.344H172.742C172.052 645.344 171.503 645.434 171.095 645.614C170.687 645.788 170.393 646.082 170.213 646.496C170.039 646.904 169.952 647.456 169.952 648.152V652.247C169.952 652.943 170.042 653.495 170.222 653.903C170.402 654.311 170.696 654.605 171.104 654.785C171.512 654.965 172.064 655.055 172.76 655.055H174.92C175.754 655.055 176.354 654.914 176.72 654.632C177.086 654.344 177.29 653.828 177.332 653.084C177.362 652.766 177.527 652.607 177.827 652.607C177.983 652.607 178.1 652.652 178.178 652.742C178.262 652.826 178.295 652.946 178.277 653.102C178.223 654.116 177.926 654.854 177.386 655.316C176.846 655.772 176.024 656 174.92 656H172.76ZM189.069 656.018C188.937 656.096 188.817 656.123 188.709 656.099C188.601 656.075 188.505 656 188.421 655.874L185.469 651.176H182.166V655.523C182.166 655.841 182.01 656 181.698 656C181.38 656 181.221 655.841 181.221 655.523V644.876C181.221 644.558 181.38 644.399 181.698 644.399H185.91C186.936 644.399 187.71 644.663 188.232 645.191C188.76 645.719 189.024 646.496 189.024 647.522V648.062C189.024 648.968 188.817 649.679 188.403 650.195C187.989 650.711 187.377 651.026 186.567 651.14L189.222 655.37C189.39 655.646 189.339 655.862 189.069 656.018ZM182.166 650.231H185.91C186.666 650.231 187.215 650.06 187.557 649.718C187.905 649.37 188.079 648.818 188.079 648.062V647.522C188.079 646.76 187.905 646.208 187.557 645.866C187.215 645.518 186.666 645.344 185.91 645.344H182.166V650.231ZM192.368 656C192.05 656 191.891 655.841 191.891 655.523V644.876C191.891 644.558 192.05 644.399 192.368 644.399H199.109C199.427 644.399 199.586 644.558 199.586 644.876C199.586 645.188 199.427 645.344 199.109 645.344H192.836V649.655H196.985C197.303 649.655 197.462 649.811 197.462 650.123C197.462 650.441 197.303 650.6 196.985 650.6H192.836V655.055H199.109C199.427 655.055 199.586 655.211 199.586 655.523C199.586 655.841 199.427 656 199.109 656H192.368ZM201.072 655.955C200.784 655.829 200.697 655.619 200.811 655.325L205.275 644.768C205.371 644.522 205.548 644.399 205.806 644.399H205.86C206.106 644.405 206.28 644.528 206.382 644.768L210.846 655.325C210.966 655.619 210.882 655.829 210.594 655.955C210.3 656.075 210.096 655.991 209.982 655.703L208.785 652.868H202.89L201.693 655.703C201.573 655.991 201.366 656.075 201.072 655.955ZM203.277 651.923H208.389L205.833 645.893L203.277 651.923ZM215.025 656.009C214.881 656.009 214.764 655.967 214.674 655.883C214.59 655.799 214.548 655.685 214.548 655.541V645.335H210.723C210.579 645.335 210.462 645.293 210.372 645.209C210.288 645.125 210.246 645.011 210.246 644.867C210.246 644.723 210.288 644.609 210.372 644.525C210.462 644.435 210.579 644.39 210.723 644.39H219.327C219.471 644.39 219.585 644.435 219.669 644.525C219.753 644.609 219.795 644.723 219.795 644.867C219.795 645.011 219.753 645.125 219.669 645.209C219.585 645.293 219.471 645.335 219.327 645.335H215.493V655.541C215.493 655.679 215.448 655.793 215.358 655.883C215.274 655.967 215.163 656.009 215.025 656.009ZM222.286 656C221.968 656 221.809 655.841 221.809 655.523V644.876C221.809 644.558 221.968 644.399 222.286 644.399H229.027C229.345 644.399 229.504 644.558 229.504 644.876C229.504 645.188 229.345 645.344 229.027 645.344H222.754V649.655H226.903C227.221 649.655 227.38 649.811 227.38 650.123C227.38 650.441 227.221 650.6 226.903 650.6H222.754V655.055H229.027C229.345 655.055 229.504 655.211 229.504 655.523C229.504 655.841 229.345 656 229.027 656H222.286ZM232.376 656C232.058 656 231.899 655.841 231.899 655.523V644.876C231.899 644.558 232.058 644.399 232.376 644.399H236.714C238.208 644.399 239.294 644.741 239.972 645.425C240.656 646.109 240.998 647.198 240.998 648.692V651.707C240.998 653.201 240.656 654.29 239.972 654.974C239.294 655.658 238.208 656 236.714 656H232.376ZM232.844 655.055H236.714C237.53 655.055 238.181 654.947 238.667 654.731C239.159 654.515 239.513 654.164 239.729 653.678C239.945 653.186 240.053 652.529 240.053 651.707V648.692C240.053 647.876 239.945 647.225 239.729 646.739C239.513 646.247 239.159 645.893 238.667 645.677C238.181 645.455 237.53 645.344 236.714 645.344H232.844V655.055ZM138.201 677C137.883 677 137.724 676.841 137.724 676.523V665.876C137.724 665.558 137.883 665.399 138.201 665.399H142.899C143.781 665.399 144.447 665.624 144.897 666.074C145.353 666.518 145.581 667.172 145.581 668.036V668.522C145.581 669.464 145.278 670.13 144.672 670.52C145.722 670.952 146.247 671.888 146.247 673.328V673.895C146.247 674.915 145.983 675.689 145.455 676.217C144.933 676.739 144.159 677 143.133 677H138.201ZM138.669 676.055H143.133C143.895 676.055 144.447 675.884 144.789 675.542C145.131 675.2 145.302 674.651 145.302 673.895V673.328C145.302 672.572 145.131 672.026 144.789 671.69C144.453 671.354 143.901 671.186 143.133 671.186H138.669V676.055ZM138.669 670.241H143.034C143.58 670.241 143.982 670.103 144.24 669.827C144.504 669.545 144.636 669.11 144.636 668.522V668.036C144.636 667.436 144.498 667.004 144.222 666.74C143.952 666.476 143.511 666.344 142.899 666.344H138.669V670.241ZM151.676 677C151.364 677 151.208 676.841 151.208 676.523V672.518L147.176 666.146C147.014 665.888 147.065 665.669 147.329 665.489C147.599 665.321 147.818 665.372 147.986 665.642L151.676 671.501L155.429 665.633C155.513 665.507 155.609 665.432 155.717 665.408C155.825 665.384 155.945 665.414 156.077 665.498C156.347 665.66 156.395 665.876 156.221 666.146L152.153 672.518V676.523C152.153 676.841 151.994 677 151.676 677ZM166.499 677C166.295 677 166.148 676.892 166.058 676.676L161.387 666.074C161.309 665.9 161.309 665.756 161.387 665.642C161.471 665.528 161.585 665.456 161.729 665.426C161.975 665.366 162.146 665.456 162.242 665.696L166.742 675.902H166.409L170.882 665.696C170.978 665.456 171.152 665.366 171.404 665.426C171.56 665.456 171.674 665.528 171.746 665.642C171.818 665.756 171.818 665.9 171.746 666.074L167.057 676.676C166.967 676.892 166.814 677 166.598 677H166.499ZM176.882 677C175.58 677 174.629 676.7 174.029 676.1C173.429 675.5 173.129 674.549 173.129 673.247V669.143C173.129 667.829 173.429 666.875 174.029 666.281C174.629 665.681 175.574 665.387 176.864 665.399H179.042C180.344 665.399 181.292 665.699 181.886 666.299C182.486 666.899 182.786 667.85 182.786 669.152V673.247C182.786 674.549 182.486 675.5 181.886 676.1C181.292 676.7 180.344 677 179.042 677H176.882ZM176.882 676.055H179.042C179.732 676.055 180.281 675.965 180.689 675.785C181.097 675.605 181.391 675.311 181.571 674.903C181.751 674.495 181.841 673.943 181.841 673.247V669.152C181.841 668.462 181.751 667.913 181.571 667.505C181.391 667.097 181.097 666.803 180.689 666.623C180.281 666.437 179.732 666.344 179.042 666.344H176.864C176.174 666.338 175.625 666.425 175.217 666.605C174.815 666.779 174.524 667.073 174.344 667.487C174.164 667.895 174.074 668.447 174.074 669.143V673.247C174.074 673.943 174.164 674.495 174.344 674.903C174.524 675.311 174.818 675.605 175.226 675.785C175.634 675.965 176.186 676.055 176.882 676.055ZM193.754 677.018C193.622 677.096 193.502 677.123 193.394 677.099C193.286 677.075 193.19 677 193.106 676.874L190.154 672.176H186.851V676.523C186.851 676.841 186.695 677 186.383 677C186.065 677 185.906 676.841 185.906 676.523V665.876C185.906 665.558 186.065 665.399 186.383 665.399H190.595C191.621 665.399 192.395 665.663 192.917 666.191C193.445 666.719 193.709 667.496 193.709 668.522V669.062C193.709 669.968 193.502 670.679 193.088 671.195C192.674 671.711 192.062 672.026 191.252 672.14L193.907 676.37C194.075 676.646 194.024 676.862 193.754 677.018ZM186.851 671.231H190.595C191.351 671.231 191.9 671.06 192.242 670.718C192.59 670.37 192.764 669.818 192.764 669.062V668.522C192.764 667.76 192.59 667.208 192.242 666.866C191.9 666.518 191.351 666.344 190.595 666.344H186.851V671.231ZM197.053 677C196.735 677 196.576 676.841 196.576 676.523V665.876C196.576 665.558 196.735 665.399 197.053 665.399H201.265C202.291 665.399 203.065 665.663 203.587 666.191C204.115 666.719 204.379 667.496 204.379 668.522V669.062C204.379 670.082 204.115 670.856 203.587 671.384C203.065 671.912 202.291 672.176 201.265 672.176H197.521V676.523C197.521 676.841 197.365 677 197.053 677ZM197.521 671.231H201.265C202.021 671.231 202.57 671.06 202.912 670.718C203.26 670.37 203.434 669.818 203.434 669.062V668.522C203.434 667.76 203.26 667.208 202.912 666.866C202.57 666.518 202.021 666.344 201.265 666.344H197.521V671.231ZM204.684 676.955C204.396 676.829 204.309 676.619 204.423 676.325L208.887 665.768C208.983 665.522 209.16 665.399 209.418 665.399H209.472C209.718 665.405 209.892 665.528 209.994 665.768L214.458 676.325C214.578 676.619 214.494 676.829 214.206 676.955C213.912 677.075 213.708 676.991 213.594 676.703L212.397 673.868H206.502L205.305 676.703C205.185 676.991 204.978 677.075 204.684 676.955ZM206.889 672.923H212.001L209.445 666.893L206.889 672.923ZM217.127 677C216.809 677 216.65 676.841 216.65 676.523V665.876C216.65 665.558 216.809 665.399 217.127 665.399C217.439 665.399 217.595 665.558 217.595 665.876V676.055H223.067C223.385 676.055 223.544 676.211 223.544 676.523C223.544 676.841 223.385 677 223.067 677H217.127ZM233.596 677.009C233.452 677.009 233.335 676.967 233.245 676.883C233.161 676.799 233.119 676.685 233.119 676.541V666.335H229.294C229.15 666.335 229.033 666.293 228.943 666.209C228.859 666.125 228.817 666.011 228.817 665.867C228.817 665.723 228.859 665.609 228.943 665.525C229.033 665.435 229.15 665.39 229.294 665.39H237.898C238.042 665.39 238.156 665.435 238.24 665.525C238.324 665.609 238.366 665.723 238.366 665.867C238.366 666.011 238.324 666.125 238.24 666.209C238.156 666.293 238.042 666.335 237.898 666.335H234.064V676.541C234.064 676.679 234.019 676.793 233.929 676.883C233.845 676.967 233.734 677.009 233.596 677.009ZM240.857 677C240.539 677 240.38 676.841 240.38 676.523V665.876C240.38 665.558 240.539 665.399 240.857 665.399H247.598C247.916 665.399 248.075 665.558 248.075 665.876C248.075 666.188 247.916 666.344 247.598 666.344H241.325V670.655H245.474C245.792 670.655 245.951 670.811 245.951 671.123C245.951 671.441 245.792 671.6 245.474 671.6H241.325V676.055H247.598C247.916 676.055 248.075 676.211 248.075 676.523C248.075 676.841 247.916 677 247.598 677H240.857ZM249.561 676.955C249.273 676.829 249.186 676.619 249.3 676.325L253.764 665.768C253.86 665.522 254.037 665.399 254.295 665.399H254.349C254.595 665.405 254.769 665.528 254.871 665.768L259.335 676.325C259.455 676.619 259.371 676.829 259.083 676.955C258.789 677.075 258.585 676.991 258.471 676.703L257.274 673.868H251.379L250.182 676.703C250.062 676.991 249.855 677.075 249.561 676.955ZM251.766 672.923H256.878L254.322 666.893L251.766 672.923ZM262.004 677C261.686 677 261.527 676.841 261.527 676.523V665.876C261.527 665.558 261.686 665.399 262.004 665.399C262.232 665.399 262.412 665.504 262.544 665.714L267.026 672.563L266.81 672.59L271.292 665.714C271.418 665.504 271.607 665.399 271.859 665.399C272.141 665.399 272.282 665.558 272.282 665.876V676.523C272.282 676.841 272.126 677 271.814 677C271.496 677 271.337 676.841 271.337 676.523V666.821L271.616 666.911L267.458 673.247C267.326 673.451 267.137 673.553 266.891 673.553C266.675 673.553 266.501 673.451 266.369 673.247L262.211 666.911L262.472 667.01V676.523C262.472 676.841 262.316 677 262.004 677Z"
    fill="white" />
  <path d="M116.5 639.5V680.5" stroke="#112A5E" stroke-opacity="0.1" stroke-width="3"
    stroke-linecap="square" />
  <path d="M293.5 639.5V680.5" stroke="#112A5E" stroke-opacity="0.1" stroke-width="3"
    stroke-linecap="square" />
  <defs>
    <linearGradient id="paint0_linear_1_488" x1="205" y1="0" x2="205" y2="700"
      gradientUnits="userSpaceOnUse">
      <stop stop-color="#231557" />
      <stop offset="0.29" stop-color="#44107A" />
      <stop offset="0.67" stop-color="#FF1361" />
    </linearGradient>
    <linearGradient id="paint1_linear_1_488" x1="205" y1="658.358" x2="205" y2="41.6422"
      gradientUnits="userSpaceOnUse">
      <stop stop-color="#00C6FB" />
      <stop offset="1" stop-color="#005BEA" />
    </linearGradient>
    <linearGradient id="paint2_linear_1_488" x1="205.484" y1="12.7989" x2="205.484" y2="67.9548"
      gradientUnits="userSpaceOnUse">
      <stop stop-color="#22E1FF" />
      <stop offset="0.48" stop-color="#1D8FE1" />
      <stop offset="1" stop-color="#625EB1" />
    </linearGradient>
  </defs>
</svg>
  