<svg width="418" height="135" viewBox="0 0 418 135" fill="none" xmlns="http://www.w3.org/2000/svg">
<path d="M52.6618 1.6103L33.6902 43.1674L14.7186 1.6103C14.6489 1.44716 14.5324 1.30831 14.3839 1.21122C14.2354 1.11414 14.0614 1.06318 13.884 1.06477H2.93755C2.78017 1.0615 2.62453 1.09816 2.48518 1.17137C2.34583 1.24457 2.22733 1.3519 2.14075 1.48333C2.05417 1.61476 2.00234 1.76601 1.99012 1.9229C1.97789 2.07979 2.00566 2.23724 2.07083 2.38049L26.9169 56.9342C26.9908 57.1035 27.1117 57.2479 27.2654 57.3503C27.4191 57.4527 27.599 57.5088 27.7836 57.5118H39.5968C39.7779 57.5109 39.9545 57.4552 40.1035 57.3521C40.2524 57.249 40.3667 57.1034 40.4314 56.9342L65.3096 2.38049C65.3747 2.23724 65.4025 2.07979 65.3903 1.9229C65.3781 1.76601 65.3262 1.61476 65.2397 1.48333C65.1531 1.3519 65.0346 1.24457 64.8952 1.17137C64.7559 1.09816 64.6002 1.0615 64.4429 1.06477H53.4964C53.3181 1.05873 53.1422 1.1079 52.9928 1.20554C52.8434 1.30319 52.7278 1.44452 52.6618 1.6103Z" stroke="#00F0FF" stroke-width="2" stroke-miterlimit="10"/>
<path d="M310.015 1.61026L285.137 56.164C285.073 56.3093 285.047 56.468 285.059 56.626C285.072 56.784 285.123 56.9365 285.209 57.0698C285.295 57.2032 285.412 57.3133 285.551 57.3904C285.689 57.4675 285.845 57.5092 286.003 57.5118H296.95C297.135 57.5129 297.317 57.4584 297.472 57.3555C297.626 57.2526 297.746 57.1059 297.817 56.9342L304.654 41.948C304.726 41.7796 304.847 41.6372 305.002 41.5397C305.157 41.4422 305.338 41.3943 305.521 41.4024H327.991C328.174 41.3943 328.355 41.4422 328.51 41.5397C328.665 41.6372 328.786 41.7796 328.858 41.948L335.696 56.9342C335.766 57.1059 335.886 57.2526 336.04 57.3555C336.195 57.4584 336.377 57.5129 336.562 57.5118H347.509C347.667 57.5092 347.823 57.4675 347.961 57.3904C348.1 57.3133 348.217 57.2032 348.303 57.0698C348.389 56.9365 348.44 56.784 348.453 56.626C348.465 56.468 348.439 56.3093 348.375 56.164L323.497 1.61026C323.425 1.44192 323.304 1.29951 323.149 1.20202C322.994 1.10454 322.813 1.05662 322.63 1.06472H310.849C310.672 1.06314 310.498 1.1141 310.349 1.21118C310.201 1.30826 310.085 1.44711 310.015 1.61026V1.61026ZM311.042 27.9244L315.921 17.2062C315.995 17.0417 316.114 16.9019 316.265 16.8039C316.416 16.7058 316.592 16.6536 316.772 16.6536C316.952 16.6536 317.128 16.7058 317.279 16.8039C317.43 16.9019 317.55 17.0417 317.623 17.2062L322.502 27.9244C322.566 28.0652 322.594 28.2197 322.583 28.374C322.573 28.5282 322.524 28.6774 322.441 28.808C322.358 28.9386 322.244 29.0465 322.109 29.1219C321.974 29.1974 321.822 29.238 321.667 29.2401H312.037C311.888 29.2551 311.738 29.2339 311.599 29.1784C311.46 29.1229 311.337 29.0348 311.239 28.9214C311.141 28.8081 311.072 28.6728 311.038 28.5272C311.004 28.3816 311.005 28.2299 311.042 28.0849V27.9244Z" stroke="#00F0FF" stroke-width="2" stroke-miterlimit="10"/>
<path d="M374.827 44.4189V1.06476H361.826V44.4189V57.4476H374.827H416.044V44.4189H374.827Z" stroke="#00F0FF" stroke-width="2" stroke-miterlimit="10"/>
<path d="M130.121 25.7744C129.829 19.4842 127.235 13.5206 122.831 9.01798C118.428 4.51532 112.522 1.78758 106.238 1.35356C103.413 1.16102 100.589 1.06476 97.7316 1.06476C94.8746 1.06476 92.0497 1.06475 89.2249 1.35356C83.1347 1.76378 77.4028 4.37821 73.1014 8.70769C68.8001 13.0372 66.2241 18.785 65.8554 24.8759C65.711 27.698 65.711 30.5256 65.8554 33.3477C66.2039 39.4277 68.7494 45.1741 73.0185 49.5186C77.2875 53.863 82.9896 56.5096 89.0644 56.9663C92.1139 57.1909 95.1635 57.3193 98.2131 57.3193C101.263 57.3193 103.863 57.3193 106.688 57.0305C112.783 56.6052 118.516 53.9774 122.816 49.6373C127.116 45.2973 129.69 39.5415 130.057 33.444C130.186 31.0051 130.218 28.4058 130.121 25.7744ZM117.056 32.8664C116.874 35.7941 115.629 38.5545 113.554 40.6287C111.479 42.7029 108.718 43.948 105.789 44.1301C103.285 44.3227 100.717 44.3869 98.2131 44.3869C95.7092 44.3869 92.7239 44.3869 89.9953 44.0981C87.0629 43.8903 84.308 42.6169 82.2501 40.5183C80.1922 38.4197 78.9736 35.6409 78.8242 32.7059C78.6797 30.3441 78.6797 27.9757 78.8242 25.6139C78.9972 22.6823 80.2338 19.9145 82.3021 17.8291C84.3704 15.7437 87.1285 14.484 90.0595 14.286C92.5955 14.1256 95.1635 14.0293 97.6995 14.0293C100.235 14.0293 102.804 14.0293 105.34 14.286C108.43 14.4809 111.339 15.8111 113.508 18.0206C115.677 20.2302 116.952 23.1631 117.088 26.2557C117.185 28.47 117.185 30.6842 117.056 32.8664V32.8664Z" stroke="#00F0FF" stroke-width="2" stroke-miterlimit="10"/>
<path d="M265.042 1.06478H221.224C220.977 1.06478 220.74 1.1628 220.566 1.33733C220.391 1.51186 220.293 1.74857 220.293 1.99539V56.5491C220.293 56.799 220.39 57.0391 220.564 57.2188C220.737 57.3984 220.974 57.5035 221.224 57.5119H232.363C232.613 57.5035 232.849 57.3984 233.023 57.2188C233.197 57.0391 233.294 56.799 233.294 56.5491V42.3331H265.042C270.269 42.3331 275.282 40.2572 278.979 36.562C282.675 32.8669 284.752 27.8553 284.752 22.6296V20.8004C284.76 18.209 284.256 15.6415 283.269 13.2453C282.282 10.8491 280.831 8.67158 278.999 6.83769C277.168 5.00381 274.992 3.54974 272.597 2.55903C270.201 1.56833 267.634 1.06054 265.042 1.06478ZM271.719 22.5654C271.71 24.333 271.004 26.0259 269.754 27.2759C268.503 28.5258 266.81 29.2318 265.042 29.2402H234.225C233.978 29.2402 233.741 29.1421 233.566 28.9676C233.392 28.7931 233.294 28.5564 233.294 28.3096V14.992C233.294 14.7452 233.392 14.5085 233.566 14.334C233.741 14.1594 233.978 14.0614 234.225 14.0614H265.042C266.81 14.0699 268.503 14.7758 269.754 16.0257C271.004 17.2757 271.71 18.9686 271.719 20.7362V22.5654Z" stroke="#00F0FF" stroke-width="2" stroke-miterlimit="10"/>
<path d="M187.743 42.2689H186.041L205.045 55.7148C205.205 55.8343 205.324 56.0005 205.385 56.1903C205.446 56.3802 205.447 56.5843 205.387 56.7745C205.327 56.9648 205.209 57.1317 205.05 57.2523C204.891 57.3729 204.699 57.4411 204.499 57.4476H187.037C186.838 57.4478 186.645 57.3799 186.491 57.2551L165.722 42.5256C165.592 42.4435 165.486 42.3296 165.413 42.1948C165.34 42.06 165.302 41.9087 165.304 41.7554V30.2029C165.3 30.0752 165.322 29.948 165.368 29.8292C165.415 29.7104 165.486 29.6025 165.576 29.5122C165.667 29.4219 165.775 29.3511 165.894 29.3043C166.012 29.2575 166.14 29.2357 166.267 29.2402H187.743C189.517 29.2402 191.218 28.5379 192.476 27.2871C193.733 26.0362 194.443 24.3386 194.452 22.5653V20.7362C194.443 18.963 193.733 17.2653 192.476 16.0144C191.218 14.7635 189.517 14.0614 187.743 14.0614H156.027V56.485C156.027 56.7403 155.926 56.9851 155.745 57.1657C155.564 57.3462 155.319 57.4476 155.064 57.4476H143.957C143.702 57.4476 143.457 57.3462 143.276 57.1657C143.096 56.9851 142.994 56.7403 142.994 56.485V1.9312C142.994 1.80624 143.019 1.68254 143.068 1.56748C143.117 1.45243 143.188 1.34839 143.278 1.26154C143.368 1.17469 143.474 1.10679 143.591 1.06196C143.708 1.01712 143.832 0.996245 143.957 1.00055H187.743C190.33 0.996335 192.892 1.50204 195.283 2.48873C197.674 3.47543 199.847 4.92376 201.678 6.75084C203.509 8.57792 204.961 10.7479 205.952 13.1367C206.943 15.5254 207.453 18.086 207.453 20.672V22.5011C207.461 25.094 206.958 27.6631 205.971 30.0611C204.984 32.459 203.534 34.6387 201.703 36.4751C199.871 38.3116 197.696 39.7687 195.3 40.7629C192.905 41.7571 190.337 42.2689 187.743 42.2689V42.2689Z" stroke="#00F0FF" stroke-width="2" stroke-miterlimit="10"/>
<path d="M86.1685 76.8749C91.3738 76.9602 95.7472 77.3869 99.2885 78.1549L98.9045 82.2509C94.7658 82.0375 90.6058 81.9309 86.4245 81.9309C83.9498 81.9309 82.1365 82.0589 80.9845 82.3149C79.8325 82.5282 78.9578 83.1042 78.3605 84.0429C77.8058 84.9815 77.5285 86.5175 77.5285 88.6509C77.5285 90.9975 77.9338 92.6615 78.7445 93.6429C79.5978 94.6242 81.0485 95.3709 83.0965 95.8829L92.0565 98.1229C95.3418 98.9335 97.6458 100.32 98.9685 102.283C100.291 104.246 100.953 106.998 100.953 110.539C100.953 113.867 100.441 116.406 99.4165 118.155C98.4352 119.862 96.8992 121.035 94.8085 121.675C92.7178 122.272 89.8378 122.571 86.1685 122.571C81.5178 122.571 76.9525 122.166 72.4725 121.355L72.8565 117.195C75.2458 117.28 76.7818 117.323 77.4645 117.323C80.5792 117.451 82.9472 117.515 84.5685 117.515C87.5978 117.515 89.8165 117.387 91.2245 117.131C92.6325 116.832 93.6565 116.192 94.2965 115.211C94.9365 114.187 95.2565 112.587 95.2565 110.411C95.2565 108.747 95.0645 107.446 94.6805 106.507C94.2965 105.568 93.7205 104.864 92.9525 104.395C92.1845 103.883 91.0965 103.456 89.6885 103.115L80.5365 100.811C77.4218 100.043 75.1818 98.6775 73.8165 96.7149C72.4938 94.7095 71.8325 91.9789 71.8325 88.5229C71.8325 85.1522 72.3232 82.6349 73.3045 80.9709C74.2858 79.3069 75.7578 78.2189 77.7205 77.7069C79.7258 77.1522 82.5418 76.8749 86.1685 76.8749ZM139.836 82.6349H125.564V121.803H119.932V82.6349H105.724V77.6429H139.836V82.6349ZM166.617 107.979H148.441L144.089 121.803H138.265L152.473 79.1789C152.601 78.7095 152.857 78.3469 153.241 78.0909C153.625 77.7922 154.073 77.6429 154.585 77.6429H160.473C160.985 77.6429 161.433 77.7922 161.817 78.0909C162.201 78.3469 162.457 78.7095 162.585 79.1789L176.793 121.803H170.969L166.617 107.979ZM165.081 103.115L159.513 85.5789C159.129 84.4695 158.766 83.2749 158.425 81.9949H156.633C156.292 83.2749 155.929 84.4695 155.545 85.5789L149.977 103.115H165.081ZM214.11 121.803H208.094L204.19 107.979C203.635 106.315 202.888 105.142 201.95 104.459C201.011 103.734 199.795 103.371 198.302 103.371L188.574 103.307V121.803H183.006V77.6429C185.31 77.3869 187.464 77.2375 189.47 77.1949C191.518 77.1095 194.44 77.0669 198.238 77.0669C201.779 77.0669 204.552 77.4509 206.558 78.2189C208.606 78.9869 210.099 80.2882 211.038 82.1229C212.019 83.9575 212.51 86.5175 212.51 89.8029C212.51 93.4295 211.87 96.1389 210.59 97.9309C209.352 99.7229 207.283 100.811 204.382 101.195V101.515C205.576 101.814 206.664 102.518 207.646 103.627C208.627 104.694 209.352 106.102 209.822 107.851L214.11 121.803ZM198.11 98.5069C200.371 98.4642 202.12 98.2082 203.358 97.7389C204.595 97.2269 205.47 96.3949 205.982 95.2429C206.536 94.0482 206.814 92.3415 206.814 90.1229C206.814 87.9469 206.536 86.2829 205.982 85.1309C205.47 83.9362 204.595 83.1042 203.358 82.6349C202.12 82.1655 200.371 81.9309 198.11 81.9309L188.574 81.9949V98.5069H198.11ZM264.296 77.6429C265.021 77.6429 265.576 77.8562 265.96 78.2829C266.387 78.6669 266.6 79.2429 266.6 80.0109L268.456 121.803H262.824L261.224 82.3149H259.88L250.024 114.891C249.683 116.171 248.872 116.811 247.592 116.811H242.536C241.213 116.811 240.36 116.171 239.976 114.891L230.12 82.3149H228.84L227.304 121.803H221.672L223.4 80.0109C223.485 78.4322 224.275 77.6429 225.768 77.6429H232.168C233.363 77.6429 234.152 78.2829 234.536 79.5629L242.792 106.507C243.091 107.36 243.453 108.64 243.88 110.347L244.456 112.459H245.608C245.821 111.776 246.035 110.966 246.248 110.027L247.272 106.379L255.528 79.5629C255.869 78.2829 256.68 77.6429 257.96 77.6429H264.296ZM302.117 107.979H283.941L279.589 121.803H273.765L287.973 79.1789C288.101 78.7095 288.357 78.3469 288.741 78.0909C289.125 77.7922 289.573 77.6429 290.085 77.6429H295.973C296.485 77.6429 296.933 77.7922 297.317 78.0909C297.701 78.3469 297.957 78.7095 298.085 79.1789L312.293 121.803H306.469L302.117 107.979ZM300.581 103.115L295.013 85.5789C294.629 84.4695 294.266 83.2749 293.925 81.9949H292.133C291.792 83.2749 291.429 84.4695 291.045 85.5789L285.477 103.115H300.581ZM333.674 77.0669C337.3 77.0669 340.116 77.4722 342.122 78.2829C344.17 79.0935 345.642 80.5015 346.538 82.5069C347.434 84.4695 347.882 87.2642 347.882 90.8909C347.882 94.5175 347.434 97.3335 346.538 99.3389C345.684 101.302 344.297 102.688 342.378 103.499C340.458 104.31 337.77 104.715 334.314 104.715C331.199 104.715 327.807 104.544 324.138 104.203V121.803H318.506V77.6429C320.81 77.3869 322.964 77.2375 324.97 77.1949C326.975 77.1095 329.876 77.0669 333.674 77.0669ZM333.61 99.8509C335.828 99.8082 337.535 99.5309 338.73 99.0189C339.967 98.5069 340.842 97.6322 341.354 96.3949C341.908 95.1149 342.186 93.2802 342.186 90.8909C342.186 88.5015 341.908 86.6669 341.354 85.3869C340.842 84.1069 339.967 83.2109 338.73 82.6989C337.535 82.1869 335.828 81.9309 333.61 81.9309C328.959 81.9309 325.802 81.9522 324.138 81.9949V99.8509H333.61Z" fill="#00F0FF"/>
</svg>
