<svg width="728" height="523" viewBox="0 0 728 523" fill="none" xmlns="http://www.w3.org/2000/svg">
  <path
    d="M352.951 370.599C356.734 379.725 358.681 389.506 358.681 399.385C358.681 409.263 356.734 419.044 352.951 428.17L314.847 519.852C314.601 520.492 314.157 521.037 313.58 521.407C313.002 521.776 312.321 521.951 311.637 521.906L312.182 429.453C311.57 410.544 307.85 391.864 301.172 374.161L171.484 61.5043C166.958 50.5936 157.296 43.7583 146.799 39.041C145.868 38.6238 140.122 37.3402 139.223 36.923L2.08789 2.71461C2.20797 2.28738 2.47932 1.91835 2.85138 1.67629C3.22345 1.43423 3.67086 1.33564 4.11025 1.3989L188.562 28.1302C195.753 29.1843 202.549 32.0823 208.287 36.542C214.025 41.0016 218.51 46.8708 221.305 53.578L262.105 151.807C254.147 176.175 255.178 202.586 265.011 226.26C274.844 249.935 292.83 269.308 315.714 280.875L352.951 370.599Z"
    stroke="#00F0FF" stroke-width="2" stroke-miterlimit="10" />
  <path
    d="M312.311 429.453L311.765 521.906C311.108 521.917 310.463 521.726 309.917 521.359C309.372 520.991 308.952 520.465 308.716 519.852L121.632 69.4306C117.491 59.3883 109.622 51.3381 99.6746 46.9673L3.11515 4.89675C2.711 4.71449 2.38362 4.39627 2.19005 3.99752C1.99647 3.59877 1.94897 3.14476 2.05583 2.7146L139.191 36.8909C140.09 37.3081 145.836 38.5917 146.767 39.0089C157.264 43.7583 166.926 50.5935 171.452 61.4722L301.3 374.129C307.982 391.842 311.702 410.533 312.311 429.453V429.453Z"
    stroke="#00F0FF" stroke-width="2" stroke-miterlimit="10" />
  <path
    d="M725.995 2.71462L589.02 36.8909C588.122 37.3081 582.376 38.5917 581.445 39.0089C570.948 43.7583 561.285 50.5936 556.759 61.4722L426.911 374.129C420.153 391.829 416.357 410.52 415.676 429.453L416.221 521.906C415.537 521.951 414.856 521.776 414.278 521.407C413.701 521.037 413.257 520.492 413.011 519.852L374.94 428.17C371.157 419.044 369.209 409.263 369.209 399.385C369.209 389.506 371.157 379.725 374.94 370.599L412.466 280.907C435.337 269.323 453.305 249.936 463.115 226.255C472.924 202.574 473.929 176.164 465.946 151.807L506.778 53.4817C509.573 46.7745 514.058 40.9053 519.796 36.4457C525.534 31.9861 532.33 29.0881 539.521 28.034L723.844 1.39891C724.303 1.30066 724.782 1.38242 725.182 1.62729C725.583 1.87216 725.874 2.26143 725.995 2.71462V2.71462Z"
    stroke="#00F0FF" stroke-width="2" stroke-miterlimit="10" />
  <path
    d="M415.676 429.453L416.221 521.906C416.906 521.951 417.587 521.776 418.164 521.407C418.742 521.037 419.186 520.492 419.432 519.852L606.387 69.4306C610.528 59.3883 618.397 51.3381 628.344 46.9673L724.936 4.89675C725.338 4.7141 725.662 4.39428 725.851 3.99449C726.039 3.5947 726.079 3.14103 725.963 2.7146L588.828 36.8909C587.929 37.3081 582.183 38.5917 581.252 39.0089C570.755 43.7583 561.093 50.5935 556.567 61.4722L426.718 374.129C420.026 391.84 416.295 410.531 415.676 429.453V429.453Z"
    stroke="#00F0FF" stroke-width="2" stroke-miterlimit="10" />
  <path
    d="M364.025 277.794C415.173 277.794 456.636 236.344 456.636 185.213C456.636 134.082 415.173 92.632 364.025 92.632C312.878 92.632 271.414 134.082 271.414 185.213C271.414 236.344 312.878 277.794 364.025 277.794Z"
    stroke="#00F0FF" stroke-width="2" stroke-miterlimit="10" />
  <path
    d="M373.335 167.531C373.656 173.211 373.848 179.148 373.848 185.213C373.793 212.421 370.495 239.525 364.025 265.952C350.933 212.922 350.933 157.504 364.025 104.473C367.213 117.144 369.582 130.007 371.12 142.982"
    stroke="#00F0FF" stroke-width="2" stroke-miterlimit="10" />
  <path
    d="M377.701 168.269C385.164 168.269 391.215 162.221 391.215 154.759C391.215 147.298 385.164 141.249 377.701 141.249C370.237 141.249 364.186 147.298 364.186 154.759C364.186 162.221 370.237 168.269 377.701 168.269Z"
    stroke="#00F0FF" stroke-width="2" stroke-miterlimit="10" />
</svg>
