<svg width="410" height="640" viewBox="0 0 410 640" xmlns="http://www.w3.org/2000/svg">
<path fill-rule="evenodd" clip-rule="evenodd" d="M68.2843 640C62.9799 640 57.8929 637.893 54.1421 634.142L5.85787 585.858C4.0007 584.001 2.52751 581.796 1.52241 579.369C0.51732 576.943 3.19973e-06 574.342 3.29233e-06 571.716L0 68.2843C2.67422e-06 62.9799 2.10714 57.8929 5.85787 54.1421L54.1421 5.85787C55.9993 4.0007 58.2041 2.52751 60.6306 1.52242C63.0571 0.517323 65.6579 5.64201e-06 68.2843 6.58465e-06L341.716 0C344.342 0 346.943 0.517317 349.369 1.52241C351.796 2.5275 354.001 4.00069 355.858 5.85786L404.142 54.1421C407.893 57.8929 410 62.9799 410 68.2843V571.716C410 577.02 407.893 582.107 404.142 585.858L355.858 634.142C352.107 637.893 347.02 640 341.716 640H68.2843ZM48.5355 131.036C47.5979 131.973 46.3261 132.5 45 132.5H10C9.34339 132.5 8.69322 132.629 8.08659 132.881C7.47996 133.132 6.92877 133.5 6.46447 133.964C6.00018 134.429 5.63188 134.98 5.38061 135.587C5.12933 136.193 5.00001 136.843 5.00001 137.5L5 571.716C5 575.694 6.58035 579.509 9.3934 582.322L30 602.929C30.4643 603.393 31.0155 603.762 31.6221 604.013C32.2287 604.264 32.8789 604.393 33.5355 604.393C34.1921 604.393 34.8423 604.264 35.449 604.013C36.0556 603.762 36.6068 603.393 37.0711 602.929L44.1421 595.858C47.8929 592.107 52.98 590 58.2843 590H351.716C354.342 590 356.943 590.517 359.369 591.522C361.796 592.528 364.001 594.001 365.858 595.858L372.929 602.929C373.867 603.867 375.138 604.393 376.464 604.393C377.791 604.393 379.062 603.867 380 602.929L400.607 582.322C403.42 579.509 405 575.694 405 571.716V68.2843C405 64.306 403.42 60.4907 400.607 57.6777L380 37.0711C379.536 36.6068 378.985 36.2385 378.378 35.9872C377.771 35.7359 377.121 35.6066 376.464 35.6066C375.808 35.6066 375.158 35.7359 374.551 35.9872C373.944 36.2385 373.393 36.6068 372.929 37.0711L355.858 54.1421C352.107 57.8929 347.02 60 341.716 60H68.2843C62.9799 60 57.8929 57.8929 54.1421 54.1421L37.0711 37.0711C36.6068 36.6068 36.0556 36.2385 35.449 35.9872C34.8423 35.7359 34.1921 35.6066 33.5355 35.6066C32.8789 35.6066 32.2287 35.7359 31.6221 35.9872C31.0155 36.2385 30.4643 36.6068 30 37.0711L9.3934 57.6777C6.58036 60.4907 5.00001 64.306 5.00001 68.2843L5 75C5 76.3261 5.52678 77.5979 6.46447 78.5355C7.40215 79.4732 8.67392 80 10 80H45C45.6566 80 46.3068 80.1293 46.9134 80.3806C47.5201 80.6319 48.0712 81.0002 48.5355 81.4645C48.9998 81.9288 49.3681 82.48 49.6194 83.0866C49.8707 83.6932 50 84.3434 50 85V127.5C50 128.826 49.4732 130.098 48.5355 131.036Z" fill="url(#paint0_linear_6_1826)"/>
<defs>
<linearGradient id="paint0_linear_6_1826" x1="205" y1="0" x2="205" y2="640" gradientUnits="userSpaceOnUse">
<stop stop-color="#22E1FF"/>
<stop offset="0.48" stop-color="#1D8FE1"/>
<stop offset="1" stop-color="#625EB1"/>
</linearGradient>
</defs>
</svg>
    