<svg width="306" height="86" viewBox="0 0 306 86" fill="none" xmlns="http://www.w3.org/2000/svg">
<path d="M15.3744 78.9099C19.5939 83.1295 25.3169 85.5 31.2843 85.5L274.716 85.5001C280.683 85.5 286.406 83.1295 290.626 78.9099L298.91 70.6256C303.129 66.4061 305.5 60.6831 305.5 54.7158V31.2843C305.5 25.3169 303.129 19.594 298.91 15.3744L290.626 7.09008C286.406 2.87052 280.683 0.499992 274.716 0.5H31.2843C28.3295 0.500006 25.4037 1.08201 22.6739 2.21275C19.9441 3.34348 17.4637 5.00081 15.3744 7.09013L7.0901 15.3744C2.87054 19.594 0.500006 25.3169 0.5 31.2843V54.7158C0.500011 60.6831 2.87054 66.4061 7.0901 70.6256L15.3744 78.9099Z" stroke="#035FEB" stroke-opacity="0.8" stroke-linecap="round" stroke-linejoin="round"/>
</svg>
    
    
    