<svg width="276" height="76" viewBox="0 0 276 76" fill="none" xmlns="http://www.w3.org/2000/svg">
<path d="M15.3744 68.91C19.5939 73.1296 25.3169 75.5001 31.2843 75.5001H244.716C247.67 75.5001 250.596 74.9181 253.326 73.7874C256.056 72.6567 258.536 70.9993 260.626 68.91L268.91 60.6257C273.129 56.4062 275.5 50.6832 275.5 44.7158V31.2844C275.5 25.317 273.129 19.594 268.91 15.3745L260.626 7.0902C256.406 2.87064 250.683 0.50012 244.716 0.500122H31.2843C25.3169 0.500116 19.5939 2.87064 15.3744 7.0902L7.0901 15.3745C2.87053 19.594 0.50001 25.317 0.5 31.2844V44.7158C0.50001 50.6832 2.87053 56.4062 7.0901 60.6257L15.3744 68.91Z" stroke="#F9EB20" stroke-opacity="0.4" stroke-linecap="round" stroke-linejoin="round"/>
</svg>
    

    