<svg width="242" height="172" viewBox="0 0 242 172" fill="none" xmlns="http://www.w3.org/2000/svg">
<path d="M197.716 171C204.346 171 210.705 168.366 215.393 163.678L233.678 145.393C235.999 143.072 237.841 140.316 239.097 137.283C240.353 134.25 241 130.999 241 127.716V44.2843C241 37.6539 238.366 31.295 233.678 26.6066L215.393 8.32237C213.072 6.0009 210.316 4.15941 207.283 2.90304C204.25 1.64667 200.999 1.00003 197.716 1.00003L44.2843 1C41.0012 1 37.7503 1.64665 34.7172 2.90302C31.684 4.15939 28.9281 6.00088 26.6066 8.32234L8.32233 26.6066C3.63393 31.295 1 37.6539 1 44.2843V127.716C0.999996 130.999 1.64664 134.25 2.903 137.283C4.15937 140.316 6.00086 143.072 8.32233 145.393L26.6066 163.678C31.295 168.366 37.6539 171 44.2843 171H197.716Z" stroke="#035FEB" stroke-opacity="0.8" stroke-linecap="round" stroke-linejoin="round"/>
</svg>
