<svg width="210" height="245" viewBox="0 0 210 245" fill="none" xmlns="http://www.w3.org/2000/svg">
<g filter="url(#filter0_d_1_5884)">
<path d="M107.76 60.4199H101.58C78.7701 60.4199 60.1001 79.0899 60.1001 101.9V143.11C60.1001 165.93 78.7701 184.6 101.58 184.6H107.76C130.57 184.6 149.24 165.93 149.24 143.11V101.9C149.24 79.0899 130.57 60.4199 107.76 60.4199ZM112.06 104.67C110.89 103.5 110.89 101.6 112.06 100.43C113.23 99.2599 115.13 99.2599 116.31 100.43L123.59 107.72L130.88 100.43C132.05 99.2599 133.95 99.2599 135.12 100.43C136.29 101.6 136.29 103.5 135.12 104.67L127.83 111.96L135.12 119.25C136.29 120.42 136.29 122.32 135.12 123.49C134.54 124.08 133.77 124.37 133 124.37C132.23 124.37 131.47 124.08 130.88 123.49L123.59 116.2L116.31 123.49C115.72 124.08 114.95 124.37 114.18 124.37C113.41 124.37 112.65 124.08 112.06 123.49C110.89 122.32 110.89 120.42 112.06 119.25L119.35 111.96L112.06 104.67ZM74.2201 104.67C73.0501 103.5 73.0501 101.6 74.2201 100.43C75.3901 99.2599 77.2901 99.2599 78.4601 100.43L85.7501 107.72L93.0301 100.43C94.2101 99.2599 96.1101 99.2599 97.2801 100.43C98.4501 101.6 98.4501 103.5 97.2801 104.67L89.9901 111.96L97.2801 119.25C98.4501 120.42 98.4501 122.32 97.2801 123.49C96.6901 124.08 95.9201 124.37 95.1601 124.37C94.4001 124.37 93.6201 124.08 93.0301 123.49L85.7501 116.2L78.4601 123.49C77.8701 124.08 77.1101 124.37 76.3401 124.37C75.5701 124.37 74.8001 124.08 74.2201 123.49C73.0501 122.32 73.0501 120.42 74.2201 119.25L81.5001 111.96L74.2201 104.67ZM138.76 153.62C137.59 154.79 135.69 154.79 134.51 153.62L125.98 145.09L117.45 153.62C117.45 153.62 117.37 153.68 117.33 153.72C116.76 154.23 116.04 154.5 115.33 154.5H115.32C114.68 154.5 114.04 154.28 113.51 153.87C113.4 153.79 113.3 153.71 113.2 153.62L104.67 145.09L96.1401 153.62C96.1401 153.62 96.0601 153.68 96.0201 153.72C95.4501 154.23 94.7301 154.5 94.0201 154.5H94.0101C93.3701 154.5 92.7301 154.28 92.2001 153.87C92.0901 153.79 91.9901 153.71 91.8901 153.62L83.3601 145.09L74.8301 153.62C74.2401 154.21 73.4701 154.5 72.7001 154.5C71.9301 154.5 71.1701 154.21 70.5801 153.62C69.4101 152.45 69.4101 150.55 70.5801 149.38L81.2301 138.73C82.4001 137.56 84.3001 137.56 85.4801 138.73L94.0101 147.26L102.54 138.73C103.72 137.56 105.61 137.56 106.79 138.73L115.32 147.26L123.85 138.73C125.03 137.56 126.92 137.56 128.1 138.73L138.76 149.38C139.93 150.55 139.93 152.45 138.76 153.62Z" fill="#00FFFF"/>
</g>
<defs>
<filter id="filter0_d_1_5884" x="0.100098" y="0.419922" width="209.14" height="244.18" filterUnits="userSpaceOnUse" color-interpolation-filters="sRGB">
<feFlood flood-opacity="0" result="BackgroundImageFix"/>
<feColorMatrix in="SourceAlpha" type="matrix" values="0 0 0 0 0 0 0 0 0 0 0 0 0 0 0 0 0 0 127 0" result="hardAlpha"/>
<feOffset/>
<feGaussianBlur stdDeviation="30"/>
<feColorMatrix type="matrix" values="0 0 0 0 0 0 0 0 0 0.8 0 0 0 0 1 0 0 0 0.75 0"/>
<feBlend mode="normal" in2="BackgroundImageFix" result="effect1_dropShadow_1_5884"/>
<feBlend mode="normal" in="SourceGraphic" in2="effect1_dropShadow_1_5884" result="shape"/>
</filter>
</defs>
</svg>
