<svg width="210" height="245" viewBox="0 0 210 245" fill="none" xmlns="http://www.w3.org/2000/svg">
<g filter="url(#filter0_d_1_5886)">
<path d="M108.41 60.76H102.24C79.43 60.76 60.76 79.43 60.76 102.25V143.45C60.76 166.27 79.43 184.94 102.24 184.94H108.41C131.23 184.94 149.9 166.27 149.9 143.45V102.25C149.9 79.43 131.23 60.76 108.41 60.76ZM75.76 112.3C75.76 111.8 75.79 111.31 75.86 110.83C75.93 110.35 76.35 109.94 76.86 109.94H85.99C86.36 109.94 86.71 110.13 86.87 110.46C87.7 112.17 89.46 113.34 91.48 113.34C93.7 113.34 95.59 111.93 96.3 109.94H96.78C96.96 110.68 97.05 111.45 97.05 112.24C97.08 117.61 93.3 122.07 87.99 122.84C81.42 123.8 75.76 118.71 75.76 112.31V112.3ZM95.66 157.69C94.77 157.69 94.3 156.59 94.95 155.98C97.46 153.62 101.18 152.12 105.33 152.12C109.48 152.12 113.2 153.62 115.71 155.98C116.36 156.59 115.89 157.69 115 157.69H95.66ZM122.72 122.84C117.39 122.1 113.59 117.63 113.61 112.25C113.61 111.77 113.65 111.29 113.71 110.82C113.78 110.32 114.2 109.94 114.71 109.94H123.69C124.06 109.94 124.41 110.13 124.57 110.46C125.4 112.17 127.16 113.34 129.18 113.34C131.4 113.34 133.29 111.93 134 109.94H134.62C134.8 110.7 134.89 111.49 134.89 112.3C134.89 118.68 129.28 123.76 122.72 122.84Z" fill="#00FFFF"/>
</g>
<defs>
<filter id="filter0_d_1_5886" x="0.76001" y="0.76001" width="209.14" height="244.18" filterUnits="userSpaceOnUse" color-interpolation-filters="sRGB">
<feFlood flood-opacity="0" result="BackgroundImageFix"/>
<feColorMatrix in="SourceAlpha" type="matrix" values="0 0 0 0 0 0 0 0 0 0 0 0 0 0 0 0 0 0 127 0" result="hardAlpha"/>
<feOffset/>
<feGaussianBlur stdDeviation="30"/>
<feColorMatrix type="matrix" values="0 0 0 0 0 0 0 0 0 0.8 0 0 0 0 1 0 0 0 0.75 0"/>
<feBlend mode="normal" in2="BackgroundImageFix" result="effect1_dropShadow_1_5886"/>
<feBlend mode="normal" in="SourceGraphic" in2="effect1_dropShadow_1_5886" result="shape"/>
</filter>
</defs>
</svg>
