<?xml version="1.0" encoding="UTF-8"?>
<!DOCTYPE svg PUBLIC "-//W3C//DTD SVG 1.1//EN" "http://www.w3.org/Graphics/SVG/1.1/DTD/svg11.dtd">
<!-- Creator: CorelDRAW X7 -->
<svg xmlns="http://www.w3.org/2000/svg" xml:space="preserve" width="44mm" height="44mm" version="1.1" style="shape-rendering:geometricPrecision; text-rendering:geometricPrecision; image-rendering:optimizeQuality; fill-rule:evenodd; clip-rule:evenodd"
viewBox="0 0 4400 4400"
 xmlns:xlink="http://www.w3.org/1999/xlink">
 <defs>
  <style type="text/css">
   <![CDATA[
    .fil0 {fill:aqua}
   ]]>
  </style>
 </defs>
 <g id="Слой_x0020_1">
  <metadata id="CorelCorpID_0Corel-Layer"/>
  <path class="fil0" d="M2747 3445l-88 -239 -87 -239 175 29 176 29 -88 210 -88 210zm-913 0l88 -239 88 -239 -176 29 -176 29 88 210 88 210zm457 307l180 -721 44 -173c196,33 393,67 590,100 160,27 165,16 91,-125l-517 -985 -175 436 -213 529 -213 -529 -176 -436c-169,324 -339,647 -509,970 -78,148 -67,166 101,137l573 -96 43 172 181 721zm340 -1996c-82,-221 -163,-438 -245,-659 -103,-278 -88,-278 -192,3l-243 656 340 0 340 0z"/>
 </g>
</svg>
