<?xml version="1.0" encoding="UTF-8"?>
<!DOCTYPE svg PUBLIC "-//W3C//DTD SVG 1.1//EN" "http://www.w3.org/Graphics/SVG/1.1/DTD/svg11.dtd">
<!-- Creator: CorelDRAW X7 -->
<svg xmlns="http://www.w3.org/2000/svg" xml:space="preserve" width="44mm" height="44mm" version="1.1" style="shape-rendering:geometricPrecision; text-rendering:geometricPrecision; image-rendering:optimizeQuality; fill-rule:evenodd; clip-rule:evenodd"
viewBox="0 0 4400 4400"
 xmlns:xlink="http://www.w3.org/1999/xlink">
 <defs>
  <style type="text/css">
   <![CDATA[
    .fil0 {fill:aqua}
   ]]>
  </style>
 </defs>
 <g id="Слой_x0020_1">
  <metadata id="CorelCorpID_0Corel-Layer"/>
  <path class="fil0" d="M2323 790c-152,-971 -154,-971 -305,0l152 0 153 0zm901 2453l-44 -188c-249,172 -499,344 -748,516 -13,9 -30,6 -39,-7 -3,-5 -5,-10 -5,-16 0,0 0,0 0,0 0,-53 0,-107 0,-160 0,-60 -24,-114 -64,-154 -39,-39 -94,-64 -154,-64 -60,0 -114,25 -153,64l-2 2c-39,39 -62,93 -62,152 0,53 0,107 0,160 0,16 -13,28 -29,28 -6,0 -12,-2 -17,-6l-750 -518 -45 191c199,135 424,289 623,425 43,29 24,96 -37,61 -35,-20 -94,-62 -128,-84 -12,76 -24,152 -36,227 212,151 424,301 636,451 212,-150 425,-300 637,-451 -12,-75 -24,-151 -36,-227 -35,23 -94,63 -129,86 -46,30 -83,-32 -42,-60l624 -428zm-58 -247l-211 -891c-114,-482 -96,-481 -211,3l-142 460 -253 -1612 -3 -20 -120 764c-60,385 -51,384 -112,-3l-119 -761 -5 29 -255 1626c-64,-200 -117,-374 -144,-486 -114,-482 -96,-481 -211,3l-209 886c242,167 483,334 725,501 0,-36 0,-71 0,-107 0,-75 30,-142 79,-192 1,-1 1,-1 2,-2 49,-49 118,-80 193,-80 76,0 144,31 194,80 50,50 80,119 80,194 0,36 0,71 0,107l722 -499z"/>
 </g>
</svg>
