<?xml version="1.0" encoding="UTF-8"?>
<!DOCTYPE svg PUBLIC "-//W3C//DTD SVG 1.1//EN" "http://www.w3.org/Graphics/SVG/1.1/DTD/svg11.dtd">
<!-- Creator: CorelDRAW X7 -->
<svg xmlns="http://www.w3.org/2000/svg" xml:space="preserve" width="44mm" height="44mm" version="1.1" style="shape-rendering:geometricPrecision; text-rendering:geometricPrecision; image-rendering:optimizeQuality; fill-rule:evenodd; clip-rule:evenodd"
viewBox="0 0 4400 4400"
 xmlns:xlink="http://www.w3.org/1999/xlink">
 <defs>
  <style type="text/css">
   <![CDATA[
    .fil0 {fill:aqua}
   ]]>
  </style>
 </defs>
 <g id="Слой_x0020_1">
  <metadata id="CorelCorpID_0Corel-Layer"/>
  <path class="fil0" d="M2770 2874l-976 0c-64,0 -116,-52 -116,-116 0,-202 0,-403 0,-605 0,-116 14,-154 70,-214l96 -102c46,-50 86,-94 121,-131 159,-174 202,-221 245,-221l598 0c35,0 67,14 90,37 23,23 37,55 37,90l-17 1133c0,35 -14,67 -37,90 -23,22 -54,37 -89,37 -7,1 -14,2 -22,2zm-489 -2195c737,-323 507,-415 885,275 787,172 655,-38 555,743 535,602 552,354 12,927 79,802 238,611 -536,757 -406,696 -166,635 -877,298 -738,324 -508,416 -886,-274 -787,-173 -655,38 -555,-743 -535,-602 -552,-355 -12,-928 -79,-801 -238,-611 536,-757 406,-695 166,-634 878,-298zm529 -75c-663,291 -384,303 -1023,1 -366,625 -133,471 -828,602 72,721 170,459 -315,974 482,541 407,271 317,973 708,155 489,-20 829,601 663,-291 384,-303 1023,-1 366,-625 133,-471 828,-602 -72,-721 -170,-460 315,-974 -482,-541 -407,-272 -317,-973 -708,-155 -489,19 -829,-601zm-482 1438l93 202 52 113c41,88 -9,250 -150,250 -141,0 -195,-160 -150,-250l155 -315zm-769 -197l245 -262 87 82 -244 262 -88 -82zm468 -62l492 0c92,-100 149,-163 185,-200l-494 0c0,0 -37,41 -173,189l-10 11z"/>
 </g>
</svg>
