<?xml version="1.0" encoding="UTF-8"?>
<!DOCTYPE svg PUBLIC "-//W3C//DTD SVG 1.1//EN" "http://www.w3.org/Graphics/SVG/1.1/DTD/svg11.dtd">
<!-- Creator: CorelDRAW X7 -->
<svg xmlns="http://www.w3.org/2000/svg" xml:space="preserve" width="44mm" height="44mm" version="1.1" style="shape-rendering:geometricPrecision; text-rendering:geometricPrecision; image-rendering:optimizeQuality; fill-rule:evenodd; clip-rule:evenodd"
viewBox="0 0 4400 4400"
 xmlns:xlink="http://www.w3.org/1999/xlink">
 <defs>
  <style type="text/css">
   <![CDATA[
    .fil0 {fill:aqua}
   ]]>
  </style>
 </defs>
 <g id="Слой_x0020_1">
  <metadata id="CorelCorpID_0Corel-Layer"/>
  <path class="fil0" d="M2300 727c831,0 1510,651 1555,1470l137 0c50,0 92,42 92,92l0 209c0,51 -42,92 -92,92l-389 0c-99,0 -85,-14 -64,-84 19,-62 29,-126 31,-191 2,-93 -17,-163 -78,-196 -62,-33 -136,-15 -231,72l-229 209c-3,3 -5,5 -6,5 -33,27 -76,36 -119,31 -45,-6 -90,-29 -124,-66 -4,-4 -7,-7 -8,-9l-1 0c-2,-3 -4,-6 -7,-10 -28,-40 -41,-89 -37,-135 3,-43 21,-82 54,-109 2,-1 4,-3 6,-5l255 -182c109,-77 142,-146 119,-214 -22,-66 -88,-97 -185,-114 -100,-18 -204,-14 -304,12 -97,25 -190,70 -273,137 -116,94 -196,218 -236,352 -34,115 -39,239 -13,357l-173 140 -1371 0c-51,0 -92,-41 -92,-92l0 -209c0,-50 41,-92 92,-92l136 0c20,-361 164,-690 389,-944l-104 -65 0 0c-74,-39 -87,-155 -28,-272 64,-128 191,-210 282,-183 11,3 20,8 29,14l0 0 256 163c119,-64 247,-112 382,-143 -81,42 -157,102 -227,176 -24,3 -48,10 -71,20l124 79c7,3 13,7 19,12l0 0 0 0c58,47 65,152 11,259 -64,127 -189,208 -280,181 -4,-1 -8,-3 -11,-4l0 0c-11,-5 -21,-11 -29,-18l-139 -86c-7,71 5,134 35,179 -51,164 -85,343 -98,533 -5,74 -20,99 98,99l137 0c119,0 112,-7 118,-109 11,-185 37,-359 75,-519 68,-50 129,-124 171,-212 54,-115 62,-228 30,-307 91,-155 200,-267 319,-321 22,-1 45,-2 67,-2zm-997 2682c48,-40 120,-32 160,17 39,48 32,120 -17,160 -49,39 -121,32 -160,-17 -40,-49 -32,-121 17,-160zm1162 -1591c145,-117 327,-158 497,-128 121,22 157,56 26,149l-255 182c-126,90 -136,279 -35,403l0 0c100,125 287,154 401,50l229 -209c117,-107 145,-63 142,48 -4,174 -82,346 -228,464 -182,147 -421,174 -623,92 -56,-23 -81,-29 -128,9l-994 804c-95,77 -236,63 -313,-32l0 0c-77,-96 -62,-236 33,-313l991 -803c70,-57 49,-66 38,-128 -38,-214 38,-441 219,-588zm-1237 -973c48,14 59,79 25,146 -33,66 -99,109 -146,94 -48,-14 -59,-79 -26,-146 34,-66 100,-109 147,-94z"/>
 </g>
</svg>
