<svg width="113" height="76" viewBox="0 0 113 76" fill="none" xmlns="http://www.w3.org/2000/svg">
<path d="M81.7154 75C87.5502 75 93.146 72.6822 97.2718 68.5564L105.556 60.2721C107.599 58.2292 109.219 55.8039 110.325 53.1347C111.431 50.4656 112 47.6048 112 44.7157V31.2843C112 28.3952 111.431 25.5344 110.325 22.8653C109.219 20.1961 107.599 17.7708 105.556 15.7279L97.2718 7.44364C93.146 3.31784 87.5502 0.999994 81.7154 1H8.33302C7.41376 0.999999 6.50351 1.18105 5.65423 1.53283C4.80494 1.88461 4.03327 2.40024 3.38326 3.05025C2.73325 3.70026 2.21762 4.47193 1.86584 5.32122C1.51406 6.1705 1.333 7.08076 1.33301 8.00001V68C1.33301 68.9192 1.51408 69.8295 1.86586 70.6788C2.21765 71.5281 2.73325 72.2997 3.38326 72.9498C4.03327 73.5998 4.80495 74.1154 5.65423 74.4672C6.50351 74.819 7.41377 75 8.33302 75H81.7154Z" stroke="#035FEB" stroke-opacity="0.5" stroke-linecap="round" stroke-linejoin="round"/>
</svg>
