<svg width="109" height="72" viewBox="0 0 109 72" fill="none" xmlns="http://www.w3.org/2000/svg">
<path d="M79.3824 71C82.0089 71 84.6096 70.4827 87.0361 69.4776C89.4626 68.4725 91.6674 66.9993 93.5246 65.1422L101.809 56.8579C103.666 55.0007 105.139 52.7959 106.144 50.3694C107.149 47.9429 107.667 45.3422 107.667 42.7157V29.2843C107.667 23.98 105.56 18.8929 101.809 15.1421L93.5246 6.85786C91.6674 5.0007 89.4626 3.52751 87.0361 2.52242C84.6096 1.51734 82.0088 0.999992 79.3824 1H6.00002C5.34341 0.999999 4.69322 1.12932 4.0866 1.38059C3.47997 1.63187 2.92877 2.00019 2.46448 2.46448C2.00019 2.92877 1.63189 3.47999 1.38062 4.08662C1.12935 4.69325 0.999999 5.34341 1 6.00002V66C0.999999 66.6566 1.12935 67.3068 1.38062 67.9134C1.63189 68.5201 2.00019 69.0712 2.46448 69.5355C2.92877 69.9998 3.47997 70.3681 4.0866 70.6194C4.69322 70.8707 5.34341 71 6.00002 71H79.3824Z" fill="url(#paint0_linear_123_5350)" stroke="url(#paint1_linear_123_5350)" stroke-linecap="round" stroke-linejoin="round"/>
<defs>
<linearGradient id="paint0_linear_123_5350" x1="54.3334" y1="71" x2="54.3334" y2="1" gradientUnits="userSpaceOnUse">
<stop stop-color="#00C6FB"/>
<stop offset="1" stop-color="#005BEA"/>
</linearGradient>
<linearGradient id="paint1_linear_123_5350" x1="54.3334" y1="1" x2="54.3334" y2="71" gradientUnits="userSpaceOnUse">
<stop stop-color="#00C6FB"/>
<stop offset="1" stop-color="#005BEA"/>
</linearGradient>
</defs>
</svg>
    