<svg width="113" height="76" viewBox="0 0 113 76" fill="none" xmlns="http://www.w3.org/2000/svg">
<path d="M31.2843 75C25.4495 75 19.8537 72.6822 15.7279 68.5564L7.44365 60.2721C5.40076 58.2292 3.78025 55.8039 2.67465 53.1347C1.56904 50.4656 0.999997 47.6048 1 44.7157V31.2843C0.999997 28.3952 1.56904 25.5344 2.67465 22.8653C3.78025 20.1961 5.40076 17.7708 7.44365 15.7279L15.7279 7.44364C19.8537 3.31784 25.4495 0.999995 31.2843 1H104.667C105.586 1 106.496 1.18105 107.345 1.53283C108.195 1.88461 108.966 2.40024 109.616 3.05025C110.266 3.70026 110.782 4.47194 111.134 5.32122C111.486 6.1705 111.667 7.08076 111.667 8.00001L111.667 68C111.667 68.9192 111.486 69.8295 111.134 70.6788C110.782 71.5281 110.266 72.2997 109.616 72.9498C108.966 73.5998 108.195 74.1154 107.345 74.4672C106.496 74.819 105.586 75 104.667 75H31.2843Z" stroke="#035FEB" stroke-opacity="0.5" stroke-linecap="round" stroke-linejoin="round"/>
</svg>
    