<svg width="109" height="72" viewBox="0 0 109 72" fill="none" xmlns="http://www.w3.org/2000/svg">
<path d="M29.2843 71.0001C26.6578 71.0001 24.0571 70.4828 21.6306 69.4777C19.2041 68.4726 16.9993 66.9994 15.1421 65.1423L6.85786 56.858C5.00069 55.0008 3.5275 52.796 2.5224 50.3695C1.51731 47.943 0.999997 45.3423 1 42.7158V29.2844C1 26.658 1.51732 24.0572 2.52241 21.6307C3.52751 19.2042 5.00069 16.9994 6.85786 15.1423L15.1421 6.85799C18.8929 3.10727 23.9799 1.00011 29.2843 1.00012H102.667C103.323 1.00012 103.973 1.12949 104.58 1.38077C105.187 1.63204 105.738 2.00031 106.202 2.4646C106.667 2.9289 107.035 3.48011 107.286 4.08674C107.537 4.69337 107.667 5.34353 107.667 6.00014V66.0001C107.667 66.6567 107.537 67.3069 107.286 67.9136C107.035 68.5202 106.667 69.0714 106.202 69.5357C105.738 69.9999 105.187 70.3683 104.58 70.6195C103.973 70.8708 103.323 71.0001 102.667 71.0001H29.2843Z" fill="url(#paint0_linear_123_5344)" stroke="url(#paint1_linear_123_5344)" stroke-linecap="round" stroke-linejoin="round"/>
<defs>
<linearGradient id="paint0_linear_123_5344" x1="54.3333" y1="71.0001" x2="54.3333" y2="1.00012" gradientUnits="userSpaceOnUse">
<stop stop-color="#00C6FB"/>
<stop offset="1" stop-color="#005BEA"/>
</linearGradient>
<linearGradient id="paint1_linear_123_5344" x1="54.3333" y1="1.00012" x2="54.3333" y2="71.0001" gradientUnits="userSpaceOnUse">
<stop stop-color="#00C6FB"/>
<stop offset="1" stop-color="#005BEA"/>
</linearGradient>
</defs>
</svg>
    