<svg width="112" height="76" viewBox="0 0 112 76" fill="none" xmlns="http://www.w3.org/2000/svg">
<path d="M7.66699 75C5.81048 75 4.03 74.2625 2.71724 72.9498C1.40449 71.637 0.666991 69.8565 0.666992 68V7.99996C0.667002 6.14345 1.4045 4.363 2.71726 3.05025C4.03001 1.7375 5.81048 1 7.66699 1H104.334C105.253 1 106.163 1.18104 107.012 1.53283C107.862 1.88462 108.633 2.40024 109.283 3.05025C109.933 3.70026 110.449 4.47194 110.801 5.32122C111.153 6.1705 111.334 7.08076 111.334 8.00001V68C111.334 69.8565 110.596 71.637 109.283 72.9498C107.971 74.2625 106.19 75 104.334 75H7.66699Z" stroke="#EA0420" stroke-opacity="0.5" stroke-linecap="round" stroke-linejoin="round"/>
</svg>
    
    