<svg width="1073" height="318" viewBox="0 0 1073 318" fill="none" xmlns="http://www.w3.org/2000/svg">
<path d="M82.9701 317.35C75.7401 317.35 68.5901 315.43 62.2901 311.79C55.9901 308.15 50.7501 302.92 47.1401 296.66L0.130127 215.24L2.51013 213.86L49.5201 295.28C52.8901 301.12 57.7801 306.01 63.6701 309.4C69.5501 312.79 76.2301 314.59 82.9701 314.59H990.03C996.78 314.59 1003.45 312.8 1009.33 309.4C1015.21 306 1020.1 301.12 1023.47 295.28L1070.48 213.86L1072.86 215.23L1025.85 296.65C1022.24 302.91 1017 308.14 1010.7 311.78C1004.4 315.42 997.25 317.34 990.02 317.34H82.9701V317.35Z" fill="url(#paint0_linear_319_3)"/>
<path d="M1023.48 22.29C1020.11 16.45 1015.22 11.56 1009.33 8.16998C1003.45 4.77998 996.77 2.97998 990.03 2.97998H82.9701C76.2201 2.97998 69.5501 4.76998 63.6701 8.16998C57.7901 11.57 52.9001 16.45 49.5301 22.29L2.52014 103.71L0.140137 102.34L47.1501 20.92C50.7601 14.66 56.0001 9.42998 62.3001 5.78998C68.6001 2.14998 75.7501 0.22998 82.9801 0.22998H990.03C997.26 0.22998 1004.41 2.14998 1010.71 5.78998C1017.01 9.42998 1022.25 14.66 1025.86 20.92L1072.87 102.34L1070.49 103.72L1023.48 22.3V22.29Z" fill="url(#paint1_linear_319_3)"/>
<g filter="url(#filter0_d_319_3)">
<path d="M168.76 229.9C162.82 229.9 159.85 226.93 159.85 220.99V94.9402C159.85 89.0002 162.82 86.0303 168.76 86.0303H219.9C238.36 86.0303 251.96 90.4002 260.7 99.1302C269.43 107.87 273.8 121.46 273.8 139.93V176C273.8 194.46 269.47 208.06 260.8 216.8C252.13 225.54 238.5 229.9 219.9 229.9H168.76ZM177.67 212.07H219.9C228.95 212.07 236.11 210.96 241.39 208.73C246.66 206.5 250.41 202.75 252.64 197.48C254.87 192.21 255.98 185.05 255.98 175.99V139.92C255.98 130.94 254.87 123.81 252.64 118.54C250.41 113.27 246.66 109.5 241.39 107.24C236.12 104.98 228.96 103.84 219.9 103.84H177.67V212.06V212.07Z" fill="#F90021"/>
<path d="M321.75 229.9C315.81 229.9 312.84 226.93 312.84 220.99V94.9402C312.84 89.0002 315.81 86.0303 321.75 86.0303H397.93C403.87 86.0303 406.84 89.0002 406.84 94.9402C406.84 100.88 403.87 103.85 397.93 103.85H330.66V148.41H372.89C378.83 148.41 381.8 151.38 381.8 157.32C381.8 163.26 378.83 166.23 372.89 166.23H330.66V212.07H397.93C403.87 212.07 406.84 215.04 406.84 220.98C406.84 226.92 403.87 229.89 397.93 229.89H321.75V229.9Z" fill="#F90021"/>
<path d="M449.71 229.9C443.77 229.9 440.8 226.93 440.8 220.99V94.9402C440.8 89.0002 443.77 86.0303 449.71 86.0303H527.8C530.56 86.0303 532.73 86.8302 534.33 88.4202C535.93 90.0102 536.72 92.1903 536.72 94.9503C536.72 100.89 533.75 103.86 527.81 103.86H458.63V148.42H501.28C507.22 148.42 510.19 151.39 510.19 157.33C510.19 163.27 507.22 166.24 501.28 166.24H458.63V220.99C458.63 226.93 455.66 229.9 449.72 229.9H449.71Z" fill="#F90021"/>
<path d="M567.7 229.9C561.76 229.9 558.79 226.93 558.79 220.99V94.9402C558.79 89.0002 561.76 86.0303 567.7 86.0303H643.88C649.82 86.0303 652.79 89.0002 652.79 94.9402C652.79 100.88 649.82 103.85 643.88 103.85H576.61V148.41H618.84C624.78 148.41 627.75 151.38 627.75 157.32C627.75 163.26 624.78 166.23 618.84 166.23H576.61V212.07H643.88C649.82 212.07 652.79 215.04 652.79 220.98C652.79 226.92 649.82 229.89 643.88 229.89H567.7V229.9Z" fill="#F90021"/>
<path d="M679.95 229.05C674.29 226.86 672.59 222.97 674.86 217.38L725.36 93.0303C727.48 88.3603 730.81 86.0303 735.33 86.0303H735.75C740.35 86.2403 743.46 88.5803 745.09 93.0303L796.44 217.38C798.7 222.97 797.08 226.86 791.56 229.05C785.97 231.24 782.08 229.62 779.89 224.17L768.43 196.37H702.33L691.4 224.17C689.21 229.69 685.39 231.31 679.94 229.05H679.95ZM709.34 178.55H761.12L734.7 114.25L709.34 178.55Z" fill="#F90021"/>
<path d="M854.17 229.9C851.2 229.9 848.97 229.16 847.49 227.67C846.01 226.18 845.26 223.96 845.26 220.99V104.07H804.09C801.12 104.07 798.89 103.33 797.41 101.84C795.93 100.35 795.18 98.13 795.18 95.16C795.18 92.19 795.92 89.96 797.41 88.48C798.9 87 801.12 86.25 804.09 86.25H904.25C907.22 86.25 909.45 86.99 910.93 88.48C912.42 89.97 913.16 92.19 913.16 95.16C913.16 98.13 912.42 100.36 910.93 101.84C909.44 103.33 907.22 104.07 904.25 104.07H863.08V220.99C863.08 223.82 862.32 226.01 860.8 227.57C859.28 229.13 857.07 229.9 854.17 229.9Z" fill="#F90021"/>
</g>
<defs>
<filter id="filter0_d_319_3" x="99.8501" y="26.0303" width="873.31" height="264.007" filterUnits="userSpaceOnUse" color-interpolation-filters="sRGB">
<feFlood flood-opacity="0" result="BackgroundImageFix"/>
<feColorMatrix in="SourceAlpha" type="matrix" values="0 0 0 0 0 0 0 0 0 0 0 0 0 0 0 0 0 0 127 0" result="hardAlpha"/>
<feOffset/>
<feGaussianBlur stdDeviation="30"/>
<feColorMatrix type="matrix" values="0 0 0 0 0.94902 0 0 0 0 0 0 0 0 0 0 0 0 0 0.75 0"/>
<feBlend mode="normal" in2="BackgroundImageFix" result="effect1_dropShadow_319_3"/>
<feBlend mode="normal" in="SourceGraphic" in2="effect1_dropShadow_319_3" result="shape"/>
</filter>
<linearGradient id="paint0_linear_319_3" x1="536.5" y1="317.35" x2="536.5" y2="213.87" gradientUnits="userSpaceOnUse">
<stop stop-color="#F90021"/>
<stop offset="1" stop-color="#F90021" stop-opacity="0"/>
</linearGradient>
<linearGradient id="paint1_linear_319_3" x1="-25.9999" y1="0.22998" x2="-24.9999" y2="103.71" gradientUnits="userSpaceOnUse">
<stop stop-color="#F90021"/>
<stop offset="1" stop-color="#F90021" stop-opacity="0"/>
</linearGradient>
</defs>
</svg>
