<svg width="351" height="91" viewBox="0 0 351 91" fill="none" xmlns="http://www.w3.org/2000/svg">
<path d="M310.68 86.9036C307.867 88.5274 304.677 89.3822 301.43 89.3822H48.7501C45.5027 89.3822 42.3125 88.5274 39.5001 86.9037L10.8398 70.3566C8.02749 68.7329 5.69209 66.3975 4.06837 63.5851C2.44466 60.7728 1.58984 57.5826 1.58984 54.3351V37.4292C1.58984 34.1817 2.44465 30.9915 4.06837 28.1791C5.69208 25.3668 8.02748 23.0314 10.8398 21.4077L39.5001 4.86066C42.3125 3.23695 45.5027 2.38214 48.7501 2.38214H301.43C304.677 2.38214 307.867 3.23694 310.68 4.86066L339.34 21.4077C342.152 23.0314 344.488 25.3668 346.111 28.1791C347.735 30.9915 348.59 34.1817 348.59 37.4292V54.3351C348.59 57.5826 347.735 60.7728 346.111 63.5851C344.488 66.3975 342.152 68.7329 339.34 70.3566L310.68 86.9036Z" stroke="url(#paint0_linear_961_7)" stroke-width="3" stroke-linecap="round" stroke-linejoin="round"/>
<path d="M301.43 85.8821C304.063 85.8821 306.649 85.189 308.93 83.8725L337.59 67.3255C339.87 66.009 341.764 64.1154 343.08 61.8351C344.397 59.5548 345.09 56.9682 345.09 54.3351L345.09 37.4292C345.09 34.7961 344.397 32.2094 343.08 29.9291C341.764 27.6488 339.87 25.7553 337.59 24.4387L308.93 7.89172C306.649 6.57521 304.063 5.88213 301.43 5.88214H48.7501C46.117 5.88213 43.5304 6.57521 41.2501 7.89172L12.5898 24.4387C10.3095 25.7553 8.41597 27.6488 7.09945 29.9291C5.78292 32.2094 5.08983 34.7961 5.08984 37.4292V54.3351C5.08984 56.9682 5.78293 59.5548 7.09945 61.8351C8.41598 64.1154 10.3095 66.009 12.5898 67.3255L41.2501 83.8726C43.5304 85.1891 46.1171 85.8821 48.7501 85.8821H301.43Z" fill="url(#paint1_linear_961_7)" stroke="url(#paint2_linear_961_7)" stroke-linecap="round" stroke-linejoin="round"/>
<defs>
<linearGradient id="paint0_linear_961_7" x1="175.09" y1="0.882141" x2="175.09" y2="90.8822" gradientUnits="userSpaceOnUse">
<stop stop-color="#FF9900"/>
<stop offset="1" stop-color="#FEE140"/>
</linearGradient>
<linearGradient id="paint1_linear_961_7" x1="175.09" y1="5.88214" x2="175.09" y2="85.8821" gradientUnits="userSpaceOnUse">
<stop stop-color="#FF9900"/>
<stop offset="1" stop-color="#FEE140"/>
</linearGradient>
<linearGradient id="paint2_linear_961_7" x1="175.09" y1="85.8821" x2="175.09" y2="5.88214" gradientUnits="userSpaceOnUse">
<stop stop-color="#FF9900"/>
<stop offset="1" stop-color="#FEE140"/>
</linearGradient>
</defs>
</svg>
    
