<svg width="1125" height="619" viewBox="0 0 1125 619" fill="none" xmlns="http://www.w3.org/2000/svg" xmlns:xlink="http://www.w3.org/1999/xlink">
<rect x="-124.63" y="213.57" width="1374" height="405" fill="url(#pattern0)"/>
<path d="M108.97 467.92C101.74 467.92 94.5899 466 88.2899 462.36C81.9899 458.72 76.7499 453.49 73.1399 447.23L26.1299 365.81L28.5099 364.43L75.5199 445.85C78.8899 451.69 83.7799 456.58 89.6699 459.97C95.5499 463.36 102.23 465.16 108.97 465.16H1016.03C1022.78 465.16 1029.45 463.37 1035.33 459.97C1041.21 456.57 1046.1 451.69 1049.47 445.85L1096.48 364.43L1098.86 365.8L1051.85 447.22C1048.24 453.48 1043 458.71 1036.7 462.35C1030.4 465.99 1023.25 467.91 1016.02 467.91H108.97V467.92Z" fill="url(#paint0_linear_1401_2)"/>
<rect x="-124.63" y="0.569824" width="1374" height="404" fill="url(#pattern1)"/>
<path d="M1049.48 172.86C1046.11 167.02 1041.22 162.13 1035.33 158.74C1029.45 155.35 1022.77 153.55 1016.03 153.55H108.97C102.22 153.55 95.5499 155.34 89.6699 158.74C83.7899 162.14 78.8999 167.02 75.5299 172.86L28.5199 254.28L26.1399 252.91L73.1499 171.49C76.7599 165.23 81.9999 160 88.2999 156.36C94.5999 152.72 101.75 150.8 108.98 150.8H1016.03C1023.26 150.8 1030.41 152.72 1036.71 156.36C1043.01 160 1048.25 165.23 1051.86 171.49L1098.87 252.91L1096.49 254.29L1049.48 172.87V172.86Z" fill="url(#paint1_linear_1401_2)"/>
<g filter="url(#filter0_d_1401_2)">
<path d="M162.91 370.62C149.17 370.62 139.02 367.33 132.45 360.76C125.88 354.19 122.6 344.04 122.6 330.3V288.72C122.6 274.86 125.9 264.68 132.5 258.17C139.1 251.66 149.24 248.47 162.92 248.59H184.52C198.32 248.59 208.49 251.86 215.03 258.4C221.57 264.94 224.84 275.11 224.84 288.91V330.31C224.84 344.05 221.57 354.21 215.03 360.77C208.49 367.34 198.32 370.63 184.52 370.63H162.92L162.91 370.62ZM162.91 355.5H184.51C190.93 355.5 195.97 354.74 199.63 353.21C203.29 351.68 205.88 349.09 207.41 345.42C208.94 341.76 209.7 336.72 209.7 330.3V288.9C209.7 282.54 208.94 277.53 207.41 273.87C205.88 270.21 203.28 267.6 199.63 266.04C195.97 264.48 190.93 263.7 184.51 263.7H162.91C156.55 263.64 151.54 264.36 147.88 265.86C144.22 267.36 141.61 269.94 140.05 273.6C138.49 277.26 137.71 282.3 137.71 288.72V330.3C137.71 336.72 138.48 341.76 140.01 345.42C141.54 349.08 144.13 351.67 147.79 353.21C151.45 354.74 156.49 355.5 162.91 355.5Z" fill="#F9EB21"/>
<path d="M265.51 370.62C260.47 370.62 257.95 368.1 257.95 363.06V256.14C257.95 251.1 260.47 248.58 265.51 248.58H307.63C318.61 248.58 327.02 251.5 332.87 257.36C338.72 263.21 341.65 271.62 341.65 282.61V288.01C341.65 298.99 338.73 307.41 332.87 313.26C327.02 319.11 318.61 322.04 307.63 322.04H273.07V363.08C273.07 368.12 270.55 370.64 265.51 370.64V370.62ZM273.07 306.9H307.63C314.47 306.9 319.33 305.46 322.21 302.58C325.09 299.7 326.53 294.84 326.53 288V282.6C326.53 275.82 325.09 270.98 322.21 268.06C319.33 265.15 314.47 263.69 307.63 263.69H273.07V306.89V306.9Z" fill="#F9EB21"/>
<path d="M375.85 370.62C370.81 370.62 368.29 368.1 368.29 363.06V256.14C368.29 251.1 370.81 248.58 375.85 248.58H440.47C445.51 248.58 448.03 251.1 448.03 256.14C448.03 261.18 445.51 263.7 440.47 263.7H383.41V301.5H419.23C424.27 301.5 426.79 304.02 426.79 309.06C426.79 314.1 424.27 316.62 419.23 316.62H383.41V355.5H440.47C445.51 355.5 448.03 358.02 448.03 363.06C448.03 368.1 445.51 370.62 440.47 370.62H375.85Z" fill="#F9EB21"/>
<path d="M484.39 370.62C479.35 370.62 476.83 368.1 476.83 363.06V256.14C476.83 251.1 479.35 248.58 484.39 248.58C486.97 248.58 489.49 250.08 491.95 253.08L564.31 346.32H560.53V256.14C560.53 251.1 563.05 248.58 568.09 248.58C573.13 248.58 575.65 251.1 575.65 256.14V363.06C575.65 368.1 573.13 370.62 568.09 370.62C565.39 370.62 562.87 369.12 560.53 366.12L488.17 272.88H491.95V363.06C491.95 368.1 489.43 370.62 484.39 370.62Z" fill="#F9EB21"/>
<path d="M677.17 370.62C672.13 370.62 669.61 368.1 669.61 363.06V256.14C669.61 251.1 672.13 248.58 677.17 248.58H724.15C733.69 248.58 741.03 251.1 746.15 256.14C751.28 261.18 753.85 268.38 753.85 277.74V282.6C753.85 290.7 751.3 296.97 746.2 301.41C755.74 306.75 760.51 316.5 760.51 330.66V336.78C760.51 347.82 757.59 356.22 751.73 361.98C745.88 367.74 737.47 370.62 726.48 370.62H677.16H677.17ZM684.73 297H727.39C731.77 297 734.75 295.65 736.35 292.95C737.94 290.25 738.73 286.8 738.73 282.6V277.74C738.73 272.52 737.65 268.87 735.49 266.8C733.33 264.73 729.55 263.7 724.15 263.7H684.73V297ZM684.73 355.5H726.49C733.27 355.5 738.11 354.05 741.03 351.13C743.94 348.22 745.4 343.44 745.4 336.78V330.66C745.4 324 743.99 319.24 741.17 316.4C738.35 313.56 733.46 312.12 726.5 312.12H684.74V355.5H684.73Z" fill="#F9EB21"/>
<path d="M826.74 370.62C813 370.62 802.85 367.33 796.28 360.76C789.71 354.19 786.43 344.04 786.43 330.3V288.72C786.43 274.86 789.73 264.68 796.33 258.17C802.93 251.66 813.07 248.47 826.75 248.59H848.35C862.15 248.59 872.32 251.86 878.86 258.4C885.4 264.94 888.67 275.11 888.67 288.91V330.31C888.67 344.05 885.4 354.21 878.86 360.77C872.32 367.34 862.15 370.63 848.35 370.63H826.75L826.74 370.62ZM826.74 355.5H848.34C854.76 355.5 859.8 354.74 863.46 353.21C867.12 351.68 869.71 349.09 871.24 345.42C872.77 341.76 873.53 336.72 873.53 330.3V288.9C873.53 282.54 872.77 277.53 871.24 273.87C869.71 270.21 867.11 267.6 863.46 266.04C859.8 264.48 854.76 263.7 848.34 263.7H826.74C820.38 263.64 815.37 264.36 811.71 265.86C808.05 267.36 805.44 269.94 803.88 273.6C802.32 277.26 801.54 282.3 801.54 288.72V330.3C801.54 336.72 802.31 341.76 803.84 345.42C805.37 349.08 807.96 351.67 811.62 353.21C815.28 354.74 820.32 355.5 826.74 355.5Z" fill="#F9EB21"/>
<path d="M914.95 369C910.93 366.24 910.33 362.7 913.15 358.38L946.09 309.78L911.35 260.82C908.65 256.86 909.31 253.32 913.33 250.2C917.47 247.38 920.95 248.04 923.77 252.18L955.99 297.36L988.39 252.18C991.51 248.16 994.99 247.62 998.83 250.56C1002.91 253.56 1003.51 257.04 1000.63 261L965.17 310.32L999.19 358.2C1002.01 362.34 1001.35 365.94 997.21 369C993.07 371.82 989.59 371.16 986.77 367.02L955.45 322.92L925.57 367.2C922.81 371.1 919.27 371.7 914.95 369Z" fill="#F9EB21"/>
</g>
<defs>
<pattern id="pattern0" patternContentUnits="objectBoundingBox" width="1" height="1">
<use xlink:href="#image0_1401_2" transform="scale(0.000727802 0.00246305)"/>
</pattern>
<pattern id="pattern1" patternContentUnits="objectBoundingBox" width="1" height="1">
<use xlink:href="#image1_1401_2" transform="scale(0.000727802 0.00246914)"/>
</pattern>
<filter id="filter0_d_1401_2" x="22.6001" y="148.486" width="1079.82" height="322.228" filterUnits="userSpaceOnUse" color-interpolation-filters="sRGB">
<feFlood flood-opacity="0" result="BackgroundImageFix"/>
<feColorMatrix in="SourceAlpha" type="matrix" values="0 0 0 0 0 0 0 0 0 0 0 0 0 0 0 0 0 0 127 0" result="hardAlpha"/>
<feOffset/>
<feGaussianBlur stdDeviation="50"/>
<feColorMatrix type="matrix" values="0 0 0 0 1 0 0 0 0 0.807843 0 0 0 0 0 0 0 0 1 0"/>
<feBlend mode="normal" in2="BackgroundImageFix" result="effect1_dropShadow_1401_2"/>
<feBlend mode="normal" in="SourceGraphic" in2="effect1_dropShadow_1401_2" result="shape"/>
</filter>
<linearGradient id="paint0_linear_1401_2" x1="562.5" y1="467.92" x2="562.5" y2="364.44" gradientUnits="userSpaceOnUse">
<stop stop-color="#F9EB21"/>
<stop offset="1" stop-color="#F9EB21" stop-opacity="0"/>
</linearGradient>
<linearGradient id="paint1_linear_1401_2" x1="-0.000107396" y1="150.8" x2="0.999893" y2="254.28" gradientUnits="userSpaceOnUse">
<stop stop-color="#F9EB21"/>
<stop offset="1" stop-color="#F9EB21" stop-opacity="0"/>
</linearGradient>
</defs>
</svg>
