<svg width="350" height="91" viewBox="0 0 350 91" fill="none" xmlns="http://www.w3.org/2000/svg">
<path d="M310.59 86.9036C307.777 88.5274 304.587 89.3822 301.34 89.3822H48.6603C45.4128 89.3822 42.2226 88.5274 39.4103 86.9037L10.75 70.3566C7.93765 68.7329 5.60225 66.3975 3.97853 63.5851C2.35482 60.7728 1.5 57.5826 1.5 54.3351V37.4292C1.5 34.1817 2.35481 30.9915 3.97852 28.1791C5.60224 25.3668 7.93764 23.0314 10.75 21.4077L39.4103 4.86066C42.2226 3.23695 45.4128 2.38214 48.6602 2.38214H301.34C304.587 2.38214 307.777 3.23694 310.59 4.86066L339.25 21.4077C342.062 23.0314 344.398 25.3668 346.022 28.1791C347.645 30.9915 348.5 34.1817 348.5 37.4292V54.3351C348.5 57.5826 347.645 60.7728 346.022 63.5851C344.398 66.3975 342.062 68.7329 339.25 70.3566L310.59 86.9036Z" stroke="url(#paint0_linear_961_6)" stroke-width="3" stroke-linecap="round" stroke-linejoin="round"/>
<path d="M301.34 85.8821C303.973 85.8821 306.559 85.189 308.84 83.8725L337.5 67.3255C339.78 66.009 341.674 64.1154 342.99 61.8351C344.307 59.5548 345 56.9682 345 54.3351L345 37.4292C345 34.7961 344.307 32.2094 342.99 29.9291C341.674 27.6488 339.78 25.7553 337.5 24.4387L308.84 7.89172C306.559 6.57521 303.973 5.88213 301.34 5.88214H48.6602C46.0272 5.88213 43.4405 6.57521 41.1602 7.89172L12.5 24.4387C10.2197 25.7553 8.32613 27.6488 7.0096 29.9291C5.69308 32.2094 4.99999 34.7961 5 37.4292V54.3351C4.99999 56.9682 5.69309 59.5548 7.00961 61.8351C8.32613 64.1154 10.2197 66.009 12.5 67.3255L41.1603 83.8726C43.4406 85.1891 46.0272 85.8821 48.6603 85.8821H301.34Z" fill="url(#paint1_linear_961_6)" stroke="url(#paint2_linear_961_6)" stroke-linecap="round" stroke-linejoin="round"/>
<defs>
<linearGradient id="paint0_linear_961_6" x1="175" y1="90.8822" x2="175" y2="0.882141" gradientUnits="userSpaceOnUse">
<stop stop-color="#0250C5"/>
<stop offset="1" stop-color="#D43F8D"/>
</linearGradient>
<linearGradient id="paint1_linear_961_6" x1="175" y1="5.88214" x2="175" y2="85.8821" gradientUnits="userSpaceOnUse">
<stop stop-color="#0250C5"/>
<stop offset="1" stop-color="#D43F8D"/>
</linearGradient>
<linearGradient id="paint2_linear_961_6" x1="175" y1="5.88214" x2="175" y2="85.8821" gradientUnits="userSpaceOnUse">
<stop stop-color="#8EBBFF"/>
<stop offset="1" stop-color="#D43F8D"/>
</linearGradient>
</defs>
</svg>
