<svg width="410" height="700" viewBox="0 0 410 700" fill="none" xmlns="http://www.w3.org/2000/svg">
<path fill-rule="evenodd" clip-rule="evenodd" d="M2.67949 673.453C4.43485 676.493 6.95961 679.018 10 680.774L38.6603 697.321C41.7006 699.076 45.1495 700 48.6603 700H361.34C364.85 700 368.299 699.076 371.34 697.321L400 680.774C403.04 679.018 405.565 676.493 407.321 673.453C409.076 670.413 410 666.964 410 663.453V36.547C410 33.0363 409.076 29.5874 407.321 26.547C405.565 23.5066 403.04 20.9819 400 19.2265L371.34 2.6795C368.299 0.924131 364.85 5.38892e-06 361.34 7.62939e-06H48.6603C45.1495 7.62939e-06 41.7006 0.924132 38.6603 2.6795L10 19.2265C6.95962 20.9819 4.43486 23.5066 2.6795 26.547C0.924129 29.5874 2.55335e-06 33.0363 3.29237e-06 36.547V75L0 663.453C-5.22536e-06 666.964 0.924118 670.413 2.67949 673.453ZM7.00962 670.953C8.32615 673.233 10.2197 675.127 12.5 676.443L41.1603 692.99C43.4405 694.307 46.0272 695 48.6603 695H361.34C363.973 695 366.559 694.307 368.84 692.99L397.5 676.443C399.78 675.127 401.674 673.233 402.99 670.953C404.307 668.673 405 666.086 405 663.453V36.547C405 33.914 404.307 31.3273 402.99 29.047C401.674 26.7667 399.78 24.8732 397.5 23.5566L368.84 7.00963C366.559 5.69311 363.973 5.00002 361.34 5.00002H48.6603C46.0272 5.00001 43.4405 5.69311 41.1603 7.00963L12.5 23.5566C10.2197 24.8732 8.32615 26.7667 7.00962 29.047C5.6931 31.3273 5.00001 33.914 5.00001 36.547L5 663.453C5 666.086 5.6931 668.673 7.00962 670.953Z" fill="url(#paint0_linear_159_2714)"/>
<defs>
<linearGradient id="paint0_linear_159_2714" x1="205" y1="700" x2="205" y2="7.62939e-06" gradientUnits="userSpaceOnUse">
<stop stop-color="#0250C5"/>
<stop offset="1" stop-color="#D43F8D"/>
</linearGradient>
</defs>
</svg>
    