<svg width="88" height="97" viewBox="0 0 88 97" fill="none" xmlns="http://www.w3.org/2000/svg">
<path fill-rule="evenodd" clip-rule="evenodd" d="M87.1651 5.19341C87.3845 5.57346 87.5 6.00458 87.5 6.44342V90.2234C87.5 90.6622 87.3845 91.0933 87.1651 91.4734C86.9457 91.8534 86.6301 92.169 86.25 92.3884L79.4199 96.3318C79.0398 96.5512 78.6087 96.6667 78.1699 96.6667H9.33013C8.89129 96.6667 8.46018 96.5512 8.08013 96.3318L1.25 92.3884C0.869956 92.169 0.554363 91.8534 0.334942 91.4734C0.11552 91.0933 0 90.6622 0 90.2234L6.58465e-06 6.44342C7.16591e-06 6.00458 0.115521 5.57346 0.334942 5.19341C0.554362 4.81336 0.869957 4.49778 1.25 4.27836L8.08013 0.334979C8.46018 0.115555 8.89129 3.05176e-05 9.33014 3.05176e-05L78.1699 4.36869e-05C78.6087 4.10997e-05 79.0398 0.115557 79.4199 0.334979L86.25 4.27836C86.6301 4.49778 86.9457 4.81336 87.1651 5.19341ZM85.433 6.19344C85.4769 6.26945 85.5 6.35567 85.5 6.44344V60.2233C85.5 60.3111 85.4769 60.3973 85.433 60.4734C85.3892 60.5494 85.326 60.6125 85.25 60.6564L78.4199 64.5997C78.3439 64.6436 78.2577 64.6667 78.1699 64.6667L9.33013 64.6667C9.24236 64.6667 9.15614 64.6436 9.08013 64.5997L2.25 60.6564C2.17399 60.6125 2.11086 60.5494 2.06698 60.4734C2.02309 60.3973 1.99999 60.3111 2 60.2233V6.44344C2 6.35567 2.02311 6.26945 2.06699 6.19344C2.11088 6.11744 2.174 6.05431 2.25001 6.01043L9.08013 2.06705C9.15614 2.02317 9.24236 2.00007 9.33013 2.00007L78.1699 2.00006C78.2577 2.00006 78.3439 2.02317 78.4199 2.06705L85.25 6.01043C85.326 6.05431 85.3891 6.11744 85.433 6.19344Z" fill="url(#paint0_linear_159_2753)"/>
<defs>
<linearGradient id="paint0_linear_159_2753" x1="43.75" y1="96.6667" x2="43.75" y2="3.05176e-05" gradientUnits="userSpaceOnUse">
<stop stop-color="#0250C5"/>
<stop offset="1" stop-color="#D43F8D"/>
</linearGradient>
</defs>
</svg>
    