<svg width="1073" height="318" viewBox="0 0 1073 318" fill="none" xmlns="http://www.w3.org/2000/svg">
<path d="M82.9701 317.35C75.7401 317.35 68.5901 315.43 62.2901 311.79C55.9901 308.15 50.7501 302.92 47.1401 296.66L0.130127 215.24L2.51013 213.86L49.5201 295.28C52.8901 301.12 57.7801 306.01 63.6701 309.4C69.5501 312.79 76.2301 314.59 82.9701 314.59H990.03C996.78 314.59 1003.45 312.8 1009.33 309.4C1015.21 306 1020.1 301.12 1023.47 295.28L1070.48 213.86L1072.86 215.23L1025.85 296.65C1022.24 302.91 1017 308.14 1010.7 311.78C1004.4 315.42 997.25 317.34 990.02 317.34H82.9701V317.35Z" fill="url(#paint0_linear_319_2)"/>
<path d="M1023.48 22.29C1020.11 16.45 1015.22 11.56 1009.33 8.16998C1003.45 4.77998 996.77 2.97998 990.03 2.97998H82.9701C76.2201 2.97998 69.5501 4.76998 63.6701 8.16998C57.7901 11.57 52.9001 16.45 49.5301 22.29L2.52014 103.71L0.140137 102.34L47.1501 20.92C50.7601 14.66 56.0001 9.42998 62.3001 5.78998C68.6001 2.14998 75.7501 0.22998 82.9801 0.22998H990.03C997.26 0.22998 1004.41 2.14998 1010.71 5.78998C1017.01 9.42998 1022.25 14.66 1025.86 20.92L1072.87 102.34L1070.49 103.72L1023.48 22.3V22.29Z" fill="url(#paint1_linear_319_2)"/>
<g filter="url(#filter0_d_319_2)">
<path d="M162.01 229.9C158.33 229.9 155.43 227.57 153.31 222.9L100.9 98.76C99.8402 96.29 99.5602 94.08 100.05 92.13C100.54 90.18 102.17 88.5799 104.93 87.2999C110.73 84.3999 114.83 85.89 117.24 91.76L166.79 209.11H160.64L208.92 91.76C211.25 85.96 215.36 84.4799 221.23 87.2999C223.71 88.5699 225.24 90.18 225.85 92.13C226.45 94.08 226.26 96.29 225.27 98.76L172.43 222.9C170.24 227.57 167.05 229.9 162.88 229.9H162.03H162.01Z" fill="#F9EB21"/>
<path d="M262.16 229.9C259.12 229.9 256.87 229.18 255.42 227.73C253.97 226.28 253.25 224.03 253.25 220.99V95.1498C253.25 92.0398 253.97 89.7697 255.42 88.3597C256.87 86.9497 259.12 86.2397 262.16 86.2397C265.2 86.2397 267.54 86.9497 268.95 88.3597C270.36 89.7797 271.07 92.0398 271.07 95.1498V220.99C271.07 224.03 270.36 226.28 268.95 227.73C267.53 229.18 265.27 229.9 262.16 229.9Z" fill="#F9EB21"/>
<path d="M357.65 229.9C341.45 229.9 329.48 226.03 321.73 218.28C313.98 210.53 310.11 198.56 310.11 182.36V133.55C310.11 117.21 313.96 105.17 321.67 97.4201C329.38 89.6701 341.3 85.8701 357.43 86.0101H383.11C396.41 86.0101 406.56 88.75 413.56 94.23C420.56 99.71 424.63 108.36 425.76 120.17C426.18 123.14 425.62 125.41 424.06 126.96C422.5 128.52 420.24 129.29 417.27 129.29C411.89 129.29 408.78 126.32 407.93 120.38C407.22 113.87 404.98 109.49 401.19 107.22C397.4 104.96 391.38 103.82 383.1 103.82H357.42C349.92 103.75 344.03 104.6 339.75 106.37C335.47 108.14 332.43 111.2 330.63 115.55C328.83 119.9 327.92 125.89 327.92 133.53V182.34C327.92 189.91 328.82 195.85 330.63 200.17C332.44 204.49 335.49 207.54 339.81 209.35C344.12 211.15 350.07 212.06 357.64 212.06H383.1C391.38 212.06 397.41 210.91 401.19 208.61C404.97 206.31 407.22 201.94 407.93 195.51C408.78 189.57 411.89 186.6 417.27 186.6C420.24 186.6 422.5 187.38 424.06 188.93C425.61 190.49 426.18 192.75 425.76 195.72C424.63 207.6 420.56 216.27 413.56 221.72C406.56 227.17 396.41 229.89 383.11 229.89H357.65V229.9Z" fill="#F9EB21"/>
<path d="M505.98 229.9C503.01 229.9 500.78 229.16 499.3 227.67C497.82 226.18 497.07 223.96 497.07 220.99V104.07H455.9C452.93 104.07 450.7 103.33 449.22 101.84C447.74 100.35 446.99 98.13 446.99 95.16C446.99 92.19 447.73 89.96 449.22 88.48C450.71 87 452.93 86.25 455.9 86.25H556.06C559.03 86.25 561.26 86.99 562.74 88.48C564.23 89.97 564.97 92.19 564.97 95.16C564.97 98.13 564.23 100.36 562.74 101.84C561.25 103.33 559.03 104.07 556.06 104.07H514.89V220.99C514.89 223.82 514.13 226.01 512.61 227.57C511.09 229.13 508.88 229.9 505.98 229.9Z" fill="#F9EB21"/>
<path d="M627.15 229.9C610.95 229.9 598.98 226.03 591.23 218.28C583.48 210.53 579.61 198.56 579.61 182.36V133.34C579.61 117 583.5 104.99 591.28 97.3199C599.06 89.6499 611.01 85.8799 627.14 86.0199H652.6C668.87 86.0199 680.86 89.8799 688.57 97.5899C696.28 105.3 700.14 117.29 700.14 133.56V182.37C700.14 198.57 696.28 210.54 688.57 218.29C680.86 226.04 668.87 229.91 652.6 229.91H627.14L627.15 229.9ZM627.15 212.07H652.61C660.18 212.07 666.12 211.17 670.44 209.36C674.75 207.56 677.81 204.5 679.62 200.18C681.43 195.86 682.33 189.92 682.33 182.35V133.54C682.33 126.04 681.43 120.14 679.62 115.82C677.82 111.51 674.76 108.43 670.44 106.59C666.12 104.75 660.18 103.83 652.61 103.83H627.15C619.65 103.76 613.74 104.61 609.43 106.38C605.11 108.15 602.04 111.19 600.2 115.5C598.36 119.81 597.44 125.76 597.44 133.32V182.34C597.44 189.91 598.34 195.85 600.15 200.17C601.96 204.49 605.01 207.54 609.33 209.35C613.64 211.15 619.59 212.06 627.16 212.06L627.15 212.07Z" fill="#F9EB21"/>
<path d="M831.72 230.32C829.39 231.81 827.16 232.26 825.04 231.7C822.92 231.13 821.11 229.68 819.63 227.35L786.74 172.6H757.03V220.98C757.03 226.92 754.06 229.89 748.12 229.89C742.18 229.89 739.21 226.92 739.21 220.98V94.93C739.21 88.99 742.18 86.02 748.12 86.02H797.78C810.73 86.02 820.65 89.47 827.54 96.37C834.44 103.27 837.88 113.19 837.88 126.13V132.5C837.88 143.75 835.26 152.71 830.03 159.4C824.79 166.08 817.23 170.24 807.32 171.87L835.12 218.24C837.81 223.19 836.67 227.22 831.72 230.34V230.32ZM757.02 154.78H797.76C805.82 154.78 811.55 153.08 814.95 149.69C818.35 146.29 820.04 140.57 820.04 132.5V126.13C820.04 118.14 818.34 112.43 814.95 109C811.56 105.57 805.83 103.85 797.76 103.85H757.02V154.78Z" fill="#F9EB21"/>
<path d="M911.82 229.9C905.88 229.9 902.91 226.93 902.91 220.99V177.7L854.32 100.25C851.35 95.1597 852.27 90.9797 857.08 87.7297C862.17 84.6197 866.27 85.5397 869.39 90.4897L911.83 158.61L956.39 90.4897C957.88 88.1597 959.68 86.7597 961.8 86.2997C963.92 85.8397 966.15 86.4597 968.48 88.1597C973.64 91.3397 974.56 95.3697 971.24 100.26L920.74 177.71V221C920.74 226.94 917.77 229.91 911.83 229.91L911.82 229.9Z" fill="#F9EB21"/>
</g>
<defs>
<filter id="filter0_d_319_2" x="39.8167" y="25.8628" width="993.373" height="266.069" filterUnits="userSpaceOnUse" color-interpolation-filters="sRGB">
<feFlood flood-opacity="0" result="BackgroundImageFix"/>
<feColorMatrix in="SourceAlpha" type="matrix" values="0 0 0 0 0 0 0 0 0 0 0 0 0 0 0 0 0 0 127 0" result="hardAlpha"/>
<feOffset/>
<feGaussianBlur stdDeviation="30"/>
<feColorMatrix type="matrix" values="0 0 0 0 0.956863 0 0 0 0 0.956863 0 0 0 0 0 0 0 0 0.75 0"/>
<feBlend mode="normal" in2="BackgroundImageFix" result="effect1_dropShadow_319_2"/>
<feBlend mode="normal" in="SourceGraphic" in2="effect1_dropShadow_319_2" result="shape"/>
</filter>
<linearGradient id="paint0_linear_319_2" x1="536.5" y1="317.35" x2="536.5" y2="213.87" gradientUnits="userSpaceOnUse">
<stop stop-color="#F9EB21"/>
<stop offset="1" stop-color="#F9EB21" stop-opacity="0"/>
</linearGradient>
<linearGradient id="paint1_linear_319_2" x1="-25.9999" y1="0.22998" x2="-24.9999" y2="103.71" gradientUnits="userSpaceOnUse">
<stop stop-color="#F9EB21"/>
<stop offset="1" stop-color="#F9EB21" stop-opacity="0"/>
</linearGradient>
</defs>
</svg>
