<svg width="64" height="65" viewBox="0 0 64 65" fill="none" xmlns="http://www.w3.org/2000/svg">
<path d="M31.9997 60.7821C47.4339 60.7821 59.9457 48.2703 59.9457 32.8361C59.9457 17.402 47.4339 4.89014 31.9997 4.89014C16.5656 4.89014 4.05371 17.402 4.05371 32.8361C4.05371 48.2703 16.5656 60.7821 31.9997 60.7821Z" fill="black"/>
<path d="M32.0005 0.890137C25.6828 0.891126 19.5073 2.76534 14.2547 6.27588C9.00214 9.78642 4.90849 14.7753 2.49127 20.6123C0.074049 26.4493 -0.558144 32.8721 0.67462 39.0684C1.90738 45.2646 4.94976 50.9561 9.41705 55.4233C13.8843 59.8906 19.576 62.9333 25.7723 64.166C31.9685 65.3988 38.3911 64.7663 44.2281 62.3491C50.0651 59.9319 55.0542 55.8385 58.5648 50.5859C62.0753 45.3334 63.9495 39.1575 63.9505 32.8398C63.9418 24.3689 60.573 16.2477 54.5831 10.2578C48.5932 4.26792 40.4715 0.898873 32.0005 0.890137ZM32.0005 60.7798C26.4735 60.7788 21.0709 59.1393 16.4759 56.0679C11.8809 52.9964 8.30003 48.6311 6.18585 43.5244C4.07167 38.4178 3.51921 32.799 4.59845 27.3784C5.67768 21.9578 8.34021 16.9788 12.2491 13.0713C16.158 9.16381 21.1377 6.50308 26.5587 5.42578C31.9796 4.34849 37.5983 4.90304 42.7042 7.01904C47.8101 9.13505 52.1739 12.7179 55.2437 17.314C58.3135 21.91 59.9515 27.3128 59.9505 32.8398C59.9481 40.251 57.0025 47.3581 51.761 52.5977C46.5196 57.8372 39.4117 60.7801 32.0005 60.7798Z" fill="url(#paint0_linear_511_38)"/>
<path d="M32.0006 4.89014C26.474 4.89113 21.0719 6.53055 16.4771 9.60156C11.8824 12.6726 8.30132 17.037 6.18685 22.1431C4.07238 27.2491 3.51931 32.8678 4.59774 38.2881C5.67616 43.7084 8.33757 48.6873 12.2454 52.5952C16.1533 56.5031 21.1322 59.1643 26.5526 60.2427C31.9729 61.3211 37.5913 60.7683 42.6973 58.6538C47.8034 56.5393 52.1678 52.9585 55.2388 48.3638C58.3099 43.769 59.9495 38.3664 59.9505 32.8398C59.95 25.4272 57.005 18.3187 51.7635 13.0771C46.522 7.83562 39.4132 4.89067 32.0006 4.89014ZM32.0006 56.7798C27.2647 56.7788 22.6355 55.3736 18.6983 52.7417C14.7611 50.1098 11.6929 46.3694 9.88143 41.9937C8.07 37.6179 7.59667 32.8034 8.52157 28.1587C9.44646 23.514 11.728 19.248 15.0775 15.8999C18.4269 12.5518 22.6939 10.2721 27.3389 9.34912C31.984 8.42617 36.7987 8.90159 41.1737 10.7148C45.5487 12.5281 49.2875 15.5978 51.9178 19.5361C54.5481 23.4744 55.9515 28.104 55.9505 32.8398C55.941 39.1879 53.4144 45.2734 48.9246 49.7612C44.4349 54.2491 38.3487 56.7729 32.0006 56.7798Z" fill="url(#paint1_linear_511_38)"/>
<defs>
<linearGradient id="paint0_linear_511_38" x1="32.0055" y1="0.890137" x2="32.0055" y2="64.78" gradientUnits="userSpaceOnUse">
<stop stop-color="#383838"/>
<stop offset="1" stop-color="#141414"/>
</linearGradient>
<linearGradient id="paint1_linear_511_38" x1="32.0055" y1="60.7799" x2="32.0055" y2="4.89014" gradientUnits="userSpaceOnUse">
<stop stop-color="#383838"/>
<stop offset="1" stop-color="#141414"/>
</linearGradient>
</defs>
</svg>
