<svg width="39" height="38" viewBox="0 0 39 38" fill="none" xmlns="http://www.w3.org/2000/svg">
<path d="M19.3321 0C15.5743 0 11.9007 1.1144 8.7762 3.20215C5.65166 5.2899 3.21646 8.25721 1.7784 11.729C0.34033 15.2008 -0.0360229 19.0211 0.697096 22.7068C1.43022 26.3924 3.23985 29.7779 5.89705 32.4351C8.55424 35.0923 11.9397 36.9019 15.6253 37.635C19.311 38.3681 23.1313 37.9918 26.6031 36.5537C30.0749 35.1156 33.0422 32.6804 35.13 29.5559C37.2177 26.4314 38.3321 22.7578 38.3321 19C38.3258 13.9628 36.3219 9.13384 32.7601 5.57202C29.1983 2.01021 24.3693 0.00635071 19.3321 0ZM19.3321 34C16.3654 34 13.4653 33.1201 10.9986 31.4719C8.53187 29.8237 6.60927 27.4811 5.47395 24.7402C4.33864 21.9993 4.04141 18.9834 4.62019 16.0737C5.19897 13.164 6.62763 10.4911 8.72542 8.39331C10.8232 6.29552 13.4961 4.86711 16.4058 4.28833C19.3156 3.70955 22.3314 4.00653 25.0723 5.14185C27.8132 6.27716 30.1558 8.19977 31.804 10.6665C33.4523 13.1332 34.3321 16.0333 34.3321 19C34.333 20.9701 33.9457 22.9212 33.1922 24.7415C32.4387 26.5618 31.3338 28.2156 29.9407 29.6086C28.5477 31.0017 26.8936 32.1066 25.0733 32.8601C23.253 33.6136 21.3022 34.0009 19.3321 34Z" fill="url(#paint0_linear_511_13)"/>
<path d="M19.3318 30.7791C25.8388 30.7791 31.1138 25.5041 31.1138 18.9971C31.1138 12.4901 25.8388 7.21509 19.3318 7.21509C12.8248 7.21509 7.5498 12.4901 7.5498 18.9971C7.5498 25.5041 12.8248 30.7791 19.3318 30.7791Z" fill="url(#paint1_radial_511_13)"/>
<path d="M24.1128 14.2151L14.5498 23.7781" stroke="#1A1A1A" stroke-width="2" stroke-miterlimit="10"/>
<path d="M24.1128 23.7781L14.5498 14.2151" stroke="#1A1A1A" stroke-width="2" stroke-miterlimit="10"/>
<path d="M19.3321 4C16.3654 4 13.4654 4.87986 10.9986 6.52808C8.53189 8.1763 6.60929 10.5189 5.47397 13.2598C4.33866 16.0007 4.04144 19.0166 4.62021 21.9263C5.19899 24.836 6.62765 27.5089 8.72544 29.6067C10.8232 31.7045 13.4961 33.1329 16.4059 33.7117C19.3156 34.2904 22.3315 33.9935 25.0724 32.8582C27.8133 31.7228 30.1558 29.8002 31.8041 27.3335C33.4523 24.8668 34.3321 21.9667 34.3321 19C34.3321 15.0218 32.7519 11.2064 29.9388 8.39331C27.1258 5.58026 23.3104 4 19.3321 4ZM19.3321 30C17.1565 30 15.0297 29.3549 13.2208 28.1462C11.4119 26.9375 10.0021 25.2195 9.16953 23.2095C8.33697 21.1995 8.11912 18.9878 8.54355 16.854C8.96799 14.7202 10.0154 12.7603 11.5538 11.2219C13.0922 9.68355 15.0523 8.63586 17.1861 8.21143C19.3199 7.78699 21.5316 8.00484 23.5416 8.8374C25.5516 9.66997 27.2697 11.0797 28.4784 12.8887C29.6871 14.6976 30.3321 16.8244 30.3321 19C30.3303 21.9168 29.1707 24.7136 27.1083 26.7761C25.0458 28.8386 22.2489 29.9981 19.3321 30Z" fill="url(#paint2_linear_511_13)"/>
<defs>
<linearGradient id="paint0_linear_511_13" x1="19.3321" y1="0" x2="19.3321" y2="38.0001" gradientUnits="userSpaceOnUse">
<stop stop-color="#00BDFF"/>
<stop offset="1" stop-color="#003DD2"/>
</linearGradient>
<radialGradient id="paint1_radial_511_13" cx="0" cy="0" r="1" gradientUnits="userSpaceOnUse" gradientTransform="translate(19.3318 18.9971) scale(11.782)">
<stop offset="0.354" stop-color="#FF7700"/>
<stop offset="0.493" stop-color="#FD7301"/>
<stop offset="0.605" stop-color="#FA6905"/>
<stop offset="0.708" stop-color="#F5580B"/>
<stop offset="0.804" stop-color="#ED4115"/>
<stop offset="0.896" stop-color="#E32221"/>
<stop offset="0.901" stop-color="#E32122"/>
</radialGradient>
<linearGradient id="paint2_linear_511_13" x1="19.3321" y1="33.9999" x2="19.3321" y2="4" gradientUnits="userSpaceOnUse">
<stop stop-color="#00BDFF"/>
<stop offset="1" stop-color="#003DD2"/>
</linearGradient>
</defs>
</svg>
