<svg width="39" height="38" viewBox="0 0 39 38" fill="none" xmlns="http://www.w3.org/2000/svg">
<path d="M19.3321 0C15.5743 0 11.9007 1.1144 8.7762 3.20215C5.65166 5.2899 3.21646 8.25721 1.7784 11.729C0.34033 15.2008 -0.0360229 19.0211 0.697096 22.7068C1.43022 26.3924 3.23985 29.7779 5.89705 32.4351C8.55424 35.0923 11.9397 36.9019 15.6253 37.635C19.311 38.3681 23.1313 37.9918 26.6031 36.5537C30.0749 35.1156 33.0422 32.6804 35.13 29.5559C37.2177 26.4314 38.3321 22.7578 38.3321 19C38.3258 13.9628 36.3219 9.13384 32.7601 5.57202C29.1983 2.01021 24.3693 0.00635071 19.3321 0ZM19.3321 34C16.3654 34 13.4652 33.1201 10.9985 31.4719C8.53175 29.8237 6.60914 27.4811 5.47383 24.7402C4.33852 21.9993 4.04154 18.9834 4.62031 16.0737C5.19909 13.164 6.62763 10.4911 8.72542 8.39331C10.8232 6.29552 13.496 4.86711 16.4057 4.28833C19.3154 3.70955 22.3314 4.00653 25.0723 5.14185C27.8132 6.27716 30.1559 8.19977 31.8042 10.6665C33.4524 13.1332 34.3321 16.0333 34.3321 19C34.333 20.9701 33.9456 22.9212 33.1921 24.7415C32.4386 26.5618 31.3338 28.2156 29.9407 29.6086C28.5477 31.0017 26.8937 32.1066 25.0734 32.8601C23.2531 33.6136 21.3022 34.0009 19.3321 34Z" fill="url(#paint0_linear_510_12)"/>
<path d="M19.3299 30.782C25.8369 30.782 31.1119 25.507 31.1119 19C31.1119 12.493 25.8369 7.21802 19.3299 7.21802C12.8228 7.21802 7.54785 12.493 7.54785 19C7.54785 25.507 12.8228 30.782 19.3299 30.782Z" fill="url(#paint1_radial_510_12)"/>
<path d="M19.3321 4C16.3653 4 13.4652 4.87986 10.9985 6.52808C8.53171 8.1763 6.60911 10.5189 5.47379 13.2598C4.33848 16.0007 4.0415 19.0166 4.62028 21.9263C5.19906 24.836 6.62759 27.5089 8.72538 29.6067C10.8232 31.7045 13.496 33.1329 16.4057 33.7117C19.3154 34.2904 22.3314 33.9935 25.0723 32.8582C27.8132 31.7228 30.1559 29.8002 31.8041 27.3335C33.4523 24.8668 34.3321 21.9667 34.3321 19C34.3321 15.0218 32.7517 11.2064 29.9386 8.39331C27.1256 5.58026 23.3103 4 19.3321 4ZM19.3321 30C17.1565 30 15.0297 29.3549 13.2207 28.1462C11.4118 26.9375 10.0019 25.2195 9.16935 23.2095C8.33679 21.1995 8.11894 18.9878 8.54337 16.854C8.96781 14.7202 10.0155 12.7603 11.5539 11.2219C13.0922 9.68355 15.0523 8.63586 17.1861 8.21143C19.3199 7.78699 21.5316 8.00484 23.5415 8.8374C25.5515 9.66997 27.2695 11.0797 28.4782 12.8887C29.6869 14.6976 30.3321 16.8244 30.3321 19C30.3302 21.9168 29.1707 24.7136 27.1082 26.7761C25.0457 28.8386 22.2489 29.9981 19.3321 30Z" fill="url(#paint2_linear_510_12)"/>
<path d="M24.1109 14.218L14.5479 23.781" stroke="#1A1A1A" stroke-width="2" stroke-miterlimit="10"/>
<path d="M24.1109 23.781L14.5479 14.218" stroke="#1A1A1A" stroke-width="2" stroke-miterlimit="10"/>
<defs>
<linearGradient id="paint0_linear_510_12" x1="19.3321" y1="0" x2="19.3321" y2="38.0001" gradientUnits="userSpaceOnUse">
<stop stop-color="#AF15FF"/>
<stop offset="1" stop-color="#3D217F"/>
</linearGradient>
<radialGradient id="paint1_radial_510_12" cx="0" cy="0" r="1" gradientUnits="userSpaceOnUse" gradientTransform="translate(19.3299 19) scale(11.782)">
<stop offset="0.354" stop-color="#FF7700"/>
<stop offset="0.493" stop-color="#FD7301"/>
<stop offset="0.605" stop-color="#FA6905"/>
<stop offset="0.708" stop-color="#F5580B"/>
<stop offset="0.804" stop-color="#ED4115"/>
<stop offset="0.896" stop-color="#E32221"/>
<stop offset="0.901" stop-color="#E32122"/>
</radialGradient>
<linearGradient id="paint2_linear_510_12" x1="19.3321" y1="33.9999" x2="19.3321" y2="4" gradientUnits="userSpaceOnUse">
<stop stop-color="#AF15FF"/>
<stop offset="1" stop-color="#3D217F"/>
</linearGradient>
</defs>
</svg>
