<svg width="392" height="392" viewBox="0 0 392 392" fill="none" xmlns="http://www.w3.org/2000/svg">
<path d="M316.5 42.68C281.813 15.4145 238.905 0.717162 194.785 0.988555C150.666 1.25995 107.942 16.4842 73.5929 44.1743C39.2437 71.8645 15.2992 110.384 5.67055 153.441C-3.95808 196.498 1.29823 241.547 20.5809 281.231C39.8637 320.914 72.0329 352.887 111.834 371.925C151.636 390.963 196.717 395.942 239.714 386.049C282.711 376.156 321.082 351.975 348.56 317.456C376.039 282.937 391 240.12 391 196C391.149 166.446 384.509 137.253 371.592 110.67C358.676 84.0878 339.827 60.8265 316.5 42.68ZM313.41 345.39C279.612 371.957 237.804 386.278 194.815 386.013C151.826 385.749 110.197 370.915 76.7282 343.935C43.2592 316.955 19.9281 279.422 10.5462 237.469C1.16418 195.516 6.28564 151.62 25.0741 112.954C43.8626 74.2873 75.2075 43.1344 113.989 24.584C152.77 6.03359 196.696 1.18211 238.591 10.8218C280.486 20.4615 317.874 44.0228 344.648 77.657C371.422 111.291 386 153.01 386 196C386.059 224.782 379.552 253.198 366.973 279.086C354.394 304.973 336.075 327.65 313.41 345.39Z" fill="url(#paint0_linear_511_14)"/>
<path d="M313.41 46.61C279.612 20.0432 237.804 5.72223 194.815 5.9865C151.826 6.25078 110.197 21.0845 76.7283 48.0649C43.2593 75.0452 19.9283 112.577 10.5463 154.531C1.1643 196.484 6.28577 240.379 25.0742 279.046C43.8627 317.713 75.2077 348.866 113.989 367.416C152.77 385.966 196.696 390.818 238.591 381.178C280.486 371.538 317.874 347.977 344.648 314.343C371.422 280.709 386 238.99 386 196C386.059 167.218 379.552 138.802 366.973 112.914C354.394 87.0266 336.075 64.3501 313.41 46.61ZM310.32 341.46C277.411 367.328 236.702 381.272 194.844 381.015C152.986 380.758 112.452 366.315 79.8635 340.044C47.2748 313.774 24.5572 277.229 15.4219 236.379C6.28657 195.529 11.2733 152.788 29.5675 115.138C47.8617 77.4887 78.3822 47.1553 116.144 29.0927C153.905 11.0301 196.675 6.30619 237.468 15.6923C278.261 25.0784 314.666 48.0199 340.736 80.7695C366.806 113.519 381 154.141 381 196C381.143 224.039 374.844 251.736 362.59 276.956C350.335 302.176 332.453 324.245 310.32 341.46Z" fill="url(#paint1_linear_511_14)"/>
<defs>
<linearGradient id="paint0_linear_511_14" x1="195.986" y1="0.984863" x2="195.986" y2="391.015" gradientUnits="userSpaceOnUse">
<stop stop-color="#00BDFF"/>
<stop offset="1" stop-color="#003DD2"/>
</linearGradient>
<linearGradient id="paint1_linear_511_14" x1="195.983" y1="386.017" x2="195.983" y2="5.98291" gradientUnits="userSpaceOnUse">
<stop stop-color="#00BDFF"/>
<stop offset="1" stop-color="#003DD2"/>
</linearGradient>
</defs>
</svg>
